<?xml version="1.0" encoding="UTF-8"?>
<svg id="Layer_1" xmlns="http://www.w3.org/2000/svg" version="1.1" viewBox="0 0 1024 768">
  <!-- Generator: Adobe Illustrator 29.5.1, SVG Export Plug-In . SVG Version: 2.1.0 Build 141)  -->
  <defs>
    <style>
      .st0 {
        fill: #000e21;
      }

      .st1 {
        fill: #fed368;
      }

      .st2 {
        fill: #101622;
      }

      .st3 {
        fill: #fcad32;
      }

      .st4 {
        fill: #061e41;
      }

      .st5 {
        fill: #121f32;
      }

      .st6 {
        fill: #2c2322;
      }

      .st7 {
        fill: #feb44f;
      }

      .st8 {
        fill: #201d20;
      }

      .st9 {
        fill: #00132d;
      }

      .st10 {
        fill: #162740;
      }

      .st11 {
        fill: #0d1624;
      }
    </style>
  </defs>
  <path class="st11" d="M.5,655.8c8.4.5,16.9,1.2,25.2,2,10.5,1,20.9,2.5,31.4,3.3,5.7.4,11.7-.2,17.6-.4,4.8-.2,9.7-.6,14.5-.7,16.6-.4,32.9-.8,49.5-1.2,7.7-.2,15.2-.2,22.9-.4,15-.5,30.1-1.1,45.1-1.5h14c3.2,0,5.3-.4,6.2-2.4.7-1.4,1.7-2.8,2.5-4.2-.5,0-.8-.2-1.3-.3-1.2,1.3-2.3,2.7-3.8,4.5-2.2-1.5-4.3-2.6-6.2-4-8.2-6.6-16.4-13.2-24.6-19.8-.7-.5-1-1.2-1.3-1.9,8.7,0,17.1,0,25.6.3,11.5.5,22.9,1.3,34.3,2.2,9,.7,17.9,1.7,26.9,2.5,1.3,0,2.8-.2,4.3-.2.2,4.4.5,8.7.7,12.9-6-.4-9-2.9-10.5-8.5h-.3c-.3.3-.7.5-1,.8-3.8,4-6.5,8.2-7.4,12.8-1.7,9.5,2.5,17.7,14.9,24,.7.3,1,.8,1.2,1.2-4.2-.2-7.9-.3-11.7-.6-4.8-.3-9.7-.8-14.5-1-5.3-.2-9,1.3-10.7,4.3-1.7,2.7-1.2,5.2,2.3,7.4.5.3.8.7,1.3,1.2-.5.2-.7.3-1,.4-5.2,2.2-6.9,5.4-4.3,8.4,2.2,2.6,7.5,3.5,13.4,2.6,14.4-2.3,28.8-4.5,43.1-6.7,1.5-.2,3.3-.5,4.8-.2,14.9,2.3,29.8,4.7,44.6,7.1,4.2.7,8.2-.2,10.5-2.1,2.8-2.3,3.2-5.5.3-8-1.3-1.2-3-2.2-4.3-3.2,1-1.3,2.3-2.4,3-3.7,2.5-4.8-3.2-8.9-11.5-8.2-4.3.4-8.7,1-13,1.6-1.8.3-3,.2-3.5-1,14-7.7,17.7-17.2,14-27.9-1.2-3.4-3.5-6.7-5.2-10.1,3,.5,5.7,1.4,8.4,1.5,13.5.5,27.1.9,40.6,1.3-.3,1-.5,2.1-.8,3.1,0,.5-.5.9-.3,1.4,2.5,6.4.7,12.8,1.2,19.2v1.8c-.3,1.6,1,2.1,3.5,2.1h11c2.8,0,3.5-.7,3.5-2.2,0-5.2-.3-10.5,0-15.7,0-2.4.5-5.2,2.5-7.2,2.2-2.1,6.4-3.4,10.2-5.1,6.9-.3,13.4-.7,19.7-.8,11.9-.2,23.7-.3,35.4-.4,0,3.7,0,7.5.2,11.2v4c0,2,.3,4,.3,6v6.4c0,1.2.5,1.9,2.7,2,3.7,0,7.5.3,11.2.2.7,0,1.8-1.2,2-1.8.2-3.1,0-6.2.2-9.4.2-1.9.7-4,2.3-5.5,1.5-1.4,4.8-2.2,7.7-2.9.8-.2,2.5.5,3.7,1,13.9,5.3,27.6,10.6,41.5,15.9,9.9,3.8,19.9,7.5,29.8,11.3.8.3,1.5,1.3,1.7,1.9.2,2,0,4,0,6s.7,1.9,3,1.9h14.7c2.2,0,3-.5,3-1.8v-10c0-.8.5-1.8,1.3-2.3,2.7-1.7,2.8-2.9,1-5-.8-1-1.7-2.2-1.7-3.3,0-7.4,0-14.9.2-22.5,11.9,0,23.4.3,34.9.6,4.3,3.7,8.7,7.5,13,11.2.5.4,1.2.9,1.2,1.4.7,4.4,1.3,8.7,1.7,13.1.3,3.4,0,3.4,5.9,3.4h8.4c2.2,0,3.5-.8,3.2-2.2-.2-1.2-.3-2.4-.5-3.6,0-2.4-1-4.7,1.3-7,.7-.6.8-1.8.3-2.5-2.8-3.4-1.5-7-1.7-10.6,0-.9,0-1.9.3-3,19.9-.2,39.5-.2,59-.2s4,.3,5.9.5c-.3.6-.3,1.1-.8,1.5-8.2,6.9-16.6,13.8-24.9,20.7-.7.5-1.8.8-2.7,1.3-1.3-1.5-2.3-2.7-3.5-3.9l-1.3.3c.7,1.4,1.3,2.7,1.8,4.1.8,2.1,3.2,3,6.9,3s7.7.3,11.5.4c16,.6,32.3,1.4,48.3,1.9,10.2.4,20.6.6,30.9.8,11.5.3,23.1.5,34.4.8,8.9.2,17.7.5,26.6.8,5.3.2,10.5.6,15.9.7,5.2.2,10.5.6,15.5.2,7.4-.6,14.5-1.9,21.7-2.7,10.7-1.3,21.2-2.8,31.9-3.7,12.2-1,24.4-1.4,36.6-2.1,5-.3,9.7-3.5,9.2-7-2,1.6-3.5,2.8-5.2,4.2-.8-.6-1.5-1-2-1.4-5-3.9-10.2-7.9-15.2-11.8-1.3-1.1-2.3-2.4-3.3-3.6,2.8-.2,5.5-.3,8.2-.3,11.4-.3,22.7-.4,34.1-.8,5.9-.2,11.7-.8,17.4-1.2v126.7H0v-113.3M790.8,713.4c8.7-.8,17.6-2,26.2-2.2,9.2-.3,15.5-5.2,13.9-10.6-1.5-4.9-6-9.1-15.7-8.2-11.2,1-22.4,2-33.4,3-3.8.3-4.2.3-4.5-2-.8-4-4.2-6.9-9-7.3-7.5-.6-14.9-1.1-22.4-1.7-12.9-.9-25.7-1.8-38.6-2.7-4.5-.3-8,.6-9.7,3.1-1.2,2.1-1.8,4.3-2.2,6.6-.3,2,1.5,3.3,4.8,3.7,8,1,16,1.9,24.1,3,2.2.3,4.3.7,6.5,1.1-.5.6-1,.7-1.3.8-7.5.6-14.9,1.1-22.4,1.7-4.7.4-8.2,1.7-9.9,4.6-1.5,2.6-1.8,5.3-.3,7.8,2.7,4.2,6.9,7.3,14.9,6.6,8.9-.8,17.7-1.5,26.6-2.3,17.2-1.6,34.6-3.2,52.5-4.8M186.9,685.7c-.7-1.9-1.2-3.9-2.3-5.8-2.3-3.7-8.4-6.5-13-6.2-10.9.7-21.7,1.6-32.6,2.3-14.7,1-29.4,2.1-44.1,3.1-12.5.9-25.1,1.6-37.6,2.5-9.4.7-18.9,1.5-28.3,2.3-12.5,1.1-16.9,3.5-17.6,11.8-.2,2.8,1.7,5.7,3.2,8.4,2,3.5,7.4,5.5,13.4,5.1,4.2-.2,8.4-.6,12.5-1,9.7-.8,19.2-1.7,28.9-2.6,17.7-1.6,35.4-3,53.2-4.7,17.2-1.6,34.6-3.3,51.8-5,4.8-.5,8.7-1.7,10.2-4.7.8-1.8,1.5-3.7,2.3-5.9v.4h0Z"/>
  <path class="st10" d="M1023.7,642.3c-5.9.6-11.5,1.2-17.4,1.4-11.4.4-22.7.6-34.1.8-2.7,0-5.3.2-8.4.2-1-.4-1.7-.7-2.2-1.2-12.7-11.9-25.6-23.7-38.1-35.7-7.5-7.2-14-14.7-21.2-22-.7-.7-2.5-1.3-3.8-1.4-7-.3-14.2-.3-21.2-.5-7.2-.2-14.4-.4-21.6-.9-19.6-1.2-38.8-3.3-57.8-6.2-2.5-.4-3.7,0-4.8,1.4-5,5.9-10.2,11.8-15.4,17.7-11.9,13.8-25.2,26.9-40,39.7-1.8,1.6-4.2,3-6.4,4.6-2,0-4-.4-5.9-.4h-59c-.3-11-.3-22-.3-33.1s.5-2.7,3.7-3c3.8-.4,6.7-2.8,7-5.2.2-2.3-2.5-4.9-6-5.7-.7,0-1.5,0-1.8-.4-.8-.4-1.8-1-1.8-1.5s1.3-1.1,2.2-1.3c13-1.9,26.2-3.2,39.1-5.6,13-2.4,25.9-5.3,38.1-8.8,19.7-5.8,38.6-12.5,58-18.5,17.7-5.6,35.6-11.2,55.2-14.4,16.9-2.7,33.8-3.1,51-1.6,18.1,1.6,35.1,5.2,52.2,8.6,19.9,4,40,7.7,60.9,10,.3,27.6.3,55.3.3,83.1h-.5Z"/>
  <path class="st10" d="M.5,539.5c5.3-.5,10.5-.8,15.9-1,9.2-.2,18.4.6,27.3,1.9,15.2,2.2,29.6,5.6,43.6,9.6,16.6,4.7,32.9,9.5,50.7,12.7,10,1.8,20.1,3.3,30.6,3.4,2,0,3.2.3,3.2,1.7v43.6s-.2.2-.7.7c-5.3-5-10.5-9.8-15.5-14.7-5.5-5.3-10.7-10.7-15.9-16.1-1.2-1.3-2.5-1.5-4.8-1.2-23.4,3-47.1,4-71.1,3.6-4.3,0-8.7,0-12.9-.6-3.2-.4-4.8.3-6.4,1.8-6,6.3-12,12.5-18.4,18.7-8.4,8.1-16.9,16.1-25.4,24.2v-88.2h-.2Z"/>
  <path class="st5" d="M.5,629.9c2.2-1.9,4.7-3.5,6.5-5.3,13.2-12.9,26.2-25.9,39.1-38.8,1.2-1.2,2.7-1.6,5.2-1.5,12.7.3,25.2.8,38,.4,13.7-.5,27.3-1.8,40.8-2.8,1.2,0,2.3,0,4-.3-23.7,26.1-48.3,51.4-75.9,76.3-.5-1.9-.7-3.3-1-4.7h-1.5v4c0,2.5-.3,2.6-4.3,2.2-16.7-1.8-33.6-3.6-50.7-5.3-.3-8-.3-16-.3-24.1h.2-.1Z"/>
  <path class="st10" d="M387.5,639.5c-13.5-.2-27.1-.6-40.6-1.1-2.8,0-5.5-.9-8.5-1.5-.3,0-.2-.2-.3-.3-.2-.2-.3-.4-.7-.6-2.7-2.5-5-4.9-7.5-7.3h-1.2c-3.3,3.4-6.7,6.9-10,10.3-.7-5-1-10.2-1.8-15.3-.8-4.9-3.2-9.6-8-13.8-2.7-2.2-5.5-4.2-8.2-6.3-.2,0-.5.2-.7.3.5,2.2,1.2,4.4,1.7,6.8.2,4.8-2.8,8.8-8.2,11.9-5.2,3-8.5,6.5-10.4,10.6-1.5,0-3,.5-4.3.4-9-.8-17.9-1.8-26.9-2.5-11.4-.9-22.9-1.7-34.3-2.2-8.4-.4-16.9-.3-25.6-.4-4.2-3-8-6.1-11.9-9.2-.7-.6-.5-1.5-.5-2.3v-48.8c0-1.9.7-2.5,4.2-2.8,7.9-.7,15.7-1.7,23.4-2.9,16.9-2.7,34.3-4,51.7-3.3,16.6.7,32.6,3.1,48.1,6.6,17.4,3.9,34.6,7.9,51.8,11.9,8.7,2,17.2,4.3,25.7,6.6.8.2,2,.9,2.2,1.3.3,2,.3,4,0,6,0,.4-1.5.9-2.3,1h-7c-4.7,0-7.4,1.2-8.7,3.9-2,3.9,2.7,7.6,9.4,7.6s8.9,1.8,8.9,5.3v17.7c0,4,.3,8.1.7,12.3h-.2Z"/>
  <path class="st5" d="M91.8,628.5c10.4-10.7,20.7-21.3,31.1-31.9,4.7-4.8,9.2-9.6,14.2-14.9,25.2,26,53.5,50.3,84.6,73.7-1.2,0-1.7.3-2.3.3-7,.2-14.2.2-21.2.4-13.4.4-26.7.7-40.1,1.2-5.7.2-6.4,0-7.4-3.2-3-9.8-6-19.5-8.7-29.3-1-4-1-8-2.2-12.1-.8,2.8-1.7,5.6-2.7,8.3-4,11.9-9,23.5-17.9,34.5-1.2,1.4-2.2,2.3-5.3,2.4-9.5.2-19.1.7-28.4,1.1-7.5.3-15,.7-22.6,1.1h-3.8c11-10.6,21.7-20.9,32.6-31.4l.2-.2h-.1Z"/>
  <path class="st5" d="M418.8,603h-14.7c-3.2,0-6.5-1.4-7.4-3.1-.2-.4,0-1,.7-1.4,1-.8,2.2-1.5,3.2-2.3,3-2.3,6.7-3.2,11.7-3.2h160.3c53.3,0,2.8,0,3.7,0,.3,3.1.7,5.9.8,9-2.8,0-6.5.4-10,.4h-129.4c-6.2,0-12.4.2-18.9.3M517.8,596.3h-16.2v.5h31.6v-.5h-15.5.2,0Z"/>
  <path class="st5" d="M230.4,481.1c8,2,15.9,3.7,25.7,3.2-1.5,1.5-2.3,2.4-3.5,3.2-9.4,6.4-20.7,10.6-35.3,11-4.3.1-8.7,0-12.9-.4-6.7-.7-13,.2-19.4,1.2-1.5.3-3.2.5-5.2.8,0-.9-.2-1.6-.2-2.3v-21.7c0-1.8.7-2.5,3.8-2.7,12.5-.9,24.2-.2,35.1,4.1,3.5,1.4,7.7,2.3,11.9,3.5h-.2.2Z"/>
  <path class="st10" d="M549.7,612.9c-15.5,7.2-30.9,14.4-46.3,21.6-2.3,1.1-3.8,1.2-6.7.3-4.3-1.4-5.7-3.2-5.5-6.1.3-3.4,0-6.9,0-10.3s.5-8.5.7-12.7c0-1.1.7-1.7,2.7-1.7h72.2c.3,0,.5,0,1.5.4-6.4,2.9-12.4,5.7-18.7,8.6h.2-.1Z"/>
  <path class="st5" d="M490.5,633.9c18.2,6.9,36.3,13.8,54.3,20.7,9.4,3.5,18.7,6.9,28.1,10.2,4.5,1.6,4.7,1.6,3.8,4.9-.2.9-.3,1.8-.5,3.2-2.5-.7-4.7-1.3-6.7-2-10.2-3.9-20.2-7.9-30.4-11.8-28.6-10.8-57.3-21.5-85.6-32.4-15.5-6-30.4-12.6-45.6-18.9-1-.4-1.8-1-2.2-1.6-.7-.9-.2-1.7,1.8-1.8,5.3,0,10.2,0,14.9,2.2,21.4,10.2,44.6,18.7,68,27.4h.1Z"/>
  <path class="st11" d="M579.3,637.7c.2,8.1.5,16.1.7,24.2,0,.7,0,1.4-.2,2-.5,1-1.3,1.4-3.2.7-18.6-6.9-37.1-13.7-55.7-20.5-2.2-.8-4.3-1.6-6.5-2.4-1.5-.6-2.2-1.3-.5-2,2.7-1.2,5.5-2.4,8.9-3.5,4.7.3,8.7.7,12.7.8,14.5.3,29.3.6,43.8.8h0Z"/>
  <path class="st5" d="M581.5,646.1c.2-14.3.3-28.5.7-42.6,0-1.8,3.3-4.4,6.2-4.9h1.5c3.5.8,6.2,3.3,6.2,5.5v57.8c0,2.6-.3,2.9-4.7,2.9-9.4,0-9.2,0-9.4-5.4,0-4.4-.3-8.7-.5-13.3M587.8,632.6c0,.4-.3.8-.3,1.1v19.8c0,.4.3.8.3,1.2.8-.6.8-1.2.8-1.9.2-4.6.5-9.2.5-13.9s-.7-4.4-1.5-6.5l.2.2h0Z"/>
  <path class="st10" d="M579.3,637.5c-14.5,0-29.3-.3-43.8-.6-4,0-8.2-.5-12.5-.8.3-.6.8-1.3,1.8-1.7,17.2-8,34.4-16,51.7-24.1.8-.4,1.8-.7,3.3-1.3,1.2,9.6-.5,19-.3,28.5h-.2Z"/>
  <path class="st5" d="M173,498.3c.2-9.9.5-19.6.5-29.2s-.8-2.4-.8-3.7,0-1.9.8-2.7c.3-.3,2.7-.5,3.2-.2,1,.6,2.2,1.6,2.2,2.4,0,7-.5,13.9-.5,20.9v132.1c-3-2.5-5.3-4.2-5.3-7.1.2-37.4,0-74.9,0-112.5h0Z"/>
  <path class="st5" d="M663.9,620.6v29c0,2.4-.5,2.6-3.3,2.3-2.5-2.7-4.5-5.2-7-7.4-2.2-1.9-3-3.9-2.8-6.1.2-7.8,0-15.5,0-23.3s0-6.9.8-10.3c.3-1.2,2.3-2.4,4-3.3,1.3-.7,4.5-1.6,4.7-1.4,1.5,1.3,3.5,2.8,3.5,4.2.3,5.4,0,10.7,0,16.3h.2-.1Z"/>
  <path class="st5" d="M400.6,641.7h-8c-2,0-3-.5-3-1.8-.2-11.4-.7-22.8-.3-34.2,0-1.7,3-3.3,4.8-5.4,1.7,1.1,2.3,1.7,3.3,2.3s1.8,1.4,3,1.5c3.3,0,3.3,1.4,3.3,2.9v32.3c0,1.2,0,2.3-3,2.5M396.2,631.6v-16.7h-1.3v17.1c.3,0,.8,0,1.3-.3h0Z"/>
  <path class="st5" d="M638.5,641.8c-13-11.6-26.1-23.1-39-34.6-.8-.8-1.3-2-1-2.9,0-.4,2.5-.7,3.8-.8s2.7,0,4,0c2,0,3.2.4,4.2,1.5,8.9,8.8,17.7,17.6,26.7,26.4,6,5.9,12.2,11.7,18.4,17.5,1.2,1.1,1.8,2.3-.3,3.2-2.2.9-4.3.8-6-.7-3.5-3.1-7-6.2-10.9-9.5h0Z"/>
  <path class="st5" d="M546,623c-11.5,5.4-22.9,10.7-34.4,15.9-.8.4-2.7.4-3.7.2-1.8-.5-3.3-1.3-5.7-2.2,3.5-1.7,6.5-3.3,9.5-4.8,19.7-9.2,39.3-18.3,59.2-27.3,1.8-.9,4.8-.9,7.5-1.3,1.2,1.9,1.2,3.4-1.3,4.6-8.2,3.9-16.2,7.8-24.4,11.7-2.2,1.1-4.5,2.1-7,3.3h.3Z"/>
  <path class="st5" d="M656.4,599.4c-3.7,2.4-8,3-13.4,3-13.4-.2-26.9,0-40.3,0s-2.5,0-3.2-.2c.7-3,1.3-5.8,2.2-8.9h45.5c3,0,9.9,3.4,10.2,5,0,.4-.7.8-1.2,1.3M631.5,596.3h-8.7v.7c5.9.2,11.7.4,17.6.5v-.7c-2.8-.2-5.5-.4-9-.6h.2,0Z"/>
  <path class="st5" d="M489.5,612.7v18.8c-3.3-.4-4.8-1.3-4.7-3.1v-5.6h-1.3v6.3c-6-.8-7.4-1.8-7.4-5v-17.9c0-1.9,1-2.5,4-2.3h2.7c8.4,0,7.4-.7,7.4,4.5s-.3,2.8-.5,4.3h-.2Z"/>
  <path class="st10" d="M473.3,635.6c-11.7.2-23.6.3-35.4.5-6.4,0-12.7.5-19.6.8,4.8-2.6,10.2-5.2,15.4-7.9,2.5-1.2,4.8-2.5,7.4-3.6,1-.4,3-.8,4-.5,9.4,3.4,18.7,7,28.1,10.7h.2-.1Z"/>
  <path class="st10" d="M406.1,622.3c0-1.6-.3-2.9-.3-4.3v-9.6c3.7,1.5,6.5,2.7,9.4,3.9,5,2.1,10,4.3,15.2,6.4,1.8.7,2.3,1.4.3,2.3-7.9,3.7-15.7,7.5-23.6,11.2h-.8v-9.9h-.2Z"/>
  <path class="st10" d="M648.7,632.5v6.1c-.2,0-.5,0-.7.2-1.8-1.7-3.7-3.5-5.5-5.2-4.5-4.2-8.9-8.4-13.4-12.6-1.3-1.2-1.3-1.8.7-2.7,5.7-2.5,11-5.1,16.6-7.7.5-.2,1.2-.4,2.5-.8v22.6h-.2,0Z"/>
  <path class="st10" d="M633.1,639.6c-11.4,0-23.1-.4-34.9-.7-1.8-4.1,1.3-6.9,7-9,2.7-1,5.2-2.3,7.7-3.5,3.5-1.7,3.7-1.7,6.2.6,4.7,4.1,9.2,8.3,13.9,12.5h.2-.1Z"/>
  <path class="st5" d="M393.6,597.4c-3.5-2.3-5-4.8-4.7-7.9.3-2.8,0-5.7,0-8.5s2.2-3.9,6-4.2c4.3-.2,8.5,1.3,9.2,3.6.2.9,0,1.9,0,2.8,0,2.2,0,4.5-.3,6.7,0,1.5-.5,3-2.7,4.1-1.8,1-3,2.3-4.7,3.3-.5.3-1.8.2-3,0h.2Z"/>
  <path class="st5" d="M581.5,577.9c2.8-2.8,9.7-3.5,13.4-1.5.7.4,1.2,1.2,1.2,1.8.3,3.9.5,7.8.7,11.7,0,1.7-4.3,5.3-7.2,5.7h-1c-2.3-.2-7.9-3.9-7.9-5.4.2-4.1.5-8.2.7-12.5M585.3,582.2v5c0,1.6.5,3.1.8,4.7h.5v-11.7h-1c0,.6,0,1.2-.2,2.2l-.2-.2h.1Z"/>
  <path class="st10" d="M431.2,608.8c-3.3-1.5-6.4-2.9-9.4-4.2,0-.2.2-.3.3-.5h41.5c-.5.4-.8.8-1.3,1.1-5.5,2.8-10.9,5.6-16.6,8.3-.7.4-2.7.4-3.5,0-3.7-1.4-7.2-3.1-11-4.7h0Z"/>
  <path class="st5" d="M389.7,648.7c4.2-.3,8.4-.5,12.5-.5s1.2.9,1.2,1.4v14.9c0,1.1-.8,1.5-2.7,1.5h-8.7c-2,0-2.8-.5-2.7-1.7,0-5.2,0-10.3.2-15.6M395.6,655.9v-3.7h-.8v11.3h.8v-7.6Z"/>
  <path class="st5" d="M413.1,637.5c-2.3,1.1-4.5,2-6.7,3.1-2.2-4.1-1-6,3.7-8.3,7-3.3,14-6.6,20.9-10.1,2.5-1.3,4.5-1.7,7-.3,1,.5,2.2.9,3.8,1.6-9.7,4.8-19.2,9.3-28.8,14h.1Z"/>
  <path class="st5" d="M578.6,673.6c0-3.2,0-3.3,5.2-3.2,3,0,6.2,0,9.2.4.8,0,2.2.8,2.2,1.3.3,3.2.5,6.4.5,9.5s-1.2,1-1.8,1h-13c-2,0-2.2-.8-2.2-1.8v-7.4.2h-.1Z"/>
  <path class="st5" d="M664.6,585.7v7.1c0,.5.2,1,0,1.4-1,1-2.2,2-3.7,2.6-.5.2-2.5-.7-3.5-1.3-2-1.1-3.8-2.2-5.5-3.4-.5-.4-1-1-1-1.6v-4.6c.2-2.2,2.5-3.5,6.2-3.6,4.5-.2,6.9.8,7.7,3.4h-.2Z"/>
  <path class="st10" d="M455.6,618.4c5.9-2.9,11.7-5.7,18.2-8.8v16.1c-1-.2-2-.2-2.7-.5-5-1.9-9.9-3.9-14.9-5.9-.3-.2-.5-.5-.7-.9h.1Z"/>
  <path class="st5" d="M448.4,616.2c-1.5-.5-2.3-1.1-.7-1.9,6.5-3.3,12.9-6.7,19.6-9.8,1.3-.6,4.7-.5,6.5,0,1.5.5,0,3.2-1.8,4.1-5.7,2.8-11.4,5.5-16.9,8.3-3,1.5-4.5,0-6.7-.9v.2h0Z"/>
  <path class="st10" d="M623.6,612.3c-1.2.2-2.8.6-3,.4-3-2.8-5.7-5.8-8.9-9h30.1c-6.5,3.1-12.2,5.8-18.2,8.6h0Z"/>
  <path class="st5" d="M387.5,595.5v6.2c0,1.4-1,1.9-3.3,1.7-2.2-.2-4.3-.2-6.7-.3-4.2,0-7.2-2.1-7.4-4.6,0-2.2,3.5-5,7.4-4.6,3,.3,6,.4,9.2.8.3.4.5.6.7.8h.2-.1Z"/>
  <path class="st5" d="M647.3,608.6c-6,2.8-11.7,5.5-17.4,8.2-1.5.7-2.8,2.2-5.2.4-2.7-2.1-2.7-2.7.3-4.1,5.7-2.7,11.5-5.3,17.2-8.1,2-1,3.8-1.7,6.2-.7,1.5.6.8,3.1-1.2,4.4h.1Z"/>
  <path class="st5" d="M476.1,658.4v-3.6c-.2-1.6,1-2.1,3.5-2,10.2.2,8.4-.8,8.5,5v5c-1.2,3.1-5.2,1.1-7.9,1.5-1.8.3-4.2.4-4.2-1.5v-4.4h.1Z"/>
  <path class="st5" d="M656,664.4v1.6c0,1-.7,1.8-2.5,1.5-.8,0-2-1-2.2-1.5-.2-2.1,0-4.2,0-6.4s.7-1.5,2.5-1.6c9.5-.5,10.5,0,10.7,5.8v1.6c.3,1.8-1.3,2.2-4,2.2s-3.5-.7-3.3-2.2v-4.9h-1.3v3.9h.2-.1Z"/>
  <path class="st10" d="M598,616.6v-7.4h.8c2.5,2.2,4.8,4.4,7.4,6.5,1,.8,2,1.6,2.8,2.4.3.4.5,1.4,0,1.6-3.3,1.7-6.7,3.3-10.2,4.9-.3,0-.7-.2-1-.3v-7.6h.2Z"/>
  <path class="st5" d="M483.3,646.9c-8.2-.8-7.2.5-7.2-4.6v-5.9c4.2,1.6,7.5,2.8,10.7,4.1.5.2,1,.8,1,1.2,0,1.4,0,2.9-.8,4.2-.3.5-2.2.7-3.7,1.1h0Z"/>
  <path class="st5" d="M612.2,620.9c2.1,1.9,1.7,3.5-1.2,4.8-4,1.9-8,3.9-12.2,5.8-2.2-2.4-1.3-4.8,2-6.3,2.8-1.3,5.7-2.8,8.5-4.1.7-.3,1.8-.2,2.8-.2h.1Z"/>
  <path class="st5" d="M399.4,642.9c1.2,0,2.2-.2,3,0,1,0,2.8.4,2.8.6,0,.9-.2,2.3-1.2,2.6-4.3,1.4-9.2,1.3-13.7.3-1-.2-1.3-1.9-1.8-2.9,1.2-.2,2.5-.5,3.7-.6h7.2Z"/>
  <path class="st5" d="M585.1,669.5c-1-.2-2.2-.2-2.5-.5-.8-.8-1.5-1.7-2.2-2.6,1.2-.3,2.5-.7,3.7-.8h10.9c1.2,0,3.3.7,3.3.9,0,.9-.8,2-1.8,2.4-1.3.5-3.3.5-5.2.5h-6.2Z"/>
  <path class="st5" d="M656.5,653.1c2.8,0,5.3-.2,7.9,0,.7,0,1.5.9,1.5,1.4,0,1.4-1.3,2.3-3.5,2.3h-9.2c-2.7,0-4.2-1-3.8-2.8,2.3-.2,4.7-.5,7.4-.8h-.3Z"/>
  <path class="st5" d="M486.8,651.5c-2.7,0-5.2.3-7.5,0-1.5-.2-3.3-.9-4.2-1.8-1-1.2-.3-2.2,2.5-2.1h8.5c1.2,0,3.2.4,3.3.8.3.8-.5,1.7-1,2.5,0,.2-1,.3-1.7.5h.1Z"/>
  <path class="st5" d="M669.9,593.9c7,2.7,5.3,7.4-.7,8.6-.8.2-1.7.2-2.5.2,0-.5-.3-1-.3-1.5,0-2.2.3-4.3.3-6.5s1.2-1.3,3-.9h.2Z"/>
  <path class="st5" d="M580.6,600.5c-2.7-1.5-3.2-4.9-1.3-6.4,0,0,.3-.3.5-.3,1.8.7,3.8,1.4,5.5,2.2.7.3.8,1.4.5,1.7-1.3,1-3.2,1.8-5,2.7h-.2Z"/>
  <path class="st5" d="M591.2,596.8c2.2-1.3,4.2-2.4,6.5-3.8,2.3,2.3,2.2,4.3.8,6.3-.2.4-1.8.8-2.2.7-1.8-.9-3.5-2-5.2-3.2h.1Z"/>
  <path class="st10" d="M412.4,590.1c3.5.5,6.7.9,9.9,1.3v.4h-13.9c-.7,0-1.3-.9-2.2-1.3.8-.3,1.8-.8,2.7-.8s2.2.3,3.5.5h0Z"/>
  <path class="st5" d="M492.4,642.6c1.8.7,3.5,1.3,5.2,1.9v.7c-2,.4-4.2,1.3-5.9,1.1-1.2-.2-2-1.8-3-2.8,1-.3,2.2-.6,3.5-.9h.2,0Z"/>
  <path class="st5" d="M388.2,595.5c5.5,3.5,5.9,4.2,0,6.9v-6.9Z"/>
  <path class="st5" d="M661.7,598.4c.7-.7,1.3-1.3,2-1.9.5.2.8.3,1.3.5-.2,1-.3,2.1-.5,3.1-.2,0-.5.2-.7.3-.7-.6-1.3-1.2-2-2h-.2.1Z"/>
  <path class="st4" d="M387.7,595.5c-.3-.2-.5-.4-.7-.7.3,0,.8.3,1.2.6h-.5Z"/>
  <path class="st0" d="M731.3,640.3c2.2-1.7,4.5-3.1,6.4-4.7,14.7-12.7,28.1-25.9,40-39.7,5-5.9,10.4-11.7,15.4-17.7s2.3-1.8,4.8-1.4c19.1,2.9,38.3,5,57.8,6.2,7.2.4,14.4.7,21.6.9,7,.2,14.2.2,21.2.5,1.3,0,3.2.7,3.8,1.4,7.2,7.3,13.9,14.8,21.2,22,12.4,12,25.4,23.8,38.1,35.7.5.4,1.2.8,1.8,1.3,1.3,1.3,2.3,2.5,3.7,3.6,5,4,10,7.9,15.2,11.8.5.4,1.2.8,2,1.4,1.7-1.4,3.3-2.7,5.2-4.2.5,3.5-4.2,6.7-9.2,7-12.2.6-24.6,1.1-36.6,2.1-10.7.9-21.4,2.4-31.9,3.7-7.4.9-14.4,2.2-21.7,2.7-5,.4-10.4,0-15.5-.2-5.3-.2-10.5-.5-15.9-.7-8.9-.3-17.7-.6-26.6-.8-11.5-.3-23.1-.5-34.4-.8-10.4-.3-20.6-.4-30.9-.8-16-.6-32.3-1.3-48.3-1.9-3.8-.2-7.7-.4-11.5-.4s-5.9-.9-6.9-3c-.7-1.4-1.2-2.7-1.8-4.1l1.3-.3c1,1.2,2.2,2.4,3.5,3.9,1-.4,2.2-.7,2.7-1.3,8.4-6.9,16.6-13.8,24.9-20.7.5-.4.5-.9.8-1.5M886.7,585.5c-30.4-.6-60.5-3.2-90.8-7.8,26.4,33.3,58.5,63.9,95,93.5,3.2-2.8,5.7-5.1,8.2-7.4.5.2.8.3,1.3.5-.8,1-1.7,2.1-2.5,3.1-1,1.1-2.2,2.3-3.8,4,29.6-4,58.2-8.1,88.4-8.2-1-1-1.5-1.5-2.2-2-8.2-6.7-16.9-13.3-24.7-20.2-19.7-17.2-37.4-35.2-54.5-53.5-1.2-1.3-2.7-2-5.2-1.9h-9.4M825.4,614.2c-9.9-11-19.9-22-30.1-33.5-11,30-25.9,58.8-47,86.7,5.3.3,9.7.5,14,.7,2.5.2,4-.3,4.8-1.9.8-1.7,2.2-3.4,3.5-5,12.2-15.1,17.2-31.3,21.2-47.7.7-2.7,1.3-5.4,1.8-8,1.5,3.2,2.2,6.5,3,9.6,3.7,12.1,9.2,23.9,16.2,35.5,3.7,6,8,11.8,12.4,17.6.5.7,2.3,1.5,3.7,1.5,9.9.4,19.9.6,29.9.9,5.7.2,11.2.5,16.9.7,4,.2,8,.2,12.9.4-1.3-1.2-2-2-3-2.7-3.7-3.1-7.5-6.1-11-9.2-16.9-14.9-34.1-29.8-49.2-45.8M771.9,627.6c8.2-14.8,14.7-29.8,20.2-45.1-24.1,29.6-54.5,56.8-87.8,83.1.7.2,1,.4,1.3.4,12.2.6,24.2,1.1,36.4,1.7,2.8,0,4.2-.7,5.2-2.1,9.2-12.3,17.4-24.8,24.6-38h0Z"/>
  <path class="st3" d="M283,633.5c1.8-4.3,5.3-7.7,10.4-10.8,5.3-3.2,8.4-7.1,8.4-11.9,2.5-.3,4.7-.5,7-.7,4.8,4.1,7.2,8.7,8,13.6.8,5.1,1.3,10.3,1.8,15.3,3.3-3.4,6.7-6.9,10-10.4h1.2c2.5,2.4,4.8,4.8,7.5,7.4.3.3.5.5.7.6h0c1.8,3.5,4.2,6.8,5.3,10.2,3.7,10.7,0,20.2-14.2,28-2.8,1.2-5.5,2.2-8.4,3.3-2.5.7-4.7,1.3-7.2,1.9-1.7,0-3,0-4.7.2h-11.4c-2-.3-3.7-.5-5.7-.8-1.2-.2-2.2-.4-3.3-.7-2.7-.8-5.3-1.5-7.9-2.2-.5-.4-.8-.9-1.5-1.2-12.5-6.3-16.7-14.5-14.9-24,.8-4.6,3.5-8.8,7.4-12.8.3-.3.7-.5,1-.8h.3c1.5,5.6,4.7,8.1,10.5,8.5-.2-4.2-.5-8.5-.7-12.9M284.9,667.7c.8,1.4,1.7,2.9,2.7,4.3,6,8,23.9,8.2,31.6,2.9,8-5.6,9.7-12.1,7.9-19-.5-1.9-2-3.7-3-5.5-2.7,2.2-3.3,4.8-7.7,5.7-1.3-3.6-2.2-7.1-3.8-10.4-1.7-3.3-4.3-6.4-9.2-9.1-.5,6.9-1.8,13.2-10,18.5-1.3-1.2-2.3-2-3.3-3-5,4.9-6.9,9.9-4.8,15.7h-.4Z"/>
  <path class="st10" d="M790.6,713.4c-17.6,1.6-34.9,3.2-52.2,4.7-8.9.8-17.7,1.6-26.6,2.3-8,.7-12.2-2.4-14.9-6.6-1.5-2.5-1.2-5.2.3-7.8,1.7-3,5-4.2,9.9-4.6,7.5-.6,14.9-1.1,22.4-1.7.3,0,.8-.2,1.3-.8-2.2-.4-4.3-.8-6.5-1.1-8-1-16-2-24.1-3-3.2-.4-5.2-1.6-4.8-3.7.3-2.2,1-4.5,2.2-6.6,1.5-2.6,5-3.5,9.7-3.1,12.9.9,25.7,1.8,38.6,2.7,7.5.5,14.9,1,22.4,1.7,4.8.4,8.4,3.3,9,7.3.5,2.3.8,2.4,4.5,2,11.2-1,22.4-2,33.4-3,9.7-.9,14.2,3.3,15.7,8.2,1.7,5.3-4.7,10.3-13.9,10.6-8.9.3-17.6,1.5-26.6,2.3M697,689.7c0,.2,0,.4.2,1-.5,2.1,1.2,3.1,4.7,3.5,7.7.9,15.2,1.9,22.7,2.9,8.9,1.1,17.7,2.3,26.9.9,1.8-.3,3.3-.5,2.8-1.8-1.3-3.7.5-6.6,5.3-9,.2,0,0-.3.2-.5-4.5-.3-9-.7-13.5-1-13.2-.9-26.6-1.8-39.8-2.7-3.8-.3-5.9.4-7.2,2.9l-.5.3c-.5,1.2-1,2.4-1.8,3.7M827.9,705.6c.3-1.4,1.2-2.7,1.2-4.1-.3-5.4-5.7-8.6-13.4-8-11.2.9-22.4,1.9-33.4,2.9-16.7,1.4-33.3,2.8-50,4.2-6.7.6-13.4,1.1-20.6,1.7,9.2,4.6,9.7,10,6.2,16.1h1.7c8.2-.6,16.4-1.3,24.7-2,16-1.4,32.3-2.9,48.3-4.3,8.9-.8,17.7-1.5,26.6-2.4,4-.4,6.9-1.7,8.9-4.2M700.5,704.8c-4,3.7-3.3,9.3,1.7,12.5,4.5,3,11.5,2.7,14.5-.5,3.7-3.9,1-10.3-5.2-12.8-3.7-1.5-7.9-1.3-11,.8M756.5,691.4c-.2,1.4-.5,2.8-.5,4.1s1.2,2,3.8,1.7c3.2-.4,6.5-.7,9.9-.9,5.5-.4,6.7-1.4,5-4.6-.3-.8-1-1.6-1.7-2.4-2.8-2.7-8-3.4-12-1.4-1.7.9-2.8,2.1-4.5,3.5h0Z"/>
  <path class="st10" d="M186.7,685.9c-.8,2-1.3,3.9-2.3,5.7-1.5,3-5.3,4.2-10.2,4.7-17.2,1.6-34.6,3.4-51.8,5-17.7,1.6-35.4,3.1-53.2,4.7-9.7.8-19.2,1.7-28.9,2.6-4.2.4-8.4.7-12.5,1-6,.3-11.5-1.6-13.4-5.1-1.5-2.7-3.3-5.7-3.2-8.4.7-8.3,5-10.8,17.6-11.8,9.4-.8,18.9-1.6,28.3-2.3,12.5-.9,25.1-1.7,37.6-2.5,14.7-1,29.4-2,44.1-3.1,10.9-.8,21.7-1.6,32.6-2.3,4.7-.3,10.7,2.5,13,6.2,1.2,1.8,1.5,3.8,2.3,5.9M62,705.4c1.2,0,2.3-.3,3.7-.4,14.5-1.2,28.9-2.4,43.5-3.7,20.7-1.9,41.3-4,62-5.9,8.4-.8,11.2-2.2,12.9-6.9.5-1.5.7-3.2.3-4.7-1-3.8-3.5-7.3-10.2-8.5-2.8-.5-6.4,0-9.5,0-11.7.8-23.2,1.8-34.9,2.6-12.7.9-25.6,1.6-38.3,2.5-17.4,1.2-34.8,2.6-52,3.9-4.7.4-9.4.8-14.9,1.3,11.2,3.9,16.7,12.7,8.9,22.3,9.7-.8,18.9-1.7,28.8-2.5M33.1,693c-1.8-1.5-3.3-3.4-5.7-4.6-5-2.7-10-2-12.5,1.8-3.5,5.4-2.2,10.5,3,15.3,2,1.8,4.8,2.9,8.7,2.6,3.8-.3,5.7-1.9,6.9-3.8,2.2-3.7,2-7.4-.5-11.3h.2-.1Z"/>
  <path class="st10" d="M280.7,676.7c2.8.7,5.5,1.4,8.2,2.2,0,0,0,.2-.3.2-5.7-.5-11-1-16.4-1.4-6.4-.5-12.7-1.1-19.1-1.3-3.5,0-6.2,1-7.4,3.1-1.2,2-1.8,4.2.8,6,2.5,1.6,5.5,1.9,9,1.2,4.7-.9,9.4-1.6,14-2.5,7.5-1.4,14.9-2.8,22.6-4.3l.2-.2c1.7.2,3.3.5,5.2.8-13.7,2.5-27.4,4.9-42,7.4,6,2.6,7.9,5.5,4.8,9.4,2.2-.3,3.5-.4,4.8-.6,10.4-1.6,20.7-3.3,31.3-4.7,2.7-.4,5.9-.4,8.5,0,10.9,1.5,21.7,3.2,32.6,4.9.8,0,1.7,0,2,.2-.3-2.1-1.5-4.2-.8-6s3-3.4,4.7-5c-8.4-1.3-17.2-2.6-26.2-3.9-2.7-.4-5.5-1-8.2-1.5,1.3,0,2.8-.2,4.7-.2,11.4,1.7,22.2,3.5,33.3,5,1.8.3,4.3,0,5.9-.5,3-1.1,3.7-4.5,1.8-6.5-1.8-2.1-5.9-3.2-9.7-2.7-5.9.8-11.9,1.6-17.9,2.3-2.2.3-4.3.3-6.5.5,2.7-1,5.2-2.1,8-3.1.8,1.1,2,1.2,3.8.9,4.3-.7,8.5-1.3,13-1.6,8.4-.7,14,3.4,11.5,8.2-.7,1.2-1.8,2.4-3,3.7,1.3,1,3,2,4.3,3.2,2.7,2.5,2.5,5.6-.3,8-2.5,2-6.5,2.8-10.5,2.1-14.9-2.4-29.8-4.8-44.6-7.1-1.5-.2-3.3,0-4.8.2-14.4,2.2-28.8,4.4-43.1,6.7-5.9.9-11.2,0-13.4-2.6-2.5-3-.8-6.3,4.3-8.4.3,0,.5-.2,1-.4-.5-.5-.8-.9-1.3-1.2-3.5-2.2-4-4.7-2.3-7.4,1.8-3,5.5-4.5,10.7-4.3,4.8.2,9.7.7,14.5,1,3.8.2,7.7.4,11.7.6M354.6,698.1c5.2-1.9,5.5-5.8,1.8-8.9-2-1.7-5.2-2.2-8.5-2-3.3.3-6,1.2-6.7,3.3-.8,2.3-.5,4.6,2.5,6.5,3,1.8,6.5,2.1,10.9,1.1M258.3,691c-.7-.4-1.3-.9-2.2-1.3-2.3-1.1-5-1.4-7.7-.4-3,1-5.5,2.2-5.5,4.6s1.2,3.5,4.3,4.3c3.3.9,8,.5,10.5-1,2.8-1.7,3-3.3.5-6.2h.1Z"/>
  <path class="st1" d="M308.8,610c-2.2.3-4.3.5-6.9.6-.8-2.2-1.3-4.4-2-6.6.2,0,.5-.2.7-.3,2.7,2.1,5.3,4.1,8.2,6.3h0Z"/>
  <path class="st9" d="M338,636.6s-.3,0-.5-.4c0,0,.3,0,.5.4Z"/>
  <path class="st10" d="M518.1,596.3h15.2v.5h-31.6v-.5h16.6-.2Z"/>
  <path class="st10" d="M588,632.6c.5,2.1,1.2,4.3,1.2,6.5,0,4.6-.3,9.2-.5,13.9,0,.6,0,1.2-.8,1.9,0-.4-.3-.8-.3-1.2v-19.8c0-.4.3-.8.7-1.2h-.3Z"/>
  <path class="st10" d="M396.2,631.8c-.5.2-.8.2-1.2.2v-17.1h1.3v16.9h-.2.1Z"/>
  <path class="st10" d="M631.8,596.3c3.2.2,5.9.4,8.7.6v.7c-5.9-.2-11.7-.4-17.6-.5v-.7h9-.2,0Z"/>
  <path class="st9" d="M585.3,582.1c0-.8,0-1.4.2-2h1v11.7h-.5c-.3-1.6-.7-3.1-.8-4.7v-5.1h.2-.1Z"/>
  <path class="st10" d="M395.6,656.1v7.4h-.8v-11.3h.8v3.9h0Z"/>
  <path class="st5" d="M887.1,585.5h9c2.7,0,4,.6,5.2,1.9,17.1,18.3,34.6,36.3,54.5,53.5,7.9,6.9,16.6,13.5,24.7,20.2.7.5,1.2,1.1,2.2,2-30.3,0-58.8,4.2-88.4,8.2,1.7-1.7,2.8-2.8,3.8-4,.8-1,1.7-2.1,2.5-3.1-.5-.2-.8-.3-1.3-.5-2.5,2.3-5,4.6-8.2,7.4-36.4-29.5-68.5-60.1-95-93.5,30.3,4.6,60.4,7.2,91.1,7.8h-.2.1Z"/>
  <path class="st5" d="M825.6,614.4c14.9,15.9,32.1,30.7,49.2,45.6,3.5,3.1,7.4,6.1,11,9.2.8.7,1.7,1.5,3,2.7-4.8,0-8.9-.2-12.9-.4-5.7-.2-11.2-.5-16.9-.7-10-.3-19.9-.5-29.9-.9-1.3,0-3.2-.8-3.7-1.5-4.3-5.8-8.7-11.6-12.4-17.6-7-11.5-12.7-23.4-16.2-35.5-1-3.2-1.7-6.4-3-9.6-.7,2.7-1.3,5.4-1.8,8-3.8,16.4-9,32.6-21.2,47.7-1.3,1.6-2.5,3.3-3.5,5-.8,1.6-2.3,2-4.8,1.9-4.3-.3-8.7-.5-14-.7,21.1-27.9,35.9-56.8,47-86.7,10.4,11.4,20.2,22.5,30.3,33.6h-.2Z"/>
  <path class="st5" d="M771.7,627.7c-7,13-15.4,25.5-24.4,37.8-1,1.4-2.3,2.2-5.2,2.1-12.2-.6-24.2-1.1-36.4-1.7-.3,0-.8-.2-1.3-.4,33.3-26.3,63.7-53.5,87.8-83.1-5.5,15.3-12,30.3-20.4,45.3h0Z"/>
  <path class="st1" d="M284.9,667.5c-1.8-5.6,0-10.7,4.8-15.5,1,.9,2,1.8,3.3,3,8.4-5.3,9.5-11.6,10-18.5,4.8,2.8,7.5,5.8,9.2,9.1s2.5,6.8,3.8,10.4c4.3-.9,5-3.5,7.7-5.7,1,1.8,2.5,3.6,3,5.5,1.7,7,0,13.5-7.9,19-7.7,5.3-25.6,5.1-31.6-2.9-1-1.4-1.8-2.9-2.7-4.5h.4Z"/>
  <path class="st5" d="M309.3,680.4c3,.5,5.7,1.1,8.4,1.6,8.9,1.4,17.9,2.7,26.2,3.9-1.7,1.6-4,3.2-4.7,5s.5,3.9.8,6c-.5,0-1.3,0-2-.2-10.9-1.6-21.7-3.4-32.6-4.9-2.7-.4-5.9-.3-8.5,0-10.5,1.5-20.9,3.1-31.3,4.7-1.3.2-2.8.4-4.8.6,2.8-3.9,1.2-6.8-4.8-9.4,14.5-2.5,28.3-4.9,42.3-7.4h11.2M321.7,689.2c1.7.2,3.5.4,5.2.6,0-.2,0-.5.2-.7-8.2-1-16.6-2-24.7-3,0,.3-.2.5-.3.8,6.4.7,12.7,1.5,19.7,2.3h-.1Z"/>
  <path class="st5" d="M321,678.3c2.3-.2,4.7-.2,6.7-.5,6-.7,11.9-1.5,17.9-2.3,3.8-.5,7.7.6,9.7,2.7,1.8,2,1,5.4-1.8,6.5-1.5.6-4,.7-5.9.5-11-1.5-21.9-3.3-33.1-4.9,2-.7,4.2-1.3,6.7-2h-.2Z"/>
  <path class="st0" d="M289.1,679.1c1,0,2,.3,3.3.5.2,0,0,.2-.3.3-1.3-.2-2.2-.5-3.2-.7h.2Z"/>
  <path class="st5" d="M827.9,705.8c-1.8,2.3-4.7,3.7-8.7,4.1-8.9.8-17.7,1.6-26.6,2.4-16,1.4-32.3,2.9-48.3,4.3-8.2.7-16.4,1.3-24.7,2h-1.7c3.7-6.1,3.2-11.5-6.2-16.1,7-.6,13.9-1.1,20.6-1.7,16.7-1.4,33.3-2.8,50-4.2,11.2-1,22.4-2,33.4-2.9,7.5-.6,12.9,2.6,13.4,8,0,1.3-.7,2.7-1.2,4.2M777.7,706.7c3.8,0,7.7-.3,11.5-.5s7.7-.3,11.5-.5,7.7-.5,11.5-.7c3.7-.2,7.4,0,10.7-.9,0-.2,0-.4-.2-.6-21.4,1.1-43,2.1-64.4,3.2v.8c6.2-.2,12.4-.5,19.1-.8M762.7,702.2c-14.2.3-32.9,1.9-35.1,3.2,15.2-1,29.9-2,44.8-2.9v-.8c-3,0-6,.3-9.5.5M791.1,701.1c5.9-.3,11.7-.6,17.7-1,0-.3,0-.6-.2-1-6.7.4-13.2.8-19.9,1.3v.5c.7,0,1.2,0,2.3.2M742,711.6l-4.7.4v.7c6.2-.3,12.4-.6,18.4-1v-.7c-4.5.2-8.9.4-13.9.6h.2Z"/>
  <path class="st5" d="M699.2,685.6c1.3-2.4,3.3-3,7.2-2.8,13.2.9,26.6,1.8,39.8,2.7,4.5.3,9,.7,13.5,1,0,.2,0,.5-.2.5-4.8,2.4-6.7,5.3-5.3,9,.5,1.3-1,1.5-2.8,1.8-9.2,1.4-18.1,0-26.9-.9-7.5-.9-15.2-2-22.7-2.9-3.5-.4-5.2-1.3-4.3-3.6,9.9,1,19.4,2.1,28.9,3.3-4.2-1.2-8.5-2-12.9-2.5-5.3-.7-10.9-1.2-16.2-1.7.5-1.2,1-2.4,2-3.5,10.4,1.2,20.2,2.3,30.1,3.5.2-.4.3-1,.7-1.6,6.4,1,12.5,1.9,18.7,2.8-.3-.6-.8-.9-1.3-1-6-1-12-2-17.9-2.9-.5,0-1.5,0-1.7.4-.7,1.4-2.2,1-3.7.8-8.4-.8-16.6-1.7-24.9-2.5h0Z"/>
  <path class="st5" d="M700.7,704.6c3-1.9,7.2-2.1,10.9-.7,6.4,2.5,8.9,8.9,5.2,12.8-3,3.3-10,3.5-14.5.5-5-3.3-5.7-8.8-1.5-12.7h-.1Z"/>
  <path class="st5" d="M756.5,691.3c1.5-1.2,2.7-2.5,4.5-3.3,3.8-1.9,9.2-1.3,12,1.4.8.7,1.3,1.5,1.7,2.4,1.7,3.2.5,4.2-5,4.6-3.3.2-6.7.5-9.9.9-2.5.3-3.7-.4-3.8-1.7,0-1.4.3-2.8.5-4.3h0Z"/>
  <path class="st10" d="M699.2,685.6c8.4.8,16.6,1.6,24.9,2.4,1.5.2,3,.6,3.7-.8,0-.2,1.2-.4,1.7-.4,6,.9,12,1.9,17.9,2.9.5,0,1,.4,1.3,1-6.2-.9-12.4-1.9-18.7-2.8-.3.6-.5,1.2-.7,1.6-10-1.2-19.9-2.3-29.9-3.6-.2,0-.2-.2-.2-.3h0Z"/>
  <path class="st10" d="M697.2,689.6c5.5.5,11,1,16.4,1.7,4.3.6,8.7,1.4,12.9,2.5-9.5-1.2-19.1-2.3-28.9-3.5-.3-.2-.3-.4-.3-.7h-.1Z"/>
  <path class="st5" d="M61.9,705.5c-9.5.8-18.7,1.6-28.4,2.5,7.9-9.6,2.3-18.4-8.9-22.3,5.3-.5,10-1,14.9-1.3,17.4-1.3,34.6-2.7,52-3.9,12.7-.9,25.6-1.6,38.3-2.5,11.7-.8,23.2-1.8,34.9-2.6,3.2-.2,6.5-.6,9.5,0,6.7,1.2,9.2,4.7,10.2,8.5.3,1.5.3,3.2-.3,4.7-1.7,4.7-4.7,6.1-12.9,6.9-20.7,1.9-41.3,4-62,5.9-14.4,1.3-28.9,2.5-43.5,3.7-1.2,0-2.3.2-3.8.4M175.4,679.9c.3-.2.7-.4,1-.7-.8,0-1.5-.4-2.3-.4-14.5.9-28.9,1.8-43.5,2.8-2.5.2-5,.6-7.5.8.7.5,1.2.7,1.8.7,7.4-.4,14.7-.9,22.1-1.4,9.4-.6,18.7-1.2,28.4-1.9M88.1,695.5c14.2-.7,28.3-2.4,42.1-4.2,0-.2,0-.4-.2-.6-16,1.5-32.1,3.1-48.1,4.6v.4c1.8,0,3.7,0,6-.2M104.3,687.7c1.7-.3,3.2-.5,4.8-.8,0-.2,0-.3-.2-.5-14.4,1-28.8,2.1-43.1,3.1v.8c12.5-.9,25.1-1.8,38.3-2.7M66.5,686.2c3.5-.4,7-.9,10.5-1.3,0-.2,0-.4-.2-.6-10.7.8-21.2,1.9-31.8,3.3,0,.2,0,.5.2.7,6.9-.7,13.9-1.3,21.2-2.1M158,691.1c-2.5.3-5,.6-7.7.9,0,.2.2.4.3.7,8.5-.8,17.1-1.6,25.6-2.4,0-.3,0-.6-.2-.9-5.9.6-11.7,1.2-18.1,1.8M50.5,700.5c-2.3.3-4.7.6-7,.9,0,.3.2.5.3.8,7.2-.8,14.2-1.5,21.4-2.3,0-.3,0-.5-.2-.8-4.7.4-9.2.9-14.4,1.4M102.5,698.3c4.7-.5,9.5-1,14.2-1.5,0-.3-.2-.6-.3-.9-5.5.5-10.9,1.1-16.4,1.6v.8h2.5Z"/>
  <path class="st5" d="M33.1,693.2c2.5,3.8,2.7,7.5.5,11.2-1.2,2-3.2,3.5-6.9,3.8-3.8.3-6.7-.8-8.7-2.6-5.2-4.8-6.5-9.9-3-15.3,2.5-3.8,7.4-4.6,12.5-1.8,2.3,1.2,3.8,3,5.7,4.7M26.1,693.1c-1.5-.9-3.2-1.6-5.2-.7-2.5,1-2.8,2.5-1.8,4.1.5-.5.5-1.1.8-1.6.5-.7,1.3-1.6,2.2-1.7,1,0,2.5.5,3.2,1.1,1,1,1.8,2.2,1.7,3.3,0,2-1,3.9-1.5,5.7,3.8-1.4,4.5-6.4.7-10.3h-.1Z"/>
  <path class="st5" d="M288.6,679.2c1.2.3,2.2.5,3.3.8-7.2,1.4-14.7,2.9-22.2,4.2-4.7.9-9.4,1.5-14,2.5-3.5.7-6.7.4-9-1.2-2.8-1.8-2-4-.8-6s4-3.2,7.4-3.1c6.4.3,12.7.8,19.1,1.3,5.3.4,10.7.9,16.4,1.4M265.5,681.7c-5.5-.8-10.9-1.5-16.4-2.3,0,.4-.2.7-.3,1.1,5.5.5,10.9.9,16.7,1.2Z"/>
  <path class="st5" d="M354.4,698.1c-4.2,1-7.7.7-10.7-1.1s-3.3-4.1-2.5-6.5c.7-2.1,3.3-3.1,6.7-3.3,3.3-.3,6.5.3,8.5,2,3.7,3.1,3.3,7-2,9h0Z"/>
  <path class="st5" d="M258.5,691.1c2.3,2.8,2.2,4.4-.7,6.1-2.5,1.5-7.2,1.9-10.5,1-3.2-.9-4.3-2.4-4.3-4.3s2.5-3.6,5.5-4.6c2.7-.9,5.3-.7,7.7.4.8.3,1.3.8,2.3,1.4h0Z"/>
  <path class="st10" d="M321.3,689.2c-6.7-.8-13-1.5-19.4-2.2,0-.3.2-.5.3-.8,8.2,1,16.6,2,24.7,3,0,.2,0,.5-.2.7-1.7-.2-3.5-.4-5.5-.7h.1Z"/>
  <path class="st10" d="M777.4,706.7c-6.5.3-12.5.5-18.7.8v-.8c21.4-1.1,42.8-2.1,64.2-3.2,0,.2,0,.4.2.6-3.3.8-7.2.6-10.7.9-3.8.2-7.7.5-11.5.7s-7.7.3-11.5.5-7.7.3-11.9.5h0Z"/>
  <path class="st10" d="M763,702.2c3.3-.2,6.4-.3,9.4-.4v.8c-14.7,1-29.6,1.9-44.8,2.9,2-1.3,20.9-3,35.4-3.3h0Z"/>
  <path class="st10" d="M790.9,701.1c-.8,0-1.5,0-2.2-.2v-.5c6.7-.4,13.2-.8,19.9-1.3,0,.3,0,.6.2,1-5.9.3-11.7.6-17.9,1Z"/>
  <path class="st10" d="M742.3,711.6c4.7-.2,9-.4,13.4-.6v.7c-6,.3-12.2.6-18.2,1v-.7c1.3,0,3-.3,4.8-.5h0Z"/>
  <path class="st10" d="M175.2,679.9c-9.5.6-18.9,1.3-28.3,1.9-7.4.5-14.7.9-22.1,1.4-.5,0-1.2,0-1.8-.7,2.5-.3,5-.7,7.5-.8,14.5-1,28.9-1.9,43.5-2.8.7,0,1.5.2,2.3.4-.3.2-.7.4-1.3.7h.2Z"/>
  <path class="st10" d="M87.8,695.5c-2.2,0-4,0-5.9.2v-.4c16-1.5,32.1-3.1,48.1-4.6,0,.2,0,.4.2.6-13.9,1.7-27.9,3.5-42.5,4.2h.1Z"/>
  <path class="st10" d="M104,687.8c-12.9.9-25.4,1.8-38,2.7v-.8c14.4-1,28.8-2.1,43.1-3.1,0,.2,0,.3.2.5-1.7.3-3.2.5-5.2.8h-.2,0Z"/>
  <path class="st10" d="M66.2,686.2c-7.2.7-14,1.4-21.1,2,0-.2,0-.5-.2-.7,10.5-1.3,21.1-2.4,31.8-3.3,0,.2,0,.4.2.6-3.5.4-7,.9-10.9,1.3h.2Z"/>
  <path class="st10" d="M158.3,691.1c6-.6,11.9-1.2,17.7-1.8,0,.3,0,.6.2.9-8.5.8-17.1,1.6-25.6,2.4,0-.2-.2-.4-.3-.7,2.5-.3,5-.6,7.9-.9h.2,0Z"/>
  <path class="st10" d="M50.8,700.4c4.8-.5,9.5-.9,14.2-1.3,0,.3,0,.5.2.8-7.2.8-14.2,1.5-21.4,2.3,0-.3-.2-.5-.3-.8,2.3-.3,4.7-.6,7.4-1h0Z"/>
  <path class="st10" d="M102.1,698.3h-2v-.8c5.5-.5,10.9-1.1,16.4-1.6,0,.3.2.6.3.9-4.7.5-9.5,1-14.4,1.5h-.3Z"/>
  <path class="st10" d="M26.2,693.2c3.7,3.8,3,8.8-.8,10.2.5-1.8,1.3-3.7,1.5-5.7,0-1.1-.8-2.3-1.7-3.3-.5-.6-2.2-1.2-3.2-1.1-.8,0-1.7,1-2.2,1.7-.3.5-.3,1.1-.8,1.6-1-1.6-.7-3.1,1.8-4.1,2.2-.9,3.7-.2,5.3.8h.1Z"/>
  <path class="st10" d="M265.3,681.8c-5.7-.4-11-.8-16.6-1.3,0-.4.2-.7.3-1.1,5.5.8,10.9,1.5,16.2,2.4h.1Z"/>
  <path class="st2" d="M149.8,630.2c-1.3-2.8-2.5-5.6-3.7-8.6,4.3.7,8.9,1.3,12.7,2.6,10,3.3,19.1,7.5,25.6,13.2,1.7,1.4,3.2,2.9,4.8,4.3,5.5,4.4,10.5,9,12.5,14.5-1.8,0-3.7.2-5.5.4-2,.3-2.5,1-.7,2-.7.7-1.5,1.4-2.5,1.9-9.7,4.1-20.7,5.7-32.3,6.5-18.4,1.4-36.9,1.2-55.2-.9-5.5-.6-11.2-1.1-15.7-3.5-.5-.3-.8-.6-1.3-1,13-.4,26.2-.6,39.5-1,5,0,10-.7,15-.8h12c3.5,0,7-.2,10.5-.4.5,0,1-.8,1.7-1.4,1.3-.3,2.5-.4,4-.5,1.7,0,3.3.2,4.5-.2,2.3-.7,6,.8,6.9-1.2.7-1.4,0-3.2-.3-4.7-1.3-4.3-4.7-8-9.5-11.1-6.5-4.3-14-7.8-23.2-9.9l.2-.2h0Z"/>
  <path class="st7" d="M124.6,658.4h-14.7c11.5-14.9,21.9-29.4,27.9-45.4,6.5,13.7,12.9,26.9,19.1,40.3v1.6c1,2.3,1,2.4-2.8,2.4-9,0-17.9.2-26.9.4-1,0-1.8.5-2.8.7h.3-.1Z"/>
  <path class="st2" d="M78.9,659.3c1.2-3.8,1.8-7.8,4.5-11.3,3.3-4.3,8.2-8.3,12.9-12.2,4.7-4,10.4-7.6,17.2-10.3,2.8-1.1,6.2-2,9.2-3,2.3-.7,4.8-1.2,7.5-1.9-1.3,3.1-3,6.2-5.2,9.5-2.8.7-5.7.9-7.7,1.8-8.5,3.6-13.9,8.7-18.9,14.1-3.8,4.1-3.7,8.5-3.3,12.9-5.3,0-10.7.3-16.4.4h.2Z"/>
  <path class="st8" d="M95.6,658.9c-.7-4.4-.8-8.9,3-12.9,5-5.3,10.4-10.5,18.9-14.1,2-.9,4.8-1.2,7.5-1.7-3.2,5.6-6.5,11.2-10.2,16.7-2.2,3.3-4.8,6.4-7.2,9.7-1.3,1.8-3.2,2.6-6.4,2.3h-5.7,0Z"/>
  <path class="st8" d="M149.8,630.4c9.2,1.8,16.7,5.4,23.2,9.7,4.8,3.2,8.2,6.9,9.5,11.1.5,1.5,1,3.3.3,4.7-1,2.1-4.7.6-6.9,1.2-1.2.3-2.8,0-4.5,0-.3-.8-.3-1.6-.2-2.3,0-1.2.7-2.4.5-3.5-1-5.8-7.7-9.3-14.5-12.8-1-.5-2.7-.6-4-.9-1.2-2.4-2.2-4.8-3.3-7.4l-.2.2h0Z"/>
  <path class="st6" d="M153.1,637.9c1.3,0,3,.2,4,.7,6.9,3.4,13.5,7,14.5,12.8.2,1.1-.3,2.3-.5,3.5v2.2c-1.2.2-2.3.4-3.7.5h-3.5c-.3,0-.7-.2-1.2-.5-2.3-4.7-4.5-9.2-6.9-13.6-.3-.5-1.3-1-2-1.4-.2-1.4-.5-2.7-.7-4.2h-.2.2Z"/>
  <path class="st2" d="M867.9,671.8h-2c-3.3,0-6.5,0-9.7,1.4-4.7,1.9-10.2,2.9-16.2,3.1-13,.3-25.9,1.4-39,1.4s-26.9-.7-40.5-1.6c-5.2-.3-10.2-1.9-15.4-3-2-.4-3.8-.9-5.9-1.5s-4.7-1.1-5.7-2.1c-2-1.9-4.7-2.1-8.2-2.1-.8-.8-1.2-1.5-1.5-2.4.5-.7,1-1.2,1.2-1.8,1.7-6.7,7.2-12.5,13.2-18,7.9-7.2,17.2-13.8,28.3-19.4,6-3.1,12.9-5.3,20.6-6.4-1.5,3.4-3.2,6.6-4.8,9.8-8,1.1-14,3.9-19.1,7.3-5.7,3.9-10.4,8.3-15.7,12.5-5.2,4.1-7,8.9-8,13.9-.3,1.5.8,2.7,3.8,2.8h9.5c3.3.3,5.7-.2,7.2-1.9.8,1.4,2.2.4,3.2.5-.3.7-.7,1.2-1.2,1.8,12.4.4,24.4.8,36.4,1.4,0,.4.3.6.5.8.3-.3.7-.6,1.3-1,3.2,0,6.2.2,8.9.5.2.4.5.7.8,1,.5-.4.8-.7,1.5-1.1h8.2c-.2-.3-.3-.5-.3-.8,2.3.4,4.5,1,6.7,1.1,4.8.3,9.5.3,14.7.4,2,0,3.5.3,5.2.3s2.2-.4,2.3-.9c1.8-3.2,2.2-6.5.8-9.8-2.8-6.6-8-12.5-15.7-17.7-8.2-5.4-17.2-9.6-29.8-10.8-.7-2.2-1.3-4.2-1.7-6.2,7.7,1,14.5,2.6,21.2,4.8,10.7,3.6,18.2,9,25.2,14.7,2.5,2.1,4.2,4.5,6.2,6.8,4.7,5.3,8,10.9,7.9,17,0,2.7,0,2.8,4.7,2.9.2.7.3,1.3.7,1.8M790.6,668.2h1.7v-.3h-2.5v.3h.7M817,668.9l-.5-.3s-.2,0-.3.2h.8Z"/>
  <path class="st6" d="M840.6,668.6c-4.8,0-9.7-.2-14.4-.4-2.2,0-4.2-.8-6.7-1.2q-.3,0-.3-.3c-.3-.4-.7-.7-1.2-1.1v-.2c-.3-.5-.7-.8-1.2-1.3-.3-.4-.5-.7-.5-1.1-.2-.4-.3-.6-.8-.9-.3-.4-.5-.7-.5-1.2-.3-.5-.7-.9-1.2-1.3l.2-.2c-.2-.3-.3-.5-.5-.7h0c-.3-.5-.5-.8-.8-1.1h0c-1-1.7-1.8-3.2-3-4.8-1.5-3.1-2.8-6.1-4.2-9.1-.5-1.4-1.2-2.7-2-4.1v-.7c0-.3-.3-.6-.7-.9v-.6h2.8c0-.9-.2-1.6,0-2.5,1.3,0,2.8-.3,3.7,0,3.8,1.2,7.9,2.4,11.4,3.9,5.9,2.4,10.4,5.6,13.9,9.4,3.7,3.9,7,7.8,6.7,12.4-.2,2.7-.8,5.5-1.3,8.2l.7-.2h-.1Z"/>
  <path class="st8" d="M752.7,665.8h-9.4c-3,0-4.2-1.3-3.8-2.8,1-5,2.8-9.8,8-13.9,5.2-4.2,10-8.6,15.7-12.5,5-3.5,11.2-6.2,19.1-7.2-1.3,2.8-2.8,5.5-4.5,8.2-3,1-6.2,1.7-8.4,3-7,4.2-14,8.5-16.4,14.6-1,2.5-2.8,4.9-1.2,7.5.7,1,.7,2.1,1,3.1h-.2.1Z"/>
  <path class="st8" d="M840.9,668.6c0-2.7.8-5.5,1-8.2.3-4.6-3.2-8.5-6.7-12.4-3.5-3.8-8-6.9-13.9-9.4-3.7-1.5-7.5-2.7-11.4-3.9-1-.3-2.3,0-3.8,0-.8-1.6-1.5-3.1-2-4.6,12.4,1,21.6,5.2,29.8,10.6,7.7,5.1,12.9,11.1,15.7,17.7,1.3,3.2,1,6.6-.8,9.8-.2.4-1.5.8-2.3.9-1.7,0-3.3-.2-5.2-.3l-.3-.2h0Z"/>
  <path class="st6" d="M753,665.8c-.7-1-.7-2.1-1.2-3.1-1.7-2.7.2-5.1,1.2-7.5,2.5-6.1,9.4-10.4,16.4-14.6,2.2-1.3,5.3-2,8.4-2.9-.2,1.1-.7,2-1.2,3.1-3.2,3.7-4.3,8-9.4,11s-.8.9-1,1.4c-1,3.7-3.3,7.2-6.2,10.6-1.3,1.8-3.7,2.3-7,2h0Z"/>
  <path class="st7" d="M800.6,631c.2,1.5,0,2.9.7,4.2,3,6.8,6.2,13.5,9.4,20.3.2.4.7.7,1,1.2,1.7,2.8,3.2,5.6,4.8,8.3.3.7.8,1.3,1.5,2.4-18.2-.6-36.1-1.1-54.2-1.6,1.2-1.9,2.3-3.8,3.3-5.7v-.2c.2-.3.3-.5.5-.8h0c.2-.3.3-.6.5-.8h.2c.5-.8,1-1.6,1.3-2.3,2.3-3.7,4.8-7.4,7.5-11.4.3-.5.3-.7.5-1v-.2c2.5-4.3,5.5-8.4,7.7-12.6,3-5.8,5.5-11.8,8.4-17.7,0-.2.3-.3.7-.5,2,6.2,3.8,12.3,5.9,18.5h.3,0Z"/>
  <path class="st5" d="M976.2,397.8c5,9.1,3.7,17.8-3.7,26.2-3,3.3-7,6.2-11.7,8.7-17.1,8.8-39.5,10.5-59.4,4.8-3.8-1.1-7.5-2.6-10.9-4.2-.5-.2-1-.4-1.2-.9,17.1,2.7,32.1.7,45.3-6.2,8.7-4.6,13.5-10.6,14.9-17.4,1.5-7.5-1.7-14.2-9.2-20.2s-17.7-9.4-30.1-10.8c.3-.5,1-.5,1.7-.7,2.3-.5,4.8-.7,7.4-.8,8.4-.3,16.6,0,24.4,1.8,6.9,1.5,13,3.7,18.4,6.7,6.5,3.7,11.2,8,14.2,13.1h-.2,0Z"/>
  <path class="st5" d="M370.5,388.3c0-.4.7-.4,1-.5.3,0,.7,0,1-.1,8.9-.9,13.9-4,14.7-9.4,0-.3,0-.7.8-.8.7,6.1,6.2,9.6,16.4,10.7-10.7,1-15.7,4.8-16.2,11.1-1-.6-.8-1.2-1-1.8-.5-1-.8-2-1.3-3.1-2-3.7-7-5.1-12.7-5.8-.8,0-1.5-.2-2.3-.4h-.4Z"/>
  <path class="st5" d="M468.3,382.1c2.5,3.2,7,4.3,12.4,4.9-3.3.6-6.7.8-9.2,2.3-2.3,1.5-3.2,3.5-4.8,5.4-.8-4.4-5.2-6.8-12.2-7.7,3-.6,6-1.2,8.2-2.5,2.3-1.3,3.3-3,4.3-4.8.5.8.8,1.6,1.3,2.4h0Z"/>
  <path class="st5" d="M364.1,415.9c-2.3-.8-4.8-1-7.7-1.6,3.5-.7,6.9-1,9.4-2.3,2.7-1.3,3.5-3.2,4.5-5.1,1.2,1.8,2.2,3.7,4.5,5.1,2.5,1.4,5.7,1.9,8.9,2.4-3.2.4-6.4.9-8.9,2.2-2.5,1.3-3.5,3.1-4.7,5-1-2.3-2.5-4.4-6.2-5.7h.2Z"/>
  <path class="st5" d="M325,395.3c-1.3-4.1-5.5-6.2-12.2-6.9,2.8-1,5.9-1.6,8.4-2.7,2.8-1.2,3.7-3,4.3-4.9,1.2,1.7,1.8,3.5,4,4.9,2.3,1.4,5.2,2,8.4,2.7-7,.8-10.9,3.4-12,7.4-.8,0-.7-.3-.8-.5h0Z"/>
  <path class="st5" d="M264.3,377.2c2.3-1.3,3.3-2.9,4.3-4.7,1.7,4.4,6.5,6.4,13.7,7.1-7.2.6-12,2.6-13.7,7.1-1.8-3.9-5.9-6.4-12.7-7.1,3-.6,6-1.1,8.2-2.5h.2Z"/>
  <path class="st5" d="M421.1,408c1.2-.7,1.3-1.6,2.3-2.6,1.2,2.4,3.3,3.9,7.4,4.4-3.8.7-6.4,2.1-7.4,4.5-2.1-2-4.6-3.5-7.4-4.5,1.8-.5,3.5-.8,4.8-1.7h.3Z"/>
  <path class="st5" d="M467.8,440c3.2-.7,4.3-2.1,5.3-3.9,1.2,2.2,3.2,3.7,7.2,4.3-3.7.8-6.2,2.1-7.2,4.5-1-2.3-3.3-3.6-6.7-4.2,0-.6.8-.5,1.3-.7h.1Z"/>
  <path class="st5" d="M290.6,416.8c-.3.5-.7,1-1.3,1.8-1-2.2-3-3.6-6.9-4.2,1.8-.7,3.3-1.1,4.5-1.8,1.2-.7,1.5-1.6,2.5-2.7,1,2.1,2.7,3.5,6.4,4.3-2.2.8-4.2,1.4-5.2,2.6h0Z"/>
  <path class="st5" d="M955.8,454.6c0-.4.7-.4,1-.5.3,0,.7,0,1-.1,8.9-.9,13.9-4,14.7-9.4,0-.3,0-.7.8-.8.7,6.1,6.2,9.6,16.4,10.7-10.7,1-15.7,4.8-16.2,11.1-1-.6-.8-1.2-1-1.8-.5-1-.8-2-1.3-3.1-2-3.7-7-5.1-12.7-5.8-.8,0-1.5-.2-2.3-.4h-.4Z"/>
  <path class="st5" d="M620.1,379.9c2.5,3.2,7,4.3,12.4,4.9-3.3.6-6.7.8-9.2,2.3-2.3,1.5-3.2,3.5-4.8,5.4-.8-4.4-5.2-6.8-12.2-7.7,3-.6,6-1.2,8.2-2.5,2.3-1.3,3.3-3,4.3-4.8.5.8.8,1.6,1.3,2.4h0Z"/>
  <path class="st5" d="M524,440.1c-2.3-.8-4.8-1-7.7-1.6,3.5-.7,6.9-1,9.4-2.3,2.7-1.3,3.5-3.2,4.5-5.1,1.2,1.8,2.2,3.7,4.5,5.1,2.5,1.4,5.7,1.9,8.9,2.4-3.2.4-6.4.9-8.9,2.2-2.5,1.3-3.5,3.1-4.7,5-1-2.3-2.5-4.4-6.2-5.7h.2Z"/>
  <path class="st5" d="M558.7,471.3c-1.3-4.1-5.5-6.2-12.2-6.9,2.8-1,5.9-1.6,8.4-2.7,2.8-1.2,3.7-3,4.3-4.9,1.2,1.7,1.8,3.5,4,4.9,2.3,1.4,5.2,2,8.4,2.7-7,.8-10.9,3.4-12,7.4-.8,0-.7-.3-.8-.5h-.1Z"/>
  <path class="st5" d="M528.3,378.4c2.3-1.3,3.3-2.9,4.3-4.7,1.7,4.4,6.5,6.4,13.7,7.1-7.2.6-12,2.6-13.7,7.1-1.8-3.9-5.9-6.4-12.7-7.1,3-.6,6-1.1,8.2-2.5h.2Z"/>
  <path class="st5" d="M613.1,410.8c1.2-.7,1.3-1.6,2.3-2.6,1.2,2.4,3.3,3.9,7.4,4.4-3.8.7-6.4,2.1-7.4,4.5-2.1-2-4.6-3.5-7.4-4.5,1.8-.5,3.5-.8,4.8-1.7h.3Z"/>
  <path class="st5" d="M600.7,440.3c3.2-.7,4.3-2.1,5.3-3.9,1.2,2.2,3.2,3.7,7.2,4.3-3.7.8-6.2,2.1-7.2,4.5-1-2.3-3.3-3.6-6.7-4.2,0-.6.8-.5,1.3-.7h.1Z"/>
  <path class="st5" d="M490.3,415.2c-.3.5-.7,1-1.3,1.8-1-2.2-3-3.6-6.9-4.2,1.8-.7,3.3-1.1,4.5-1.8,1.2-.7,1.5-1.6,2.5-2.7,1,2.1,2.7,3.5,6.4,4.3-2.2.8-4.2,1.4-5.2,2.6h0Z"/>
  <path class="st5" d="M173.2,377.4c0-.4.7-.4,1-.5.3,0,.7,0,1-.1,8.9-.9,13.9-4,14.7-9.4,0-.3,0-.7.8-.8.7,6.1,6.2,9.6,16.4,10.7-10.7,1-15.7,4.8-16.2,11.1-1-.6-.8-1.2-1-1.8-.5-1-.8-2-1.3-3.1-2-3.7-7-5.1-12.7-5.8-.8,0-1.5-.2-2.3-.4h-.4Z"/>
  <path class="st5" d="M218.7,389.7c2.5,3.2,7,4.3,12.4,4.9-3.3.6-6.7.8-9.2,2.3-2.3,1.5-3.2,3.5-4.8,5.4-.8-4.4-5.2-6.8-12.2-7.7,3-.6,6-1.2,8.2-2.5,2.3-1.3,3.3-3,4.3-4.8.5.8.8,1.6,1.3,2.4h0Z"/>
  <path class="st5" d="M131.2,427c-2.3-.8-4.8-1-7.7-1.6,3.5-.7,6.9-1,9.4-2.3,2.7-1.3,3.5-3.2,4.5-5.1,1.2,1.8,2.2,3.7,4.5,5.1,2.5,1.4,5.7,1.9,8.9,2.4-3.2.4-6.4.9-8.9,2.2-2.5,1.3-3.5,3.1-4.7,5-1-2.3-2.5-4.4-6.2-5.7h.2Z"/>
  <path class="st5" d="M88.4,407.7c-1.3-4.1-5.5-6.2-12.2-6.9,2.8-1,5.9-1.6,8.4-2.7,2.8-1.2,3.7-3,4.3-4.9,1.2,1.7,1.8,3.5,4,4.9,2.3,1.4,5.2,2,8.4,2.7-7,.8-10.9,3.4-12,7.4-.8,0-.7-.3-.8-.5h-.1Z"/>
  <path class="st5" d="M33.9,382.1c2.3-1.3,3.3-2.9,4.3-4.7,1.7,4.4,6.5,6.4,13.7,7.1-7.2.6-12,2.6-13.7,7.1-1.8-3.9-5.9-6.4-12.7-7.1,3-.6,6-1.1,8.2-2.5h.2Z"/>
  <path class="st5" d="M181.9,410.8c1.2-.7,1.3-1.6,2.3-2.6,1.2,2.4,3.3,3.9,7.4,4.4-3.8.7-6.4,2.1-7.4,4.5-2.1-2-4.6-3.5-7.4-4.5,1.8-.5,3.5-.8,4.8-1.7h.3Z"/>
  <path class="st5" d="M212.3,421.9c3.2-.7,4.3-2.1,5.3-3.9,1.2,2.2,3.2,3.7,7.2,4.3-3.7.8-6.2,2.1-7.2,4.5-1-2.3-3.3-3.6-6.7-4.2,0-.6.8-.5,1.3-.7h0Z"/>
  <path class="st5" d="M40.3,441.4c-.3.5-.7,1-1.3,1.8-1-2.2-3-3.6-6.9-4.2,1.8-.7,3.3-1.1,4.5-1.8,1.2-.7,1.5-1.6,2.5-2.7,1,2.1,2.7,3.5,6.4,4.3-2.2.8-4.2,1.4-5.2,2.6h0Z"/>
  <path class="st5" d="M812.3,383.2c-2.5,3.2-7,4.3-12.4,4.9,3.3.6,6.7.8,9.2,2.4,2.3,1.5,3.2,3.5,4.7,5.4,1-4.4,5.3-6.7,12.4-7.6-3-.6-5.9-1.2-8.2-2.6s-3.3-3-4.2-4.9c-.5.8-1,1.6-1.5,2.4h0Z"/>
  <path class="st5" d="M859.2,409.3c-1.2-.7-1.3-1.6-2.3-2.6-1.2,2.4-3.3,3.9-7.5,4.4,3.8.7,6.4,2.1,7.2,4.5,2.1-2,4.6-3.5,7.4-4.5-1.8-.5-3.5-.8-4.8-1.7h.2-.2Z"/>
  <path class="st5" d="M812.2,441.1c-3.2-.7-4.3-2.1-5.3-3.9-1.2,2.2-3.2,3.7-7.2,4.3,3.7.8,6,2.1,7,4.5,1-2.3,3.3-3.6,6.9-4.2,0-.6-.8-.5-1.3-.7h-.1Z"/>
  <path class="st5" d="M568.8,405.4c0-.4-.7-.4-1-.5-.3,0-.7,0-1-.1-8.9-1-13.7-4.1-14.5-9.5,0-.3,0-.7-.8-.8-.7,6.1-6.4,9.6-16.6,10.6,10.7,1,15.7,4.9,16.2,11.2,1-.6.8-1.2,1.2-1.8.5-1,.8-2,1.5-3.1,2-3.7,7-5,12.9-5.8.8,0,1.5-.2,2.3-.4l-.2.2h0Z"/>
  <path class="st5" d="M660.5,380.3c-2.5,3.2-7,4.3-12.4,4.9,3.3.6,6.7.8,9.2,2.4,2.3,1.5,3.2,3.5,4.7,5.4,1-4.4,5.3-6.7,12.4-7.6-3-.6-5.9-1.2-8.2-2.6s-3.3-3-4.2-4.9c-.5.8-1,1.6-1.5,2.4h0Z"/>
  <path class="st5" d="M664.1,432.7c2.3-.8,4.8-1,7.7-1.5-3.5-.7-6.9-1.1-9.4-2.4-2.7-1.3-3.5-3.2-4.3-5.1-1.2,1.8-2.2,3.7-4.7,5-2.5,1.4-5.7,1.9-8.9,2.3,3.2.4,6.4.9,8.9,2.2,2.5,1.3,3.5,3.2,4.7,5.1,1.2-2.3,2.5-4.4,6.2-5.7h-.2Z"/>
  <path class="st5" d="M699.5,406.2c1.3-4.1,5.7-6.2,12.4-6.8-2.8-1-5.9-1.6-8.4-2.7-2.7-1.2-3.7-3-4.2-5-1.2,1.7-1.8,3.5-4.2,4.9s-5.2,2-8.4,2.7c7,.8,10.9,3.4,11.9,7.5.8,0,.7-.3.8-.5h.1Z"/>
  <path class="st5" d="M752.3,379.2c-2.3-1.3-3.2-2.9-4.3-4.7-1.7,4.4-6.7,6.4-13.9,7,7,.7,12,2.7,13.5,7.2,1.8-3.9,5.9-6.4,12.7-7-3-.6-6-1.1-8.2-2.5h.2Z"/>
  <path class="st5" d="M757.2,400.5c-1.2-.7-1.3-1.6-2.3-2.6-1.2,2.4-3.3,3.9-7.5,4.4,3.8.7,6.4,2.1,7.2,4.5,2.1-2,4.6-3.5,7.4-4.5-1.8-.5-3.5-.8-4.8-1.7h.2-.2Z"/>
  <path class="st5" d="M789.8,416.2c.3.5.7,1,1.3,1.8,1-2.2,3.2-3.6,6.9-4.2-1.8-.7-3.3-1.1-4.5-1.8-1.2-.7-1.3-1.6-2.3-2.7-1,2.1-2.7,3.5-6.4,4.3,2.2.8,4,1.4,5.2,2.7h-.2Z"/>
</svg>