<?xml version="1.0" encoding="utf-8"?>
<!-- Generator: Adobe Illustrator 26.5.3, SVG Export Plug-In . SVG Version: 6.00 Build 0)  -->
<svg version="1.1" id="Layer_1" xmlns="http://www.w3.org/2000/svg" xmlns:xlink="http://www.w3.org/1999/xlink" x="0px" y="0px"
	 viewBox="0 0 2048 725" style="enable-background:new 0 0 2048 725;" xml:space="preserve">
<style type="text/css">
	.st0{fill:#121F32;}
</style>
<path class="st0" d="M0,725c0-69.3,0-138.7,0-208c0.9-0.4,2-0.6,2.7-1.2c4.9-5.2,10.9-8.2,17.8-9.5c2.2-0.4,4.8-0.7,6.3-2
	c2.9-2.6,5.2-5.9,7.9-8.8c2.9-3.1,5.5-7.5,9-8.5c4.2-1.2,5.5-3.5,6.6-6.8c1.2-3.8,2-7.7,3.5-11.4c3.7-9.3,11.8-14.2,19.9-18.7
	c9.9-5.4,20-10.4,30.1-15.3c1.6-0.8,3.7-0.6,5.6-0.9c5.3-0.9,10.8,0.2,15.3-4.5c3.3-3.5,8-4.9,13.1-1.8c2.8,1.7,5.9,3,9.6,0.7
	c3.9-2.3,8.4-3.6,12.8-5c2.1-0.7,4.7-1,6.8-0.5c4.7,1,9.3,2.6,13.3,3.8c2.7-3.7,5-7,8.2-11.5c0.4,3.5,0.6,5.5,0.8,7.5
	c0.7-1.5,1.3-2.9,1.9-4.3c0.6-1.7,1.2-3.4,1.8-5.1c1.1,1.4,2.4,2.8,3.2,4.4c0.5,1.1,0,2.6,0.5,3.8c0.4,1,1.6,1.7,2.4,2.5
	c-0.6,1.8-1.1,3.7-1.9,6.3c-0.8-1.5-1.2-2.4-1.5-2.9c-8.2,2.3-1.6,6.2-1.3,9.9c1.3-0.6,2.3-1,3.1-1.3c0.5,3.8,0.9,7.1,1.3,10.5
	c0.8,0,1.6,0.1,2.4,0.1c1-3.3,1.9-6.6,2.9-10l-0.7-0.3c-0.6,0.8-1.1,1.7-1.7,2.5c-0.4-0.2-0.9-0.3-1.3-0.5c1.3-4.7,2.6-9.5,3.8-13.8
	c-1.3-0.1-3.3-0.3-5.3-0.5c1.7-2.5,4.3-5-0.6-7.8c4.1-2.9,7.8-5.5,11.5-8l1.2,1c-0.7,4.1-1.4,8.3-2.2,13c-3.1,1.2-4.2,3.7-1.5,8.3
	c1.9-2.6,3.5-4.8,5.1-7c0.3,0.3,0.9,1.1,1.6,1.9c0.5-0.1,1.1-0.2,1.6-0.2c0.2-2.7,0.4-5.5,0.8-8.2c0.1-0.8,1.1-1.4,1.6-2.1
	c0.6-0.8,1.8-1.7,1.7-2.4c-1-7.1,2.9-2.7,4.7-2.6c-0.2,2.1-0.4,3.9-0.6,6.1c2-1.1,3.3-1.8,4.9-2.7c0.6,2.4,1.1,4.3,1.6,6.1
	c5.8,1,9.4-1.9,12.1-6.6c1.1,2.2,1.8,3.7,2.9,6c0.5-2,0.7-3.2,0.8-3.7c5.8-1.9,11.2-3.7,16.6-5.2c1.6-0.5,3.7-0.8,5.1-0.1
	c7.8,3.6,10.4,3.2,17.2-2.6c1.4-1.2,3.6-1.5,5.4-2.2c6-2.3,12-4.5,18-6.9c1.4-0.5,2.6-1.8,4-1.9c8.2-0.4,16.1-0.4,24.3-2.6
	c7.6-2.1,13.5,5,18.5,7.9c9.4-0.7,17.6-1.3,26.9-2c-1.5,3.1-2.3,4.8-3,6.3c2-0.5,4.1-1.1,6.1-1.5c2.4-0.5,5.3-0.3,7.2-1.6
	c5.1-3.5,10.2-5.2,15.6-2.3c-1.2,2.1-2.5,4.2-3.7,6.3c2.8-1.7,10.9,7.8,9.2-4c1,1.6,1.9,3.2,3.1,5.1c1.3-0.1,3.2-0.2,5.2-0.4
	c3.9-0.3,6.9,0.2,6.4,5.4c-0.2,2.2,0.8,4.5,1.3,6.7l1-0.1v-10.1c8,5.1,15.8,4.8,24,1.2c0.3,2.1,0.5,4.1,0.7,6c6.1-2.6,11.8-5,17-7.1
	c1,2.8,1.8,5.2,2.1,6.3c3.7,0.8,6.1,1.3,8.5,1.8c-0.5,1.7-1.1,3.3-1.5,5c-0.4,1.6-0.6,3.2-0.8,4.8h7.9c-1.1,6.4-2.2,12.6-3.3,18.8
	c7.8-1.3,3.9-8.1,5.7-11.8c1.3,2.6,2.5,5.1,3.6,7.2c2.1-2.5,3.4-4.1,4.7-5.6c0.5,0.1,1,0.2,1.6,0.4c1.3,4.7,2.6,9.4,3.9,14
	c-0.5,0.1-1,0.3-1.5,0.4c-2.6-2.8,1.2-8.5-4.2-10.3c-0.9,6.9-1.7,13.4-2.5,19.9c0,0.3,0.2,0.6,0.2,0.9c0.8,2.7,1.6,5.4,2.4,8.1
	c-3.7,1.9-9.9,0.7-7.7,7.6c-0.7,0.2-1.4,0.3-2.2,0.5c6.6,4.2,6.9,4.2,8.5,0.4c1,1.2,2,2.4,3,3.6c-0.5,0-1,0-1.5,0
	c-0.4,6.1-0.8,12.3-1.2,18.4c0.6,0.3,1.2,0.6,1.8,1c3.5-2.4,7-4.7,10.3-7.2c1-0.8,1.5-2.3,1.9-3.6c0.1-0.2-1.3-1.4-1.8-1.3
	c-1.5,0.4-2.9,1.1-4.2,1.9c-0.6,0.4-0.9,1.3-1.5,2.2v-10.7c2.5,0.2,4.6,0.4,6.9,0.7c-1.7-2.5-3.1-4.6-4.8-7h2.8c-0.5-1-1-2-1.5-2.9
	c1.2-0.3,3.5-0.5,3.5-0.9c0.3-4.1,0.2-8.2,0.2-12.3c-0.4,0-0.8,0-1.2,0c-0.8,4.4-1.6,8.9-2.4,13.3c-1-1.6-2.2-3.1-3-4.8
	c-3.4-7.8,2.7-14.8,1.2-22.5c5,2.2,9.3,5.4,13.7,5.6c5.9,0.3,7.4,4.6,10.8,7.8c0.4-0.4,1.1-1,0.7-0.6c4.4,2.7,8.4,5,12.4,7.4
	c1.1,0.7,2.3,1.3,3.4,2c6.1,3.4,12,7.2,18.4,10c5.6,2.5,11.6,4.5,17.6,5.9c4.2,0.9,9.1,1.4,13,0.1c8.1-2.7,14.5-9.1,23.6-10.6
	c3.4-0.6,5.9-5.8,9-8.7c1.3-1.2,3.2-3.1,4.5-2.8c7.2,1.2,14.2,3.1,21.4,4.6c9.6,2.1,19.2,3.4,28.1-3.2c0.3,0.2,1.1,0.6,1.7,1.2
	c5.5,6.1,11.7,5.7,18.4,2.1c1.2-0.7,3.3-0.4,4.7,0.1c8,2.7,15.7,1.2,23.2-1.7c3.1-1.2,5-0.5,6,2.7c0.3,1,0.7,2,1,3.1
	c4.6-2.9,12.7-1.1,14.8,3c4-2.3,8.3-0.2,9.9,4.1c2.5,0.7,4.8,1.6,7.2,2c7.6,1.4,15.2,3.6,22.8,3.6c6.1,0,12.7-2,18.2-4.8
	c4.7-2.4,10.6-6.7,11.6-11.1c1.9-9,6.5-16.8,9-25.5c2-6.8,5.2-13.4,6-20.4c0.7-5.6,1.4-10.8,4.8-15.3c1.8-2.4,4.7-3.8,6.5-6.2
	c6.4-8.5,15.3-15.3,17.8-26.4c0.2-1,1.3-1.8,2.1-2.9c1.5,0.6,2.8,1.1,3.8,1.5c2.2-4.4,4.2-8.6,6.4-12.6c1.4-2.5,3.1-2.9,4.4,0.1
	c1.7,4.1,2.1,9.1,4.9,12c3.2,3.3,3.4,6.4,3.1,10.7c-1.3-1.5-2.4-2.7-3.1-3.5c-0.5,2.3-1,4.5-1.6,7.1c6.3-1.1,6.9,6.3,11.5,9.4
	c-2.8-4.8-5.6-9.5-2.6-15.1c0.1-0.1-0.1-0.3-0.1-0.5c-3.4-7.8-3.4-17.2-10.7-23.2c9.8-7,16-7.4,20-2.1c1.1-0.9,2.1-2.4,3.2-2.4
	c0.9,0,2.2,1.7,2.6,2.9c0.8,2.7,1.2,5.5,1.8,8.2c0.3,0,0.6,0,0.9-0.1c0.3-0.9,0.7-1.8,1.4-3.8c5.2,18.2,9.5,35.5,19.2,50.7
	c-1.4-0.2-2.7-0.3-3.1-0.4c0.4,4,0.6,8.1,1.3,12.1c0.3,1.8,2,3.2,2.7,5c1.2,3.3,2.7,6.7,3.1,10.1c0.7,6.1,0.7,12.4,0.9,18.6
	c0.6,0,1.1,0,1.7,0c1.1-4.3,4.7-7.4,3.5-13c-1.7-7.9-6.8-15.2-4.8-23.9c0.3-1.2-1.5-4.2-2-4.2c-4,0.5-2.5-2.8-3.4-4.4
	c0.5,0.4,1,0.9,1.9,1.7c-0.6-3.7-1-6.8-1.7-9.9c-0.6-2.7-0.9-6.2-2.7-7.8c-3-2.6-3-5.1-2.2-8.2c0.1-0.2-0.3-0.5-0.4-0.8
	c-0.3,0.5-0.7,0.9-1.2,1.6c-5.2-9.7-3.8-21.6-10.8-29.8c2.6-2.2,5.6-4,7.7-6.6c7.6-9.3,17.8-13.4,29.2-15.1c3.5-0.5,6.9,0,6.4,5.1
	c-0.1,1.1,0.6,2.3,1,3.4c-1.2-5,2.4-4.7,5.2-5c2.3-0.3,4.6-0.7,6.9-0.9c3.5-0.4,5.8,0.7,6.4,4.5c0.5,3.1,1.2,6.2,1.9,9.3
	c0.6-0.1,1.3-0.2,1.9-0.3c-0.7-3.4-1.3-6.8-2.2-11.3c5.5,0.9,10.3,1.3,14.8,2.5c1.6,0.4,4.2,3.1,3.9,4.2c-0.9,4.3,2.2,5.3,4.6,7.1
	c1.7,1.3,3.2,3,4.3,4.9c1.3,2.3,1.9,4.9,2.9,7.4l1.5-0.5c-1-3.1-1.9-6.2-2.9-9.4c0.3-0.4,0.7-0.9,1-1.3c3.8,1.6,8.6,2.3,11.1,5.1
	c2.6,3,5.5,5.2,8.4,7.8c9.1,8.2,19.9,14.7,25.8,26.5c5.7,11.4,14.3,21.4,14.8,35.1c0.1,2.4,2.7,4.6,4.8,8.1c0.4-2.7,0.6-3.9,0.7-4.6
	c5,0.7,9.8,1.1,14.4,2.1c2,0.4,3.9,1.8,5.5,3.2c1.7,1.5,2.7,3.8,4.4,5.3c4,3.8,7.6,7.7,9.3,13.1c1.1,3.4,3.3,6.4,5.1,9.6
	c0.3-0.2,0.6-0.3,0.9-0.5c-0.7-2.4-1.3-4.9-2.1-7.5h11.3c0.2,2.4,0.5,4.5,0.8,7.7c1.5-2.5,2.4-4,3.1-5c7,0,13.8-0.2,20.5,0.1
	c1.8,0.1,4.2,1.5,5.1,3c3,5.5,5.9,11.1,8,17c2.4,6.8,3.6,7.6,10.5,8.9c5.9,1.1,12.1,2.8,17.1,5.9c3.8,2.3,6.9,4.3,11.4,3.7
	c9.6-1.2,19.3-1.1,28.6-4.6c6.4-2.4,13.1-4.3,19.2-7.4c2.6-1.3,4.1-4.5,7.5-1.2c0.7-2.2,1.2-3.8,1.7-5.4c0.3,0.3,0.5,0.6,0.8,0.9
	c1.6-0.9,3.2-1.9,4.8-2.8c1.7-1,4.1-3.2,4.9-2.7c4,2.4,7.7,0,11-0.6c18.1-3.4,35.6-9,51.6-18.6c2.5-1.5,6-1.9,9-2.2
	c5.6-0.6,11.3-0.6,17.2-1c2.9-13.6,5.4-26.7,8.4-39.7c1-4.3,2.2-9.1,5-12.3c6.3-7.2,9.1-16,13.1-24.3c1-2,1.5-4.6,1.1-6.7
	c-1.7-10,4.9-15.3,11.5-20.5c2.5-2,5.1-3.4,5.5-7.1c0.1-1.4,2-2.9,3.3-3.9c4.5-3.5,9.7-6.4,13.7-10.4c5.5-5.5,10-11.9,15.3-17.5
	c1.3-1.4,4.2-1.3,6.3-2c2.8-0.9,5.5-2.3,8.2-3.8c7.5-4.1,14.9-8.4,22.5-12.3c1.7-0.9,4.1-0.4,6.7-0.5c-0.3-2.7,1.8-3.3,5.2-2.8
	c1.8,0.3,4.1,0.1,5.6-0.8c6.9-4,13-9.6,21.3-10.9c6.2-1,12-7.1,18.6-1c0.5,0.5,1.6,0.7,2.4,0.7c13.1,0.2,26.1,0.7,39.2,0.5
	c6.6-0.1,13.2-1.2,19.6-2.5c6.9-1.4,13.7-3.4,20.4-5.4c4.9-1.5,9.6-3.7,14.4-5.5c4.8-1.8,9.4-4.2,14.4-5.3c12.8-2.8,12.9-1,24.4-8.5
	l5.2-1.5c2.6-0.3,4.3,1.9,5.5,3.4c1.2,1.8,2.4,3.4,4,9c0.4-0.2,3,7,3.4,6.8c0.4,0.9,2.1,4.2,2.3,5.1c1.4,5.6,2.3,12.8,5.6,17.8
	c13,9.8,21.5,16.6,33.4,27.7c4.9,4.5,8.9,5.1,14,3c3.7-1.6,6-0.7,8,2.4c1.7,2.7,3.2,5.5,5.5,9.3c-0.1-6.2,1.2-7.2,5.1-4.3
	c5.8,4.3,11.1,9.2,16.2,14.3c5.4,5.5,10.2,11.5,15.2,17.3c0.4,0.4,0.9,0.7,2.6,1.9c-1-2.1-1.5-2.9-1.9-3.8c-0.8-2-1.4-4-2.1-6.1
	c2.4,0.1,4.8,0,7.2,0.4c1,0.2,2,1.1,2.9,1.8c5.6,4.4,11.2,8.7,16.6,13.4c5.2,4.5,9.8,9.7,15.2,14.1c3.8,3.1,8.6,4.9,12.6,7.8
	c9.8,7.1,19.6,14.2,28.7,22.1c4,3.5,9.9,3.9,12.7,9.3c1.2,2.3,3.8,1.3,5.1-1.7c2.3-5.3,6.5-7.5,10.1-6.8c0,1.9-0.7,4.4,0.1,5
	c4.5,3.4,9.4,6.3,14.1,9.4c0.3-0.2,0.7-0.5,1-0.7c-2.8-4.1-9.1-6.8-6.4-13.2c7.8-3.5,8,6.3,12.6,7.7c0.5-2.8,1.4-5.3,1.4-7.7
	c0-3.9,1.6-5.2,5.2-3.6c1.4,0.6,3,1,4.5,1.5c6.4,2.3,14.2,1.9,18.1,8.2c1.1-0.8,2.4-2.4,3.1-2.2c2.7,1,5.2,2.5,7.7,3.9
	c6,0.4,9.5,4.9,13.3,9c3.1,3.3,6.6,6.4,10.1,9.3c2.1,1.8,4.5,3.2,7.2,5.1c-1.5,0.4-2.5,0.6-4.7,1.2c2.4,0.9,3.5,1.6,4.7,1.7
	c3.2,0.4,5.4,0.9,6.7,5c0.8,2.7,5.2,5.4,8.4,6.1c7,1.5,14.3,1.6,21.9,2.3c-0.1,0.4,0.5-1.1,0.2-1.3c-5-3.5-5.6-12.5-14.3-11.6
	c-1.1,0.1-2.6-1.4-3.6-2.4c-2.5-2.5-4.8-5.2-8.2-8.9c8.3,0.6,15.6,1.2,22.8,1.7c0.1,0.3,0.1,0.6,0.2,0.8c-2.7,0.8-5.4,1.5-8.6,2.4
	c4.3,3.9,8,8.3,14.3,9.1c1.7,1.8,3.2,4.6,5.2,5.1c4.4,1,9.1,0.7,13.7,1v5c-3.8-1.1-7.5-2.1-11-3.1c0.6,2.5,4.3,4.6,11,6.1v20
	c-5.1-0.3-10.3-0.3-14.3-4.5c-0.8-0.8-2.4-0.8-3.6-1c-5.8-1-12-1.2-17.3-3.3c-3.6-1.4-6.9-2.1-10.6-1.9c1.5-0.5,3-0.9,5.9-1.8
	c-2.6-2.2-4.7-3.1-5.5-4.7c-2.2-4.5-4.6-4.2-8.3-0.7c1.4,2.1,2.9,4.2,4.3,6.3c-4.8-1.5-7.9-8.1-14.5-5.6c1.3,2.5,2.1,4.6,3.3,6.3
	c1.4,2,2.8,4.7,4.8,5.5c8.5,3.2,15.7,8.1,21.9,14.7c0.4,0.4,1.2,0.8,1.8,0.7c6.7-1.2,12.9,0.5,19.1,4c-0.8-9.3-7.9-11.3-15.4-13.9
	c2.6-0.5,4.1-0.6,5.5-1.1c4.9-1.9,7.9,1,9.1,4.9c1.1,3.4,2.6,5.3,6,5.4c2.6,0.1,5.3-0.1,8-0.1v13c0,0.7,0,1.4,0,2.1
	c-3.1-0.3-6.2-0.6-9.3-0.9c-0.1,0.4-0.2,0.8-0.2,1.3c3.2,1.2,6.4,2.3,9.5,3.5v139c-13.9-0.3-27.8-1-41.7-0.7
	c-24.3,0.5-48.6,1.2-72.8,2.7c-28.1,1.7-56.1,4-84.1,6.6c-8.2,0.8-16.2,2.6-24.3-0.3c-0.6-0.2-1.6,0.6-2.4,0.9
	c1.6,1.2,3.2,1.6,4.7,1.6c8,0,15.9-0.5,23.9,0c11.1,0.6,22.1,1.9,33.2,2.7c14.3,1.1,28.7,1.9,43,3.3c11,1,22,2.5,33,4.1
	c22.6,3.4,45.2,6.9,67.7,10.5c6.7,1,13.3,2.3,19.9,3.5v37 M1728.8,598.1l0.2,0.3c0.5-0.7,0.9-1.8,1.5-1.9c3.2-0.7,6.5-1,10.4-1.6
	c-5.2-1.1-9.6-1.9-14-2.8c3.2-0.7,6.3-1.5,10.4-2.4c-3.3-2.2-7.8-0.6-10.3,2.5c-2-0.6-3.9-1.2-6.5-2.1c1.2-1.4,2.3-2.6,3.5-3.9h-5.7
	c0.8-1.3,1.3-2.2,1.8-3.1c-0.3-0.3-0.5-0.7-0.8-1c-1.8,1.1-3.5,2.2-6.5,4c0.9-3.3,1.5-5.6,2.1-7.7c-4.3-1-8.9-2-13.5-3
	c0.1-0.3,0.1-0.7,0.2-1c0.8-0.3,1.7-0.6,2.5-0.8c0-0.2,0-0.4,0-0.7c-5.3-0.6-10.7-1.1-16-1.7c-0.7,1.4-1.5,2.9-1.8,3.4
	c-6.6-2.9-12.9-5.4-18.9-8.4c-7.6-3.9-12.5,2.6-19.2,4.4c1,1.6,1.8,4.1,2.8,4.2c2.4,0.3,5-0.6,7.7-1.1c-2.2,6.3,4.6,4.1,8.2,7.2
	c-4.2-0.7-7.3-1.8-10-1.3c-2.1,0.4-3.8,3-6,5c-1.9-1.5-5-2.9-7.1,2c-0.1,0.2-0.6,0.2-0.9,0.2c-3.9,0.5-7.7,1.5-11.6,1.5
	c-13.8-0.2-27.2,4.3-41.2,2.5c-6.7-0.8-13.8,0.5-20.6,1.8c-6.4,1.2-12.9-1.4-19.2,1.5c-1.5,0.7-3.7,0.1-5.8,0.1
	c0.3-3.1,0.6-5.4,0.8-7.6c-1.9-0.3-3.5-0.6-6.1-1.1c2.2-0.6,3.3-1,4.5-1.3c-4.8-0.8-9.5-3.8-14,0c3.1-4.5,7.2-7.5,12.7-7.7
	c6-0.2,12-0.1,18.1-0.1c0-0.6,0-1.1,0-1.7c-1.7-0.3-3.3-0.6-5-0.8c0-0.3-0.1-0.6-0.1-1c2.8-0.6,5.5-1.2,8.3-1.8
	c3.5,1.6,7,3.3,10.5,4.9c-0.1-0.5-0.2-1-0.3-1.6c2.9-0.7,6.6-3,8.5-1.9c3.9,2.1,6.9,1,10.2-0.2c4.8-1.9,9.6-4,14.4-6
	c-0.2-0.5-0.3-0.9-0.5-1.4c-8.2,0.9-16.4,1.5-24.6,2.7c-6.2,0.9-12.3,2.4-18.4,3.6c-1.8-0.4-3.7-1.4-5.4-1.1
	c-12.4,2.5-24.5-1.2-36.7-1.4c-7.9-0.1-15.8,0.8-23.6,1.3c-2.4,0-4.6,0.1-5.1,3.4c-0.1,0.7-2.5,1-3.9,1.5c-1.4-4.3-4.2-1.3-6.3-1
	c-1.6,0.2-3.2,1-4.8,1.1c-11.6,0.8-23.3,1.5-34.9,2.2c-0.6,0-1.3,0.5-3.2,1.5c2.8,0.2,4.1,0.4,5.3,0.4c5.1,0,10.1,0.1,15.2-0.2
	c2.6-0.2,5.4-2.3,7.7-1.7c8,2,15.8,4.9,24.3,7.6c-3.1,1.1-5.5,2-7.9,2.9l0.1-0.1c-1.7-1.1-3.3-2.2-5-3.4c0.1,0.5,0.1,1.1,0.2,1.6
	c-2.9,1.7-5.7,4.4-8.8,4.9c-4.5,0.6-9.3-0.3-14-0.6c5.2,2.7,12.8,0.2,15.1,7.2c3.4-0.4,6.6-1.1,9.8-1c7.3,0.3,14.5,1.4,21.8,1.5
	c6.8,0.1,13.5,1.8,20.4,1c5.5-0.6,11.3,1.6,16.7,0.8c5.9-0.9,11.4-2.4,17.2,0c0.9,0.4,2,0.4,2.9,0.2c4.2-0.9,8.5-3,12.7-2.7
	c7.5,0.5,14.8,2.5,22.2,3.8c4.5,0.8,8.8,2.6,13.5,0.8c3.5-1.3,5.9,1,5.8,4.8c1.4,1,2.7,1.9,3.9,2.8c2,1.6,3.9,3.5,6.1,4.8
	c4.6,2.7,9.3,0.6,14,0c0.9-0.1,1.8-0.1,2.6-0.2c-0.1-0.4-0.3-1.3-0.3-1.2c-0.8,0.1-1.5,0.3-2.3,0.4c-9.7-3.4-16.7-11.5-27.1-16.1
	c4.5,0.3,8,0.9,11.4,0.6c8.5-0.8,16.9,4.6,25,0.2c0.8,1.5,1.5,2.8,2.4,4.4c3.1-3.9,5.7-6.8,10.7-4.4c4.6,2.2,9.5,3.9,14.4,5.7
	c4.7,1.7,7.6,6.8,13,7.3c0.3,0,0.4,0.8,0.7,1c1.4,0.9,2.8,1.8,4.3,2.4c2.3,0.9,5,1,6.9,2.4c2.4,1.8,4.2,3.4,7.8,3.1
	c2.6-0.2,5.5,2.3,9.1,4.1c3.1,0.3,7.4,0.6,11.8,1l0.2-0.9c-1.2-0.8-2.4-1.5-3.7-2.4c0.8-0.7,1.5-1.3,2.6-2.1
	c-2.3-0.8-4.2-1.5-7.3-2.5c4.7-1.2,8.2-2,11.9-2.9c1.3-3.6-10.4-5.5-3-10v-4.4c0,0,0.1,0,0.1,0
	C1729.6,599,1729.2,598.6,1728.8,598.1z M1041.3,576l0,0.1c-2.5-4.3-4.3-9.3-7.7-12.6c-4.1-4-9.5-6.5-14.4-9.7c-0.3-0.3-0.6-0.6-1-1
	c-0.7-2.1-1.4-4.1-2-6.2c0-0.1,0.4-0.3,0.9-0.6c0.1,1.1,0.3,2.1,0.4,3.4c1.8-0.9,3.2-1.6,5.3-2.6c-1.7-2.8-3.8-5.1-4.6-7.8
	c-1.8-6.4-3.3-12.9-4.2-19.4c-0.5-3.9,0-8,0.6-11.9c0.4-2.2-1.7-5.8,2.8-6.4c0.3,0,0.6-1.7,0.5-2.6c-0.3-3.5-0.7-6.9-1.2-10.4
	c-0.2-1.2-0.7-2.4-1.1-3.7c-0.3,0.1-0.7,0.2-1,0.3c0.4,2.6,0.8,5.1,1.4,8.8c-1.4-2.2-2-3.2-2.7-4.3c-0.3,0.1-0.7,0.2-1,0.4v19.8
	c-0.4,0.1-0.7,0.2-1.1,0.2c-2.5-8.6-5-17.2-7.4-25.9c-0.5,4.1,0.2,7.9,0.5,11.7c0.3,3.8,0.5,7.6,0.3,11.4c-0.1,3.6-3.3,7.1,0.2,11.9
	c1.5-3.3,2.5-5.6,3.9-8.5c5.2,5.7,0.2,12.8,2.9,17.5c3.7,6.4-0.9,11.9,0.9,17.8c-3.7-2.8-7.1-5.5-9.8-8.8c-2.4-2.8-8.9-3.3-5.4-9.9
	c-1.4,0.8-2.1,1.3-2.8,1.7c0-2.9,1-6.8-0.2-7.7c-3.7-2.8-2-5.7-1.6-8.7c0.5-3.6,2.1-7.3,1.5-10.7c-0.6-3.6-3.2-6.9-5.4-11.4v7.8
	c-3-7.9-6.2-12.9-9.5-15c1-0.5,1.9-1,2.6-1.3c-1.2-2.5-2.4-4.6-3.1-6.8c-1.7-5.3-3-10.7-4.9-15.9c-0.5-1.3-2.8-2.9-3.9-2.7
	c-1.4,0.3-2.9,2.1-3.6,3.6c-1,2.4-1.4,5-2,7.7c0.7-0.1,1.6-0.3,1.5-0.3c-0.7,4.6-1.4,9.4-2.2,14.1c0.5-0.3,1-0.5,1.5-0.8
	c1.1,0.9,2.1,1.8,3.2,2.7c-0.3,0.3-0.5,0.6-0.8,0.9c-2-0.8-3.9-1.7-7.4-3.1c0.8,7.8,1.5,14.3,2.2,20.9h-4.8
	c-0.9,2.2-1.6,3.9-2.3,5.8c1.2,0.9,2.7,1.7,3.8,3c3.8,4.4,11.2,6.4,9.8,14.2c-0.8,4.2,0.6,6,4.7,5.2c1,2.1,1.8,3.8,2.8,6
	c0.5-1.2,0.9-2,1.4-3.3c2.8,5.1,5.3,9.7,7.1,13c2.4,0.8,4.5,0.9,5.1,1.9c0.7,1.2,0.2,3.1,0.2,4.9c1,0.7,2.2,1.3,3.3,2.3
	c6.8,6,6.8,9.2-0.8,11.7c3,1.1,5.2,1.9,7.5,2.7c-4,1.4-4.4,4.1-1.4,9.8c-2.5-1.6-4.9-3.2-7.9-5.1c0.2-0.1-0.6,0.3-1.4,0.7
	c-1.1,0.5-2.3,1-3.4,1.5c0.9,0.9,1.6,2.2,2.7,2.7c2.7,1.4,5.9,1.9,8.3,3.7c8.6,6.3,17.1,12.7,25.3,19.4c2,1.7,3.1,4.6,5,7.5
	c-6.7-0.7-11.7-1.3-16.8-1.8c-0.2,0.4-0.5,0.8-0.7,1.1c0.8,0.9,1.7,1.8,2.4,2.7c0.9,1.3,1.6,2.8,2.4,4.2c-0.7-0.2-1.5-0.3-2.2-0.5
	c-0.1,0.7-0.3,1.4-0.4,2.1c0.3,0,0.5,0,0.8-0.1c-0.1-0.7-0.3-1.3-0.4-2c0.8,0.1,1.6,0.2,2.4,0.4c-2.2,8.6,6.8,4.3,9.7,8.9
	c-7-0.5-13.3-0.6-19.5-1.4c-4.2-0.6-8.2-2.2-12.3-3.2c-3.7-1-7.9-3.3-11.2-2.4c-5.5,1.5-10.4,0.8-14.8-1.5
	c-8.5-4.3-17.3-1.9-26.9-2.7c4.1,2.6,5.8,4.9,5,7c-1.1-0.8-2.2-1.5-3.3-2.2c-3.1-1.9-6.2-3.9-9.4-5.7c-1.3-0.7-3.1-0.9-4-1.9
	c-3.9-4.2-7.7-3.5-11.5-0.2c0.6,1,1.3,2,2.1,3.2c-7.2,0.9-7.6,0.7-7.1-4.5c-9-1.3-18-2.5-26.9-4c-6.8-1.1-13.5-2.6-20.3-4
	c-2.2-0.4-4.8-1.9-6.4-1.2c-1.9,0.9-2.8,3.6-3.9,5.2c-2.9-0.8-5.7-1.5-8.4-2.3c0.1,0.4,0.2,0.8,0.3,1.3c-2.6,1.4-5.2,2.7-7.9,4.2
	c-1.8-0.7-3.7-1.4-5.5-2.2c-2.1-0.9-4.4-2.9-6.4-2.7c-2.4,0.2-4.5,2.4-6.9,3.8v-4.7c-12.7-3.5-25.1-6.9-37.5-10.2
	c-0.2,0.5-0.5,0.9-0.7,1.4c1.8,1.1,3.7,2.2,6.5,3.9c-8,1-14.5-3.7-21.2,0.2c-0.3-0.3-0.8-0.5-1-0.9c-1.2-2.1-1.2-2.1-3.7-1.1
	c-0.6,0.2-1.6-0.1-2.3-0.4c-2.2-1.1-4.3-2.5-6.6-3.5c-2.3-1.1-4.8-1.9-7.2-2.8c-0.3,0.6-0.7,1.3-1,1.9c4.8,3.7,9.7,7.5,14.5,11.2
	c0.1,0.1,0.6-0.4,0.9-0.3c1.9,0.2,3.9,0.2,5.5,0.9c3.6,1.7,7.1,3.5,10.3,5.8c2.1,1.5,3.7,3.7,6.1,6.3c-1.8,0.2-2.5,0.4-3.1,0.4
	c-12.6-1.7-24.4-7.6-37.3-8.1c-0.6,0-1.5-0.1-1.8-0.5c-1.9-2.1-3.7-4.4-5.6-6.6c0.3-0.5,0.6-0.9,0.9-1.4c2.7,0.1,5.3,0.3,8,0.4
	l0.5-1.1c-3-1.8-3.7-7.5-9.5-4.9l0.2,0.1c-3.9-2.9-8.1-4.2-13.1-3.2c-1.5,0.3-3.2-0.3-4.8-0.6c-2.8-0.5-5.6-1.1-8.4-1.7
	c-0.1,0.3-0.2,0.6-0.4,0.9c1.2,1.1,2.4,2.2,4.7,4.4c-4.8,0.3-8.3,0.8-11.8,0.6c-3.7-0.2-7.4-1-11-1.6c-11.3-2-22.7-4.1-34-6.1
	c-0.1,0.4-0.2,0.7-0.3,1.1c10.6,4.1,21.1,8.2,31.9,12.4c-0.2-1.2-0.3-1.8-0.4-3c1.5,0.7,2.5,1,3.2,1.6c7.8,7,16.2,13,27.3,12.5
	c3.9-0.2,6,1.2,6.4,4.8c11.4-0.1,16.8,2.3,16.8,7.2c-4.6,0-9.2,0.3-13.8-0.1c-3.7-0.3-7.5-0.9-11-2.1c-4.4-1.4-8.6-3.4-12.9-5.3
	c-3-1.4-5.8-3.4-9-4.4c-5.6-1.8-11.6-2.2-16.9-4.6c-5.7-2.5-10.6-6.6-15.9-10c-1.1-0.7-2.3-1.4-3.5-1.7c-4-0.8-8.1-1.4-12.1-1.8
	c-1.8-0.2-3.7,0.5-5.6,0.7c0.9,1.8,1.3,4.2,2.7,5.3c5,4.2,10.3,8.1,15.7,12c3.4,2.5,3.2,6.4-0.2,8.7c4.8,4.1,9.4,9.3,16.6,6.3
	c0.5,2.8,1,5.8,1.7,9.4c-3.6,4.2-3.7,7.8-0.8,9.5c-1.8,3.2-4.2,6.2-5.3,9.5c-3.3,10.1-3.1,8.7-11.4,6.6c-0.2-0.1-0.5,0.3-1,0.6
	c0.2,2.5,0.4,5.1,0.6,8.1c5.4,1.1,11.3,1.1,15.8,3.6c5.2,3,10,5.3,16.1,5.4c8,0.2,16.1,1.6,21.4-6.9c0.7,1.5,1.3,2.8,1.7,3.6
	c4.6-0.6,8.8-1.5,13.1-1.6c8.5-0.3,16.9-0.2,25.4,0c1.9,0.1,3.8,1.5,6.8,2.8c0.8-1.7,1.9-4.3,3-6.9c0.5-0.1,1-0.2,1.4-0.3
	c0.6,2.1,2,4.4,1.7,6.4c-0.8,5.6,2.5,6.7,6.7,7.4c1.4-3.8,2.7-7.4,3.9-10.9c0.4,0.1,0.9,0.2,1.3,0.2c0.9,4.2,1.8,8.5,2.9,14.1
	c4.3-2.9,8-5.4,11.8-7.9c1,0.9,2.2,2,3.1,2.8c2.3-1.1,4.2-2,6-3.1c5.6-3.4,5.5-3.5,6.7,3.1c0.7,3.3,1.6,6.6,2.5,9.9
	c0.5-0.1,1-0.2,1.5-0.3c0.5-2.5,0.6-5.2,1.7-7.5c0.7-1.5,2.8-2.7,4.5-3.2c0.5-0.2,2,2.1,2.8,3.4c0.5,0.9,0.5,2.1,0.5,2.4
	c2.3-1.4,4.5-2.8,6.8-4.2c1.8,3.1,3,5.4,4.3,7.6c0.4-0.2,0.8-0.4,1.2-0.6c0.1-1.4,0.2-2.8,0.3-4.3c0.5,0.2,0.9,0.4,1.4,0.6
	c1.2-1.9,2.3-3.8,3.5-5.6c1.1-1.7,2.3-3.3,2.7-3.9c2.9,2.9,5.2,5.1,7.5,7.3c0.5,0.1,1.1,0.2,1.6,0.3c-3.3-7.3,0-11.6,5.2-15.4
	c0.8,1.7,1.2,3.2,2,4.4c1.5,2.1,3.2,4.1,4.8,6.1l0.2,0.2c1.1,4.8,4.1,3.6,7.8,2.7c-1.6-2.2-2.8-3.9-4.4-6c2.3-1.8,4.3-3.7,6.6-5
	c1-0.5,3.8,0.7,4,0.3c2.4-5.2,7.9-1.2,11.4-3.9c2.1-1.6,6.5-0.3,9.4-0.3c0.4-2.1,0.4-4.8,1.1-5c2.7-0.8,5.6-0.8,8.5-1.1
	c0.1,0.2,0.1,0.5,0.2,0.7c-0.8,0.5-1.5,1-2.8,1.7c1.7,0.2,3,0.4,4.2,0.4c9.6,0,19.3-0.8,27,6.8c0.3,0.3,0.9,0.5,1.3,0.5
	c6.6,1.2,13.2,2.3,20.7,3.6c-1.4,2-2,2.8-2.8,3.8c4.7,0.7,9.3,0.6,13.3,2c9.5,3.5,9.4,3.8,9.2,7.4c-4.6-5.5-8.2-3.1-11.7,0.7
	c-0.2,0.2-0.6,0.1-1,0.2c-3.2-0.9-6.3-1.7-9.5-2.6c-0.3,0.7-0.5,1.4-0.8,2.1c1.4,0.6,2.9,1.8,4.3,1.7c2,0,4-0.9,6.1-1.4
	c2,0.6,4.1,1.9,6,1.8c8.2-0.4,16.5-1.3,24.7-2c0.2,0,0.4,0.3,0.7,0.5c-0.7,0.4-1.4,0.8-2.4,1.3c1.6,0.6,3,1.1,4.4,1.6
	c0,0.4,0,0.7,0,1.1c-1.6,0.4-3.3,0.8-4.9,1.2c0.1,10.2,4.4,12.2,19.6,13.9c2.7-3.5,5.1-6.7,8-10.6c-0.4,0,0.5,0.1,1.2,0
	c3.7-0.8,8.1-3.1,8.2,3.9c0,0.7,1.8,2,2.5,1.8c1-0.2,2.3-1.4,2.5-2.4c0.4-1.6,0.1-3.3,0.1-5c0.4-0.1,0.7-0.1,1.1-0.2
	c0.6,1.4,1.3,2.8,1.7,3.6c2-1.4,4-3.9,5.6-3.7c5.8,0.9,12.2,1.5,16.9,4.5c5,3.2,9.1,1.7,13.4,0.8c0.4,3,0.7,5.8,0.9,7.6
	c6.8-1.7,12.7-3.2,19.5-4.9c-3.5-1.2-6.5-2.2-9.7-3.3c6.9-3.1,15.8,1.6,20.7-6.6c-1.2-2-3.6-4.2-3.2-5.7c0.9-3.7-1.4-4-3.5-4.4
	c-10.6-1.8-21.3-3.5-31.9-5.2c0-0.2,0-0.5,0-0.7c5.7-1.3,11.4-2.6,18.3-4.2c-1.7,2.4-2.3,3.3-3,4.2c0.3,0.3,0.6,0.5,0.9,0.8
	c3-3.1,5.9-6.1,8.9-9.2c-0.3-0.2-0.9-0.7-2.2-1.7c16.9,1.9,22.3,1,21.6-3.9c6.4-0.2,12.8,5,19-0.9c-0.7,2.5-1.6,4-1.4,5.3
	c0.1,0.9,1.6,2.2,2.6,2.3c6.1,1.1,12.2,1.9,18.4,2.8c-0.4-0.6-0.9-1.1-1.2-1.6c-0.6-1.3-1.2-2.7-1.8-4.1c1.6-0.2,3.1-0.6,4.7-0.5
	c2.1,0.1,4.2,0.6,6.6,0.9c-2.5-7.3,6.3-5.2,7-10.8c0.9,2.2,1.3,3.1,1.8,4.1c1-2.2,1.8-4,2.7-6c-1.4-0.4-2.7-0.8-4.9-1.4h7.2
	c0.1,1.5,0.2,2.8,0.2,4.1c0.4,0,0.8,0,1.2,0.1c0.7-2.2,1.5-4.4,2.2-6.7c1.7,2.8,3.2,5.1,5,7.8c3.2-7.9,2.6-9.2-4.6-11.5
	c-1.4-0.4-2.5-1.6-4.3-2.8c5.8-0.4,10.2-0.7,14.6-1c0-0.4,0-0.9-0.1-1.3c-2.4,0-6.2,0.9-6.9-0.2c-3.6-5.7-10.9-3.6-15-7.7l-5.9-3.5
	c0.1-0.7,0.3-1.4,0.4-2.2c-1.3-0.1-2.8-0.3-5-0.5c1.1-1,1.6-1.4,1.8-1.6c-3.7-1.8-7.5-3.7-12.2-6.1c3.5,0,5.8,0,8.1,0
	c2.7,1.6,5.5,3.2,8.2,4.7c0.6-0.8,1.2-1.6,1.8-2.4c-1.1-0.5-2.3-1.1-3.4-1.6c1.8,0.1,3.1,0.8,4.4,1.4c1.2,0.5,2.5,0.9,3.8,1.3
	c0.3-3.5,0.5-6.4,0.7-9.2c-1.2,0.3-2.8,0.8-4.5,1.2c0.4,0.8,0.8,1.4,1.3,2.5c-4.3,0.8-8.3,1.5-12.3,2.2c0.7-0.6,1.4-1.2,2.1-1.9
	c-0.1-0.2-0.2-0.5-0.4-0.7c-1.3,0.3-2.6,0.7-4,1c0.2-0.4,0.5-0.7,0.7-1.1c-1.5-1-3.2-3-4.6-2.8c-2.1,0.2-4.2,1.8-5.9,3.2
	c-1.1,0.9-1.6,2.5-2.4,3.8c-1.8-1.4-4.8-2.5-5.2-4.2c-1.7-7.8-6.8-11.7-14-13.7v4.2c-6.9-4.4-12.2-9-11.4-17.9
	c0.3-3.4,0.2-8-4.4-8.4c-0.9,3.4-1.8,6.6-2.8,9.7c-0.1,0.2-1.7,0.2-2.2-0.2c-1.5-1.3-2.8-2.8-4.8-5c0.4,8.7,2.2,13.1,4.9,11.7
	c-0.2-1-0.5-2.2-0.8-3.9c6.7,0.2,7.8,6.4,11.6,9.4c-0.6,0.6-0.9,1-1.1,1c-5.8-0.5-11.3-4.4-17.5-1.7c-0.6,0.3-1.8-0.7-2.7-1
	c-9.5-3-13.9-12.7-22.5-17c-2.5-1.2-3.8-4.6-6.2-6.3c-1.8-1.3-5.9-2.7-6.3-2.2c-2.9,4.2-5.8,1.2-8.7,0.7c0,0-0.1,0-0.1,0
	C1041.9,576.6,1041.6,576.3,1041.3,576z M1044,575.9l-0.2-0.1l0.1,0.2l0.2,0.1C1044.1,576.1,1044,575.9,1044,575.9z M1656.9,639
	l0.1,0.1c0,0-0.2,0.1-0.2,0.1c-1.1,0.1-2.1,0.2-3.2,0.3c0.1,0.4,0.2,0.8,0.4,1.2C1654.9,640.1,1655.9,639.6,1656.9,639z M1643.6,646
	l-0.1,0.1l5.3-4.1c-2.1-2.4-4.9-2.5-9.8-0.5c3.1-2.1,6.2-4.2,9.3-6.3c-0.1-0.4-0.3-0.8-0.4-1.2c-3.4,1.4-6.8,2.6-10.1,4.2
	c-0.3,0.2,0.3,2.3,0.5,3.5c-1.8,0.9-5.2,2.3-5.1,2.6c1.6,4.5-3.1,3.7-3.9,3.5c-3.5-0.8-6.8-2.4-10.7-3.9c0.1,5.3,3.4,6.6,8.3,6.1
	l-0.2,1.2c-1.2,0.4-2.5,0.8-3.7,1.2c-3.4-0.5-6.8-1-10.3-1.5c0,0.4,0,0.7-0.1,1.1c1.2,0.7,2.5,1.5,3.7,2.2h-17.9c0,0.5,0,1,0,1.5
	c1.2,0.1,2.5,0.2,3.7,0.3c0,0.6,0,1.1,0,1.7c-4.3,0.3-8.5,0.6-12.8,0.9c0-0.5-0.1-1-0.1-1.5c1.7-0.1,3.3-0.2,5-0.3l0-1
	c-9.4-0.5-18.7-1-28.1-1.5c-0.1,0.6-0.3,1.2-0.4,1.8c2.5,0.9,5,1.7,7.4,2.7c1.4,0.6,2.9,1.2,4.1,2.2c5.3,4.5,8.6,4.1,12.5-2.4
	c2.9,1.8,5.8,3.6,8.9,5.5c1.4-6.6,6.2-3.6,8.4-3.5c3.7-2.8,6.4-4.7,9-6.7c2.6,0.6,5.7,3.1,6.8-1.8c5.3,2.2,5.3,2.2,3.3,5.5
	c-3.2,0.2-5.6,0.3-8.1,0.5c-5-1.7-4.9,2.8-6.4,5.3c1.9-2,7.6,0.3,6.3-5.4c1.5,1.6,3,3.2,4.7,5.1c-5.3,1.6-9.8,2.9-14.3,4.3
	c0,0.3,0.1,0.6,0.1,0.8c4.6,0.4,9.3,0.9,14.7,1.4c2.1,0.7,5.1,1.8,8.1,2.9c-4.1,0.7-8,0.6-11.9,0.7c-8.5,0.1-17,0.2-25.4,0.4
	c-4.4,0.1-9.3-0.4-12.9,1.5c-2.3,1.2-4.2,2.4-6.9,2.4c-0.9,0-1.8,0.5-2.7,0.8c6.3,0.4,12.4-0.3,18.4-0.9c2.1-0.2,4.3-0.3,6.4,0
	c3.5,0.5,6.9,1.5,10.3,2.2c0.3,0.1,0.6-0.2,0.9-0.4c4.4-3.6,9.4-2.8,14.5-2.5c6.7,0.4,13.6-0.1,20.3-0.9c6.9-0.8,13.6-2.9,20.5-3.6
	c13.4-1.3,26.8-2.1,40.2-3.1c8.7-0.6,17.5-1.5,26.2-1.8c11.1-0.4,22.1-0.3,33.2-0.6c7.9-0.3,15.8-0.9,23.8-1.4
	c7.9-0.5,15.8-1,23.7-1.3c3.3-0.2,6.6,0,9.9,0c0-0.5,0-0.9,0-1.4c-4.2-0.4-8.3-0.8-12.5-1.1c-5.7-0.4-11.4-0.8-17.1-1
	c-4.3-0.1-8.7,0.7-12.9,0.4c-7.7-0.5-15.3-1.6-23-2.5c-0.9-0.1-1.9-1.1-2.3-1.9c-0.8-2.1-2.2-2.6-4.3-2.5c-1,0.1-2.1-0.2-4.2-0.4
	c1.8-0.6,2.5-0.9,2.8-0.9c-2-0.8-4-1.7-7.2-3c2.8-1,4.3-1.6,5.7-2.2c-12.6-3.6-25.2-7.3-38-10.9c0.6,3.9,1.1,7.2,1.6,10.5l0,0
	c-2,0.4-4.5,1.7-5.8,1c-4.6-2.6-8.3-1.7-11.6,1c-6.4-1.8-12.3-3.6-18.3-4.9c-0.9-0.2-2.4,2.2-3.6,3.5c-2-1.2-3.9-2.3-5.2-3.1
	c-3.4,0.9-6.2,1.5-8.9,2.2c0.1,0.4,0.1,0.9,0.2,1.3c4.6-0.2,9.3-0.4,13.9-0.7c0.1,0.9,0.3,1.9,0.3,2.1c-2.5,1.3-4.7,2.4-6.9,3.5
	c-0.8-0.7-1.7-2.1-2.8-2.4c-5.6-1.5-11.2-2.8-16.9-4.1l-0.1,0.2C1643.1,646.3,1643.3,646.1,1643.6,646z M1846.1,519.9l0,0.1
	c-3.4-4.9-6.7-9.8-10.1-14.6c-1.8-3.1-3.6-6.1-5.3-9.2c-3.3-3.7-6.5-7.4-9.8-11.1c-0.3,0.2-0.7,0.5-1,0.7c2,4.4,4,8.9,6.3,13.9h-3.8
	c0.6,1.8,1.1,3.3,1.8,5.4c-2.1-0.4-3.6-0.8-5-1.1c9.4,12.4,19.1,24.3,37,25.9c-1.9-2-3.5-3.7-5.1-5.4c-1.6-1.6-3.2-3.1-4.8-4.7
	L1846.1,519.9z M1786.4,566.8c4.4,0.2,8.8,0.4,13.1,0.6c-4.4-1.3-8.7-5.3-13.2-0.5c-2.4-5.8-4.8-6.4-10.9-2.5
	C1778.7,566.9,1782.1,568.7,1786.4,566.8z M1030.5,428.3c1.3,4,2.6,8,4,12c0.6-0.1,1.2-0.2,1.8-0.3c0.4-1.3,0.8-2.6,1.2-3.9
	c0.6,0.7,1.3,2.1,1.9,2.1c4.5-0.2,8.9-0.6,14.9-1.1c-3.3-5.2-5.9-9.5-8.5-13.7c-0.7,2.7,0.2,5.4-0.5,7.6c-0.4,1.2-0.8,5.2-4.5,3.6
	c-0.2-0.1-0.3-0.5-0.6-0.8c0.9-0.1,1.8-0.2,2.9-0.4c-0.5-2.6-1-5-1.5-7.5h-5.7c0.4,3.4,0.9,6.7,1.3,9.9c-1.2-0.9-2.5-1.6-3.4-2.7
	C1032.6,431.7,1031.6,430,1030.5,428.3l-4.9-9.5c-1.1-1.9,3.2-5.3-2.3-6.7c-1,2.1-2,3.9-2.7,5.3c2,2.8,3.7,5.6,5.8,8
	C1027.5,426.7,1029.1,427.4,1030.5,428.3z M1974.9,468.6c1.6,3.9,3.2,7.7,5.3,12.7c1.1-2.2,1.8-3,1.8-3.9c0-0.9-0.9-1.8-0.8-2.7
	c0.5-4.4-2.5-7.1-6.5-5.9c-3.5-3.1-6.9-6.5-10.7-9.3c-2.3-1.8-5.2-3-7,0.8c2.2,1.4,3.9,2.8,5.9,3.9
	C1966.8,466.2,1969.8,470.3,1974.9,468.6z M487.8,502.5c1.3,3.7,0.2,9.3,7.3,8.9c-4.6-5.4,2.6-9.6,0.3-15.3
	c-2.7,2.3-5.1,4.5-7.6,6.6c-2.4-3.4-7.5-4.6-8.2-9.5c1.9,0.2,3.8,0.4,5.8,0.6c0.6-2.6,1-4.6,1.6-7.5c1.8,1.7,2.9,2.8,4.1,3.9
	c0.4-0.2,0.9-0.4,1.3-0.6c-1.8-4.7-3.7-9.4-5.7-14.4c-1.1-0.1-2.7-0.2-3.4-0.3c-1.3-4.1-2.4-7.7-3.5-11.2c-2.1,2.9-4.2,5.7-3.8,7.9
	c1.4,6.3,3.2,12.5,2.6,19.1c-0.1,0.9,0.7,1.8,1.1,2.7c-1.2-0.4-2.4-0.9-2.7-1c0.6,3.2,1.1,6.6,1.8,10c0.3,1.4,0.6,3.5,1.4,3.9
	c1.1,0.5,3.1,0,4.4-0.7C486,504.9,486.8,503.5,487.8,502.5z M1073,567.8c-0.9,1.1-1.9,2.2-2.9,3.5c-0.6-1.3-1.5-2.7-2-4.3
	c-0.6-1.6-0.9-3.3-1.4-4.9c-0.2,0-0.5,0.1-0.7,0.1c-0.1,1.4-0.2,2.8-0.2,4.1c-2.6,1-4.7,2.6-6.2,4.6c-0.2,0.3,2.1,3.3,3.6,3.8
	c0.9,0.3,2.6-1.9,4-3c0.5,0.5,1.7,1.9,4,4.5c0.8-3.8,1.3-6.1,1.8-8.5c0.6,1.1,1.3,2.1,2.5,4.1c1.4-2.5,2.4-4.3,3.4-6
	c4.4-1.6,4.4,4.8,8.2,4.3c0.2-1,0.4-2.1,0.7-3.5c1.9,1.5,3.5,2.9,5,4.2c-2.8-5.8,3.4-8.1,3.8-12.3c-3.1-5.2-2.8-5.7,2.5-9.5
	c2.6-1.8,4.6-4.4,7.7-7.3c1.1,1.3,2.5,2.9,4,4.4c0.6,0.6,1.6,0.8,2.4,1.1c0.2-0.9,0.3-1.8,0.5-2.7c0.5,0.4,0.9,1,1.5,1.3
	c3.1,1.6,7.3,2.1,6.7,7.2c-0.1,0.5,1.6,1.4,2.6,1.9c2.1,1.2,4.2,2.2,6.8,3.6h5.9c2.2-1.1,3.6-2.3,5.1-2.5c8.8-0.7,17.2,1.2,25,5.2
	c1.5,0.8,2.1,3.3,3.1,5c-0.2,0.6-0.4,1.2-0.7,1.9c1.7-0.7,3.4-1.3,5-2.1c1.6-0.8,3.1-2.3,4.6-2.4c5-0.2,10.1,0,15.1,0.4
	c1.1,0.1,2.7,1.4,2.9,2.4c0.5,2.1,0.1,4.3,0.1,7.6c4.9-2.1,9.2-4.2,13.7-5.9c3.4-1.3,7-3.1,9.9,1.4c2.9,4.4,4.7,4.5,8.7,1.3
	c0.9-0.7,1.6-1.9,2.6-2.1c0.9-0.2,2.3,0.4,2.8,1.2c0.4,0.5,0.2,2.1-0.4,2.7c-0.8,0.9-2.1,1.2-3.1,1.8c0.2,0.5,0.3,0.9,0.5,1.4
	c4.2-1.4,8.4-2.7,12.6-4.1c-1.3-6.8-6.6-5.4-9.8-4.9c-6.8,1.1-12.2-1.1-18.1-3.6c-4-1.7-9.1-2.2-13.4-1.4c-7.2,1.3-13.9,2.9-19.3-4
	c-1.3-1.7-3.3-2.8-4.9-4.2c-9.3-7.5-18.6-15-27.9-22.6c-2.4-1.9-4.8-3.9-7.2-5.8c0.4-0.2,0.9-0.5,1.3-0.7c0-1.6,0.5-3.3-0.1-4.6
	c-2.9-6.2-6.1-12.3-9.1-18.5c-1.5-3.1-2.9-6.4-4.4-9.7c-0.3,5.8-0.5,11-0.8,16.3c-0.5,0-1.1,0-1.6,0c-0.4-3.3-0.8-6.5-1.1-9.8
	c-0.6,0-1.1-0.1-1.7-0.1c0.5,3.4,0.1,6.1-3.7,5.6c0.6,3.6,1.2,6.7,1.9,10.6c-2.9-2-5.3-3-6.6-4.8c-1.2-1.6-1.1-4.2-1.6-6.3
	c0.5-0.2,0.9-0.4,1.4-0.6c-3-3.3-6-6.6-9-9.9c-0.1-0.4-0.3-0.8-0.4-1.3c-1.7-4.1-3.3-8.3-5.3-12.2c-0.6-1.1-2.4-1.5-3.9-2.3
	c-3.6-7.6-7.6-15.7-11.5-23.9c-0.5,0.1-1.1,0.1-1.6,0.2c-1.1,7.9-2.2,15.8-3.4,24.8c-1.7-2.5-2.6-3.9-3.5-5.3
	c-0.4,0.2-0.7,0.4-1.1,0.5c0.8,1.7,1.3,3.5,2.3,5c4.3,6.9,6.5,14.2,4.2,22.3c-0.2,0.8-0.3,2.2-0.5,2.2c-5.5,0.6-1.1,4.3-1.6,6.3
	c-0.6,2.4,1.2,5.5,2.3,8.1c0.9,2.3,2.3,4.4,3.4,6.6c-0.1,0-0.2,0-0.4,0.1c-2.3-1.5-6.1-2.5-6.8-4.6c-2.1-6-3.5-12.4-4.1-18.8
	c-0.4-4.9-1.4-7.9-7.5-6.6c1.8-3.7,3.3-6.7,4.8-9.8c-5.7-2.9-6.4-2.6-7.9,2.9c-0.6-0.5-1.2-0.8-1.5-1.3c-4.6-9.4-6.4-19.3-6-29.7
	c0.2-4.9-2.1-10-6.2-12c1,2.5,2,4.9,2.9,7.4c-0.5,0.3-1,0.6-1.5,1c-2.2-2.4-4.3-4.9-6.5-7.3c-0.5,0.3-1,0.6-1.5,0.9
	c0.6,1.4,0.8,3.1,1.7,4c2.2,2.1,5,3.5,7.1,5.6c3.8,3.9,1.5,8.4,0.7,12.5c-1.6-2.2-4.7-4.5-4.6-6.7c0.3-4.7-5-5.8-5.2-9.7
	c-1.4,0.3-2.8,0.6-4.2,0.8c-1-0.7-2-1.4-3.5-2.4c-0.3,3.1-0.5,5.2-0.7,7.5c-2.1-1.9-3.7-3.2-5.2-4.5c-0.3,0.4-0.7,0.9-1,1.3
	c1.9,3.3,3.8,5.9,8.7,3.4c2.7-1.4,3.6-2.5,1.8-5.1c1.6,2.1,3.4,4,4.6,6.3c1.1,2.1,0.9,5.1,2.4,6.6c3.6,3.6,2.8,7.9,2.9,12.2
	c0,1.5-0.5,3.6,0.2,4.3c4,3.5,3.1,8.5,4.3,12.8c1.6,5.6,3.6,11.1,5.5,16.6c0.7-0.2,1.5-0.4,2.2-0.7c-2.1-8.3-4.3-16.5-6.4-24.8
	c0.4-0.1,0.9-0.2,1.3-0.3c3.2,10.7,6.4,21.5,9.7,32.7c-1.1-0.7-1.8-1.1-2.7-1.7c-0.1,0.8-0.4,1.2-0.2,1.4c3.8,6.8,6.7,13.7,5.4,21.8
	c-0.1,0.7,0.8,1.5,1.3,2.3c0.8-0.7,2.1-1.3,2.2-2.1c0.4-3.1,0.4-6.3,0.5-9.5l1.2-0.1c2.2,7.3,4.4,14.7,6.2,20.5
	c-2.4,2-4.7,3-4.8,4.1c-0.1,3.5,0.7,7,1.2,10.5c-5.3,3.5-2.6-4.1-5.4-3.9C1069.4,563.5,1072.9,565.8,1073,567.8z M387.4,472.9
	c-2.6-1.4-5.1-2.6-7.3,0.6c-1.2,1.7-2.5,3.4-4,5.4c2.3,4.2,5.8,5.5,9,2.4c2.2-2.1,3.9-4.6,5.9-7c-1.3-0.6-2.5-1.1-3.7-1.6
	c4,1,7.3-0.1,10-3.1C392.7,465.2,390,466.1,387.4,472.9z M1673.1,626.6c2.3,1.3,5,2.2,6.9,4c6.6,6.4,15.7,6.5,23.4,10.1
	c0.4,0.2,1.1-0.2,1.6-0.4c-2-5.6-6.2-6.4-11.1-6.1c-0.9,0.1-1.9-0.7-2.8-1.3c-5.5-3.5-10.8-7.7-18.1-6.1c-4.3-2.9-8.7-5.8-13-8.7
	c-0.5,0.4-0.9,0.7-1.4,1.1c0.4,2.3,0.9,4.6,1.4,7c2.5-0.5,4.4-1,5.4-1.2c1.3,1.4,2.1,2.8,2.7,2.8
	C1669.7,627.8,1671.4,627.1,1673.1,626.6z M1262.5,574.7c0.2,0.1,0.5,0.1,0.7,0.2c0,0,0,0.3-0.1,0.5c-0.8,1-1.6,1.9-3.1,3.8
	c2.1-0.7,2.9-1.1,3.8-1.3c3.9-1,7.5-4.6,11.5,0.6c1.5,2,5.2,5.5,8.7,1.2c-5.8-8.8-14.5-14.1-18.8-11.3c2.2,2.9,3,5.2-2.1,4.9
	C1263,573.2,1262.8,574.2,1262.5,574.7c-4.4-2.7-9.2-2.9-14.1-2.6c-0.1,0.6-0.1,1.2-0.2,1.8C1253,574.1,1257.7,574.4,1262.5,574.7z
	 M1735.1,429.6c0.9,1.5,1.4,3.4,2.7,4.3c8.9,6.8,17.8,13.5,27.1,19.8c3.1,2.1,7.1,2.9,10.7,4.3c0.6,1.5,0.8,3.7,2,4.5
	c7.9,5.7,16,11.1,24.1,16.5c2,1.4,4.1,2.5,6.2,3.8c0.4-0.5,0.8-1,1.2-1.5c-1.4-1.4-2.6-3-4.1-4.2c-6.2-4.4-12.3-8.8-18.7-13
	c-3.5-2.2-7.3-3.9-11-5.8c-0.7-1.2-1.2-2.8-2.2-3.6c-4.4-3.7-8.9-7.3-13.5-10.7c-6.5-4.9-12.9-9.8-19.6-14.4c-1.1-0.7-3.1,0-4.7,0.1
	c-0.4-1.6-0.8-3.1-1.2-4.8c-2.3,0.1-4.2,0.2-6.1,0.3c-0.1,0.5-0.3,1-0.4,1.5C1729.9,427.7,1732.5,428.7,1735.1,429.6z M941.9,488.5
	c-5.1,4.1-5.5,8.4-0.8,13.1c-0.9,0.4-1.6,0.7-2.3,1c0,0.3,0,0.6,0.1,0.9h10.5C946.5,497.8,944.1,493.1,941.9,488.5
	c-0.9-4.5-2.3-8.9-2.4-13.4c-0.1-7.4-3.2-13.3-7.9-18.9c-3.2,7.2-1.1,23.7,3.3,28.3c0.1-1.7,0.2-3.4,0.4-5.1
	C936.8,483.1,936.4,487.9,941.9,488.5z M1687,402.4c-1.1-3-3.2-5.7,0-8.9c1.5-1.4,1.8-4,3-5.7c2.8-4,1.5-11.8-3.6-15.7
	c0.4,4.2,0.7,7.5,1,10.8c-0.5,0.1-1,0.2-1.5,0.3c-1.6-3.4-3.5-6.7-4.6-10.2c-1-3.5-1.1-7.3-1.6-10.9l-2.6,0.2
	c0.2,5.1,0.4,10.3,0.8,15.4c0.1,0.6,2,1.1,2.6,1.4c0.6,2.5,1.3,4.9,1.9,7.4c-0.6,0.2-1.4,0.4-2.1,0.7c0.5,1.4,1,2.8,1.8,4.9
	c-2.7-1.4-4.4-2.4-6.4-3.4c-0.2,1.2-0.4,2.6-0.6,4c-0.9-1.3-1.8-2.6-3.1-4.3c-2.5,5.9-4.7,11.1-6.9,16.3c0.4,0.2,0.8,0.3,1.3,0.5
	c3.4-3,6.9-6,10.4-9c-1.3-0.8-2.5-1.7-4-2.7c1.1-0.4,1.7-0.7,2.3-1c3.7,2.3,7.9,4.2,8.2,9.5C1683.4,402.2,1685.8,402.3,1687,402.4
	c0.7,2.9,1.8,5.7,2,8.6c0.4,7.3,0.2,7.3,6.2,6.7c0.2,0,0.3-0.4,0.5-0.7c-1.8-4.4-3.4-8.9-5.4-13.2
	C1689.9,403,1688.1,402.9,1687,402.4z M1217.9,630.6c1.6-0.9,3.1-1.8,5-2.9h-28.1c0,0.4,0,0.8,0,1.3c3.4-0.2,6.9-0.9,10.2-0.6
	C1209.4,628.8,1213.7,629.9,1217.9,630.6c0.1,0.2,0.2,0.3,0.1,0.4c-0.1,0.1-0.2,0.3-0.4,0.3c-3.3,0.5-6,2.2-9.8,2.3
	c-8.9,0.3-17.7,3-26.6,4.7c0,0.4,0,0.9,0,1.3c18.7-5,36.8-4.2,54.3,5.4c0.2-1.4,0.3-2.3,0.4-3.2c1.3,0.1,2.7,0.7,3.8,0.3
	c4.9-1.9,9.8-3.9,14.6-6.1c0.6-0.3,0.4-2.1,0.6-3.2h11.4c-3.6-6.3-8.9-1.8-12.6-3.1c-1.2-1.8-1.8-3.8-3-4.3
	c-1.3-0.5-3.1,0.7-4.7,1.1c0,0.4,0,0.8-0.1,1.3c3.1,1.7,6.2,3.4,9.2,5.1c-6.7,0.8-13.4,1.5-21.6,2.4c4.2,0.7,7.2,1.3,10.1,1.8
	c-6.4,0.3-12.7,0.8-18.8,0.1c-2.6-0.3-7.8-0.5-5.8-6.2C1218.8,630.9,1218.4,630.7,1217.9,630.6z M1924.7,477.8c-2,0.4-4,0.8-5.9,1.2
	l0.2,1.7c21.7,12.8,43.5,25.5,65.4,38.4c1.2-2.3,2.1-4.1,2.7-5.1c-2.6-2.5-4.6-4.5-6.6-6.5c0.3-0.5,0.6-0.9,0.9-1.4
	c1.7,0.3,3.7,0.1,5.2,0.8c3.6,1.8,6.7,4.8,10.4,5.8c3.6,1,3.2,8.6,9,4.7c1.2,3.5,3.1,5.5,6.8,4.3c0.2-0.1,0.9,1.8,1.7,3.3
	c1.1-1.4,2.3-2.9,3.1-3.9c4.1-0.3,7.9-0.7,12-1c0.6,1.4,1.3,3,2.2,4.8c1.2-2.3,2.2-4.1,3.1-6c1.3,6.8,7.3,4.3,10.7,7.1
	c0.7-4.8-2.3-5.6-5.1-6.4c-1-0.3-2.7,0.2-3.2-0.4c-4.8-5.8-12-7.9-18.2-11.4c-1.8-1-4.4-0.9-7.5-1.5c-0.4-0.5-1.8-2-3.2-3.6
	c-0.4,0.8-0.7,1.6-1.5,3.3c-4.5-10.4-15-8.5-22.3-12.9c-0.3,0.4-0.6,0.8-0.9,1.2c6.8,4.8,13.5,9.6,20.3,14.4
	c-0.2,0.4-0.5,0.8-0.7,1.2c-18.9-10.3-37.9-20.7-56.3-30.8c0.6,3.8,12.5,14.7,17.3,15.2c0.3,0,0.8,0.1,0.9-0.1
	c2.4-3,2.6-0.1,3.6,1.2c1.1,1.5,2.3,3.1,3.7,4.3c1.5,1.3,3.3,2.3,5.4,3.7c-4.3,1.6-14.4-1.3-13.6-3.1c1.7-3.7-1.9-2.5-2.6-3.7
	c-0.9,1-1.8,1.9-3.4,3.6c-1.5-2-3-4-4.5-5.9c-1.6-2.1-3.1-4.4-5.2-5.9c-0.7-0.5-3,1.3-4.6,1.8c-0.7,0.2-1.7,0.1-2.4-0.2
	c-6-3.1-12.7-5.2-16.1-11.9c1.5,1.3,2.9,2.9,4.6,3.7c3.1,1.4,6.4,2.2,9.7,3.3c0.9,0.3,1.8,0.9,2.7,1.3c0.3-0.7,0.9-1.8,0.7-2.1
	c-0.7-0.8-1.8-1.3-2.7-1.8c-1.9-1-4.1-1.7-5.8-3c-4.1-3-8-6.3-12-9.5c-0.4,0.3-0.8,0.7-1.3,1L1924.7,477.8z M1346.7,590.2
	c-0.8,1.3-1.6,2.7-2.4,4c-3.7,1.4-7.8,2.9-11.8,4.4c0,0,0.1-0.1,0.1-0.1c-1.3,0.8-2.5,1.7-3.8,2.2c-1.3,0.5-2.9,0.4-4.5,0.7
	c14.2,4.2,28.2,6.2,42.9,4.8c10.2-0.9,20.3-1.9,30.3-4.4c5.7-1.4,11.7-1.6,17.6-2.4c4.9-0.7,9.8-1.4,14.7-2.1
	c-0.1-0.5-0.1-1-0.2-1.5c-3.9-1.2-7.8-2.3-11.6-3.7c-4.2-1.6-9.7-2.4-11.9-5.5c-2.2-3-4.1-2.5-6.5-2.9c-1.1-0.2-2.1-0.2-3.2-0.3
	c0-0.2-0.1-0.5-0.1-0.7c1.4-0.4,2.9-0.8,4.2-1.2c-14.4-3.1-28.3-1.2-42,3.2c-4.1,1.3-8,3.6-11.9,5.4L1346.7,590.2z M383.9,547.4
	l0.3-0.4c-4.7,2.7-6.5-2.5-9.6-4c-0.8,1.5-4.5,1.3-11.1-0.6c0.3,1.3,0.5,2.3,0.7,3.4c-0.9-0.5-1.8-0.9-3.6-1.9
	c0.9,2.3,1.3,3.6,1.9,5.1h-5.8c-0.1,0.4-0.2,0.8-0.4,1.2c3.1,1.3,6.1,2.6,9.9,4.2c-0.7-3.7-1.2-6.1-1.6-8.5c1.8,0.4,3.5,0.8,5.2,1.2
	c0.8,2.7,1.7,5.3,2.5,8c-2.2,0.5-4.4,1-6.7,1.5c-0.5,1.1-1.2,0.7-1.9,0.3c-3-1.6-5.6-3.6-9.2-0.2c-1.4,1.3-5.5,0.8-7.8-0.1
	c-4.7-1.8-9.2-4.4-13.7-6.8c-5.3-2.8-5.9-4.5-3.5-10.1c0.3-0.7,0.7-1.4,1.1-2.3c-3-2.4-4.5-1.4-5.5,1.6c-0.7,1.9-1.7,3.6-2.4,5.1
	c-2.2-3.5-4.2-6.1-5.6-8.9c-0.6-1.1-0.2-2.9,0.2-4.2c0.3-1,1.2-1.7,1.7-2.3c-1.9-1.2-3.3-2.2-5-3.4c-6.2,5.8-10.9,0.2-15.9-2.6
	c-5-2.8-11.2-4.6-12.3-11.8c-5.9,5.1-9.2-0.9-12.1-3.1c-6.9-5-13.5-10.8-15.3-21.2c4.4,1.4,7.7,2.3,10.9,3.5
	c0.8,0.3,1.5,1.4,1.8,2.3c0.9,2.3,1.3,4.8,2.2,7.1c1.8,4.6,4.2,8.9,9.8,10.8c0.1-1.4,0.1-2.5,0.2-3.7c6.2,2.4,6.6,2.8,7.7,8.5
	c0.6,3,2.8,3.8,4.6,2.1c1.5-1.5,2.8-4.6,2.4-6.5c-1.8-8.1-8.2-12.9-14.4-17.5c-11.1-8.3-22.5-16.3-33.8-24.4
	c-3.2-2.3-6.7-4.3-10.1-6.4l0.1,0.1c-2.4-2-4.9-4-7.6-6.2c0.7-0.5,1.2-0.8,2.1-1.4c-3-2.5-5.9-4.9-8.9-7.3c0.3-0.5,0.6-1,1-1.5
	c3.4,0.7,7.2,0.5,9.9,2.2c3.2,1.9,5.4,5.4,8.6,8.7c3.1-8.1,7.7-0.9,11.4-1.7c0-0.5,0.1-0.7,0-0.8c-0.7-1.1-1.4-2.2-2.1-3.3
	c6.2,3.1,12.5,6.2,18.7,9.3c0.2-0.4,0.5-0.8,0.7-1.2c-8.4-5.5-16.7-11.1-25.1-16.6c-0.2,0.3-0.4,0.6-0.6,0.9
	c2.2,2.6,4.3,5.2,6.5,7.8c-12.6-7.2-26.2-6.6-40.5-4.7c2.2,2.9,5.1,4.8,7.6,7.2c5,4.7,4.9,5.1-1.1,8.6l-0.8-0.4
	c0.3,0.1,0.6,0.2,0.8,0.3c0.3,1.9,0.7,3.9,1,5.8c-2.8-0.3-6.3-0.7-9.9-1.1c0.7,6.3-1.4,8.8-7.3,8c-3.1-0.4-5,0.1-6.2,2.9l1.2,0.2
	c-0.2,1.4-0.4,2.8-0.6,4.2c5.1-0.8,7.9,0.7,8.3,4.4c-3.7,2.4-10.2,1.4-9.8,7.8c2.2,0.9,4,1.6,4.8,2c2.2-0.9,3.9-1.3,5.3-2.3
	c1.8-1.2,4-2.5,5-4.3c2.7-4.6,5.4-4.8,9.3-0.3c-0.2,0.4-0.4,1.1-0.7,1.2c-5.8,1.5-9.8,4.8-11.8,10.6c-0.2,0.5-1.3,0.8-2.1,1
	c-4.3,1.3-12.5-5.2-13.6-8.6c-2.8,2.2-5.4,5.8-8.6,6.3c-4.5,0.6-9.6-0.3-14-1.9c-5.6-2-10.8-1.7-16.6-1c-7.3,0.8-14.7,0.2-22.1,0.2
	c-0.8,0-1.6,0.2-2.4,0.3c2.7,1.3,5.5,1.8,8.1,2.7c4.2,1.3,8.3,3.4,12.6,4.1c5.2,0.9,10.3,1.1,15.4,3.4c6,2.7,12.5,4.3,18.8,6.4
	c3.4,1.2,6.9,2.2,10.2,3.7c12.6,5.5,25.1,11.1,37.6,16.8c6.4,2.9,13.4,3.9,19.1,9c4,3.6,10.3,4.8,15.5,7c3.1,1.3,6.1,3.4,9.3,3.8
	c3.3,0.4,5.7,0.9,6.7,4.4c0.1,0.3,0.8,0.5,1.3,0.7c7.1,4.4,16.3,4.4,22.4,10.9c0.6,0.7,2.3,0.3,3.3,0.7c2.9,0.9,6.2,1.3,6.8,5.4
	c0.2,1.1,1.5,2.2,2.5,2.9c3.3,2.3,6.7,4.5,10.2,6.5c2,1.1,4.3,4.1,6.5-0.1c0.2-0.4,2.1,0.2,2.2,0.2c1.7-1.4,2.9-2.3,3.9-3.3
	c4.3-4.1,12.6-3.6,13.1-12c2.8,1.6,5.2,2.9,7.6,4.3c0.6-1.2,1.3-2.5,2-3.8c2.5,2.3,4.7,3.9,5.4-1.2c0.1-0.9,1.2-2.3,2-2.4
	c3.9-0.6,6.1-2.7,6.8-6.5c-1.4,6.3,3-0.2,3.9,1.6c0.6,1.8,1.3,3.5,2.4,6.5c1.4-4.5,2.4-7.9,3.6-11.8c1.1,0.9,2.2,1.9,2.7,2.3
	c2.3-2.2,4.3-5.8,6.6-6c3.2-0.3,6.6,2,10.1,3.3c0.4-0.8,1-2,1.8-3.5c6.7,4.4,12.3,1.1,18.7-2.5c-10.5-7.9-20.8-15.7-31.2-23.5
	c0.1-0.3,0.2-0.6,0.4-0.9c6.1,1.4,12.2,2.8,18.5,4.2c-0.1,0.4-0.6,1.7-1,3c5.8,3.4,10.9,10.1,18.6,3c-6.9-5.2-13.8-10.4-20.8-15.6
	c1.4-0.7,2.8-1.3,4.4-2.1c-1.7-1.5-2.9-2.6-4.9-4.4c1.9,0,2.7,0.1,3.4,0c0.7-0.1,1.4-0.3,2.5-0.5c-5.5-4-5.9-3.7-11.1-2.8
	c-2.5,0.4-5.6-0.5-8.1-1.6c-2.6-1.2-4.9-3.3-7.4-5.1c-1.6,5.2-1.9,5.3-5.8,3.1c-2.8-1.6-5.5-3.5-8.3-5.4c-1.3,2.3-2.8,4.8-4.4,7.6
	c-3.4-2.3-9.8,0.4-10.4-6.7c-0.1-0.6-1.5-1.4-2.4-1.5c-4.7-1-9.4-1.7-14.1-2.7c-3.5-0.8-6.9-1.8-11.5-3.1c2.8-2,4-2.8,5.7-4
	c-6.6-3.8-15.1-2.7-18.8-10.7c-0.9,1-1.5,1.3-1.7,1.9c-2.1,3.9-4.6,7.6-6,11.7c-0.6,1.8,0.2,5.3,1.6,6.4c5.4,4.2,11.4,7.8,16.8,11.4
	c0,0.3-0.2,1.1,0,1.6c0.8,1.4,1.8,2.6,2.7,3.9c-0.7,0.4-1.7,0.6-2.1,1.2c-0.7,1.2-1.1,2.6-1.6,3.9c1.5-0.2,3.3,0.1,4.4-0.6
	c2.7-1.8,1.5-3.4-0.9-4.6c1.5-0.4,2.9-0.8,3.3-0.9c5.3,1.3,9.8,2.3,14.2,3.5c3.8,1,8.2,1.4,11.3,3.6c4.1,2.8,11.7,3.8,8.2,12.5
	c5-1.2,8.5-0.1,9.7,4.5h4.5C385.6,543.3,384.8,545.4,383.9,547.4z M1904.3,493.1c-6.9-2.8-14.2-5.1-16.9-11.2
	c-3.5-0.3-6.3,0.3-8.3-0.8c-9.3-5.1-18.5-10.5-27.5-16.2c-2.3-1.5-4.1-4.2-5.5-6.7c-3.5-6.5-3.2-15.1-11-19.2
	c-0.7-0.3-0.5-2.2-0.8-3.3c-0.4-1.4-0.6-3.1-1.5-4.1c-3-3.1-3-6.4-1.5-10.1c0.8-1.8,2-3.6,2.1-5.5c0.8-7.9-4.5-13.5-7.3-20
	c-1.1,2.9-0.8,7-2.5,8.1c-4.3,2.7-3.2,6.6-4.8,10.5c2.6-2.1,4.6-3.7,6.6-5.3c-1.3,5.1-2.3,9.4-3.3,13.1c-0.4-0.7-1.3-2.5-2.2-4.2
	c-0.8,1.5-1.4,2.8-2.7,5.2c3.4,4.8,7,11.3,11.9,16.7c3.8,4.2,4.2,9.2,3,13.3c-1.1,3.7,0.4,4.5,2.4,6.9c0.5-1.8,0.7-2.9,1-4
	c-1.2,6.5,4.3,8.5,7.5,12c0.9-0.8,1.6-1.4,2.7-2.4c-1.3,7.2-2.6,13.7-3.9,21.1c2.2-0.4,3.6-0.7,4.9-0.9c0.9,1.5,1.6,4,3.3,5.3
	c3.1,2.4,7,3.8,10.3,6c3.3,2.2,6.4,4.9,10,7.7c-2.1,1.8-3.4,3-3.8,3.3c-1.6-1.1-3.5-2.8-3.8-2.5c-1.4,1.2-2.3,2.8-3.6,4.6
	c-1.1-1.2-2.1-2.3-3.8-4.1c0.7,3.4,1.2,5.8,1.7,8.2c0.3-0.4,0.6-0.7,0.9-1.1c2.6,2.2,5.2,4.5,7.8,6.6c2.4-2.6,4.3-4.8,6.2-7
	c0.3,0.3,0.6,0.6,0.9,0.9c-0.5,3.7-1,7.4-1.6,11.3c-1.7-1.5-3.4-3-5.1-4.5c0.1,1.7,1.4,2.9,1.2,3.7c-1,4.3,2.6,4.8,4.4,3.8
	c5.5-3.1,9.6-2.2,11.9,1.6c4.5-0.3,8.5-1.8,11.1-0.5c3.6,1.8,5,1,6.1-2.3c1.7,2.4,3.3,4.5,4.7,6.4c3.9-2.2,1.4-9.7,8.2-7.9
	c3.3-4.5,7.3-0.9,10.9-0.6c0.2-0.4,0.5-0.8,0.7-1.3c-8.4-6.8-16.9-13.7-25.3-20.5c15.3,4.2,26.8,16.5,43.1,17.9
	c2.9-5.5,5.5-5.4,12,0.8c0.9-0.3,1.9-0.5,2.7-1.1c0.7-0.5,1.3-1.3,1.9-2c-0.8-0.7-1.5-1.8-2.4-2c-8.1-1.8-8.8-2.4-9.9-9.3
	c-3.3-2.3-6.1-3.9-8.5-5.9c-5.4-4.5-9.7-4.5-14.9,0.9c-1.5-1.3-3-2.8-4.7-3.9c-2.1-1.3-4.7-3.5-6.7-3.1c-3.8,0.8-6-0.7-8.4-2.9
	c1.1,0.1,2.3,0.2,4.3,0.5c-1-2.8-1.9-5.2-2.8-7.5l-1.2,0.4c0.3,1.3,0.6,2.6,0.9,4c-1.3-0.2-2.2-0.3-3.7-0.5
	C1902.8,491.4,1903.6,492.3,1904.3,493.1z M1762.1,537.2c2.5,1.7,5,3.4,6.6,4.5c-8.9,1.7-18.4,3.7-28,5.2
	c-9.8,1.6-19.6,2.8-29.4,4.2c12.4,0.8,25,0.9,37.6,0.8c2.7,0,5.6-1.5,7.2,2.2c0.1,0.3,0.7,0.5,1.1,0.5c2.7-0.3,5.4-0.8,8-1.1
	c2.3-0.3,4.1-0.4,5.7,2.5c1.8,3.3,4.9,2.6,7.1-0.7c0.4-0.7,1.8-1.2,2.5-1.1c3.4,0.8,6.8,2,10.3,2.6c1.5,0.3,3.3-0.2,4.7-0.9
	c2.4-1.2,4.7-2.8,7-4.2c0.3,0.5,0.7,1,1,1.5c-1.7,1.8-3.4,3.6-5.3,5.6c3-1.1,6.5,2.9,9.1-1.3c2.4,1.7,3.7-0.2,5.6-1.3
	c4.7-2.8,9.6-5.1,14.6-7.2c4.2-1.7,8.4-3,7.6-9.3c-5.9,0.6-11.7,1.2-17.6,1.8c6.4-2.2,10.6-9.8,18.3-7.4c0,0,0.2-0.6,0.4-0.9
	c-3-6.9-9.1-5.6-15.3-6c-2.7-3.1-4.5-9-11.3-7c0.5,3.6,1,6.9,3.6,9.7c0.9,1,0.9,3.5,0.2,4.9c-0.4,0.7-2.9,0.6-4.4,0.6
	c-1.1,0-2.1-0.6-3.2-0.9c-0.1,0.2-0.1,0.4-0.2,0.6c1.5,1.2,3,2.4,4.5,3.6C1794,539.3,1778.5,534,1762.1,537.2z M1269.7,599.1l0.3,2
	c-1.4,1.6-2.6,4.2-4.4,4.7c-5.3,1.7-10.8,2.7-16.2,4.7c-7.9,2.9-16.8,3.2-25.2,4.7c-0.9,0.2-1.8,0.7-2.7,1.1c2.6,1,6.3,1.9,7,0.8
	c2.3-3.5,4.4-1.8,6.8-0.8c1.6,0.7,3.2,1.4,4.8,1.8c1.8,0.5,3.7,0.8,5.4,1.2c1.3-0.3,2.7-0.6,4.1-0.9c-0.4,1-0.9,2-1.3,3.1
	c2.4,0.5,4.8,1,7.3,1.5c-3,3.8-0.7,4.4,2.7,4.6c1-2.5,2-5.1,3.2-8c0.8,1,1.4,1.8,1.3,1.7c2.9-1.1,5.2-2,9.1-3.5
	c-6.1-2.2-10.8-4-15.5-5.7c5.1-2.9,10.2-0.3,16.2,1.7c-2-2.7-3.4-4.4-4.5-5.9c2.6-1.1,5-2.1,7.1-3c4.2,2,8.6,4,13.3,6.2
	c0.6-0.5,1.5-1.3,3.7-3.3C1284,604.8,1276.9,601.9,1269.7,599.1z M307.1,513.8c3,2.2,5.6,4.7,8.7,6.1c2.9,1.3,6.3,1.4,9.5,2.1
	c-0.9-2.8-1.8-5.6-2.7-8.3c-0.1-0.3-0.5-0.5-0.7-0.7c-6.6-5.2-13.1-10.5-19.8-15.5c-2.3-1.8-4.4-3.1-2-5.4c-2.3-0.8-4.5-1.7-6.7-2.2
	c-2.1-0.5-4.4-0.5-6.6-0.7c4.9,5.2,10.3,9.3,15.2,13.7C305.3,505.9,309.1,509.1,307.1,513.8z M443.6,552.7l0.7-1
	c1.8-0.1,3.6-0.3,5.4-0.4c1.8-0.1,4.2,0.6,5.1-0.3c1-0.9,1.2-3.8,0.4-5c-1.2-2-3.2-3.8-5.2-4.8c-2.1-1.1-4.7-1.5-7.1-1.5
	c-2,0-4.4,0.6-6,1.8c-1,0.8-1.5,3.8-0.8,4.6C438.2,548.6,441.1,550.6,443.6,552.7z M1032.4,470.7c-1.3,9.5,4.4,18,5.7,27.5
	c1.5,10.7,8.1,18.9,12.8,28.1c0.7-1.1,1-2.2,0.6-3c-2.4-5.5-5.4-10.8-7.3-16.4c-2-5.9-3.3-12.1-4.4-18.2
	C1038.5,481.8,1037.6,474.9,1032.4,470.7z M943.3,461.6c1.3,5.5-0.7,11.1,2.1,17c3.1,6.5,3.2,14.4,4.5,21.8c0.5,3,2.1,4.1,5.3,3.6
	c-0.4-2.1-0.7-3.8-1.1-6c1.3,0.4,2.1,0.6,3.8,1.1C952.8,486.2,948,473.9,943.3,461.6z M1730.9,400.2c0.3,0.4,1,1.6,2.4,3.6v-5.4
	c1.3,2.7,2.5,5,3.6,7.3c0.5-0.2,0.9-0.4,1.4-0.6c-0.7-2.4-1.5-4.7-2.2-7.1c0.5-0.2,1-0.4,1.5-0.6c1.3,2.6,2.7,5.3,4.6,9
	c0-2.2,0.1-3.2,0-4.1c-0.5-3.9-2-7.9-1.4-11.5c1-5.9,3.3-11.6,5.2-17.4c1-2.9-1.1-8.2-4.2-10c1.9,10.8,0.6,15.6-6.7,24.5
	c-0.5,0.6-0.7,1.4-0.9,2.2C1733.1,393.2,1732.1,396.4,1730.9,400.2z M1025.5,525.1c-2.8,4.8-3.7,20.1-2,27.7
	c7.7-3.8,10.8-17.6,4.3-29.1v7.2C1026.8,528.3,1026.3,526.9,1025.5,525.1z M1036.9,537.4c-0.2,0.5-0.4,1-0.7,1.5
	c1.3,1.2,2.7,2.2,3.8,3.6c0.7,0.8,1.1,2.1,1,3.1c-0.1,2.1-0.6,4.2-1.2,7.2c2.9-2.4,4.4-3.7,6-5c1.5,1.7,2.6,3.1,4.1,4.8
	c0.7-2.7,1.3-4.6,1.8-6.5c-4.4-0.5-5.8-2.5-8.5-11c-3.6-2.5-6-4.1-8.8-6c-0.5,2.5-0.9,5-1.4,7.7
	C1034.7,537.1,1035.8,537.3,1036.9,537.4z M1197.7,649.4c-1.2,0.8-4.6,2.3-4.5,3.1c0.7,4.4-1.8,6.6-5,8.8l0.9,1.4
	c8.1-2.6,16.1-5.2,24.8-8C1208.5,652.1,1202.5,654.3,1197.7,649.4z M1909.1,475.2c0.2-0.4,0.4-0.8,0.7-1.2
	c-10.8-6.2-22.5-11.1-30.5-21.4c0.5,8.3,7.1,12.5,11.4,18.2c3.3-3.1,6.2-1.6,9.2,0C1902.9,472.4,1906,473.7,1909.1,475.2z
	 M458.9,480.8c2.3-2.6,4.6-4.6,5.9-7c0.8-1.4,0.6-3.8,0.1-5.5c-0.8-2.4-2.4-4.6-3.4-6.9c-0.7-1.6-1-3.3-1.5-5
	c-0.5,0.1-0.9,0.2-1.4,0.2c-0.4,4.5-0.2,9.1-1.4,13.4C456,474.2,454.4,478,458.9,480.8z M1744,458.9c-0.2,0.4-0.4,0.9-0.6,1.3
	c-4.3-1.3-8.5-2.6-12.9-3.9c1.9,9.5,4.8,12.4,13.3,13.6c-0.5-1.5-1-3.1-1.6-5c1.7,0.4,2.8,0.7,4.4,1
	C1745.5,463.2,1744.8,461.1,1744,458.9z M336.2,418.2c-3.1,5.4-6.2,10.7-9.2,15.8c1.1,0.9,2.5,2.1,3.9,3.2
	C340.1,433.5,342.2,424.4,336.2,418.2z M481.9,548.6c-8.1-5.4-15.1-10.2-22.2-14.9c-0.9-0.6-2.3-0.6-3.4-0.4
	c-0.5,0.1-0.9,1.1-1.4,1.6c0.7,0.3,1.4,0.8,2.1,0.9c0.6,0.1,1.3-0.2,2-0.4C460.7,542.2,473.4,549.9,481.9,548.6z M1672.7,275.6
	c-1.2-4-2.2-7.5-3.1-10.7c-2.8,1.6-5.6,4.4-6.8,3.8c-2.1-1.1-3.2-4.1-4.8-6.6c-2.9,0.9-3.2,2.6-1.2,5.3c2.3,3,4.5,6.2,6.9,9.2
	c0.8,1,2.1,1.4,3.6,2.4c0.6-1.6,1-2.9,1.5-4.1C1670.1,275,1671.1,275.3,1672.7,275.6z M987.7,462.8c-1.4-5.7-2.4-11.7-4.5-17.2
	c-2.3-5.8-5.8-11.2-8.8-16.8c-0.5,0.3-1,0.6-1.5,0.9c1.6,3.4,3.1,6.9,5.3,11.6c2.1,7.3,4.6,16.1,7.2,25.1
	C986.1,465.1,986.9,463.9,987.7,462.8z M1294.7,591.3c-0.2-1.7-0.5-4.2-0.9-7.5c-2.6-1.4-5.9-5.4-10.2-0.6c3.5,5.1,3.2,6.2-2.6,8.2
	c-1.8,0.6-3.4,1.6-5.9,2.8C1281.9,593.1,1287.7,592.3,1294.7,591.3z M1756.5,387.9c-0.9,11.3-1.9,22.6,4.8,32.8
	c0.3-2.1-0.2-4.1-0.7-6.1c-0.4-1.6-1.7-3.7-1.1-4.9C1763.5,401.7,1757.5,395.1,1756.5,387.9z M970.4,549.6c-0.7,0.2-1.3,0.4-2,0.6
	c1.3,6.3,2.5,12.6,3.9,19.3c2.9-1.3,4.4-1.9,6-2.7c-1.2-2.9-2.2-5.5-3.5-8.6c1.4,0.5,2,0.7,3.4,1.2c-1.6-3.9-2.8-7-4.5-11.3
	c-0.3,3.1-0.4,5-0.6,7c-0.3,0-0.6,0-0.9,0C971.6,553.2,971,551.4,970.4,549.6z M1020.6,380.4c0.2,3.5,0.1,6.5,0.6,9.3
	c0.2,1.2,1.6,2.3,2.7,3.2c2.9,2.5,5.9,4.8,8.7,7.3c1,0.8,1.6,2,2.4,3c-1.4-4.7-3.5-8.8-5.2-13.1
	C1027.9,385.5,1025.2,381.9,1020.6,380.4z M903,405.2c-0.7,5.1-1.4,9.8-1.7,14.5c-0.1,1.1,1.4,2.7,2.6,3.2c0.7,0.3,2.4-0.6,3.2-1.5
	C910.2,418.1,908.3,410.3,903,405.2z M530.2,529c-0.2,2.4-5.1,5.3,0.3,6.1c2.8,0.4,5.9-1.9,9.4-3.2c-2.4-1.4-3.8-2.2-5.8-3.4
	c1.6-1.3,2.6-2.2,3.3-2.8c-2.9-4.2-6.1-2.3-9.2-0.5c-0.5,0.3-0.7,0.9-1.2,1.6C528.2,527.7,529.1,528.3,530.2,529z M1109.4,688.9
	c1.5,9.6,3.9,10.7,11.3,5.8C1119.8,690.4,1116,688.5,1109.4,688.9z M986.5,559.4c-2.5-5.4-4.7-10.1-6.9-14.8c-0.5-1-1.2-1.9-1.8-2.9
	c-0.7,1.2-1.9,2.4-1.9,3.6C975.7,552.1,977.7,557.6,986.5,559.4z M1759.3,484.8c0.5-0.5,0.9-1.1,1.4-1.6c2,1.4,4,2.9,5.9,4.3
	c0.1-0.2,0.3-0.4,0.4-0.6c-4.3-4.8-8.6-9.5-13.2-14.7c0.7,4.2,1.4,7.8,2,11.3c0.9,1,1.9,2.6,3.4,3.5c2.7,1.7,2.7,8,8.4,5.4
	C1764.6,489.8,1761.9,487.3,1759.3,484.8z M1534.6,683c0,0.5,0.1,1,0.1,1.5c11.9,2.6,22.3-3.8,33.4-6.1
	C1557,679.9,1545.8,681.4,1534.6,683z M515.9,512.9c3.8,3.1,7.7,5.6,7.1,10.9c0,0.4,0.6,1.2,1.1,1.4c0.5,0.2,1.7-0.4,1.7-0.4
	c-1.2-4.9,2.8-5.8,5.6-7.2c-2.5-2.3-4.8-4.3-6.8-6.1c-0.4,1.1-0.9,2.4-2,4.9c-1.2-2.4-1.9-3.6-2.5-4.8
	C519.1,512,517.8,512.3,515.9,512.9z M1703.8,553.4c0-0.4,0-0.8,0-1.1c1.1,0.8,2.1,1.7,3.2,2.5l0.8-1.6c-1.8-0.7-3.6-1.8-5.4-1.9
	c-5.6-0.1-11.3,0.1-16.9,0.3c-5.6,0.2-11.1,0.6-16.7,0.9c0,0.3,0.1,0.6,0.1,0.9H1703.8z M1136,599.3c0.5,0,1,0.1,1.5,0.1
	c0.4-2.8,0.7-5.6,1.1-8.5c-3.3,0.1-6.3-3.3-9.5-1.1c-1.4,1-1.7,3.6-2.6,5.7c3.5-0.2,5.9-0.4,8.5-0.6
	C1135.4,596.5,1135.7,597.9,1136,599.3z M591,576.4c-0.1,0.7-0.2,1.3-0.4,2c6.9,1.5,13.8,3,20.7,4.4c0.1-0.4,0.2-0.9,0.3-1.3
	C604.7,580,599.1,573,591,576.4z M1976.7,458.6c1.1-3.9,4.8-7,1.3-10c-1.3-1.1-7,0.1-7.6,1.6
	C1968.5,454.7,1973.2,455.8,1976.7,458.6z M1042.5,527.8c-4.2-9.7-7.9-18.3-11.8-27.3c0.4,3.1-0.1,6.7,1.3,9
	C1035.6,515.2,1034.8,523.2,1042.5,527.8z M1326.1,650.5c0-0.3,0.1-0.7,0.1-1c-18-1.4-36-2.9-53.9-4.3l-0.1,1.3
	C1290.1,647.8,1308.1,649.2,1326.1,650.5z M1704.8,389.8l1.2-0.4c-1.8-5.8-3.7-11.5-5.5-17.3c-0.6,0.1-1.1,0.2-1.7,0.4
	c1.4,5-3.6,9.8-0.1,15.2c1-1.4,1.7-2.5,2.9-4.2C1702.8,386,1703.8,387.9,1704.8,389.8z M507.7,502.7c-4.4,4.7-2.9,14.5,2.2,16.5
	c1.1,0.4,2.7-0.2,4.1-0.4c-0.3-0.9-0.4-2.5-1-2.7c-3.6-1.6-4.5-4.2-4.2-7.9C508.9,506.6,508.1,504.8,507.7,502.7z M311.7,491.1
	c-0.8-2.5-2.5-5.1-1.8-6.1c3.5-5.3-2-6.4-3.6-9.9C303.5,482.8,305.6,489.1,311.7,491.1z M924.1,438.1c0.4-0.2,0.7-0.4,1.1-0.5
	c-4.7-10.6-9.3-21.2-13.6-30.9c-0.2,2.8-0.5,6.7-0.8,11c5.2-1,5.5,3.6,7,7.4C919.5,429.6,922,433.8,924.1,438.1z M1026,480.1
	c-0.9,0.4-1.7,0.7-1.7,0.9c0.1,2.9-0.2,5.9,0.7,8.5c0.5,1.3,3.1,2,4.8,2.8c0.2,0.1,1.6-1.5,1.5-1.9c-0.8-2.5-1.9-5-3.1-7.3
	C1027.7,481.9,1026.7,481,1026,480.1z M225,418.8c-3,2.5-5.8,4.7-8.9,7.3c3.3,1.5,5.5,2.5,7.6,3.5C226.5,426.9,227,423.3,225,418.8z
	 M344.3,422.5c-0.5,0.1-1,0.1-1.5,0.2l-2.1,18.3l1,0.4c1.8-3,3.5-6,5.2-8.8C346,429.2,345.1,425.8,344.3,422.5z M326.6,443.9
	c-0.5,0.1-1.1,0.1-1.6,0.2c-0.8,3.1-1.7,6.1-2.4,9.2c-0.2,1-0.2,2.1-0.2,3.2c1.2-0.5,2.5-0.9,3.5-1.7c1.4-1,2.5-2.4,3.8-3.6
	c1-0.9,2-1.8,3.1-2.6c-0.2-0.3-0.3-0.5-0.5-0.8c-1.4,0.3-2.7,0.6-4,0.8C327.6,446.9,327.1,445.4,326.6,443.9z M1936.3,475
	c-2.5-9.2-2.8-9.6-10.2-13.8C1926.7,467.5,1931.2,470.6,1936.3,475z M1972.1,487c0.1-0.5,0.2-1,0.3-1.5c-1.3-1.1-2.6-2.2-4-3.2
	c-2.2-1.6-4.4-3.2-6.7-4.5c-0.5-0.3-1.6,0.5-2.4,0.8c0.4,0.9,0.5,2.2,1.2,2.7c2.1,1.6,4.3,3,6.6,4.1
	C1968.7,486.3,1970.4,486.6,1972.1,487z M983.9,375.3c-1.4,4-1,6.4,2.3,6c1.5-0.2,4.1-2.7,3.9-3.6c-1.1-5.3-3-10.4-4.6-15.6
	c-0.2,0-0.4,0.1-0.5,0.1c0.7,5.3,1.3,10.6,2,15.9c-0.6,0.1-1.2,0.3-1.7,0.4C984.9,377.6,984.5,376.8,983.9,375.3z M1473.8,666.4
	c0-0.4,0.1-0.8,0.1-1.2c-11.6-1.2-23.2-2.4-34.8-3.5c-0.1,0.3-0.1,0.7-0.2,1c1.4,1.1,2.8,2.1,4.9,3.7c-0.4-1.6-0.6-2.3-0.8-3.1
	C1453.4,664.4,1463.6,665.4,1473.8,666.4z M1694.3,361.4v-20.4C1690.1,347.4,1690.2,351.2,1694.3,361.4z M1764.4,573.2
	c0.6-1,1-1.6,1.3-2.2c-1.6-1.1-3.2-2.2-5.8-4c-0.4,2.2-1.5,4.6-0.8,5.7c1,1.5,3.4,2.4,5.3,2.6c1.5,0.2,3.1-1.2,5.6-2.2H1764.4z
	 M447.1,521.1c-3.1-2.7-6.2-5.5-9.6-8.5C435.9,517.8,439.9,521.6,447.1,521.1z M1886.3,429.2c-0.6,0.6-1.1,1.1-1.7,1.7
	c4.1,4.1,8.2,8.2,12.3,12.3c0.6-0.6,1.1-1.1,1.7-1.7C1894.5,437.3,1890.4,433.2,1886.3,429.2z M1717,410.1c1.6,4,2.1,7,3.7,9.1
	c1.7,2.1,4.3,4.4,8.8,2.3C1725.3,417.7,1721.5,414.2,1717,410.1z M128.8,470.1c7.6-4.6,8.3-6.5,5.2-14.2
	C134.8,462.2,127,463.7,128.8,470.1z M1000.7,446.2c4.6-3.6-0.9-6.3-1-9.4c-0.1-4.2-0.5-7.5-4.3-9.5
	C997.1,433.6,998.9,440.1,1000.7,446.2z M361.1,454.1c-0.4-0.3-0.9-0.6-1.3-0.9c-1.2,2-2.4,3.9-3.5,5.9l-0.4-0.8
	c-1.7,1-3.4,1.9-5.4,3.1C356.4,464.5,360.4,461.5,361.1,454.1z M633.8,664.6c0.2,0.5,0.3,1.1,0.5,1.6h11c0.5-1.6,1-2.9,1.7-5.1
	C642.1,662.4,638,663.5,633.8,664.6z M925.1,461.3c2.5-4.2,0.5-14.8-4-16.9C922.3,449.8,923.6,455.1,925.1,461.3z M466.3,463.2
	c6.8-6.8,6.5-7.7-2.9-10.8C464.4,456,465.2,459.1,466.3,463.2z M370.6,531.8c0.1-0.4,0.1-0.8,0.2-1.2c-3.3-1.2-6.7-2.5-10.7-4
	c0.5,1.5,0.7,2.2,0.8,2.5c-1.8,0.8-3.4,1.5-6.1,2.6H370.6z M1175.5,626c0,0.8,0,1.6,0,2.3c3.4,0.3,6.9,0.7,10.4,1
	c-0.5-2-0.8-3.5-1.1-4.6C1181.7,625.2,1178.6,625.6,1175.5,626z M161.9,481.2c0.7,0.4,1.4,0.9,2.1,1.3c2.9-4.9,5.8-9.8,8.7-14.8
	c-0.5-0.3-1-0.7-1.5-1C168.1,471.6,165,476.4,161.9,481.2z M1810,497.5c0.7-0.2,1.5-0.5,2.2-0.7c-0.4-2.3-0.3-4.9-1.4-6.8
	c-0.6-1-3.3-0.7-5-1c-0.2,0.5-0.5,1-0.7,1.5C1806.7,492.8,1808.4,495.2,1810,497.5z M957.8,442.3c1.1-4.2-2.6-11.3-8.2-13.7
	C952.3,433.2,955,437.7,957.8,442.3z M1748.1,374.2c1.1,4.9,2.2,9.8,3.3,15.2C1756.3,382.7,1751.1,378.7,1748.1,374.2z
	 M1766.3,390.2c-0.3,0.1-0.5,0.3-0.8,0.4c1.7,4.1,3.4,8.3,5.4,13.2c1.2-2.2,1.9-3.5,2.6-4.8C1771.1,396,1768.7,393.1,1766.3,390.2z
	 M1013,429.4c-0.7,0.2-1.3,0.4-2,0.6c1.6,4.8,3.1,9.5,4.7,14.3c0.6-0.2,1.3-0.4,1.9-0.6C1016.1,439,1014.6,434.2,1013,429.4z
	 M377.3,428.4c0.6,0.1,1.2,0.2,1.8,0.4c5.6-3.4,1.6-8.8,2.7-13.1c-0.5-0.1-1.1-0.2-1.6-0.3C379.3,419.7,378.3,424,377.3,428.4z
	 M109.5,484.3c0.3-1,0.7-2,1-2.9c-8,6.4-4-0.6-6.2-1.8c-1,3.3-2,6.3-2.9,9.3c0.6,0.3,1.1,0.7,1.7,1
	C105.2,488,107.4,486.1,109.5,484.3z M554.2,524.7c-2.7,0.8-4.9,1.4-7.1,2.1c0,0.2-0.1,0.5-0.1,0.7c1.8,0.3,3.6,0.6,5.1,0.9
	c0,1.3-0.5,3.3,0.1,3.6c1.4,0.9,3.3,1.2,5.5,1.8C556.2,529.9,555,526.9,554.2,524.7z M1804.4,400.7c-0.5,0.4-1,0.7-1.5,1.1
	c1.5,2.4,2.9,5,4.5,7.3c0.5,0.7,1.8,0.7,2.8,1c0.1-1.2,0.9-2.9,0.3-3.5C1808.7,404.4,1806.5,402.6,1804.4,400.7z M1026.8,452.1
	c0.3,0,0.6,0,0.9-0.1c0.2-1.6,0.5-3.3,0.8-5.3c1.3,1.4,2.1,2.3,3.2,3.6v-8.1c-1.8,0.5-4.9,0.8-5.1,1.6
	C1026,446.5,1026.6,449.3,1026.8,452.1z M1871.7,440.4c-0.6,0.2-1.2,0.4-1.8,0.6c0.5,2.4,0.5,5,1.5,7.2c0.5,1,2.8,1.2,4.2,1.8
	c0.3-0.4,0.5-0.7,0.8-1.1C1874.9,446,1873.3,443.2,1871.7,440.4z M968.8,546.5c0.6-0.3,1.1-0.6,1.7-0.9c-0.2-6.2-0.9-9.7-2.3-10.5
	c-0.3,1.4-0.6,2.8-0.8,4.2c-0.5,0-1,0-1.4,0L968.8,546.5z M905.5,363.7c-2.7-3.9-4.7-6.8-6.8-9.7c-0.2,0.2-0.5,0.4-0.7,0.7
	c0.5,3,1,6,1.6,9.4C901.1,364,902.7,363.9,905.5,363.7z M1133.4,585c-0.4-2.3-0.8-4.3-1.2-6.4c-0.4,0-0.9-0.1-1.3-0.1
	c-1.5,3-3,6.1-4.5,9.1c0.4,0.2,0.7,0.3,1.1,0.5C1129.4,587.2,1131.2,586.2,1133.4,585z M898.3,414.9c-0.4,0.1-0.8,0.2-1.3,0.3
	c-0.7,7.2,1.1,12,5.3,13.1C901,423.7,899.6,419.3,898.3,414.9z M1609.7,564.4c7.2,3.2,12.1-1.3,17.5-3.4
	C1621.6,562.1,1616,563.2,1609.7,564.4z M995.9,611c2.5,2.2,4.8,4.2,7.2,6.3C1003.3,610.9,1000.6,609.1,995.9,611z M638.5,590.3
	h-11.7l-0.3,0.5c3.3,1.3,6.6,2.5,9.4,3.6C637,592.8,637.7,591.7,638.5,590.3z M493.7,442.5c-3.7,3.7-4.6,9.3-1.1,13.5
	C493,451.6,493.3,447.1,493.7,442.5z M419.5,430.5c0.6-0.2,1.3-0.5,1.9-0.7c-0.8-4-1.5-8-2.3-12c-0.4,0.1-0.9,0.2-1.3,0.3
	C419.6,422.1,414.9,427.2,419.5,430.5z M1136.3,566.2c2.8,2.1,4.6,3.4,6.4,4.8c0.2-2.2,0.3-4.5,0.5-7.2
	C1140.7,564.6,1139.4,565.1,1136.3,566.2z M1753.9,574.2c-2.4-1.7-3.7-2.7-5-3.6c-0.8-0.5-1.7-0.9-2.6-1c-0.3,0-1,1.3-1,1.4
	c1.4,1.4,2.7,3.2,4.4,3.9C1750.9,575.4,1752.6,574.5,1753.9,574.2z M1022.9,490l-2.2,0.1c0.2,3.6,0.5,7.1,0.7,10.7
	c0.5,0,1-0.1,1.5-0.1V490z M1020.5,397.8c-0.6,0.2-1.1,0.4-1.7,0.6c-0.6,5.2,5.1,6.9,7.5,10.5
	C1024.4,405.2,1022.4,401.5,1020.5,397.8z M1735.8,339.9c0.9-0.7,2.4-1.6,2.3-1.8c-1.7-3.5-3.7-6.8-5.5-10.2
	c-0.4,0.2-0.8,0.4-1.2,0.7C1732.8,332.2,1734.1,335.7,1735.8,339.9z M987.2,698.5c-2.5,0.3-4.6,0.5-7.2,0.8c1,1.3,1.7,3,3,3.6
	c1.1,0.5,2.7-0.1,4.2-0.3V698.5z M1764.1,356c-0.7,0.5-1.3,0.9-2,1.4c2.3,2.7,4.7,5.4,7,8.1c0.5-0.4,1-0.8,1.5-1.2
	C1768.5,361.5,1766.3,358.8,1764.1,356z M1148.5,583.4c0.6,0.2,1.2,0.4,1.8,0.6c0.9-3.2,1.9-6.3,2.6-9.5c0.1-0.3-1.8-1.1-2.4-1.4
	c-0.1,1.7,0.2,3.8-0.4,4C1146.6,578.7,1148.6,581.2,1148.5,583.4z M524.4,533.8c0.9-6.2,0.1-7.1-6.6-7.4
	C520,529,522,531.1,524.4,533.8z M438.2,526c-0.2,0.3-0.4,0.7-0.6,1c0.7,2.1,1.3,4.2,2.4,7.5c1.4-1.5,2.4-2.6,3.5-3.7
	C441.7,529.2,439.9,527.6,438.2,526z M874.9,676.9c1.7-1.4,3.4-3,5.2-4.5c-0.4-0.4-0.8-0.8-1.2-1.2c-0.9,1.2-1.7,2.4-1.8,2.6
	c-2.8,0.9-4.6,1.5-6.4,2.1c0.1,0.6,0.3,1.1,0.4,1.7c2,0.2,4,0.5,6.1,0.7c0-0.3,0-0.6,0-0.9C876.1,677.2,875,677,874.9,676.9z
	 M503.3,519c-0.2-0.6-0.4-1.2-0.6-1.7c-1.7,3.9-6-2.1-7.2,3.8c1.8,0.8,3.6,1.5,5.5,2.3C501.8,521.9,502.5,520.4,503.3,519z
	 M1882,472.7c0.7,0,1.5-0.1,2.3-0.1c0.1-0.3,0.1-0.5,0.2-0.8c-1.5-0.7-3-1.5-5.2-2.6c0.5,3.7,0.9,6.7,1.2,9.6c0.5-0.1,1-0.1,1.5-0.2
	V472.7z M418.9,514.8c1.5,6,2.8,6.5,7.5,3.6C424,517.3,422,516.3,418.9,514.8z M967.9,428.1c0.3-1.3,1.3-3.1,0.8-4.4
	c-1.2-3.4-3.1-6.6-5.3-11.3c0.3,3.3,0,5.2,0.6,6.9C964.9,422.2,966.4,424.8,967.9,428.1z M1677.6,339.9c0.4,6.4,5.2,3.1,7.7,4.6
	c-0.8-1.9-1.7-3.8-2.8-6.5c-0.6,2-0.9,2.9-1.3,4C1680.1,341.3,1679.3,340.8,1677.6,339.9z M929.4,503.3c-0.6,0-1.3,0-1.9,0.1
	c0.2,3.3,0.4,6.6,0.6,10.8C933.4,509.9,929.4,506.6,929.4,503.3z M434.8,445.5c-0.8,0.1-1.6,0.3-2.5,0.4c0.3,2.9-2.5,6.5,3.4,9
	C435.4,451.4,435.1,448.4,434.8,445.5z M1566.2,664.4c0,0.5-0.1,1-0.1,1.4c4.8,0.3,9.7,0.5,14.5,0.8c0-0.4,0.1-0.8,0.1-1.2
	C1575.9,665.1,1571.1,664.7,1566.2,664.4z M1166.6,630.4c2.6-2.4,4.4-4.1,6.2-5.8c-0.2-0.4-0.4-0.9-0.6-1.3c-1.8,0.6-4,0.9-5.4,2
	C1166.1,625.9,1166.6,628.1,1166.6,630.4z M1486.9,661.6c0.1-0.4,0.1-0.8,0.2-1.2c-3.7-0.6-7.4-1.3-11.1-1.9
	c-0.1,0.6-0.2,1.2-0.2,1.8C1479.4,660.8,1483.2,661.2,1486.9,661.6z M1407.6,657.8c0,0.4,0.1,0.8,0.1,1.2c5.9,0.7,11.8,1.4,17.7,2.1
	c0-0.4,0.1-0.9,0.1-1.3C1419.6,659.2,1413.6,658.5,1407.6,657.8z M911.7,451.7c0.6-0.1,1.2-0.3,1.8-0.4c-1.5-4.3-3-8.5-4.5-12.8
	c-0.4,0.1-0.8,0.3-1.2,0.4C909.1,443.1,910.4,447.4,911.7,451.7z"/>
</svg>
