<?xml version="1.0" encoding="UTF-8"?>
<svg id="Layer_1" xmlns="http://www.w3.org/2000/svg" version="1.1" viewBox="0 0 1024 768">
  <!-- Generator: Adobe Illustrator 29.5.1, SVG Export Plug-In . SVG Version: 2.1.0 Build 141)  -->
  <defs>
    <style>
      .st0 {
        fill: #e0a1d1;
      }

      .st1 {
        fill: #1b304d;
      }

      .st2 {
        fill: #39263b;
      }

      .st3 {
        fill: #6a4866;
      }

      .st4 {
        fill: #20385b;
      }

      .st5 {
        fill: #f9e9f0;
      }

      .st6 {
        fill: #121f32;
      }

      .st7 {
        fill: #2c2322;
      }

      .st8 {
        fill: #feb44f;
      }

      .st9 {
        fill: #1f071f;
      }

      .st10 {
        fill: #201d20;
      }

      .st11 {
        fill: #ffe19b;
      }

      .st12 {
        fill: #341b34;
      }

      .st13 {
        fill: #162740;
      }
    </style>
  </defs>
  <path class="st6" d="M420.1,611.4c9.9,4.6,20.3,9.6,30.5,14.3-9.7,5.6-21.6,14.8-31.4,20.1-.7-.7,0-5.2,0-5.8.2-8.9,0-19,0-28.1l.4-.4h.6-.1Z"/>
  <path class="st6" d="M733.5,655.6c-1.1-.3-2.1-.7-3.2-.8-11.9-.2-23.8-.3-35.7-.5-6.7,0-14-.3-21.1-.8-.6-14.9.7-31.2.5-45.9.3-.2,1.6-.4,2.1-.4,1.6-.5,4.6-2,6.1-2.5,5.3-5,.8-9.3-4.8-9.8-1.9-.2-3.2-1.8-3.4-2.1v-8.8c0-1.2-.2-2.5-.2-3.8,9.6-1.5,18.9-2.6,28.3-4.7,13-2.8,26.1-5.7,38.3-9.8,24.9-8.4,49.3-17.7,73.8-26.8,17.5-6.5,35.3-12.6,54.4-16.1,19.7-3.6,39.4-3.1,59.1,0,20.8,3.3,40.4,9.3,60.7,13.9,11.6,2.5,23.3,4.7,35.3,7,.3,37.6.3,75.3.3,113.2-11.6.8-23.2,1.5-34.8,2-3.5.2-7.1,0-10.6,0s-1.8.7-3,1.2c-9-9.4-18.3-18.8-26.6-28.4-9.4-11.1-18.2-22.5-27.2-33.8-.3-.4-.5-.6-.7-.8h0c-.3-.5-.5-.7-.7-.9h0c-.3-.5-.5-.7-.7-.9h0c-.2-.5-.5-.7-.7-.9h0c-.2-.3-.4-.4-.6-.6v-.5c-1.5-2.1-3-4.2-4.5-6.1h0c-.3-.5-.5-.7-.7-.9h0c-.3-.5-.5-.7-.7-.9h0v-.4c0-.2-.2-.3-.3-.4v-.2c-.4-.8-.9-1.5-1.4-2.4-1.1-.4-2.2-.8-3.3-.8-7,0-14.2.2-21.2,0-11.7-.5-23.5-.8-35.1-2-13-1.4-25.7-3.8-38.6-5.7-2.3-.3-4.5-.6-7-.8-1.5-.3-2.7-.5-4.2-.8-.4.2-7.6,10-7.6,10-3.2,4.7-6.3,9.2-9.3,13.7h0c-.3.2-.3.4-.4.5h0c-.3.3-.4.6-.5.9h0c-.3.4-.4.6-.5.9h0c-.3.4-.4.6-.5.9h0c-.3.4-.4.6-.5.9h-.2c-.3.4-.5.7-.8,1.1-2.3,2.8-4.3,5.7-6.4,8.4-12.3,16-25.2,31.6-39.9,46.5h-1.3,0Z"/>
  <path class="st6" d="M620.7,594.7c-.2,0-.4,0-.6-.5-.4-.5-.7-.6-1-.7-3.3-.3-6.2-1.5-8.5-3.9v-2c6.8-.8,13.8-1.5,20.6-2.4,9.1-1.1,18.2-2.5,27.5-3.3.2,4.9.2,9.3.2,14-13.1-.5-25.6-.8-38.2-1.3h0Z"/>
  <path class="st6" d="M547.4,645.3c14.1-7.5,44.8-23.4,45.3-23.7.2,8.2,0,16.6,0,24.6h0s-42.3-.8-45.3-.9h0Z"/>
  <path class="st6" d="M657.3,646.1c-6.5-6.8-12.9-13.7-19.7-20.9,6.6-3.9,13-7.7,20-11.5.8,2.7.9,5.3,1.1,7.8.2,2.3.4,4.6.7,6.9v5.5c-.3,3.5-.3,6.7-.5,9.8,0,.8-.9,1.5-1.4,2.3h-.2,0Z"/>
  <path class="st6" d="M652.5,606.7c-6.8,3.9-15,7-22,10.9-4.4-4.2-6.8-6.7-11-11,0-.3-1-1.5-1.2-1.5v-1.3h.5c6.1.5,11.9.9,17.7,1.1h12c4,0,.7,0,1.5.2,1.1.6,1.8,1.1,2.5,1.6h.2-.2Z"/>
  <path class="st13" d="M1023.8,654.7v113H-.2c0-32.7-.1-65.3.2-98.3,12.3,1.1,24.5,2.4,36.5,4,6.1.8,10.7,2,16.8,3.3h10.2c3.1,0,5-.2,5.8-.2,12.9-.3,53.4-1.7,53.4-1.7,6-.2,12-.5,17.7-.7l54.6-1.6c14-.6,34.2-.9,37-1.1h1.4c1.2-3.1,1.8-5.5,2.7-8.6,0,0-1.1-.7-1.2-1h-.8c-.5.3-.9.6-1.5.9-.8,1.6-1.3,3.1-1.8,4.7,0,.2,0,.3-.2.5-.7,0-1.5,0-1.8-.2-10.3-9.2-21-18.6-30.9-27.9,1-.2,2.1-.2,2.6-.2,14.3.4,28.7.8,43,1.5,9.9.5,19.6,1.8,29.4,2.8,4.5.4,9.1.5,13.6,1.1-.3,2.6-.4,4.5-.7,7.7-3-3.2-5.4-5.7-8.3-8.8-1.4,2-3,4.4-4.2,6-9.5,15.9-8.2,27.6,7.8,40.3,1.2.8,2.8,1.6,3.8,2.3-2.2-.2-5,0-6.9,0-5.3-.5-10.5-1.2-15.8-1.6-5.1-.3-9.2,2.8-9.8,6.6-.2,3.1,2.3,5,7.5,6.3,1.1.2,2.9.3,4.9.5-3.3.8-6.6,1.6-9,2.3-5.1,1.7-6.9,6-4.5,9.9,3.6,4.7,7.7,6,13.3,5,1.6-.5,3.4-1,5.1-1.4,13.1-3.1,26.3-6.2,39.4-9.3,1-.3,2.5-.4,3.4-.2,10,2.3,19.2,4.7,29.1,7,6.1,1.4,12.2,2.9,18.5,3.7,2.5.3,5.7,0,7.7-1.1,6.9-3.8,4.6-12.9-3.6-15.1-2.4-.6-4.3-1.5-7.3-2.2,1.3-.3,1.6-.5,2.3-.6,9.3-1.8,8.1-7,3.3-10.3-2.9-2-6.3-2.8-10.4-2.1-5.2,1-10.7,1.8-16,2.5.3-.4.8-.6,1.1-.8,11.2-7.4,15.7-16.7,14.2-27.2-.7-5.1-3.4-10.1-4.9-15.1h3.3c14.5,1.9,29.1,2.6,43.8,2.3,2.7,0,5,0,6.1,2.2.3,1.5,2.3,4.7,2.8,6.2l-.2,20.9c0,.8-.1,1.3-.2,2.4.1.2,0,.5,0,.7.3,1.4.3,3,3.5,1.7h10.5v.3c.8.9,1.3,1.2,2.7.2.3-.3,0-.2.2-.5,0-7.8-.4-15.5-.2-23.1v-1.9c.4-.3,2.6-2,3.2-2.3.4-1.3.7-2.6,1.6-3.9.7-.5,1.3-.8,2.1-1.2.3-.2.4-.3.6-.5h.4c.4-.2.6-.4.8-.7.2-.2.3-.2.8-.2,7.6-.5,15-.9,22.3-1.4,5.2-.4,10.5-.7,15.7-1.2,8.4-.8,17.5-1.5,25.9-2.1v14.2c-.2.9-2.7,1.7-2.6,3.6s.4,2.2,2.5,2.9c0,0,.7-.2,1.2,1.4,0,3.9,0,5.8.2,9.6v1.7h13.5c.3-4.4-.4-8-.1-12.3.6-1,1.9-2.6,2.4-3.6,3.4-1.6,6.7-3,9.8-4.6,1.7-.8,2.8-1,4.6,0,6.5,3,13.3,5.6,19.7,8.7,15.6,7.4,34,13.4,48.4,22.5.5.4.6,1.4.8,2.1s-.2,9.5-.2,10.9h.4v.3h2.2c3.4,0,6.6-.3,10-.4h1.3c.3.2.5.2.7.3h0c1,.9,1.4.7,2.6-.2v-.3h0s.5,0,.6-.8v-14.7c.6-1.3,2.6-2.9,3.4-3.5v-2.7c-1.8-2.1-2.4-2.1-3.3-2.8v-31.4c3.4,0,7.4,0,10.4.3,7.6.4,15.1.9,22.7,1.3h0c.3.2.5.3.9.4.3.2.4.3.4.6.3.3.6.5,1,.8.3.2.3.3.3.6.3.4.7.6,1.1.9,3.2,3.3,6.2,6.4,9.2,9.7.5.5,1.3,2,.9,2.4-1.4,1.8-1.3,2.9,0,4.7.3,2.7.6,5.7.7,8.5v6.5c1,.3,1.3.2,2.5.4,3.6,0,7-.2,10.5-.2.8.2,1.4.2,2.1.2h.7c.5-.8,0-9.8.2-14.2,6.4-2,4.5-5.8-.3-7,0-4.1-.2-8.6,0-12.5h1.3c7,.3,13.7.8,20.4.9,11.8.3,23.7.3,35.5.5,1.1,0,4.2.2,5.5.5-8.6,8.9-18.5,18.5-27.3,27.2l-2.5-1.1c-.2-.8-.4-1.5-.4-2.4-.2-.8-.7-1.5-1-2.2h0c-.3-.5-.6-.7-1-1-.4-.2-1-.6-1-.6-.3-.3-.5-.4-.7-.5-.2.2-.4.5-.7.8s-.4.3-.8.5c.8,2.8,1.8,5.6,2.9,8.3,0,0,.3,0,.4.2.6.4,1.1.6,1.7.9,1.2.2,2.2.2,3.5.3.7,0,1.2,0,1.9.2,16.7.8,33.3,1.5,50,2.2h12.6l76,2.9,53.9.7c1.2-.3,16.7-2.7,23.4-3.8,11.1-2.5,23.7-3.8,34.9-4.7,6.7-.5,29.7-2.1,36.5-1.4s2.1.4,3.1-.2c.9-2.1,1.9-4,2.7-5.9.2-.6-.3-1.4-.5-2.1-.9.5-2.1.8-2.6,1.5-1,1.5-1.5,3.1-2.5,5.2-9.3-6.2-16.6-13-23.6-20,0,0,.8-.6.6-.7l-1.1-1.1h13.5c11.6-.6,23.1-1.2,34.6-1.8M4.8,716.1c-.2,1.7-1,8,0,10.1,1.8,4,5.1,7.1,10.1,9.7.4,0,.8.2,1.1.3l.2.3c3.2.2,7.3.3,10.4.3,6.5-.9,13.8-2.4,21.1-3.3,14.6-1.8,27.4-3.3,42-5.1,1.1,0,5.5-.8,6.2-.6,2.1-.4,4.6-.7,7.3-.9,24.1-3,48.2-6.1,72.4-8.9,5.3-.6,9.8-1.8,13.3-5.2.2-.3.3-.6.5-1.2.2-.2.3-.5.9-.8.7-2.3.7-2.2,1.4-4.5-.9-5-.7-6.2-.8-6.6-.7-1-2.3-3-3.3-4.2-2.4-1.7-6.6-4.8-6.6-4.8,0,0-7.6.4-10.1.6-9.4.8-19.3,1.7-28.7,2.6-1.8.2-75.9,8.1-124.6,11.6-2.1.2-4.4,1.5-6.4,1.9M704.2,719.9c2.5.5,4.3-.3,5.4-.2,0,0,37.5,4,37.7,4.5v.4c-4.7.4-18.8,1.5-23.5,1.9-2.1.2-3.7.2-7.1.7-4,1-5.8,1.8-7.9,4.4-5.3,7.5-1.1,15.5,8.7,19.7,1.5.2,73-6,76.5-6.3,2.4-.3,14.6-1.5,19.5-1.9,9.6-.9,27.8-3.5,28.5-3.7.2,0,.5-.3.8-.5,4.1-2.5,6.2-5.7,5.6-9.5-.6-4.5-3.3-8.4-7.7-11.6-2.4-1.8-5.5-2.2-8.9-1.8-9.2,1.1-18.3,2.2-28,3.4-6.5.7-13.6,1.3-20.4,2,.3-1,.7-1.5,1.2-2.3.3-2.1,1.2-4.2,1-6.3-.4-4.5-3.5-6.6-10.4-7.1h-4c-.8,0-1.5-.3-2.8-.5-1.8,0-3.6-.3-5.9-.5h-5.4c-1.2,0-2.3-.3-3.9-.5h-3.3c-.5,0-1.1-.3-2.1-.5-1.4,0-2.7-.2-4.6-.4-1.8-.2-3.7-.3-6-.6-4-.4-8.1-.8-12.6-1.3-4.4-.5-8.7-1.1-13.1-1.5-8.2-.9-9.9,0-12.2,5.8-.2.6-.3.9-.5,1.9.2,2.4.5,5.2.7,7.9M345.9,754.8c.4-2.5.9-5,1.1-7.5,0-.8-.5-1.6-1.2-2.4-.7.2-1.9.3-1.9.5-.6,3-1.3,6.1-1.4,9.1,0,1.3,1.4,1.7,3.3.2M159.9,748.8c.8,1.8,1.4,3.6,2.3,5.3.3.5,1.1.9,1.7,1.4.5-.6,1.5-1.3,1.3-1.8-1-2.5-2.2-5-3.6-7.4-.8-1.3-2.3-2.3-4-3.9-1.5,3,1.3,4.3,2.2,6.4M964.9,720.9c-2.2,2.9-4.4,5.8-6.5,8.7-.5.7-.6,1.7-.4,2.5,0,.5,1.1.8,1.6,1.2.5-.4,1.2-.7,1.4-1.1,1.6-3.1,3.2-6.2,4.6-9.4.3-.6-.2-1.3-.8-1.9M169.7,753.3c.6.7,1.1,1.5,1.7,2.2.5-.7,1.2-1.3,1.5-2,1-2.4,1.9-4.9,2.8-7.4.3-.7.2-1.5.4-2.3h-1.2c-3.4,2.6-4.6,5.8-5.1,9.6M953.9,732.2c-.7-3.8-2.1-7.3-6.8-10-.5.7-.8,1-.8,1.1,1.6,3.3,3.2,6.6,4.9,9.8.2.3,1.2.7,1.6.6.5-.2.8-.8,1.1-1.6M561.9,730.8c.6.8,1.1,1.6,1.7,2.4.5-.8,1.1-1.5,1.4-2.3.9-2,1.8-4,2.7-6,.3-.7.2-1.4.3-2.1l-1-.2c-3.2,2-4.3,4.8-5.1,8.1M479.9,747.9c-1.3-2.7-2.5-5.4-3.9-8-.2-.4-1.5-.5-2.3-.8,0,.5,0,1.1.2,1.6,1.1,2.3,2.2,4.5,3.4,6.8.4.8.9,1.6,1.3,2.4h1c.1-.5.3-1,.4-1.9M485.1,745.9c-.3.7-.8,1.3-.9,2,0,.6.3,1.2.5,1.8.7-.4,1.6-.7,2-1.2,1.6-1.9,3-3.8,4.4-5.7.3-.5.3-1.1.4-1.7-.9.2-2.1,0-2.5.5-1.4,1.2-2.4,2.6-3.8,4.2M332,750c1.1,1.7,2.2,3.4,3.4,5,.3.4,1.1.6,1.6.9.3-.3.9-.7.7-.9-1.7-2.6-3.4-5.1-5.2-7.6-.1-.2-1.1,0-1.7,0,0,.4-.2.9,0,1.3.2.4.7.8,1.3,1.5M425.4,727.7c.8-3.3-2.3-8.8-5.9-9.2,1.4,3.2,2.8,6.1,4.2,9.1,0,.2.8.2,1.7.2M551.1,726.5c1.5,2,2.9,4,4.4,6,.4.5,1.2.7,1.9,1,.3-.4,1-1,.8-1.3-1.4-2.1-2.8-4.2-4.5-6.1-.2-.3-1.8,0-2.7.5M899.1,724.1c.5,1.4.9,2.9,1.6,4.3.2.3.9.8,1.4.7.4,0,1.2-.6,1.1-.9-.7-2.2-1.5-4.5-2.4-6.6,0-.3-1.2-.4-1.9-.5-.2.5-.6.9-.6,1.4s.4.9.8,1.7M908.1,722.7c-.6,1.6-1.2,3.2-1.6,4.8,0,.4.7,1,1.1,1.5.5-.4,1.3-.7,1.5-1.1.7-1.5,1.4-3.1,1.8-4.7.2-.6-.3-1.4-.5-2.1-.7.5-1.5.9-2.4,1.7M154.8,755.6c.4,0,1-.2,1.1-.4.6-1.2-3-5.9-4.8-6.2-.5,0-1.2,0-1.5.3-.3.2-.3.8,0,1,1.5,1.8,3.2,3.5,5.2,5.3M349.3,754.2c0,.4.8.9,1.3,1.4.5-.3,1.3-.6,1.5-1,.9-1.6,1.6-3.2,2.3-4.9.2-.4-.3-1-.5-1.4-.7.2-1.4.3-1.9.6s-.6.8-1.1,1.6M615.9,754.3c1,1,2.6,1.5,2.4-.2,0-1.9-1.4-3.8-2.3-5.7-.2-.3-1.2-.4-1.9-.6,0,.5-.5,1-.3,1.4.6,1.6,1.3,3.1,2.1,5M577,726.4c-.9.2-2.1,0-2.5.5-1.3,1.3-2.4,2.7-3.4,4.2-.3.5.2,1.2.3,1.8.8-.3,1.9-.5,2.3-1,1.3-1.7,2.3-3.5,3.3-5.6M968.2,733.3c3-1,5.3-4.3,4.2-6.2-3.4.9-5.7,3.8-4.2,6.2M625.4,750.3c0-.8-.3-1.6-.4-2.4-.7.6-1.6,1.2-2.1,1.8-.7,1-1.4,2-1.6,3,0,.8.5,1.6,1,2.6.9-.5,1.1-.6,1.2-.7.6-1.3,1.2-2.7,1.9-4.4M432.3,720.9c-2.5,3.8-2.7,5.8-.2,6.6.8-2,1.6-4,2.3-6,.4-1.1-.3-1.5-2.2-.6h.1Z"/>
  <path class="st6" d="M-1,525.1c10.9-2.1,21.8-2.2,32.9-.5,17.7,2.6,34.4,7.1,50.6,12.6,18.8,6.3,37.3,13.1,57.1,17.5,11.7,2.6,24,4.8,36.6,5.5v54.6c0,.7-.3,1.6-.7,2.4-.2,0,0,0,0,0-.4-.2-.7-.3-1.1-.5-.8-.8-1.5-1.6-2.1-2.4-8.9-10.9-17.9-21.8-26.8-32.6-1.3-1.7-2.7-2.4-5.4-1.8-3.3.6-6.8,1.1-10.3,1.7h-6.6c-8.6.7-17.1,1.5-26,2.2h-10.9c-2,0-4,.2-6.1,0-9.5,0-19-.2-28.5-.4-2.4,0-4.9-.5-6.8,1,0,.2-.3.2-.7.3-.4.3-.6.6-.9.9-.3.3-.4.6-.7.9-.3.2-.4.3-.7.5-.3.3-.4.6-.7.9-.3.4-.4.6-.5.9h0c-.3.2-.3.4-.4.5h-.2c-.6.6-.9,1.2-1.3,1.9h0c-.3.3-.4.6-.6.9h-.2c-.5.5-.8,1-1,1.5h0c-.3.3-.4.6-.6.9h0c-.3.3-.4.6-.6.9h-.2c-.5.5-.8,1-1,1.5h0c-.3.3-.4.6-.6.9h0c-.3.3-.4.6-.6.9h-.2c-.5.5-.8,1-1,1.5h-.4s.2.2.2.4c-6.6,8-12.9,15.8-19.6,23.6C8.5,629.3,4.2,633,0,637.6l-.2-112.7h-.2l-.6.2h0Z"/>
  <path class="st4" d="M0,666.8c0-9.5-.2-19.4,0-29.2,2.1-2,4.2-3.4,5.9-5.3,12.6-14.6,25.2-29.2,37.4-43.9,2.7-3.4,4.9-4.5,10.5-4.2,11.4.7,22.8.3,34.3.3s26.3-1.4,39.2-3.1c3-.4,6.3-.8,9.4-1.2-.9,8.5-71.5,90.3-80.4,93.3-.4-.6-.9-1.2-1.3-1.8-1.1-1.6-2.1-3.3-3.3-4.8-.4-.5-1.5-.6-2.3-.9,0,.6-.5,1.3-.2,1.9,1,1.8,2.2,3.5,3.2,5.2-17.6-2.1-34.8-4.2-52.3-6.2v-.2h0Z"/>
  <path class="st6" d="M401.8,607.3s.8-.2.8,0v41.6c-.4,1.5-2.1,3.6-2.3,4.9-1.2-2-3.6-2.1-6.2-2.1-14.8.3-29.4-.4-44-2.3-1,0-2,0-3.4-.2-4.2-5.2-8-10.3-11.9-15.4-5.2,2.8-7,4.9-11.4,12.3-1.9-3.1-2.1-6.2-1.6-9.4,1.7-10.7-1-20.7-11.6-29.1-1.6-1.3-3.6-2.2-5.4-3.4,2.7,7.3-.3,13.3-5.8,18.9-6.5,6.6-10.8,13.7-12.7,21.7-4.6-.3-9.1-.6-13.8-1.1-9.8-.9-19.7-2.2-29.5-2.8-14.4-.8-28.7-1-43.2-1.4-.5,0-1.1,0-2,.2v.2h0c-6.3-5.8-12.3-12.6-18.3-18.7.1-1,.4-.8.4-1.6v-59.8c2.2-.2,37.1-3.8,52.5-5.5,11.2-1.2,22.5-2.1,33.8-2,20.2.3,39.5,4.1,58.4,9,14.9,3.8,29.4,8,44.2,11.9,9.6,2.6,19.4,5,29.2,7.3,2.3.6,2.6.7,4.3,1.1-.2,2,0,5.9-.1,8.1,0,.2-1.6.3-1.8.4-.4.2-.6.3-.8.5,0,0,.1,0,0,0-.6,0-.9.2-1.5.4-2.4,0-4.4-.3-6.5-.2-2.5.2-4.9.7-7.3,1.1h-.2c-.3.2-.5.3-.6.4h-.1c-.3.2-.5.3-.7.5-.3,0-.4.3-.5.5-3,4.2-1.4,7.8,2.1,9.7l1,.9c.5.2.5.4,1,.6h0c1.6,0,3.2-.2,4.7,0,5.3,0,5.7.3,7.9,1.4l.6.5c.3.2.6.4.7.5l.6.3"/>
  <path class="st1" d="M0,667c17.4,1.9,34.4,3.8,52.1,5.9-1.1-1.7-2.1-3.1-3-4.9-.3-.5,0-1.2.2-1.9.8.3,1.8.3,2.2.7,1.3,1.6,2.3,3.4,3.4,5,.4.6.9,1.2,1.3,1.8,7.9-2.1,79.6-84.8,80.4-93.3-3.1.4-6.1.8-9.1,1.2-13,1.8-26,3.1-39.2,3.1s-23.1.4-34.5-.3c-5.6-.3-7.8.9-10.4,4-12.2,14.7-24.9,29.3-37.4,43.9-1.6,1.8-4,3.7-6,5.5-.2-.9,0-2,0-3.2,4.2-4.6,8.7-9,12.6-13.5,6.6-7.5,30.5-37.3,30.7-37.6h48.4c.6,0,19.2-1.2,24-1.8,4.3-.5,8.4-1.4,12.7-2.1,3.3-.5,6.7-1,10-1.6,2.6-.5,4,.2,5.3,1.7,8.8,10.5,17.6,21,26.5,31.5.6.7,1.3,1.4,2.2,2.4.5.3,1.9,1.7,3,2.3.6-.7.8-1.5.8-2.2v-191.8c0-.9-.7-1.8-1.1-2.6-2.6-1.1-1.9-2.5-.9-3.9,1.2-1.7,3.7-1.6,5-.8,1.2.7,1.7,2.4,1.5,3.6-.3,2.1-1.4,4.2-2.3,6.9,14.9-1.5,28.2-.2,40.3,5.4.3.3.7.4,1,.5h0c1.4.6,2.7,1,4,1.4h0c.5.3.8.5,1.2.5h0c.5.3.8.5,1.2.5h.1c1.4.6,2.7.9,4.1,1.2h0c3.1,1,6.2,1.7,9.2,2.4h0c5,.9,9.8,1.6,14.6,2.3,2.7.2,5.4.3,8.8.6-5,4.4-10.1,8.2-16.7,11.1-.4,0-.5.2-.6.3h-.2c-.3.1-.5.3-.6.4h-.2c-1.2.5-2.1,1-3.1,1.5h-.2c-2.3.8-4.4,1.6-6.5,2.4h-.2c-1.2.3-2.1.7-3.1,1,0,.2-.2.3-.7.2-.6,0-.9.2-1.3.3-.3.1-.7.2-1.2.2h-1.5c-6.2.3-12,.7-17.8.9-4.8.2-9.7.1-14.5.5-3,.3-6,1.2-8.9,1.9h-.2c-.6.2-.9.4-1.3.6-1.6.5-2.1.6-4.1,1.3-.5,1.1-.7,2.3-.8,3.6v152.1c0,.7-.4,1.6-.2,2.3.1.2.3.4.6.9,6,6.2,11.9,12.2,17.8,18.1,10.3,9.3,20.5,18.5,30.8,27.8.3.3,1,.3,1.8.4.4,0,.5.2.7.2,0,0,.1,0,.2-.2.6-1.8.8-2.8,1.8-4.8.7-.5,1.2-.7,1.5-.9h.8l1.2,1s-1,3.6-1.1,3.8c-.4,1.4-1.6,4.8-1.6,4.8h-1.6c-5.8.2-11.4.4-17.2.4-5.9,0-111.5,3.6-111.5,3.6-8.2.3-39.8,1.3-39.8,1.3-.9,0-.7,0-.8,0h-9.3c-6-1.2-11.9-2.6-18-3.5-12-1.6-23-2.5-35.3-3.8M180.5,460.1c.6-.2,1.1-.3,2.2-.5,7.8-2.2,15.9-3.1,24.4-2.8,3.5.1,7.1,0,10.6-.2,15.3-1.2,27.8-6.4,38.7-13.8.5-.3.7-.8,1.2-1.3-.8-.1-1.3-.2-1.7-.2-13.5-1-26-4.3-37.7-9.1-11-4.5-22.6-7-36.1-5.1-.6,0-1.2,0-2.2.3-.2.5-.5,1-.5,1.5v29.2c0,.6.5,1.3,1.2,2M183.9,669.6c.6.6,2.4,1.1,3.6,1.1,9.8,0,19.5-.3,29.3-.6,3.3,0,6.5-.4,10.8-.6-33.9-27.5-60.6-57.8-85.8-89.2-23.6,33.2-50.7,64.4-80.9,94.4,7.2-.3,14.2-.6,21.2-.8,8.4-.3,16.8-.6,25.2-.8,2.1,0,3.1-.6,4-1.9,12-17.6,23.2-35.4,30.4-54.4.4-1,1.2-1.6,2-2.4.8.7,1.8,1.2,2.2,2M159.6,645.7c-4.5-6.8-9.1-13.6-13.8-20.6-.3.4-.5.6-.5.7v44.7c0,.5,1.4,1.3,2.2,1.4,2.3,0,4.6-.3,6.9-.4,8.2-.2,16.4-.3,24.6-.5.5,0,.9-.2,1.3-.3-6.9-8.3-13.7-16.5-20.7-25M141.9,647.4v-21.5c-9.1,15.7-18.2,31.2-27.3,46.8.7,0,1.1.2,1.5.2,7.7-.3,15.4-.7,23.2-.9,2.4,0,2.6-.8,2.6-2.2v-22.5M158.9,673.1h0Z"/>
  <path class="st1" d="M400.3,653.5c.3-1.5.6-2.8,1.1-4.3.6-.3.8-.5,1.3-.8.3-.5.5-.9.5-1.2v-38.2c0-.6-.4-1.1-.8-1.7h-1.1s-.1,0-.3-.2c-.5-.2-.6-.4-.9-.5-.4-.3-.7-.4-.8-.7-1.2-.6-2.4-1.2-3.7-1.3-3-.2-6,0-9,0-.5-.2-.9-.6-1.3-.7-.7-.9-1.6-1.6-1.8-2.3-.3-.8,0-2.1.1-2.8.8,2.1,2.6,3.8,5.6,3.8s5.7.2,8.6.3c4.8,0,6.4-2.4,5-5.6-1.9-4.1-5.3-5.1-11-4.8-3.8.2-6.7.6-8.2,3.3-.5-1-.8-2.1-1.1-3,0-.2.2-.5.8-.7.3-.2.5-.3.6-.4l.5-.3c.3-.2.4,0,.6-.2,3.4-.2,6.4-.3,9.5-.4,2.2,0,4.8-.2,7,0,3.4,4.2,6.5,8.8,10,12.9.5.6,2.2.6,3.3.9-.3-.7-.4-1.5-.9-2.1-3-3.4-6-6.8-9.1-10.2-.6-.7-1.8-1.1-2.7-1.7v-1.1s0-.2.5-.3c.5-3.1.8-6.2.8-9.2s-.3-3.8-.5-5.7c.6-3.1,4.1-4.6,8.5-3.6.7.2,5.2.7,6.2,1,.4,0,.3,0,.5.2.3.3.1,3.1.1,3.5s-1-1-2.7-2.1c-1.7-1-2.1-.9-4.3-.9-5.2,0-5.2.6-5.3,3.9,0,3.3.2,6.5-.2,9.8-.6,4.7-.4,5,6.1,4.9,3.5,0,4.9-1,4.9-3.6,0-4.1.2-13.1.2-13.2.2.4,1.3-.5,1.3,1.3s.8,11,.9,15.4c-4.5.4-6,3.1-8.4,5-.3.3.5,1.3,1,2.5,2.9-2.7,5.3-4.9,7.9-7.1,1.4.4,2.6.6,3.6.9-.7.2-1.3.3-2,.6-1.4,1.1-2.5,2.2-3.7,3.2-4.9,3.9-4.5,3.1.7,7.1.8.2,1.5.4,2.1.4h52.5c.8,0,1.7-.3,2.8-.4h10.1s.2-.2.5-.2h10c.6.2,1.1.3,1.5.3h87.1c.8,0,1.7-.3,2.7-.4,2.7-1.7,5.1-3.5,7.6-5.2-1.7-1.5-3.2-2.7-4.3-4s-2.5-1.7-4.6-1.7h-18.7c-19.6,0-39.3.3-59.1.3s-3.4,0-5.3,0h-2c-3.2-.2-6.1-.2-9-.4,1.1-.5,1.9-1.1,3.3-1.4l56,.2h38c.7,0,1.4-.5,2.3-.9.4-.5.6-.8.7-1.2,0-4,.2-7.9.3-11.9,0-4.6,3-6.6,9.7-6.6s6.7.9,8,3.8c-.3,2.7-.5,5.1-.4,7.5,0,2.2.4,4.4.7,6.7,2.2,1.9,5,2.9,8.3,3.3.4.3.6.4.9.6.2.2.3.2.7.4,3.6.4,7,.6,10.4.7,6.8.3,13.6.7,20.5.9,2.4,0,4.7-.3,7.3-.6v-14.4c2.1-2.2,5.6-3,9.8-2.2,4.3.9,5.3,1.9,5.4,5.6v10.5c.2.5.4.6.6.7,1.1.9,2.2,1.5,4.1,1.6,5.6.5,7.8,5.9,3.9,9.3-.7.6-.9.9-2.8,1.7s-3.1.9-4.5,1.3c-.2,0-.5.1-.9.4-.4,1.1-.4,1.9-.4,2.8,0,13.2,0,26.4-.3,39.7-.3,3.8-.4,7.4-.4,11.1s.4,1.6.7,2.4c4.8,1.1,5.4,3.5,1.3,6.2-.7.2-1,.3-1.6.5-.3,5-.4,9.6-.5,14.5-.7.3-1.2.3-2,0-.3-4.9-.6-9.4-.8-13.9-3.5,0-6.5.3-10,.4v13.8c-.9-.2-1.7-.4-2.7-.9v-7c-.2-2.9-.4-5.4-.7-8-1.1-1.6-1.4-3,0-4.6.4-.4,0-1.5-.4-2-2.9-3.2-6-6.4-9.3-9.8-.5-.5-.8-.7-1-.9,0,0-2.4-2-2.7-2.4-5.4-5.8-10.7-11.4-16.1-16.9-6,3.3-11.6,6.4-17.5,9.7-.3.4-.4.7-.4,1.1v33.8c0,.5.3,1,.6,1.7.5.4.9.6,1.4.9.6.5,1.2,1.1,1.9,1.9v2.7c-.6.5-1.2,1-2.1,1.8-.6.7-.9,1.1-1.4,1.7-.2,5.5-.3,11-.3,16.4h-.2c-.7,0-1.3.2-2,.3h-.5v-15.2c-4,.9-7.7,1.8-12.2,2.8.3,3.7.6,7.8.7,11.9-.3.2-.5.4-.6.6h-1.9l-.7-.7c0-3.5,0-7.1.2-10.6,0-1-.4-2.5-.8-2.7-.4-.2-.5-.2-.8-.4-14.3-8.8-31.8-14.1-47.5-21.5-6.4-3-13.2-5.7-19.7-8.7-1.8-.8-3-.7-4.6,0-3.1,1.6-6.4,3-10,4.6-1,1.1-1.7,2-2.3,3s-.3.4-.5.8c-.5.8-.3,1.7-.3,2.5v8.3h-1.3c-.7,0-.3-8.8-.9-10.4-3.2,0-8.6-.3-8.6-.3,0,.2.2,7.4.3,11h-1.4l-.6-9.7c0-.8-.6-1.5-1-2.3-.3-.2-.5,0-.7-.2,0,0-.5-.2-.8-.4-1.6-1.5-2.2-3,0-4.8.7-.5,1.2-.9,1.2-1.3,0-4.8.2-9.5.1-14.3,0-1.9-.3-1.2-.7-1.7-8.7-4.1-17.5-7.7-26.1-11.8-1.5-.7-2.5-.9-4.1,0-11.1,6.4-22.2,12.7-33.4,19-.2,0-.4.1-.7.3-.5.3-.7.5-.9.6l-.3.2c-.3,0-.5.2-.7.3-.6.3-1.2.7-2.1,1.3-.7,1.4-1,2.7-1.4,3.9-.3.2-.6.4-1.2.8-.6.3-1,.5-1.6.7-.5.4-.9.7-.9,1v22.8c0,.5.7,1,1.2,1.5,0,.2.1.3.1.4-.2,0-.3.3-.9.6-1.1,0-1.8-.2-2.5-.4v-25.9c-3.9-.2-7.3-.4-10.9-.7-.2.4-.4.7-.4,1v23.6c0,.5.3,1.1.5,1.6-2.8,1.4-2.9-.2-3-1.8.3-8.2.3-16.1.4-24,0-.3-.3-.5-.6-1-.5-.5-.9-.8-1.3-1.1-.4-1.3-.8-2.6-1.1-4.1M588.9,623.6l-.6.3c-13.7,7.1-27.3,14.2-41.4,21.5-3.5,1.9-7.1,3.8-10.7,5.8,18.4,8.2,36.6,16.2,54.7,24.2.5.2,1.2.3,2.2,0,0-6.1-.3-18.5-.3-19.4v-34.4c-.9.5-1.2.6-1.9,1M619.5,606.6l10.9,10.9c6-3.4,11.8-6.8,18.1-10.3.6-.4,1.3-.9,2.3-1.5-1.9,0-3.4.7-5.1.2s-.4,0-1.2-.4c-7.6-.5-15.1-1-22.7-1.4-.8,0-1.7.4-2.6.5h-.5c.2.4.3.8.5,1.1v.2M586.6,611.9c1-.6,6.8-3,6-4.5-.3-.5-1.6-.8-2.5-1.4,0,0-.3-.2-.6-.5-.2-.3-.5-.7-1.1-1.3-.5,0-1.1-.2-1.6-.2h-51.5c-.8,0-1.7.2-3.1.5-1,0-1.9,0-3.3-.3-5.2,0-10.3.2-16,.3-1,.5-2,.9-3.3,1.5-.3.2-.7.5-1.3.8,0,0-.3,0-.6.2-.1,0-.2.3-.4.8,0,.8,0,1.6-.5,2.6,0,8.8-.1,17.7-.2,26.5,0,.3.4.5.6,1.1.4.3.8.5,1.3.7l.2.3c.4,0,.8.3,1.5.7,3.3,1.6,6.6,3.1,9.9,4.7,1.5.7,2.7.7,4.1,0,10.6-5.6,21.2-11.2,32.2-16.8M578.7,615.7h.4c.4-.2.7-.4,1.3-.7l.5-.2c1.3-.7,2.7-1.4,4.1-2.2h.4M610.2,616.5c0,1.9-.3,3.8-.2,5.8,0,2.4.4,4.7.8,7.2,1.1-.5,3.5-1.5,3.5-1.5,0,0,4.2-2.1,6.1-3-2.7-2.6-5.2-5-7.9-7.6-.2-.2-.5-.4-.8-.9-.4,0-1.1-.2-1.5,0M418.9,611.8c0,10-.1,20.1-.1,30.1s.4.7,1.2,1c.6-.3,1.2-.6,2.3-1,9.3-5.3,18.7-10.7,28.4-16.2-10.1-4.7-20-9.3-30-14-.1,0-.3-.2-.9-.3-.1,0-.3,0-.7.4M487.6,604.2c-.4,0-.9-.2-1.3-.2h-50.5c-.8,0-1.6.3-2.5.7,1.1.5,2.2,1,3.6,1.8,8.1,3.7,16.2,7.4,24.3,11,.9.4,2.7.5,3.4.2,7-3.7,13.8-7.6,20.9-11.4,0,0,0-.2.2-.2,0,0,.1,0,.4-.2.4-.2.8-.4,1.6-.6,0-.3.2-.6-.1-1.1M416.7,606.2h-1c-.1,0-.2,0-.9.2-1-.2-2.1-.3-3.1-.6-1.3-.3-3.4-1.2-3.7-.9-1.2.9-2.2,2.2-2.5,3.4-.4,1.8-.2,3.7-.5,5.8.1,1.8.2,3.5.4,5.6,0,.2,0,.4-.4,1,0,9.2-.1,18.3-.2,27.5,0,.3.4.5.7,1.1,1.8.7,3.6,1.3,5.9,2,1.8-.2,3.6-.3,5.8-.7,0-.5.3-.9.3-1.4v-41.1c0-.6-.3-1.2-.6-2M596.7,604.9l-.4.2c0,.4-.2.8-.2,1.1v70.5c.3.7.7,1.4,1,2,4.1,4.7,3.3,5,9,1.4.2-.2.4-.4,1-.9v-72.7c-1.1-.6-2.1-1.2-3.7-2.1-2.3.2-4.5.3-6.7.5M661.2,646.6c0,.8.2,1.6.3,2.7,2.5,2.4,5,4.9,7.7,7.6.3.4.6.7,1.2,1.3.5-.6,1.5-1.2,1.5-1.8v-46c0-.6-.4-1.2-.7-2l-1.4-1.4s-.3-.2-.9-.5c-1.4,0-2.9,0-4.7-.2-.8.3-1.5.5-2.7.9,0,0-.3,0-.9.2-.2.5-.7,1-.7,1.5v35.6c0,.6.7,1.2,1.2,2.1M493.3,630.8v-14.9c-5.6,3-10.9,5.7-16.3,8.6,5.2,2.4,10.2,4.8,15.2,7,.2,0,.5-.2,1.1-.5M505.1,636.5c0-.3.3-.6.3-.9v-24.5c0-.5-.4-1-.8-1.8-2.3,1.3-4.7,2.4-6.9,3.8-.8.5-1.6,1.5-1.6,2.3-.2,5.4-.1,10.7,0,16.1,0,.6.2,1.6.8,1.8,2.5,1.2,5.3,2.2,8.3,3M658,627.9v-13.5c-1,.6-1.4.9-2.2,1.3-5.9,3.3-11.8,6.5-17.8,9.9,6.2,6.1,12.1,11.9,18.1,18.1.6.5,1.1.9,1.8,1.5v-17.2M460.9,627.9c5.8,2.6,11.6,5.2,17.3,7.9,35.4,17.1,72.2,32.7,108.7,48.6,1.2.5,2.7.8,4.8,1.4-1.1-1.9-2.1-3.1-2.4-4.4-.4-1.4,0-2.8,0-4.5,0,0-.6-.3-1.1-.5-34.1-15-68.3-30-102.4-45.2-18.4-8.2-36.5-16.7-54.8-24.9-2.3-1-5.3-1.5-8-1.8-3.2-.3-4.8,1.8-3.1,3.8.5.6,1.4,1,2.2,1.4,12.8,6,25.7,12,39,18.2M636.2,627.1c-6.7-6.7-13.3-13.4-20.1-20.1-.5-.5-1.7-1-2.6-1s-2.2.7-2.2,1.1c0,2.3-1.2,4.7,1.3,6.9,5.2,4.7,10.1,9.5,14.9,14.4,10.9,11.1,21.7,22.2,32.4,33.4,3.1,3.2,6.3,4,11.9,1.7-11.2-12.4-23.8-24-35.8-36.4M590.9,612.6c-21.9,11.2-43.8,22.4-66,33.7,1.9.9,3.6,1.4,4.9,2.2,2.2,1.3,4,.9,6.1-.2,17.6-9.3,35.3-18.6,53-27.8,3.4-1.8,4.8-4.8,3.5-7.7,0-.2-.7-.2-1.5-.2M441.3,641.3c6.4-3.6,12.7-7.2,19.3-10.9-1.2-.5-2.2-.8-3-1.3-3-2-5.3-1.5-8.4.3-9,5.3-18.3,10.3-27.4,15.5-1.2.7-1.8,2.1-2.4,3.3-1.1,2.4,2.7,2.3,3.7,3.7,6.1-3.6,12-7,18.2-10.7M630.3,594.9l-144.4,22c6.8-3.9,13.5-7.8,20.3-11.6-.2-.2-.4-.5-.6-.7h-6.9c-3.1,0-5.6.4-8.2,1.9-5.9,3.4-12.1,6.5-18.2,9.8-2,1.1-3.9,2.2-6.3,3.4,2.9,1.3,5.4,2.5,7.9,3.6,4-2.1,7.8-4.2,12-6.4M595.9,576.6c0,3.9-.2,7.8,0,11.7,0,.6,1,1.3,1.8,1.6s2,0,3,0c3,.2,6.7-1.8,6.7-3.9,0-3.7.2-7.5,0-11.2,0-.8-1-2-2-2.4-4.7-2-9.4,0-9.4,4.1M649.2,609.8c-5.6,3.1-11.2,6.2-16.9,9.4,1.6,1.6,3,2.9,4.6,4.5,7-4,13.9-7.7,20.1-11.8,1.3-.9.4-3.4.4-5.2,0,0-2-.3-2.6,0-1.8.8-3.5,1.9-5.6,3.1M661.3,591c.4.9.8,2.4,1.4,2.5,2.7.2,5.4,0,8.1,0s.4-.7.4-1v-11.4c0-1.8-2.9-2.9-6.3-2.7-2.7,0-3.8,1.1-3.7,3,.2,2.8,0,5.6,0,8.9M610.7,602.3c2.5,1.9,4.3,1.9,6.7,0s3.1-5.7,1.4-7.9c-1.9-2.5-6.2-2.9-8.6-.8-3.1,2.7-3.1,5.4-.2,8.1,0,0,.3.3.7.6M496.1,647.5v13.6c2.9.3,5.6.6,8.6,1,0-1.8-.4-3.5,0-5,1.4-5-2-7.9-8.6-9.5M615.8,636.4c3.4-1.8,6.8-3.7,10.4-5.6-1.3-1.4-2.6-2.6-3.8-3.9-2.6,1.2-4.9,2.3-7.1,3.4-4.8,2.3-5.6,4-3.9,8.3,1.4-.7,2.7-1.4,4.4-2.2M603.3,596.7c2-1.7,4.1-3.3,6-5,.7-.6.8-1.6,1.1-2.4-1.2.2-3,0-3.7.6-5.1,4.1-10.1,8.2-15,12.5-.6.5-.3,1.6-.4,2.4.4,0,.8.2,1.2.3,3.5-2.7,6.9-5.4,10.7-8.3M598.6,688.6c1.3-.3,2.6-.5,3.7-1,2.8-1.2,5.6-2.5,8.1-3.9.5-.3.4-1.6,0-2.2-.2-.3-2.2-.5-2.7,0-4.5,3-9.7,5.1-15.9,5.9,1.2,3.1,4,1.6,6.7,1.4M517.3,656.7c-1.2-.5-2.4-1.1-3.7-1.6-2.5-1-5.9.2-6.2,2.2-.2,1.7,0,3.4,0,5.7,4.1-2,7.5-3.7,10.9-5.4M662.7,595.7c-1.1-.5-2.2-.9-3.3-1.4.3.9.2,2,.9,2.8,2.8,2.5,5.8,4.9,8.7,7.3.5.4,1,.9,1.7,1.1.9.3,2,.3,2.9.4-.2-.8,0-1.1-.6-2.2-.7-.8-2-1.5-2.9-2.2-2.4-1.8-4.8-3.6-7.5-5.7M672.4,600.7c1.1.9,2.2,1.9,3.4,2.8.5.4,1.6.9,1.7.8,1.5-1.1,3.6-2.2,4.1-3.5.5-1.5-.4-3.2-3.4-3.7-3.9-.6-4.6,1.7-5.8,3.6M671.7,665.9c-3.4.2-6.8.3-10.2.5-1,0-1.9.6-2.8.9.9.6,1.8,1.8,2.7,1.8,3.8,0,7.6-.4,11.4-.9.9,0,1.7-1,2.5-1.5-1-.3-2-.5-3.6-.8M500.5,666.8h4.6c.8-.2,1.4-1,2.2-1.5-.7-.3-1.3-.7-2.1-.9-3.5-.5-6.9-.9-10.4-1.2-.8,0-1.8.5-2.7.8.6.6,1,1.5,1.8,1.7,1.9.5,4,.8,6.6,1.1M415.9,656c-3.6-.3-7.2-.6-10.7-.9h-2.8c.6.5,1,1.3,1.8,1.6,4.8,1.7,9.9,1.3,14.9.6.7,0,1.2-1.2,1.8-1.8-.3-.2-.6-.4-.9-.6-1.2.3-2.4.6-4.1,1M415.2,653.1c-4.4-.6-8.8-1.2-13.2-1.7,0,.2,0,.5.3.7,3,2.5,13.4,3.6,17.1,1.7.5-.3.7-.8,1.1-1.3-.7,0-1.5-.2-2.2,0-.9,0-1.7.4-3,.7M592.1,682.3c2.2,2.8,2.5,2.8,6.3,1.2-2-1.6-3.9-3.3-5.8-4.9-.4.2-.9.3-1.3.5.2.9.4,1.9.8,3.2M593.3,593.4c.8.9,1.7,1.8,2.7,2.9,2.4-2.6,0-5.2-4.4-6.1.6,1.1,1,2,1.8,3.2M606.1,601.3c-.8-.7-1.5-1.4-2.5-2.2-1.2,1.8,1.5,4.7,5.9,6.7.5-2.1-2.1-2.9-3.4-4.5M660,605.6c1.3-.7,2.7-1.5,3.9-2.3.2,0-.9-1.1-1.7-2.1-1.2,1.6-4.9,1.8-2.2,4.3M405.3,603.7c.5-.8.9-1.5,1.4-2.3-5.5,2.5-5.8,3-3.8,4.3.7-.6,1.4-1.2,2.5-2M673.4,595.2c-2.6.2-3.6,1.5-4.8,3.3,2.9-.4,4.2-1.5,4.8-3.3Z"/>
  <path class="st13" d="M176.2,419.5c.3.7,1,1.6,1,2.4v191.8c0,.7-.2,1.5-.5,2.2-.3-4.4-.5-8.8-.5-13.1v-181.9c0-.4,0-.8-.1-1.4h.1Z"/>
  <path class="st6" d="M419,588.7c0-1.9-.1-2.7-.3-4.6,24.3,3.4,52.6,5.4,77.5,6.2.2.3-1.3,0-1.5,0h-62.7c-.5,0-12.8-.2-13-.4v-1.3h0Z"/>
  <path class="st13" d="M179.5,621.3c-.5-.5-.9-.8-.9-1.4l.5-154.2c0-.9.2-1.9.5-2.9.3,18.2.3,36.5.3,54.8v102.2l-.4,1.4h0Z"/>
  <path class="st1" d="M495.7,590.7c-.3,0-.3-.3,0-.4h3.9c4.5,0,8.5,0,12.5-.2,14,0,33.6-.3,47.9-.3l.6.3.7.3c1.5.3.3.3-.8.3"/>
  <path class="st13" d="M187,460c2.7-.6,5.6-1.6,8.6-1.9,4.8-.4,9.7-.3,14.5-.5,5.8-.3,11.6-.6,17.7-.9-4.8.6-10,1.5-15.1,1.8-6.1.4-12.3.3-18.4.6-2.4.1-4.7.6-7.3,1h0Z"/>
  <path class="st1" d="M591.7,589.8c-.7.3-1.4.8-2.1.8h-27.7c-.5,0-1.4-.5-2-.8,2.8-.2,6.3-.2,9.7-.2h22.2v.2h-.1Z"/>
  <path class="st1" d="M401.3,590.9h-6.7c-3.1,0-6.3.3-9.7.4,2.2-.4,4.6-.9,7.1-1.1,2-.2,4.1,0,6.7.2.8,0,1.2-.3,1.5-.4l.8-.3c.4-.2.7-.2,1.1-.2.2.3,0,.4,0,.9-.3.3-.4.4-.6.5h-.2,0Z"/>
  <path class="st6" d="M569,589.6c1.2-.3,2.8-.5,3.4-.6,6.8-.5,12.7-.8,20-.9,0,.2.2.4-.7,1.6-2.3.2-11.3-.2-13.6,0h-9.1Z"/>
  <path class="st12" d="M255.3,439.3c-4.7-.5-9.6-1.2-14.5-2.1,4.7.5,9.5,1.2,14.5,2.1Z"/>
  <path class="st9" d="M402.8,574.4c.2,1.7.6,3.8.6,5.8,0,3-.4,6-.9,9.1-.1-4.7.3-9.9.3-14.9h0Z"/>
  <path class="st1" d="M658.8,593.1c-.3-3.9-.4-8-.5-12.3,0-.7.3-1.2.5-1.9.2,4.6,0,9.3,0,14.2h0Z"/>
  <path class="st9" d="M610.6,587.5c-.2-2-.7-4.2-.7-6.4s0-4.8.5-7.3c.2,3.8.2,13,.2,13.7Z"/>
  <path class="st12" d="M240.6,436.9c-2.9-.6-6-1.3-9.1-2.2,3,.6,6,1.3,9.1,2.2Z"/>
  <path class="st12" d="M220.8,431"/>
  <path class="st12" d="M224.6,432.2"/>
  <path class="st12" d="M227.3,433.2"/>
  <path class="st12" d="M226.1,433"/>
  <path class="st8" d="M286.4,644.9c1.8-8.1,6.6-15.6,13.1-22.2,5.2-5.7,8.1-11.1,5.4-18.4,1.8,1.1,3.8,2.1,5.4,3.4,10.5,8.3,13.6,17.8,11.9,28.5-.5,3.2-.3,6.3,1.6,9.4,4.2-7.4,6.1-9.5,11.3-12.3,3.8,5.1,7.6,10.2,11.5,15.4,1.9,5.2,4.5,10.1,5.3,15.2,1.5,10.5-3,19.8-14.2,27.2-.3.3-.5.4-1,.8,0,0-5.7,2.7-8.2,3.8-1.1.4-1.9.7-3,1.1-1.6.3-3.2.6-5.1.9-2.1.5-3.9,1.1-6.1,1.5h-7.3c-1.7-.4-3.5-.6-5.2-.9-1.7-.4-3.3-.8-5-1.3-2.8-1-5.6-1.8-8.4-2.8-1.4-.6-6.5-3.4-7.6-4.3-15.9-12-17.8-25.2-7.2-40.8,1.1-1.7,2.3-3.3,3.8-5.3,2.9,3.1,5.3,5.6,8.3,8.8M335.3,671.9c-1-3.4-1.7-6.8-5.6-9.5-2.4,1.9-2.2,4.8-5.9,6.1-2-10-13.7-15.9-18.7-24.5-1,4.8-1.2,9.5-1.8,14.2-.4,2.9-1.1,5.9-2.2,8.7-.4.9-2.4,2-3.8,2.1-1,0-2.6-1.3-3.2-2.2-1-1.5-1.5-3.2-2.2-4.8-.3,0-.4.2-.5.2-.7,1.1-1.4,2.3-2.2,3.4-5.4,8.3-5,16.4,2.6,23.9,3.7,3.7,8.2,6.8,15.1,7.3,14.5,1.1,24.5-5.8,27-14,1-3.4,1-6.9,1.4-10.9h0Z"/>
  <path class="st1" d="M755.2,632.3c13.9-16.2,19-23.1,26-32.9.5-.5,4.1-5.1,4.2-5.2,0,0,4.3-6.3,7.7-11.3.6-.8,7.4-10,7.4-10,.5-.6.9-1.1,1.2-1.6.2-.2.4-.4,1-.4,1.9.5,3.5.8,5.1,1h0c.7.2,1.4.3,1.9.4h0c.4,0,52.6,7.8,57.6,8.1,2,0,35.4.4,37.6.3.8,0,5.2.6,6.7,1h0c.2.5,10.6,14.2,10.9,14.4,8.3,12.1,16.8,23,26.3,33.9,8.3,9.6,27.6,28,27.6,28,7.1,6.9,13.3,13,22.7,19.2,1-2.2,1.2-3,2.1-4.4.4-.6,1.7-1,2.6-1.5.2.7.7,1.4.5,2.1-.7,2-1.6,3.8-2.7,5.9-.3.2-1,.6-1.3.4-1.6,0-1.1-.4-2.8-.2-1.9,0-3.5,0-5.3-.2-4.2-.2-38.2,1.5-50.6,3.9-4.5.7-8.8,1.3-13.1,2-6.6,1.2-13.1,2.3-20,3.6h-.8c-2.1.3-3.9.6-6.1,1h-3.8c-5.6-.2-11.1-.2-16.8-.2s-22.2-.7-29.8-.8l-14.7-.4s-17.6-.6-19.7-.6c-9.3-.5-48.3-2-52.2-2s-8.1-.2-12.1-.4c-8.8-.3-17.4-.6-25.9-1.1-4.5,0-13.9-.7-15.4-.7-1-.2-4.1-.3-5.4-.5,0,0-2-.9-2.1-1.1-.3-.7-3.1-8-2.9-8.3.6-.4,1.1-.7,1.5-1.3.3,0,1.5,1,2,1.3.5.4,1.6,2.4,1.7,3l.4,2.4c.9.5,2.5,1.1,2.5,1.1,8.8-8.6,17.6-17.5,26.5-26.3M933.7,682.3c19.8-2.9,39.8-4.3,60.5-4.7-.8-.7-1.3-1.1-1.7-1.5-8.8-7.9-18.1-15.6-26.2-23.9-21.2-21.4-39-44.3-55.9-67.5-1-1.4-2.1-2-4.5-2-11.9,0-23.7-.3-35.6-.8-17.3-.7-34.3-3-51.1-5.9-4.1-.7-8.2-1.6-12.9-2.5,26.2,40.8,59.4,78.1,96.6,114.4,2.1-3.3,3.8-6.1,5.8-8.8.4-.6,1.7-.9,2.5-1.4,0,.8.6,1.6.3,2.3-1.2,2.3-2.7,4.5-4.1,6.9,8.8-1.6,17.3-3,26.3-4.6M817.1,651.8c5.3,10.8,10.6,21.6,15.9,32.5.6,1.3,1.5,1.8,3.5,1.9,10.4.3,20.8.6,31.2,1,5.4.2,10.8.6,16.2.7h15c-36.9-35.7-69.8-73.4-96.2-114.5-25.6,38.7-55.2,74.8-92.9,108.2h7.3c16.3.6,32.5,1.2,48.8,1.8,1,0,2.6-.7,2.9-1.3,6.9-14.1,14.3-28.2,20.4-42.5,4.5-10.5,7.2-21.8,10.9-32.4.3-.7,1.4-1.1,2.1-1.8.6.7,1.5,1.1,1.7,1.9,1.1,3.4,5.4,19.8,6.5,23.1M775.9,675.3c-1.4,2.7-2.9,5.4-4.4,8.3,19.9.8,39.4,1.5,59.2,2.3-13.4-23.3-23.4-47-29-71.7-.5.5-.9,1-1,1.5-1.1,3.3-2,6.7-3.1,10-5.2,16.9-13,33.2-21.7,49.6h0Z"/>
  <path class="st1" d="M776,705.4c6.4.5,9.6,2.6,9.9,7.1.2,2.1-.4,4.1-1.1,6.4-.6.9-.9,1.6-1.2,2.3,1.6,0,39.2-4.2,48.4-5.3,3.4-.4,6.4,0,8.9,1.8,4.4,3.2,7.1,7.1,7.7,11.6.5,3.8-1.6,7-6,9.7-.6.3-1.7.7-2.3,1-1.2.3-2,.6-2.8.7-6.7.7-13.5,1.3-20.2,2h-.8c-6.3.6-12.1,1.2-17.9,1.8,0,0-10.8.9-15.3,1.4,0,0-40,3.7-54.2,4.9-3.2.3-6,.2-9.3.6-.8,0-1.7,0-2.2-.2-1-.5-1.7-.9-2.8-1.3,1.2,0,2.2-.2,3.4-.4l1.1.5c.3,0,.5-.2.9-.4,1.1-.7,2.2-1.3,2.9-2,4.1-4.8,2.7-13-2.8-16.9-2.3-1.7-4.3-1.7-7-.3-1.2.7-2.3,1.4-3.6,1.9-.4-.4-.7-.7-.9-1,1.8-2.3,4.6-3.6,8.7-4.3,10.3-.9,20.1-1.7,29.9-2.5v-.4s-33.2-4.1-37.7-4.5c-1,0-2,.3-3.2.4-.9,0-1.6,0-2.3-.2-.7-.4-4.6-3.1-4.8-4.7-.4-2.5-.6-6-.7-7.8.2-.6.3-1.2.5-1.8,2.3-5.7,4.2-6.6,12.4-5.8M767.3,713.3c0-.2,0-.4.4-.8,1.9-1.7,3.8-3.5,5.6-5.1-7.2-.5-14.4-1-21.6-1.6-14-1.3-28-2.7-41.9-4.1-4.6-.5-6.4.6-6.6,4.2-.2.2-1.7,6.8,0,9.5.6.9,2.4,1.8,3.8,2,14.8,1.7,29.5,3.4,44.4,4.9,5.4.5,10.8.5,17.1.8-2.7-3.5-2.6-6.4-1.1-9.6M728,736.3v1.3c-.3,3.7-.7,7.4-1,11.2,3.4-.3,7.6-.6,11.8-1,17.1-1.6,34.2-3.3,51.3-5,15.7-1.6,31.3-3.1,47-4.8,1.4-.2,2.9-.8,4-1.5,5-3.3,5.7-8.2,1.8-12.2-3.1.5-6.1,1.1-9.2,1.6,0-.3-.2-.6-.3-.8,3-.6,6-1.3,8.9-1.9-2.9-4.4-5.4-5.8-10-5.3-16.3,1.8-32.6,3.7-48.9,5.4-13.3,1.3-26.6,2.3-39.9,3.5-7.1.6-14.2,1.3-20.9,1.9,1.8,2.5,3.5,4.9,5.2,7.6M775.7,721.7c1.9-.5,4.7-.7,5.5-1.7,2.3-2.8,2.7-6,1.2-9.2-1.3-2.7-4.3-3.4-7.8-1.6-4.1,2.4-5.8,5.6-5.4,9.3.3,3,1.7,3.7,6.4,3.2h0Z"/>
  <path class="st1" d="M190.6,699.7c.1,2.2.5,4.3.8,6.6-.5,1.6-.9,3.1-1.4,4.5-.2.2-.4.4-.7.9-.3.6-.5.9-.7,1.2-3.1,3.2-7.6,4.4-12.9,5-24.2,2.9-48.3,5.9-72.9,9-2.6.3-4.6.6-6.6.9h-1.4c-9,1.1-53.5,6.8-53.5,6.8-2.5.3-4.8.7-7.3,1.1l-1.2.2c-.7,0-4.6.8-6.2.9h-10.3c-.5-.2-.9-.3-1.2-.4-4.9-2.4-8.3-5.5-10.3-9.8-1.9-5-1.2-9.5,1-14,.2-.2.4-.4.7-.9.3-.5.4-.7.6-1,.8-.7,1.6-1.4,2.6-2.4.4-.4.6-.7.8-.9h.1c.5-.2.8-.4,1.1-.5.2,0,.4,0,.8-.3.6-.3.9-.5,1.3-.6h.1c.5,0,.9-.3,1.2-.4h.2c8.1-.8,15.9-1.6,23.8-2.3.9,0,4-.3,4.7-.3,4.5-.3,13.8-1.1,13.8-1.1.4,0,13.2-1,16.3-1.3,1.2,0,11.1-1.2,13.9-1.5,1.3,0,68.2-6.7,77.6-7.4,5-.4,10.3-.9,15.3-1,2.4,1.7,4.8,3.3,7.3,5.3.9,1.3,1.6,2.4,2.4,3.4M34.1,711.1c.2.2.4.5.6,1,2.9,4,3.6,8.2,3.3,12.8,0,.2,0,.4-.4.8-1.3,2.4-2.6,4.7-3.9,7.2h1.4c10.8-1.3,21.6-2.7,32.4-4,18.5-2.3,37.1-4.5,55.6-6.8,18-2.2,36-4.5,54-6.6,5.4-.6,8.1-2.9,9.9-6.1,1.9-3.5,1.8-7,0-10.5-2.9-5.8-6.9-7.5-15.3-6.8-8.3.7-16.7,1.6-25,2.3-15.7,1.5-31.4,2.9-47.1,4.4-13.8,1.3-27.6,2.7-41.4,4-10.8,1-21.6,2-32.3,3,2.7,1.7,5.4,3.3,8.1,5.2M14.4,732.9c4.7,2.7,13.3,1.3,16.1-1.3,7.7-7,6-19.6-6.4-24-5.2-1.8-9.9-1.1-13.5,2.2-5.9,5.4-6.4,17.4,3.8,23.1Z"/>
  <path class="st1" d="M301.8,698.3c-5.2,1.2-10.7,2.2-15.8,3.3-8.1,1.7-16.2,3.5-23.5,5.1,2.5,2.3,4.9,4.5,7.7,7.2,5.3-1,11.3-2.1,17.3-3.2-.8.8-1.8,1.2-2.9,1.4-4.3.9-8.5,1.8-12.8,2.5-2.7.4-3.6,1.3-2.8,3.2,1.1-.2,2.2-.3,3.2-.5,9.5-2.1,18.8-4.1,28.3-6.2,6.1-1.5,8.8-4.2,8.9-8.5v-.5c.2-1.5-.3-2.3-2.5-2.9h7.4c-1.5.6-2.4,1.4-2.2,2.8.2,1.4.1,2.8,0,4.2-.1,1.5.7,2.4,2.9,2.9,8,1.8,16,3.7,23.9,5.6,5.8,1.4,11.6,2.7,17.9,4.2-1.6-5.1-1-9.3,5.2-12.8-3.8-.9-6.9-1.7-10-2.3-10.4-2.1-20.9-4.1-31.3-6.2,1.4-.3,2.9-.5,4.7-.8,6.5,1.2,12.6,2.1,18.4,3.5,5.7,1.4,11,.9,16.5-.4,3.1-.7,4.5-2.3,3.6-4.3-1.3-3.2-6.6-5.2-11.1-4.3-6.7,1.3-13.4,2.7-20.1,4-1.4.3-2.8.3-4.2.4,2.3-1,7.3-3.4,7.8-3.6h.6c5.3-1,10.6-1.8,15.8-2.8,4.1-.7,7.5,0,10.4,2.1,4.8,3.2,6,8.7-3.3,10.6-.7,0-1.4.3-2.7.6,3,.7,5.3,1.3,7.7,1.9,8.2,2.2,10.5,11.2,3.7,15.1-2,1.1-5.5,1.8-7.9,1.5-6.3-.8-12.5-2.2-18.6-3.6-9.9-2.3-19.7-4.8-29.6-7.1-.8-.2-1.9-.2-2.8,0-13.2,3.1-26.3,6.2-39.4,9.3-1.7.4-3.3.8-5,1.3-5.8,1.7-11.4-.3-14.3-5-2.4-4,0-8.5,5.4-10,2.4-.7,5-1.2,8.3-2-2-.2-3.1-.3-4.2-.4-5.3-.8-8.6-3.5-8.1-6.6.6-3.8,5.4-7,10.5-6.7,5.3.3,10.5,1,15.8,1.6,1.9.2,4,.2,6.2.4,1.4.8,2.2,1.2,3.6,1.9-1.4.2-2.8.2-4.2,0-6.8-.7-13.5-1.6-20.3-2.1-4.3-.3-7.3,1.3-8.8,4.2-1,1.9-.4,4,2.2,4.6,4.6,1,9.9,2.3,14.3,1.7,8.6-1.2,16.8-3.7,25.2-5.6M259,719.9c3,.4,4.6-.3,6.2-1.9,2.6-3,0-8.1-4.7-9.3-5.2-1.4-9.3.9-8.5,4.7M368.9,716.3c.1-2.1.9-4.3.3-6.3-1-3.2-5.5-3.7-8.6-1.1-2.8,2.4-3.3,5.2-2.3,8.1.9,2.6,4.3,3.4,7.4,1.8,1.1-.6,2-1.4,3.2-2.5Z"/>
  <path class="st6" d="M428.8,651.8c10.8-6.3,22-12.6,33.1-19,1.5-.9,2.6-.7,4.1,0,8.5,4.1,17.4,8.1,26.1,12.5.2.2.3,1.2.2,1.6-8.4.8-17,1.5-25.4,2.3-5.2.5-10.5.9-15.7,1.2-7.3.5-14.7.9-22.3,1.4h-.1Z"/>
  <path class="st6" d="M610.1,647.6v-5.2c5.6-3.4,11.4-6.3,17.4-9.7,5.4,5.6,10.4,10.9,15.8,16.6-7.5-.3-14.3-.7-21.9-1.1-2.9-.2-5.9-.4-9.4-.6h-1.9,0Z"/>
  <path class="st4" d="M405.3,685.8c-.5-.5-.5-1.1-.5-1.6v-23.6c0-.3.2-.6.4-1,3.5.2,7,.4,10.9.7v25.4c-3.4.2-7.1,0-10.8,0M412.7,666.8c-.2,0-.3-.3-.5-.4,0,0-.2,0-.2.2-.4,3.1-.9,6.1-1.3,9.2,0,.6.3,1.2.5,1.8h1.4c0-3.5.1-6.9.1-10.7h0Z"/>
  <path class="st4" d="M595.5,704.1c-.3-4.1-.4-8.1-.7-11.8,4.4-1,8.1-1.9,12.2-2.8,0,4.8.2,9.8,0,14.8h-2c-3.4,0-6.3,0-9.2-.2M601.7,693.9c-.2,1.9-.4,3.9-.5,5.8h1.4v-7.7h-.5c0,.5-.2,1-.3,1.9h-.1Z"/>
  <path class="st4" d="M660.4,685.2v-13.8c3.6,0,6.6-.3,10-.4.2,4.5.6,9.2.8,13.9-3.5,0-10.8.3-10.8.3Z"/>
  <path class="st4" d="M495.2,668.7c2.9,0,5.9,0,9.1.2.3,4,.4,7.7.4,11.4h-9.2c-.1-4-.2-7.6-.3-11.4h0v-.2Z"/>
  <path class="st1" d="M709.7,732.3c-.4,1.8-1.3,3.5-1.4,5.1-.5,4.5,1.9,10.9,9.6,12.2-.9,0-1.9.2-3.1.3,1.1.4,2.1.8,2.8,1.3h-1.7c-9.6-3.9-12.6-12.3-7.1-19.9,0,0,.7.8.9,1h0Z"/>
  <path class="st1" d="M160,748.5c-.8-1.9-3.7-3.3-2.2-6.3,1.7,1.6,3.2,2.7,4,3.9,1.5,2.4,2.6,4.9,3.6,7.4.2.5-.9,1.2-1.3,1.8-.6-.5-1.5-.9-1.7-1.4-.9-1.7-1.6-3.5-2.4-5.5h0Z"/>
  <path class="st1" d="M965.3,720.7c.4.6.8,1.4.5,2-1.4,3.1-3,6.3-4.6,9.4-.2.4-.9.7-1.4,1.1-.6-.4-1.5-.8-1.6-1.2-.2-.8,0-1.8.4-2.5,2.1-2.9,4.3-5.8,6.7-8.7h0Z"/>
  <path class="st1" d="M170,753c.5-3.6,1.7-6.8,5.1-9.4h1.2c-.1.8-.1,1.5-.4,2.3-.9,2.5-1.8,4.9-2.8,7.4-.3.7-1,1.3-1.5,2-.6-.7-1.1-1.5-1.6-2.4h0Z"/>
  <path class="st1" d="M954.1,732.3c-.3.6-.6,1.2-1.1,1.4-.3,0-1.4-.3-1.6-.6-1.7-3.3-3.3-6.5-4.9-9.8,0,0,.3-.4.8-1.1,4.7,2.7,6.1,6.2,6.8,10.2h0Z"/>
  <path class="st1" d="M562.1,730.5c.8-3.1,1.8-5.9,5.1-7.9l1,.2c0,.7,0,1.4-.3,2.1-.8,2-1.7,4-2.7,6-.4.8-1,1.5-1.4,2.3-.6-.8-1.1-1.6-1.7-2.6h0Z"/>
  <path class="st1" d="M345.9,754.8c-1.4,1.3-3.4,1.2-3.4-.3.1-3,.8-6.1,1.4-9.1,0-.2,1.1-.5,1.9-.5,2.5,1.8.7,6.7.1,9.9Z"/>
  <path class="st1" d="M480.1,747.9c-.1.7-.3,1.2-.4,1.7h-1c-.4-.8-.9-1.6-1.3-2.4-1.1-2.2-2.3-4.5-3.4-6.8-.2-.5-.1-1.1-.2-1.6.8.3,2.1.4,2.3.8,1.4,2.6,2.6,5.4,3.9,8.2h.1Z"/>
  <path class="st1" d="M485.4,745.6c1.3-1.5,2.3-2.8,3.7-4,.4-.4,1.7-.3,2.5-.5-.1.6,0,1.2-.4,1.7-1.4,1.9-2.8,3.9-4.4,5.7-.4.5-1.3.8-2,1.2-.2-.6-.5-1.2-.5-1.8s.6-1.3.9-2.2h.2,0Z"/>
  <path class="st1" d="M332,750.1c-.5-.5-1-.9-1.2-1.3-.2-.4,0-.9,0-1.4,0,0,1.4-.3,1.7,0s3.6,5.1,5.2,7.7c.1.2-.5.6-.7.9-.6-.3-1.4-.5-1.6-.9-1.2-1.6-3.4-5-3.4-5Z"/>
  <path class="st1" d="M425.3,727.7c-.7,0-1.3,0-1.4-.2-1.4-2.9-2.8-5.9-4.2-9.1,3.5.5,6.7,6,5.6,9.3Z"/>
  <path class="st1" d="M551.3,726.2c.9-.2,2.5-.5,2.7-.3,1.7,2,3.1,4,4.5,6.1.2.3-.5.9-.8,1.3-.6-.3-1.5-.6-1.9-1-1.6-2-3-4-4.5-6.1Z"/>
  <path class="st1" d="M899.2,723.8c-.3-.6-.7-1-.7-1.5s.4-.9.6-1.4c.7.2,1.8.3,1.9.5.9,2.2,1.7,4.4,2.4,6.6,0,.2-.7.9-1.1.9s-1.2-.4-1.4-.7c-.6-1.4-1.1-2.8-1.6-4.4h-.1Z"/>
  <path class="st1" d="M908.4,722.5c.8-.6,1.6-1.1,2.3-1.6.2.7.7,1.4.5,2.1-.4,1.6-1.1,3.2-1.8,4.7-.2.5-1,.8-1.5,1.1-.4-.5-1.2-1-1.1-1.5.4-1.6,1-3.2,1.7-4.9h-.1Z"/>
  <path class="st1" d="M504.7,679.4h1.3v-8.6c-.2-1.4.2-2.3.8-2.9.3,4.1.1,8.3.1,12.2-.8.3-1.4.3-2.2.2v-.9h0Z"/>
  <path class="st1" d="M154.7,755.4c-1.8-1.8-3.5-3.5-5-5.3-.2-.3-.2-.8,0-1,.3-.2,1-.3,1.5-.3,1.8.3,5.5,5,4.8,6.2-.1.2-.7.3-1.3.4h0Z"/>
  <path class="st1" d="M351,750.3c.4-.6.5-1,.9-1.3.6-.4,1.4-.5,2-.7.2.5.6.9.5,1.3-.6,1.7-1.4,3.4-2.3,5-.2.4-1,.7-1.5,1-.5-.5-1.4-1-1.3-1.4.3-1.3,1-2.5,1.7-4h0Z"/>
  <path class="st1" d="M616,754c-.7-1.7-1.5-3.3-2-4.9-.2-.4.2-1,.3-1.4.7.2,1.7.3,1.9.6.9,1.9,2.2,3.8,2.3,5.7,0,1.7-1.4,1.1-2.5,0h0Z"/>
  <path class="st1" d="M577.2,726.5c-1.1,1.9-2.1,3.7-3.4,5.4-.4.5-1.5.6-2.3,1,0-.6-.6-1.3-.3-1.8.9-1.5,2.1-2.9,3.4-4.2.4-.4,1.6-.3,2.6-.3h0Z"/>
  <path class="st1" d="M968.2,733.1c-1.2-2.4,1.1-5.3,4.5-6.1,1,2-1.2,5.3-4.5,6.1Z"/>
  <path class="st1" d="M625.5,750.4c-.7,1.5-1.2,2.8-1.9,4.2,0,0-.3.2-1.2.7-.4-1-1.1-1.8-1-2.6.2-1,.9-2.1,1.6-3,.5-.7,1.4-1.2,2.1-1.8,0,.8.3,1.6.3,2.6h.1Z"/>
  <path class="st1" d="M432.7,720.6c1.7-.7,2.4-.3,2,.8-.7,2-1.5,4-2.3,6-2.5-.9-2.4-2.8.3-6.8Z"/>
  <path class="st1" d="M493.4,680.2c-.1-4.6-.2-7-.2-11.2.1.2.4,1,.4,1.8l.4,9h1.4v.5s-1.4.4-2.1,0h.1Z"/>
  <path class="st1" d="M402.6,683.3v-24.2c.2,0,.6.3.6.6,0,7.9,0,15.8-.3,23.8-.1,0-.2,0-.3-.2h0Z"/>
  <path class="st12" d="M610,688c.2,5.2,0,10.5,0,16s-.3.3-.4.3c0-5.4,0-10.8.2-16.3h.2Z"/>
  <path class="st1" d="M673.7,670.5c.2,4.7,0,9.3,0,14.3s-.4.2-.5.2c0-4.9.2-9.5.5-14.5Z"/>
  <path class="st12" d="M698.7,707.3"/>
  <path class="st12" d="M699.5,714.8"/>
  <path class="st12" d="M775.8,705.3c-1,0-2.2.2-3.5.2,1,0,2.2-.2,3.5-.2Z"/>
  <path class="st0" d="M716.2,721.4h3.7-3.7Z"/>
  <path class="st12" d="M593,703.8s-.2-.2-.2-.3c.2,0,.5,0,.6.3h-.5.1Z"/>
  <path class="st0" d="M14.8,735.7c.3,0,.7,0,1.2.3-.3,0-.7,0-1.2-.3Z"/>
  <path class="st0" d="M593.4,704.3h.4-.4Z"/>
  <path class="st0" d="M235.3,661.1h-.4.4Z"/>
  <path class="st5" d="M912.9,583.3"/>
  <path class="st4" d="M155.7,634.4c-3.4-6.1-6.5-12.1-9.9-18.1-.4-.8-1.5-1.4-2.2-2-.7.8-1.6,1.5-1.9,2.3-7.2,18.9-18.4,36.8-30.4,54.4-.8,1.3-1.7,1.9-3.7,2-8.4.2-39.4,1.3-46.7,1.6,30.3-30,56-61.6,81-94.5,25.2,31.4,51.8,61.8,85.7,89.3-4.2.2-7.1.6-10.7.6-9.8.2-19.2.7-29.2.6-1.2,0-3-.3-3.6-1-10.5-11.1-20.5-22.8-28.3-35.2h-.1Z"/>
  <path class="st4" d="M181.6,427c13.1-1.8,24.5.3,36.2,5,11.9,4.8,24.4,8.2,38.2,9.3.4,0,.9.1,1.7.2-.5.5-.7,1-1.2,1.3-11.1,7.4-23.1,13.1-39.3,13.8-3.5.3-7.2.3-10.8.2-8.5-.3-17.4,1.2-25.8,3.3-.6-.5-.5,0-.5-.3v-30.5c0-.8-.6-1.1-.2-1.9l1.7-.4h0Z"/>
  <path class="st4" d="M180.3,670.7c-.1,0-.4.3-1.3.3-8.2.2-16.4.3-24.6.5-2.8,0-4.6.4-6.9.4s-2.2-.9-2.2-1.4v-44.7s0,0,.5-.7c4.9,7.1,9.2,13.8,13.9,20.7h0s13.7,16.6,20.6,24.9Z"/>
  <path class="st4" d="M142.1,647.4l-.2,22.2c0,1.3,0,2.3-2.5,2.3-7.7.2-15.3.6-23.1.9-.4,0-1,0-1.7-.2,9.1-15.6,18.1-31.1,27.3-46.8l.2,21.6h0Z"/>
  <path class="st13" d="M180.1,427.3c.2,3.7,0,7.5,0,11.3v21.2c-.3-.4-.8-1.1-.8-1.7v-29.2c0-.5.3-1,.8-1.6h0Z"/>
  <path class="st12" d="M159,673.2h0Z"/>
  <path class="st1" d="M383.7,598.8c0,.8-.5,1.7-.2,2.5s1.1,1.4,1.8,2.3c-4.6-2.3-5.8-6.6-2.8-10.8.4.8.6,1.7,1.1,2.9.2,1.2.1,2.2,0,3.1h.1Z"/>
  <path class="st5" d="M400.1,606.9"/>
  <path class="st5" d="M400.9,607.2"/>
  <path class="st2" d="M384.5,591.3s-.1.2-.4.4"/>
  <path class="st6" d="M507.4,607c.3-.2,4.8-2.2,5.5-2.5,4-.2,3.1,0,6.6,0,9,0,17.8.2,26.8.2h42.4c.2,0,.9,1,1.2,1.3,1,.5,2.7,1,2.8,2,.3,1.1-1.7,1.7-3,2.3s-.3,0-.4.2c-5.2,2.9-10.5,5.7-16.1,8.6-5.5,2.8-10.3,5.5-15.6,7.9,0,0-22.8,11.9-33.5,17.5-1.5.8-3.9.7-5.4,0-3.3-1.6-8.1-4.3-11.6-6.1-.2-.5,0-.2-.2-.5l.3-29.9v-.8h.2v-.2Z"/>
  <path class="st4" d="M501.4,592.3h7.3c19.6,0,39.2-.2,58.8-.3h18.2c2.1,0,3.8.2,4.9,1.6,1.1,1.3,2.7,2.6,4.4,4.1-2.4,1.7-4.8,3.6-7.6,5.2h-.8c-.8-.3-79.1,0-80.2.2-3.7,0-6.9.2-10.3.2h-77.9c-5-3.8-5.9-3.3-.9-7.2,1.3-1,3.7-4,5.8-3.8,26.9,0,64.6-.8,78.1,0M480,596.6h-3.3v1c9.6-.3,19.2,1.1,28.9.3v-.9c-8.3,0-16.7-.2-25.7-.4M558.7,597c.6.3,1.2.9,1.8,1h6.9c4.1-.2,8.1-.4,12.2-.6v-.6c-6.8,0-13.6,0-20.9.2M549.4,600.8c.6,0,1.2-.2,1.7-.3-5.2-1.6-10.3-1-15.5-1v1.3h13.8M445.6,597c-4.6-.7-9.2-.6-13.7.5,4.7.3,9.5.3,14.2.3,0,0,0-.5-.5-.8M456.4,599.4c-.2.2-.4.5-.5.7h13.1v-.7h-12.6M523.1,597.5h-5.3v.6h11v-.6h-5.8,0Z"/>
  <path class="st4" d="M460.7,627.8c-13.1-6.1-25.9-12.1-38.8-18.1-.8-.4-1.7-.9-2.2-1.4-1.7-2-.1-4,3.1-3.8,2.7.2,5.9.7,8.2,1.8,18.3,8.2,36.3,16.6,54.7,24.8,34,15.1,67.9,30,102.1,45.1.6.2,1.5.7,1.5.7,0,1.7-.3,3.2,0,4.5s1.3,2.5,2.4,4.4c-2.1-.6-3.7-.9-5-1.4-36.6-15.9-73.3-31.5-108.7-48.6-5.7-2.7-11.5-5.3-17.5-8M503.5,642.5c-3.3-1.5-6.6-3.1-9.9-4.6l-.9,1c4.3,2.1,8.7,4.1,13,6.2.4-.3.8-.7,1.2-1-1-.5-2-.9-3.4-1.5M469.4,629.1c2.7,1,5.3,2,8,3.1.2-.3.4-.6.7-.9-4.2-1.8-8.4-3.6-12.6-5.4l-.8.8c1.4.7,2.9,1.5,4.7,2.4M563.4,670.8c2,.8,4,1.7,6.1,2.5.2-.2.4-.4.5-.6-3.5-2.8-8.5-4.2-12.7-6.3l-.6.5c2.1,1.2,4.2,2.4,6.7,3.8M441,616c.2-.2.6-.7.6-.7-3.8-2.1-7.6-4.2-11.5-6.3-.3.3-.7.6-1,.9,3.8,2,7.7,3.9,11.9,6M443,616.5h0Z"/>
  <path class="st13" d="M590.8,675.4c-18.1-8-36.1-16.1-54.6-24.3,3.7-2,7.2-3.9,11.1-5.7,3,0,5.6-.2,8.2-.2,11.9.3,23.9.6,36,.9h1.2l.4,29.3s-1.2.5-2.3,0h0Z"/>
  <path class="st4" d="M607,606.5v72.7c-.2.2-.8.8-1,.9-5.7,3.6-5.7,4.2-10.1-3.1v-70.9c0-1.1.6-1.1.6-1.1,2.5-.3,5.9-.5,6.7-.5M601.4,641.9v19h1.3v-22.3h-.5c-.3,1-.5,2-.8,3.4M602.7,629.3c0,.4.3.8.4,1.2h.4v-11.9h-.8v10.9M604,670.8c0-.9-.2-1.8-.2-2.8h-.8v5.4h.8c0-.8,0-1.6.2-2.8v.2h0Z"/>
  <path class="st4" d="M671.9,663.4c-5.5,2.4-9.1,1.7-12.2-1.6-11.9-12.1-21.9-22.7-32.2-33.4-5-4.9-9.7-9.7-14.9-14.4-2.5-2.3-1.5-4.7-1.3-7,0-.4,1.5-1.1,2.3-1.1s2,.5,2.6,1l20.2,20.2h0s24.3,24,35.5,36.3h0Z"/>
  <path class="st4" d="M592.4,612.6c1.3,2.8,0,6.1-3.4,7.9-17.7,9.3-35.4,18.5-53,27.8-2.1,1.1-3.9,1.5-6.1.2-1.3-.8-3-1.3-4.9-2.2,22.2-11.3,43.7-22.4,65.9-33.7M537.6,643.7c3.1-1.6,6.1-3.1,9.2-4.7-.3-.3-.6-.5-.9-.8-2.6,1.3-5.3,2.6-7.9,4-.5.3-.6,1-.4,1.5h0Z"/>
  <path class="st4" d="M405.2,648.8c0-9.8.2-19,.1-28.4M405.3,620.4v-6.6c0-1.9-.2-3.8.2-5.6.3-1.2,1.3-2.5,2.5-3.4.3-.3,2.4.6,3.7.9,1,.2,3.7,0,5,.5.3,14.8.5,29.9.5,44.4-1.9.3-4.2.7-5.8.7-2-.5-5.7-1.9-5.9-2s-.2-.3-.3-.5M410.7,615.8c-.4,5.8-1.1,11.6-.9,17.4h1.3c.3-6.3.7-12.6,1-18.9h-.6c-.3.4-.8,1.6-.8,1.6h0Z"/>
  <path class="st4" d="M670.4,658.2c-2.5-2.4-7-6.8-9.4-9.5.2-14.1-.5-27.5-.4-41.3.8-.3,2.5-.8,3.6-1.1,1.8.2,3.3.2,4.7.2s2.3,1.9,2.5,2.4l-.2,44M667.3,622.5v-7.8h-.9v12h.9v-4.1h0Z"/>
  <path class="st6" d="M485.7,606.3c-7,3.8-13.8,7.7-20.9,11.4-.7.4-2.5.2-3.4-.2-8.3-3.6-19.6-8.7-27.9-12.7.8-.5,5.2-.2,6.1-.2h43.2c1.1,0,3.8-.2,4.9,0v.8s-1.1.4-1.4.6l-.4.2h-.3,0Z"/>
  <path class="st4" d="M441.1,641.3c-6,3.5-11.9,7-18,10.6-1-1.5-4.8-1.3-3.7-3.7.5-1.2,1.1-2.6,2.4-3.3,9.1-5.2,18.4-10.2,27.4-15.5,3-1.8,5.4-2.4,8.4-.3.8.5,1.8.8,3,1.3-6.6,3.7-12.9,7.3-19.5,11h0Z"/>
  <path class="st4" d="M630.7,594.9c8.2.3,16,.6,23.9,1,1.1,0,2.2.8,3.1,1.4,1.1.8,1.9,1.9,3,2.9-2.6,2.5-5.4,4.2-10.4,3.8-9.1-.8-18.3-1.2-27.4-1.8-.3,0-.6,0-.8-.2.3-2.4.6-4.8.9-7.4,2.5,0,5,.2,7.8.4M642,600.4c2.3,0,4.6.2,6.9.2v-.9c-5.6-.2-11.2-.4-16.8-.6v.9c3.1,0,6.2.2,9.9.4h0Z"/>
  <path class="st4" d="M473.9,623.3c-2.5-1.1-5-2.3-7.9-3.6,2.3-1.3,4.3-2.5,6.3-3.5,6.1-3.3,12.3-6.4,18.2-9.8,2.5-1.5,5-2.1,8.2-1.9h6.9c.2.2.4.6.6.8-6.8,3.9-13.3,7.7-20.3,11.6,0,0-7.9,4.3-12,6.4h0Z"/>
  <path class="st4" d="M496.8,633.5c-.6-.3-.8-1.2-.8-1.8v-16.1c0-.8.9-2,1.7-2.5,2.2-1.4,4.6-2.9,6.9-3.8v27.6s-5.3-2.2-7.8-3.4h0Z"/>
  <path class="st4" d="M596,576.3c0-3.9,4.7-5.9,9.4-3.9,1,.4,2,1.6,2,2.4.2,3.7,0,7.5,0,11.2s-3.7,4.1-6.7,3.9c-1,0-2.1.2-3,0-.8-.3-1.9-1-1.9-1.6v-11.9h.2Z"/>
  <path class="st4" d="M413.8,572.4c1.1.5,2.3,1.2,3.1,1.9l-.2,13.1c0,2.7-1.4,3.6-4.9,3.7-6.4,0-6.7-.2-6.1-5.1.4-3.3.2-6.8.2-10.2s.9-3.8,5.6-3.4h2.2M411.9,578c0-.5-.2-.9-.3-1.4h-.9c-.3,2.2-.6,4.4-.9,6.6h.9c.4-1.6.7-3.3,1.2-5.3h0Z"/>
  <path class="st4" d="M383.6,599v-3.2c1.3-3,4.1-3.4,8-3.6,5.6-.3,9.3.7,11.2,4.8,1.4,3.2.5,5.9-4.3,5.9s-6.4-.2-9.3-.3c-3,0-4.9-1.5-5.6-3.6M401.4,598c-2.9-1.1-5.7-.6-8.5-.2v1c2.7-.2,5.4-.4,8.4-.8h.1Z"/>
  <path class="st4" d="M649.4,609.7c1.9-1.1,3.5-2.2,5.4-3,.6-.3,2.6,0,2.6,0,0,1.8.9,4.3-.4,5.2-6.3,4.1-13.2,7.8-20.1,11.8-1.6-1.6-2.9-2.9-4.6-4.5,5.7-3.2,11.3-6.3,17.1-9.5Z"/>
  <path class="st4" d="M661.2,581.3c0-2,1.1-2.9,3.8-3,3.4,0,6.3,1,6.3,2.7,0,3.8-.2,7.6,0,11.4s-.2,1.1-.4,1.1c-2.7,0-5.6.3-8.2,0-.6,0-1-1.6-1.4-2.5v-9.7h0Z"/>
  <path class="st6" d="M492.2,631.5c-5-2.3-10-4.6-15.2-7,5.5-2.9,10.7-5.7,16.3-8.6v15.2s-.9.5-1.1.4h0Z"/>
  <path class="st4" d="M610.5,602.2l-.5-.5c-2.9-2.7-2.9-5.4.2-8.1,2.5-2.1,6.7-1.7,8.6.8,1.7,2.2,1,6-1.4,7.9s-4.3,1.9-6.9,0h0Z"/>
  <path class="st4" d="M496.1,647.6c6.6,1.4,10.1,4.5,8.6,9.6-.4,1.6,0,3.1,0,4.9-3-.3-5.7-.7-8.6-1,0-4.6-.2-9,0-13.5Z"/>
  <path class="st4" d="M615.6,636.5c-1.5.8-2.9,1.4-4.2,2.1-1.7-4.3-.9-6,3.9-8.3,2.3-1.2,4.6-2.2,7.1-3.4,1.3,1.3,2.5,2.6,3.8,3.9-3.6,1.9-7,3.8-10.6,5.7Z"/>
  <path class="st4" d="M603.1,596.9c-3.6,2.8-7.1,5.5-10.6,8.2-.4,0-.8-.2-1.2-.3,0-.8-.2-1.9.4-2.4,4.8-4.3,9.9-8.4,15-12.5.7-.6,2.4-.4,3.7-.6-.3.8-.4,1.8-1.1,2.4-1.9,1.7-4,3.3-6.1,5.1h-.1Z"/>
  <path class="st1" d="M507.1,603c17.6,0,34.7-.2,51.7-.3,9.4,0,18.8,0,28.2.2h.5c-.7.2-1.5.4-2.3.4h-87.1c-.4,0,5-.3,9-.3h0Z"/>
  <path class="st1" d="M501.1,592.1c-26.2.2-52.7.2-79.5.2.2-.2-3.3-1.2-2.5-1.4v-1.4c4.2.2,16.5,2,20.5,2.3h2.7c4.3-.3,8.3-.6,12.5-.8,3.1,0,4.7-.4,8.2-.3h3.5c.8,0,5,.8,7.9,1h17.6c3,0,5.9,0,9.1.3h.2-.2Z"/>
  <path class="st4" d="M598.5,688.8c-2.5.2-5.5,1.7-6.7-1.4,6.2-.8,11.3-2.9,15.9-5.9.5-.4,2.1-.4,2.7,0,.4.6.5,1.9,0,2.2-2.6,1.5-5.3,2.7-8.1,3.9-1.1.5-2.2.7-3.7,1v.2h-.1Z"/>
  <path class="st4" d="M517.3,656.7c.4.4,1.1.9,1,.9-3.4,1.7-6.9,3.5-11,5.5,0-2.4-.2-4.1,0-5.7.3-2,3.6-3.4,6.2-2.3,1.3.5,3.8,1.6,3.8,1.6Z"/>
  <path class="st1" d="M660.9,646.3c-.4-.6-1-1.2-1-1.7v-35.6c0-.5.4-1.2.7-1.6.2,1.6.4,3.3.4,4.7v34.3h-.1Z"/>
  <path class="st6" d="M611.7,616.5c3.1,3,5.4,5.3,8.7,8.5-2.3,1.2-9.7,4.7-9.7,4.5-.8-4-.2-10.7,0-13.1h1.1,0Z"/>
  <path class="st4" d="M662.8,595.9c2.5,2,4.9,3.8,7.3,5.6,1,.7,2.2,1.4,2.9,2.2.5.6.4,1.5.6,2.2-1,0-2,0-2.9-.4-.7-.2-1.2-.7-1.7-1.1-3-2.4-6-4.8-8.7-7.3-.7-.7-.6-1.8-.9-2.8,1.1.5,2.2.9,3.5,1.5h0Z"/>
  <path class="st4" d="M672.3,600.7c1.3-1.8,1.9-4.3,5.9-3.6,2.9.4,4.1,2.3,3.5,3.9-.5,1.3-2.7,2.3-4.2,3.4,0,0-1.1-.3-1.6-.7-1.2-.9-2.3-1.9-3.5-3h-.1Z"/>
  <path class="st4" d="M401.8,590.6l.2-.2c1,.4,2.1,1.3,2.7,2,3.1,3.4,6.1,6.8,9.1,10.2.5.6.6,1.4.9,2.1-1.1-.3-2.7-.3-3.2-.8-3.5-4-6.8-8.7-10.1-13l.3-.2h.1Z"/>
  <path class="st4" d="M672,665.9c1.3.3,2.3.5,3.3.8-.8.5-1.6,1.4-2.5,1.5-3.8.5-7.6.8-11.4.9-.9,0-1.8-1.1-2.7-1.8.9-.3,1.8-.8,2.8-.9,3.4-.3,6.8-.4,10.5-.5h0Z"/>
  <path class="st4" d="M500.2,666.8c-2.3-.4-4.4-.6-6.3-1.1-.8-.2-1.2-1.1-1.8-1.7.9-.3,1.9-.9,2.7-.8,3.5.3,7,.7,10.4,1.2.7,0,1.4.6,2.1.9-.7.5-1.3,1.4-2.2,1.5-1.5.3-3.1,0-4.9,0h0Z"/>
  <path class="st1" d="M418.1,603.3h56.8c-.5.2-1.3.4-2.2.4h-52.5c-.6,0-1.3,0-2.1-.4h0Z"/>
  <path class="st1" d="M670.4,658.2c.2-1.9.6-3.8.8-5.5,0-14.5,0-29,.2-43.8.2.4.6.9.6,1.5v46c0,.6-.9,1.3-1.6,1.8Z"/>
  <path class="st4" d="M416.3,655.8c1.5-.4,2.6-.7,3.8-1,.3.2.6.5.9.7-.6.6-1,1.7-1.8,1.8-5,.8-10.2,1.1-15-.6-.8-.3-1.2-1.1-1.8-1.6h2.9c3.6.3,7.2.5,11,.7h0Z"/>
  <path class="st1" d="M418.9,660.4c.3,8.2.3,16.5.3,25-.4-.3-1.1-.7-1.1-1.2v-22.8c0-.3.4-.7.9-1h0Z"/>
  <path class="st4" d="M415.4,653.1c1.2-.3,1.9-.6,2.8-.7.7,0,.7-.2,2.3,0-.3.4-.6,1-1.2,1.3-3.7,1.8-14.1.8-17.1-1.7-.2-.2-.2-.7-.3-.8,4.4.6,8.8,1.1,13.4,1.8h.1Z"/>
  <path class="st1" d="M416.7,650.7c-.2-14.2,0-29.7,0-44.5.4-.4.2,0,.2,0,.2.6.6,1.2.6,1.8v41.1c0,.5-.1.9-.3,1.5h-.5v.2h0Z"/>
  <path class="st1" d="M402.8,648.4c-.2-13.3-.2-26.8-.2-40.5v-.6c.2.6.6,1.1.6,1.7v38.2c0,.4-.2.8-.5,1.2h.1Z"/>
  <path class="st1" d="M587.7,604.6c-6.9.2-14,0-21.1,0h-34.4c.5-.2,2-.5,2.8-.5h50.9c.5,0,1.8,0,2.5.2l.4.4h-1.2,0Z"/>
  <path class="st1" d="M437.1,604.6c-.3,0-2.4-.3-3.6.2s-.1,0-.2,0c.3-.2.6-.3,1.1-.5.4,0,.9-.2,1.4-.2h50.7c.4,0,.6,0,1.2.2l.2.4h-50.8Z"/>
  <path class="st1" d="M610,642.4c.2,11.9.2,24.3.2,36.6-.2-.3-.6-1.2-.6-1.7v-33.8c0-.3,0-.6.4-1.1h0Z"/>
  <path class="st4" d="M419,591c.2,0,.5.3.6.4-2.4,2.3-5,4.4-7.9,7.1-.5-1.3-1.4-2.3-1.1-2.5,2.4-1.9,3.9-4.6,8.4-5h0Z"/>
  <path class="st4" d="M592.1,682.3c-.4-1.1-.6-2.2-.8-3.2.4-.2.9-.3,1.3-.5,1.9,1.6,3.8,3.2,5.8,4.9-3.7,1.6-4.1,1.6-6.3-1.2"/>
  <path class="st1" d="M419.5,612l-.4,34.7c-.3,0-.3-.3-.3-.7,0-11.4-.2-22.8.1-34.2.3,0,.4-.3.6-.3v.5h0Z"/>
  <path class="st1" d="M405.3,620.6c.2,9.2,0,18.6,0,28.2-.2,0-.6-.3-.6-.6,0-9.2.1-18.3.3-27.6l.3-.4v.4h0Z"/>
  <path class="st1" d="M507.3,608.6c.2,8.9-.2,19.7-.2,29-.2,0-.4-.4-.4-.7.3-11.9-.5-27.4.7-28.3h-.1Z"/>
  <path class="st1" d="M504.5,636.1c-.2-8.8,0-17.7,0-26.8.2.3.8,1.3.8,1.8v24c0,.3,0,.7-.3,1.1l-.6-.2h.1Z"/>
  <path class="st4" d="M593.2,593.2c-.6-1-1-1.9-1.6-3,4.5.9,6.8,3.5,4.4,6.1-1-1.1-1.6-1.7-2.6-2.7l-.2-.4h0Z"/>
  <path class="st4" d="M607.3,602.4c.2.2,2.9,1.7,2.2,3.4-4.3-1.9-7.1-4.9-5.9-6.7.9.8.8.6,1.7,1.4l.9.9,1.1,1h0Z"/>
  <path class="st4" d="M659.8,605.4c-2.5-2.4,1.2-2.6,2.4-4.2.8.9,1.9,1.9,1.7,2.1-1.2.9-2.4,1.6-3.9,2.3h0l-.2-.2h0Z"/>
  <path class="st4" d="M405.3,603.8c-.9.7-1.7,1.3-2.4,1.9-2-1.3-1.7-1.8,3.8-4.3-.5.8-.7,1.4-1.3,2.3h-.1Z"/>
  <path class="st6" d="M610.5,627.7c-.3-2.2-.5-3.1-.6-5.5,0-1.9,0-3.9.3-5.8h.4v11.3h-.1Z"/>
  <path class="st4" d="M673.4,595.2c-.6,1.8-1.9,2.9-4.8,3.3,1.2-1.8,2.2-3.3,4.8-3.3Z"/>
  <path class="st1" d="M530.7,604.5c-4.9,0-11.6,0-17-.2,4.9,0,15.2-.6,17,.2Z"/>
  <path class="st1" d="M405.2,609.7c.2,1.6.1,7.6.1,9.5-.3-1.4-.5-7.5-.1-9.5Z"/>
  <path class="st2" d="M508.4,592.1h-4.8c1.3,0,2.9-.2,4.8,0Z"/>
  <path class="st12" d="M592.9,692.9c-.3-.7-.4-1.5-.5-2.5.2.6.4,1.5.5,2.5Z"/>
  <path class="st0" d="M585.2,612.6"/>
  <path class="st0" d="M585.9,612"/>
  <path class="st0" d="M577.9,616.4"/>
  <path class="st0" d="M578.6,615.8"/>
  <path class="st6" d="M427.3,590.4c17.6-.2,50.4,0,68.3,0,0,.5-2.6.9-2.9,1.5-1.8.2-16.4.2-18.5,0-2.7,0-5.7-.8-8.3-1l-10.9.3c-4,.3-8.2.5-12.5.7-1.7.2-1.6,0-3.4,0-3.8-.3-7.6-.6-11.6-.9-.3,0-.3-.2-.3-.4h0v-.2Z"/>
  <path class="st11" d="M335.3,672.2c-.4,3.7-.4,7.2-1.4,10.6-2.5,8.2-12.5,15.1-27,14-6.9-.5-11.4-3.6-15.1-7.3-7.6-7.5-8-15.6-2.6-23.9.7-1.1,1.4-2.3,2.2-3.4,0,0,.2,0,.5-.2.7,1.6,1.2,3.3,2.2,4.8.6.9,2.2,2.3,3.2,2.2,1.4,0,3.4-1.1,3.8-2.1,1.1-2.8,1.9-5.8,2.2-8.7.6-4.7.8-9.4,1.8-14.2,5,8.6,16.6,14.5,18.7,24.5,3.7-1.3,3.6-4.2,5.9-6.1,3.9,2.7,4.6,6.2,5.7,9.8h-.1Z"/>
  <path class="st4" d="M320.7,697.6c10.7,2,20.9,4,31.2,6.2,3.2.6,6.3,1.4,10.1,2.3-6.1,3.6-6.8,7.7-5.2,12.8-6.3-1.5-12.2-2.8-18-4.2-8-1.9-15.9-3.8-23.9-5.6-2.2-.5-3-1.4-2.9-2.9.1-1.4.2-2.8,0-4.2s.7-2.2,2.5-2.8c2-.6,3.8-1,5.9-1.5M319.8,706.2c6.2,1.5,12.3,3,18.5,4.6.1-.2.2-.5.3-.7-6.7-1.6-13.4-3.3-20.1-4.9,0,0-.2.3-.3.4.3.2.7.4,1.5.6M353.5,708.4c0-.2.1-.3.2-.5-5.2-1-10.5-2-15.7-3-.1.3-.2.6-.3.8,3.5.7,7.1,1.3,11.1,2.1,0,0,3.1.4,4.7.6h0Z"/>
  <path class="st4" d="M306.6,699.1c2.3.5,3.2,1.5,2.8,3v.5c0,4.3-3,7.2-9,8.5-9.4,2.1-18.8,4.1-28.3,6.2-1,.2-2.1.4-3.2.5-.8-1.9.1-2.8,2.8-3.2,4.3-.7,8.6-1.6,12.8-2.5,1.1-.2,2.1-.6,3-1.4-6.1,1.1-12.2,2.2-17.4,3.2-2.9-2.6-5.3-4.9-7.7-7.2,7.4-1.6,15.4-3.4,23.5-5.1,5.2-1.1,10.5-2.1,15.9-3.3,1.7,0,3.1.5,4.8.8M300.3,703.4c.8-.3,1.6-.5,2.3-.8,0-.2-.2-.3-.3-.5-6.6,1.3-13.3,2.6-19.9,3.9l.3.8c5.7-1.1,11.4-2.3,17.5-3.5h.1Z"/>
  <path class="st4" d="M271.7,702.6c-3.4.6-10.3-.5-14.4-1.7-.8-.2-1.8-.6-2.3-1.6-.5-.9-.4-2.1.1-3,1.5-2.8,4.4-4.5,8.8-4.2,6.8.5,13.5,1.4,20.3,2.1h4.4c2.7.9,5.4,1.8,8.2,2.8-4.9,1.1-9.6,2.5-14.5,3.6-3.5.8-6.4,1.6-10.6,2.1h0ZM278.4,698h4.9c-6.4-1.2-12.6-2.8-19.2-2.3,0,.2,0,.4-.1.6,4,.4,8,.8,12.5,1.3l1.9.3h0Z"/>
  <path class="st4" d="M328.5,695.7c1.6,0,2.6,0,4-.4,6.7-1.3,13.4-2.7,20.1-4,4.7-1,10,.9,11.3,4.3.9,2.1-.7,3.6-3.8,4.3-5.4,1.3-10.8,1.8-16.5.4-5.8-1.4-11.9-2.4-18.2-3.6M355.4,694.7c-3.2.7-6.4,1.5-9.6,2.2,0,.2.2.4.2.6,4.5-.8,8.9-1.6,13.4-2.3v-.4h-4.1.1Z"/>
  <path class="st4" d="M933.4,682.3c-8.7,1.5-17.2,3-26,4.6,1.5-2.4,2.9-4.6,4.1-6.9.3-.6-.2-1.5-.3-2.3-.9.5-2.1.8-2.5,1.4-1.9,2.7-3.6,5.5-5.8,8.8-37.2-36.2-70.3-73.6-96.6-114.4,4.7.9,8.8,1.8,12.9,2.5,16.8,3,33.8,5.2,51.1,5.9,11.8.5,23.7.7,35.6.8,2.4,0,3.5.6,4.5,2,16.8,23.2,34.7,46.1,55.9,67.5,8.1,8.2,17.4,15.9,26.2,23.9.4.4.9.8,1.7,1.5-20.7.4-40.7,1.7-60.7,4.7h-.1Z"/>
  <path class="st4" d="M806.5,617.6c-1-3.3-1.5-6.8-2.5-10.1-.2-.7-1.1-1.4-1.7-2.1-.7.7-1.9,1.3-2.1,2-3.6,10.7-6.4,21.5-10.9,32-6.1,14.3-13.4,28.6-20.4,42.7-.3.6-1.9,1.3-2.9,1.3-16.3-.5-56.2-1.8-56.2-1.8,37.6-33.4,67.4-69.7,93-108.4,26.4,41.2,59.4,79,96.2,114.7h-15c-5.4,0-10.8-.5-16.2-.7-10.4-.4-20.8-.7-31.2-1-2,0-3-.6-3.6-2-5.3-10.8-10.7-21.1-15.9-32.4,0,0-9.2-24.1-10.6-34.2h0Z"/>
  <path class="st4" d="M776,675.2c8.6-16.3,16-32.7,21.6-49.5,1.1-3.3,2-6.7,3-10,.2-.5.6-1,1.1-1.5,5.6,24.6,15.5,48.3,29,71.7-19.8-.8-39.3-1.5-59.2-2.3,1.5-2.9,3-5.6,4.5-8.4h0Z"/>
  <path class="st2" d="M877.6,580.7c2-.2,4.3-.2,6.8-.2-2,0-4.3.2-6.8.2Z"/>
  <path class="st12" d="M809.5,572.1h1-1Z"/>
  <path class="st4" d="M722.6,728.7c6.7-.6,14-1.3,21.1-1.9,13.4-1.3,26.7-2.3,39.9-3.5,16.3-1.9,32.5-3.9,48.9-5.4,4.6-.5,7.1.8,10,5.3-3,.6-6,1.3-8.9,1.9,0,.3.2.6.3.8,3-.5,6.1-1.1,9.2-1.6,3.8,4,3.2,8.9-1.8,12.2-1.1.7-2.6,1.3-4,1.5-15.7,1.7-31.3,3.2-47,4.8-17.1,1.7-34.2,3.4-51.3,5-4.1.4-8.5.7-12,1,.3-3.8.5-7.4,1-11.3,10.6-1.3,21.4-2.5,31.8-3.6,0-.3,0-.6-.2-.9-10.5,1-21.3,2.3-31.8,3.3M780.6,727.9c-3,.3-5.9.6-8.9,1,0,.2,0,.5.2.7,16.9-1.1,33.7-2.5,50.3-4.9v-.6c-13.6,1.3-27.2,2.6-41.4,3.9M792,736.4c-13.7,1-27.4,2.4-41,4.1v.7c15.8-1.5,31.7-3,47.5-4.5v-.4h-6.5M822.4,733c-3,.3-6,.7-9,1,0,.3.2.6.2.9,7.4-.7,14.9-1.5,22.3-2.2,0-.3,0-.6-.2-.9-4.3.4-13.3,1.1-13.3,1.1h0Z"/>
  <path class="st4" d="M703.2,705.6c.2-3.1,2-4.5,6.6-4,14,1.4,27.9,2.8,41.9,4.1,7.2.7,14.4,1.2,21.6,1.7-1.8,1.6-3.7,3.4-5.9,5.4-7.2-.5-14.2-1.3-20.9-1.8,6.7,1.9,13.7,2.7,20.9,2.5-1.4,2.9-1.6,6.1,1.1,9.6-6.3-.3-11.7-.3-17.1-.8-14.9-1.4-29.8-3.2-44.6-4.9-1.4-.2-3.2-1.1-3.8-2.1-1.8-2.7-2.7-6.1,0-9.1,2.6.2,4.5.8,6.6,1,7.1.7,14.1,1.5,21.2,2.2,0-.3,0-.6.2-.9-2.6-.3-5.1-.5-7.7-.8-6.5-.7-13.1-1.5-19.6-2.2M723.8,715c6.5.9,13,1.7,19.4,2.6,0-.2,0-.5.2-.7-9.5-1.5-18.9-3.1-28.6-4,0,.2,0,.5-.2.7,2.9.4,5.7.9,9.2,1.4h0Z"/>
  <path class="st4" d="M718.2,749.8c-8-1.3-10.4-7.7-9.9-12.2,0-1.3.8-3.3,1.4-5.2v-.4h0c1.2-.6,2.5-1.3,3.7-1.9,2.7-1.5,4.6-1.4,7,.3,5.6,3.9,7.2,12.2,3,17-.7.8-1.6,1.3-2.9,2.1-.5.4-.8.5-1.1.5l-1.2-.2M721,743.2c0-.6.2-1.2.4-1.7-1.1.8-2.1,1.5-3.1,2.3-1.2-.8-2.5-1.6-3.5-2.6s-.9-1.6-.7-2.2c.5-1.2,1.4-2.3,2.2-3.5,1.3.5,2.6,1,4,1.5,0,0,.4,0,1.7-.2-2-1-3.4-2.1-4.9-2.2-1.1,0-2.7,1.2-3.4,2.1-1.7,2.1-.4,5.6,2.2,7.2,1.8,1,3.4,1.1,5-.7h0Z"/>
  <path class="st4" d="M775.5,721.7c-4.4.5-6-.2-6.3-3.2-.4-3.7,1.3-6.9,5.4-9.3,3.2-1.8,6.7-1.1,8,1.6,1.5,3.2,1,6.4-1.2,9.2-.8,1-3.6,1.2-5.8,1.7M776.7,712.9c-.7,1.1-1.4,2.2-2.1,3.3.8,0,1.5.2,2.3.3.2-1.2.4-2.4.6-3.6h-.8Z"/>
  <path class="st1" d="M727.8,736.3c10.5-1.2,21.3-2.3,31.8-3.3.2.4.2.6.2.9-10.4,1.1-21.2,2.5-31.8,3.6-.3-.3-.2-1.2-.2-1.2Z"/>
  <path class="st1" d="M703.6,705.5c6.7.7,13.2,1.4,19.8,2.1,2.6.3,4.9.6,7.5.9,0,.3,0,.6-.2.9-7.1-.7-14.1-1.5-21.2-2.2-2.1-.2-4.2-.7-6.6-1,0-.3,0-.5.3-.9h.4v.2Z"/>
  <path class="st1" d="M767.3,713.5c-7.2.4-14.6-.7-20.8-2.5,6.8.5,13.8,1.3,20.9,1.8,0,.2-.2.3,0,.7h-.1Z"/>
  <path class="st4" d="M38,724.9c.3-4.4-.7-8.6-3.3-12.8,14.3-1.6,28.6-3.2,42.6-4.7v-.7h-2.7c-7.1.7-14.3,1.4-21.4,2.1-6.4.7-12.7,1.7-19.1,2.3-2.6-1.6-5.5-3.6-8.2-5.3,10.8-1,21.6-2,32.3-3,13.8-1.3,27.6-2.7,41.4-4,15.7-1.5,31.4-2.9,47.1-4.4,8.3-.8,16.7-1.6,25-2.3,8.4-.8,12.4,1,15.3,6.8,1.8,3.5,1.9,7,0,10.5-1.8,3.2-4.6,5.5-9.9,6.1-18,2.1-36,4.4-54,6.6-18.5,2.3-37.1,4.5-55.6,6.8-10.8,1.3-21.6,2.7-32.4,4h-1.4c1.4-2.5,2.4-4.7,3.9-7.2,8.1-.8,16.3-1.6,24-2.3,0-.3,0-.7-.2-1M115.9,717.6c-.4.2-.7.3-1.1.5,0,.2.2.4.3.7,22.5-2.1,44.5-5.7,66.7-8.8-.9-.3-1.8-.3-2.7-.2-11.3,1.4-22.6,2.9-33.9,4.3-9.6,1.2-19.2,2.3-29.3,3.5M151,697.4c-16.6,2.3-33.3,4.5-49.1,6.7,18.7.2,37.3-4.2,56.3-6.6,0-.2,0-.4-.1-.6-2.2.2-4.3.3-7,.5M90,712.7c-9.5,1.4-19,2.8-28.4,4.2,0,.2,0,.4.2.6,19-2.3,38.1-4.7,57.1-7v-.7c-9.4,1.1-18.8,1.9-28.7,2.9M158.6,708c1.8-.3,3.6-.6,5.3-.9-8.6.2-17,.9-25.2,2.7,0,.2.1.4.2.7,6.4-.8,12.7-1.6,19.7-2.5M167.3,698.5c-1.3.3-2.6.7-3.8,1,.1.2.2.4.3.5,5.5-.8,11-1.6,16.5-2.5,0-.3-.1-.6-.2-.9-4.1.6-8.1,1.1-12.7,1.8h-.1Z"/>
  <path class="st4" d="M14.2,732.8c-10-5.6-9.5-17.5-3.6-23,3.5-3.3,8.2-4.1,13.5-2.2,12.4,4.4,14.1,16.9,6.4,24-2.8,2.6-11.4,4-16.3,1.2M20.5,718.9c-.7,0-1.3.2-2.4.5.3,1,.6,1.9,1,3.2.9.2,1.8.4,2.7.7,0-1.1.2-2.1.1-3.4-.1,0-.3-.3-.6-.5M16.3,726.6c0,.3.1.5.3,1.1,3,2.1,6.7,2.7,9.5,1.4,3.8-1.7,6.2-9.1.9-12.3.6,1.8,1.4,3.6,1.7,5.5.3,2.3-.6,4.6-3.5,6-3,1.4-5.7,0-8.4-1.3M17.2,712.9c3.1.9,6.2,1.8,8.9,2.5-1.6-2.4-7.1-4.3-10.8-3.4-3,.8-5.2,4.3-4.2,7,1.4-2.2,1.5-5.1,6.1-6.1Z"/>
  <path class="st1" d="M34.1,711c6.4-.8,12.8-1.5,19.2-2.2,7.1-.7,14.2-1.4,21.3-2.1h2.7v.7c-13.9,1.5-28.3,3.2-42.6,4.7,0-.4-.4-.8-.7-1.1h.1Z"/>
  <path class="st1" d="M38,724.8c7.8-.9,15.6-1.7,23.4-2.5.2.3.2.8.2,1.1-7.7.7-16,1.6-24,2.3.4-.4.4-.7.4-1h0Z"/>
  <path class="st12" d="M68.4,730.8c-2.1.4-4.3.7-6.8,1"/>
  <path class="st4" d="M258.5,719.8c-4.2-1.3-6-3.6-6.5-6.5-.8-3.8,3.4-6.1,8.5-4.7,4.6,1.2,7.2,6.3,4.7,9.3-1.4,1.6-3.5,2.6-6.7,1.9Z"/>
  <path class="st4" d="M368.9,716.3c-1.1.9-2,1.9-3.1,2.4-3,1.7-6.5,1-7.5-1.7-1-3-.4-5.9,2.4-8.2,3-2.5,7.5-2,8.6,1.1.6,2-.4,6.4-.4,6.4Z"/>
  <path class="st1" d="M412.7,667c0,3.6,0,7.2-.1,10.6h-1.4c-.2-.6-.5-1.3-.5-1.9.4-3.1.9-6.1,1.3-9.2,0,0,.1,0,.2-.2.2,0,.3.3.5.6h0Z"/>
  <path class="st1" d="M601.8,693.7c0-.7.2-1.2.3-1.7h.5v7.7h-1.4c0-2,.3-3.9.5-6h.1Z"/>
  <path class="st1" d="M480.2,596.6c8.7,0,17,.2,25.4.4v.9c-9.7.9-19.3-.6-28.9-.3v-1h3.6-.1Z"/>
  <path class="st1" d="M558.7,597c7-.2,14.1-.2,20.9-.2v.6c-4.1.2-8.1.5-12.2.6h-6.9c-.5,0-1.8-1-1.8-1h0Z"/>
  <path class="st1" d="M549.1,600.8h-13.5v-1.3c5.1,0,10.3-.6,15.5,1-.6.2-1.2.3-2,.3Z"/>
  <path class="st1" d="M445.9,597c.2.3.2.8.2.8-4.7,0-9.5,0-14.2-.3,4.5-1.2,9.1-1.2,14-.5Z"/>
  <path class="st1" d="M456.7,599.4h12.3v.7h-13.1c.1-.2.2-.4.5-.7h.3Z"/>
  <path class="st1" d="M523.3,597.5h5.5v.6h-11v-.6h5.6,0Z"/>
  <path class="st1" d="M503.7,642.6c1.2.5,2.2,1,3.2,1.5-.4.3-.8.7-1.2,1-4.3-2.1-8.7-4.1-13-6.2l.9-1c3.3,1.5,6.6,3.1,10.1,4.7Z"/>
  <path class="st1" d="M469.2,629c-1.6-.8-3.1-1.6-4.5-2.3l.8-.8c4.2,1.8,8.4,3.6,12.6,5.4-.2.3-.4.6-.7.9-2.7-1-5.1-1.9-8-3.1h-.2q0,0,0-.1Z"/>
  <path class="st1" d="M563.2,670.6c-2.3-1.3-4.4-2.5-6.5-3.7l.6-.5c4.3,2.1,9.2,3.5,12.7,6.3,0,.3-.3.4-.5.6-2-.8-3.7-1.6-6-2.5h-.3v-.2h0Z"/>
  <path class="st1" d="M440.8,615.9c-4-2-7.9-4-11.7-6,.3-.3.7-.6,1-.9,3.8,2.1,7.7,4.2,11.5,6.3,0,0-.4.5-.7.6h0Z"/>
  <path class="st3" d="M442.9,616.4h0Z"/>
  <path class="st1" d="M601.4,641.7c.3-1.2.5-2.2.8-3.1h.5v22.3h-1.3v-19.2Z"/>
  <path class="st1" d="M602.7,629v-10.5h.8v12h-.4c0-.5-.5-.8-.4-1.5h0Z"/>
  <path class="st1" d="M604,670.8c0,1,0,1.8-.2,2.6h-.8v-5.4h.8c0,.9.2,1.8.2,3v-.2h0Z"/>
  <path class="st1" d="M537.4,643.7c0-.5,0-1.2.6-1.5,2.6-1.4,5.2-2.7,7.9-4,.3.3.6.5.9.8-3.1,1.6-6.1,3.1-9.4,4.7Z"/>
  <path class="st1" d="M410.7,615.7c.3-.6.5-1,.8-1.4h.6c-.3,6.3-.7,12.6-1,18.9h-1.3c-.3-5.8.9-17.5.9-17.5Z"/>
  <path class="st1" d="M667.3,622.7v4h-.9v-12h.9v8Z"/>
  <path class="st1" d="M641.7,600.4c-3.4-.2-6.5-.3-9.6-.4v-.9c5.6.2,11.2.4,16.8.6v.9c-2.3,0-7.2-.2-7.2-.2h0Z"/>
  <path class="st1" d="M411.9,578.2c-.4,1.8-.8,3.5-1.2,5.1h-.9l.9-6.7h.9c.1.5.3.7.3,1.4v.3h0Z"/>
  <path class="st1" d="M401.4,598c-2.9.3-5.8.6-8.5.8v-1c2.8-.5,5.8-1.1,8.5.2Z"/>
  <path class="st1" d="M319.4,706.2c-.6-.2-.9-.4-1.2-.6,0,0,.2-.3.3-.4,6.7,1.6,13.4,3.3,20.1,4.9-.1.2-.2.5-.3.7-6.2-1.5-12.3-3-18.7-4.6h-.2,0Z"/>
  <path class="st1" d="M348.8,707.8c-3.8-.7-7.5-1.4-11.1-2.1.1-.3.2-.6.3-.8,5.2,1,10.5,2,15.7,3,0,.2-.1.3-.2.5-1.6-.2-4.7-.6-4.7-.6h0Z"/>
  <path class="st1" d="M300.2,703.3c-5.9,1.2-11.7,2.4-17.5,3.5l-.3-.8c6.6-1.3,13.3-2.6,19.9-3.9.1.2.3.3.3.5-.8.3-1.3.5-2.3.8h-.1Z"/>
  <path class="st1" d="M276.2,697.7c-4.3-.4-8.2-.8-12.2-1.3,0-.2,0-.4.1-.6,7.5-.5,15.5,1.6,19.2,2.3h-2c-2.5,0-5.1-.4-5.1-.4Z"/>
  <path class="st1" d="M355.4,694.8h4v.4c-4.5.8-8.9,1.6-13.4,2.3,0-.2-.2-.4-.2-.6,3.2-.7,6.2-1.5,9.6-2.2h0Z"/>
  <path class="st1" d="M781.1,727.9c13.9-1.3,27.5-2.5,41.1-3.8v.6c-16.6,2.5-33.4,3.8-50.3,4.9-.3-.2-.2-.5-.2-.8,3-.3,5.9-.6,9.2-1h.2Z"/>
  <path class="st1" d="M792,736.3h6.5v.4c-15.8,1.5-31.7,3-47.5,4.5v-.7c13.6-1.7,27-3.1,41-4.1h0Z"/>
  <path class="st1" d="M822.4,732.9c4.6-.4,9-.7,13.3-1.1.2.2.2.5.2.9-7.4.7-14.9,1.5-22.3,2.2,0-.3-.2-.6-.2-.9,3-.3,5.7-.7,9-1h0Z"/>
  <path class="st1" d="M723.5,715c-3.1-.5-6-.9-8.9-1.4,0-.2,0-.5.2-.7,9.7.8,19.1,2.4,28.6,4,0,.2,0,.5-.2.7-6.5-.9-13-1.7-19.7-2.6h0Z"/>
  <path class="st1" d="M720.8,743.4c-1.5,1.6-3.1,1.5-4.9.5-2.7-1.6-3.9-5.1-2.2-7.2.7-.9,2.3-2.2,3.4-2.1s2.8,1.1,4.9,2.2c-1.3.2-1.6.3-1.7.2-1.3-.5-2.7-1-4-1.5-.8,1.2-1.7,2.3-2.2,3.5-.2.7,0,1.6.7,2.2.9,1,2.2,1.7,3.4,2.6,1-.8,1.9-1.5,3.1-2.3,0,.5-.2,1.1-.5,1.9h0Z"/>
  <path class="st1" d="M777,712.9h.5c-.2,1.2-.4,2.4-.6,3.6-.8,0-1.5-.2-2.3-.3.7-1.1,1.3-2.1,2.1-3.3h.3Z"/>
  <path class="st1" d="M116.2,717.5c9.9-1.2,19.5-2.3,29-3.5,11.3-1.4,22.6-2.9,33.9-4.3,1.9,0,1.8,0,2.7.3-22.2,3.1-44.3,6.7-66.7,8.8,0-.2-.3-.5-.3-.7.4-.2.7-.4,1.4-.6Z"/>
  <path class="st1" d="M158.1,696.9s.1.4.1.6c-19,2.4-37.5,6.8-56.3,6.6,15.8-2.1,32.2-4.4,49.1-6.7,0,0,4.7-.3,7.1-.5h0Z"/>
  <path class="st1" d="M90.3,712.7c9.7-1,19.3-1.9,28.6-2.9v.7c-19,2.3-38.1,4.7-57.1,7-.2-.2-.2-.3-.2-.6,9.5-1.4,18.7-2.8,28.4-4.2h.3Z"/>
  <path class="st1" d="M158.6,708c-6.7.8-13.3,1.7-19.7,2.5,0-.2-.2-.4-.2-.7,8.2-1.8,16.6-2.5,25.2-2.7-1.8.3-5.3.9-5.3.9Z"/>
  <path class="st1" d="M167.3,698.4c4.3-.6,8.7-1.3,12.8-1.8.1.3.2.6.2.9-5.7.9-10.9,1.7-16.5,2.5-.2-.2-.3-.4-.3-.5,1.3-.3,2-.6,3.8-1h0Z"/>
  <path class="st1" d="M16.8,727c2.5,1.2,5.3,2.7,8.4,1.3,3-1.6,3.8-3.6,3.5-6-.3-1.9-1.1-3.7-1.7-5.5,5.3,3.2,3,10.6-.9,12.3-2.8,1.3-6.5.7-9.5-1.4,0-.2-.3-.9-.3-1.1s.5.4.5.4Z"/>
  <path class="st1" d="M17.2,712.9c-4.4,1-4.7,3.9-6.1,6.1-1.1-2.9,1.2-6.2,4.2-7,3.7-.9,9.2,1,10.8,3.4-2.9-.7-8.9-2.5-8.9-2.5Z"/>
  <path class="st1" d="M21.9,719.9c.2.3,0,2.3,0,3.4-.9-.2-1.8-.2-2.7-.7,0-.2.3-.6.5-.5,3.2.7,1.9-.8,2-1.8l-1.3-1s-1.2,0-1.6.2,1,2.6.9,2.6-.4.5-.5.5-1-3.2-1-3.2c1.8-.6,2.4-.5,2.4-.5.6.3,1.4.9,1.4,1h0Z"/>
  <path class="st4" d="M21.1,719.8c.2.2.5.2.5.5,0,1,1.2,2.5-2,1.8-.4-.9-.7-1.6-.9-2.6.5-.2.9-.2,1.6-.2.3.2.6.4.8.5Z"/>
  <path class="st0" d="M590.7,608"/>
  <path class="st6" d="M181.8,437.3"/>
  <path class="st13" d="M979.6,349.3c5,9.1,3.7,17.8-3.7,26.2-3,3.3-7,6.2-11.7,8.7-17.1,8.8-39.5,10.5-59.4,4.8-3.8-1.1-7.5-2.6-10.9-4.2-.5-.2-1-.4-1.2-.9,17.1,2.7,32.1.7,45.3-6.2,8.7-4.6,13.5-10.6,14.9-17.4,1.5-7.5-1.7-14.2-9.2-20.2s-17.7-9.4-30.1-10.8c.3-.5,1-.5,1.7-.7,2.3-.5,4.8-.7,7.4-.8,8.4-.3,16.6,0,24.4,1.8,6.9,1.5,13,3.7,18.4,6.7,6.5,3.7,11.2,8,14.2,13.1h-.2,0Z"/>
  <path class="st13" d="M373.9,339.8c0-.4.7-.4,1-.5.3,0,.7,0,1-.1,8.9-.9,13.9-4,14.7-9.4,0-.3,0-.7.8-.8.7,6.1,6.2,9.6,16.4,10.7-10.7,1-15.7,4.8-16.2,11.1-1-.6-.8-1.2-1-1.8-.5-1-.8-2-1.3-3.1-2-3.7-7-5.1-12.7-5.8-.8,0-1.5-.2-2.3-.4h-.4Z"/>
  <path class="st13" d="M471.7,333.7c2.5,3.2,7,4.3,12.4,4.9-3.3.6-6.7.8-9.2,2.3-2.3,1.5-3.2,3.5-4.8,5.4-.8-4.4-5.2-6.8-12.2-7.7,3-.6,6-1.2,8.2-2.5,2.3-1.3,3.3-3,4.3-4.8.5.8.8,1.6,1.3,2.4h0Z"/>
  <path class="st13" d="M367.5,367.4c-2.3-.8-4.8-1-7.7-1.6,3.5-.7,6.9-1,9.4-2.3,2.7-1.3,3.5-3.2,4.5-5.1,1.2,1.8,2.2,3.7,4.5,5.1,2.5,1.4,5.7,1.9,8.9,2.4-3.2.4-6.4.9-8.9,2.2-2.5,1.3-3.5,3.1-4.7,5-1-2.3-2.5-4.4-6.2-5.7h.2Z"/>
  <path class="st13" d="M328.4,346.8c-1.3-4.1-5.5-6.2-12.2-6.9,2.8-1,5.9-1.6,8.4-2.7,2.8-1.2,3.7-3,4.3-4.9,1.2,1.7,1.8,3.5,4,4.9,2.3,1.4,5.2,2,8.4,2.7-7,.8-10.9,3.4-12,7.4-.8,0-.7-.3-.8-.5h0Z"/>
  <path class="st13" d="M267.7,328.8c2.3-1.3,3.3-2.9,4.3-4.7,1.7,4.4,6.5,6.4,13.7,7.1-7.2.6-12,2.6-13.7,7.1-1.8-3.9-5.9-6.4-12.7-7.1,3-.6,6-1.1,8.2-2.5h.2Z"/>
  <path class="st13" d="M424.5,359.6c1.2-.7,1.3-1.6,2.3-2.6,1.2,2.4,3.3,3.9,7.4,4.4-3.8.7-6.4,2.1-7.4,4.5-2.1-2-4.6-3.5-7.4-4.5,1.8-.5,3.5-.8,4.8-1.7h.3Z"/>
  <path class="st13" d="M471.2,391.6c3.2-.7,4.3-2.1,5.3-3.9,1.2,2.2,3.2,3.7,7.2,4.3-3.7.8-6.2,2.1-7.2,4.5-1-2.3-3.3-3.6-6.7-4.2,0-.6.8-.5,1.3-.7h.1Z"/>
  <path class="st13" d="M294,368.3c-.3.5-.7,1-1.3,1.8-1-2.2-3-3.6-6.9-4.2,1.8-.7,3.3-1.1,4.5-1.8,1.2-.7,1.5-1.6,2.5-2.7,1,2.1,2.7,3.5,6.4,4.3-2.2.8-4.2,1.4-5.2,2.6h0Z"/>
  <path class="st13" d="M959.2,406.2c0-.4.7-.4,1-.5.3,0,.7,0,1-.1,8.9-.9,13.9-4,14.7-9.4,0-.3,0-.7.8-.8.7,6.1,6.2,9.6,16.4,10.7-10.7,1-15.7,4.8-16.2,11.1-1-.6-.8-1.2-1-1.8-.5-1-.8-2-1.3-3.1-2-3.7-7-5.1-12.7-5.8-.8,0-1.5-.2-2.3-.4h-.4Z"/>
  <path class="st13" d="M623.5,331.4c2.5,3.2,7,4.3,12.4,4.9-3.3.6-6.7.8-9.2,2.3-2.3,1.5-3.2,3.5-4.8,5.4-.8-4.4-5.2-6.8-12.2-7.7,3-.6,6-1.2,8.2-2.5,2.3-1.3,3.3-3,4.3-4.8.5.8.8,1.6,1.3,2.4h0Z"/>
  <path class="st13" d="M527.4,391.7c-2.3-.8-4.8-1-7.7-1.6,3.5-.7,6.9-1,9.4-2.3,2.7-1.3,3.5-3.2,4.5-5.1,1.2,1.8,2.2,3.7,4.5,5.1,2.5,1.4,5.7,1.9,8.9,2.4-3.2.4-6.4.9-8.9,2.2-2.5,1.3-3.5,3.1-4.7,5-1-2.3-2.5-4.4-6.2-5.7h.2Z"/>
  <path class="st13" d="M562.1,422.8c-1.3-4.1-5.5-6.2-12.2-6.9,2.8-1,5.9-1.6,8.4-2.7,2.8-1.2,3.7-3,4.3-4.9,1.2,1.7,1.8,3.5,4,4.9,2.3,1.4,5.2,2,8.4,2.7-7,.8-10.9,3.4-12,7.4-.8,0-.7-.3-.8-.5h-.1Z"/>
  <path class="st13" d="M531.7,329.9c2.3-1.3,3.3-2.9,4.3-4.7,1.7,4.4,6.5,6.4,13.7,7.1-7.2.6-12,2.6-13.7,7.1-1.8-3.9-5.9-6.4-12.7-7.1,3-.6,6-1.1,8.2-2.5h.2Z"/>
  <path class="st13" d="M616.5,362.3c1.2-.7,1.3-1.6,2.3-2.6,1.2,2.4,3.3,3.9,7.4,4.4-3.8.7-6.4,2.1-7.4,4.5-2.1-2-4.6-3.5-7.4-4.5,1.8-.5,3.5-.8,4.8-1.7h.3Z"/>
  <path class="st13" d="M604.1,391.8c3.2-.7,4.3-2.1,5.3-3.9,1.2,2.2,3.2,3.7,7.2,4.3-3.7.8-6.2,2.1-7.2,4.5-1-2.3-3.3-3.6-6.7-4.2,0-.6.8-.5,1.3-.7h.1Z"/>
  <path class="st13" d="M493.7,366.8c-.3.5-.7,1-1.3,1.8-1-2.2-3-3.6-6.9-4.2,1.8-.7,3.3-1.1,4.5-1.8,1.2-.7,1.5-1.6,2.5-2.7,1,2.1,2.7,3.5,6.4,4.3-2.2.8-4.2,1.4-5.2,2.6h0Z"/>
  <path class="st13" d="M176.6,328.9c0-.4.7-.4,1-.5.3,0,.7,0,1-.1,8.9-.9,13.9-4,14.7-9.4,0-.3,0-.7.8-.8.7,6.1,6.2,9.6,16.4,10.7-10.7,1-15.7,4.8-16.2,11.1-1-.6-.8-1.2-1-1.8-.5-1-.8-2-1.3-3.1-2-3.7-7-5.1-12.7-5.8-.8,0-1.5-.2-2.3-.4h-.4Z"/>
  <path class="st13" d="M222.1,341.3c2.5,3.2,7,4.3,12.4,4.9-3.3.6-6.7.8-9.2,2.3-2.3,1.5-3.2,3.5-4.8,5.4-.8-4.4-5.2-6.8-12.2-7.7,3-.6,6-1.2,8.2-2.5,2.3-1.3,3.3-3,4.3-4.8.5.8.8,1.6,1.3,2.4h0Z"/>
  <path class="st13" d="M134.6,378.6c-2.3-.8-4.8-1-7.7-1.6,3.5-.7,6.9-1,9.4-2.3,2.7-1.3,3.5-3.2,4.5-5.1,1.2,1.8,2.2,3.7,4.5,5.1,2.5,1.4,5.7,1.9,8.9,2.4-3.2.4-6.4.9-8.9,2.2-2.5,1.3-3.5,3.1-4.7,5-1-2.3-2.5-4.4-6.2-5.7h.2Z"/>
  <path class="st13" d="M91.8,359.3c-1.3-4.1-5.5-6.2-12.2-6.9,2.8-1,5.9-1.6,8.4-2.7,2.8-1.2,3.7-3,4.3-4.9,1.2,1.7,1.8,3.5,4,4.9,2.3,1.4,5.2,2,8.4,2.7-7,.8-10.9,3.4-12,7.4-.8,0-.7-.3-.8-.5h-.1Z"/>
  <path class="st13" d="M37.3,333.7c2.3-1.3,3.3-2.9,4.3-4.7,1.7,4.4,6.5,6.4,13.7,7.1-7.2.6-12,2.6-13.7,7.1-1.8-3.9-5.9-6.4-12.7-7.1,3-.6,6-1.1,8.2-2.5h.2Z"/>
  <path class="st13" d="M185.3,362.3c1.2-.7,1.3-1.6,2.3-2.6,1.2,2.4,3.3,3.9,7.4,4.4-3.8.7-6.4,2.1-7.4,4.5-2.1-2-4.6-3.5-7.4-4.5,1.8-.5,3.5-.8,4.8-1.7h.3,0Z"/>
  <path class="st13" d="M215.7,373.4c3.2-.7,4.3-2.1,5.3-3.9,1.2,2.2,3.2,3.7,7.2,4.3-3.7.8-6.2,2.1-7.2,4.5-1-2.3-3.3-3.6-6.7-4.2,0-.6.8-.5,1.3-.7h0Z"/>
  <path class="st13" d="M43.7,392.9c-.3.5-.7,1-1.3,1.8-1-2.2-3-3.6-6.9-4.2,1.8-.7,3.3-1.1,4.5-1.8,1.2-.7,1.5-1.6,2.5-2.7,1,2.1,2.7,3.5,6.4,4.3-2.2.8-4.2,1.4-5.2,2.6h0Z"/>
  <path class="st13" d="M815.7,334.8c-2.5,3.2-7,4.3-12.4,4.9,3.3.6,6.7.8,9.2,2.4,2.3,1.5,3.2,3.5,4.7,5.4,1-4.4,5.3-6.7,12.4-7.6-3-.6-5.9-1.2-8.2-2.6s-3.3-3-4.2-4.9c-.5.8-1,1.6-1.5,2.4h0Z"/>
  <path class="st13" d="M862.6,360.8c-1.2-.7-1.3-1.6-2.3-2.6-1.2,2.4-3.3,3.9-7.5,4.4,3.8.7,6.4,2.1,7.2,4.5,2.1-2,4.6-3.5,7.4-4.5-1.8-.5-3.5-.8-4.8-1.7h.2-.2Z"/>
  <path class="st13" d="M815.6,392.7c-3.2-.7-4.3-2.1-5.3-3.9-1.2,2.2-3.2,3.7-7.2,4.3,3.7.8,6,2.1,7,4.5,1-2.3,3.3-3.6,6.9-4.2,0-.6-.8-.5-1.3-.7h-.1Z"/>
  <path class="st13" d="M572.2,356.9c0-.4-.7-.4-1-.5-.3,0-.7,0-1-.1-8.9-1-13.7-4.1-14.5-9.5,0-.3,0-.7-.8-.8-.7,6.1-6.4,9.6-16.6,10.6,10.7,1,15.7,4.9,16.2,11.2,1-.6.8-1.2,1.2-1.8.5-1,.8-2,1.5-3.1,2-3.7,7-5,12.9-5.8.8,0,1.5-.2,2.3-.4l-.2.2h0Z"/>
  <path class="st13" d="M663.9,331.8c-2.5,3.2-7,4.3-12.4,4.9,3.3.6,6.7.8,9.2,2.4,2.3,1.5,3.2,3.5,4.7,5.4,1-4.4,5.3-6.7,12.4-7.6-3-.6-5.9-1.2-8.2-2.6s-3.3-3-4.2-4.9c-.5.8-1,1.6-1.5,2.4h0Z"/>
  <path class="st13" d="M667.5,384.3c2.3-.8,4.8-1,7.7-1.5-3.5-.7-6.9-1.1-9.4-2.4-2.7-1.3-3.5-3.2-4.3-5.1-1.2,1.8-2.2,3.7-4.7,5-2.5,1.4-5.7,1.9-8.9,2.3,3.2.4,6.4.9,8.9,2.2,2.5,1.3,3.5,3.2,4.7,5.1,1.2-2.3,2.5-4.4,6.2-5.7h-.2Z"/>
  <path class="st13" d="M702.9,357.8c1.3-4.1,5.7-6.2,12.4-6.8-2.8-1-5.9-1.6-8.4-2.7-2.7-1.2-3.7-3-4.2-5-1.2,1.7-1.8,3.5-4.2,4.9s-5.2,2-8.4,2.7c7,.8,10.9,3.4,11.9,7.5.8,0,.7-.3.8-.5h.1Z"/>
  <path class="st13" d="M755.7,330.8c-2.3-1.3-3.2-2.9-4.3-4.7-1.7,4.4-6.7,6.4-13.9,7,7,.7,12,2.7,13.5,7.2,1.8-3.9,5.9-6.4,12.7-7-3-.6-6-1.1-8.2-2.5h.2Z"/>
  <path class="st13" d="M760.6,352.1c-1.2-.7-1.3-1.6-2.3-2.6-1.2,2.4-3.3,3.9-7.5,4.4,3.8.7,6.4,2.1,7.2,4.5,2.1-2,4.6-3.5,7.4-4.5-1.8-.5-3.5-.8-4.8-1.7h.2-.2Z"/>
  <path class="st13" d="M793.2,367.8c.3.5.7,1,1.3,1.8,1-2.2,3.2-3.6,6.9-4.2-1.8-.7-3.3-1.1-4.5-1.8-1.2-.7-1.3-1.6-2.3-2.7-1,2.1-2.7,3.5-6.4,4.3,2.2.8,4,1.4,5.2,2.7h-.2Z"/>
  <path class="st13" d="M159.3,644.4c-1.3-2.8-2.5-5.6-3.7-8.6,4.3.7,8.9,1.3,12.7,2.6,10,3.3,19.1,7.5,25.6,13.2,1.7,1.4,3.2,2.9,4.8,4.3,5.5,4.4,10.5,9,12.5,14.5-1.8,0-3.7.2-5.5.4-2,.3-2.5,1-.7,2-.7.7-1.5,1.4-2.5,1.9-9.7,4.1-20.7,5.7-32.3,6.5-18.4,1.4-36.9,1.2-55.2-.9-5.5-.6-11.2-1.1-15.7-3.5-.5-.3-.8-.6-1.3-1,13-.4,26.2-.6,39.5-1,5,0,10-.7,15-.8h12c3.5,0,7-.2,10.5-.4.5,0,1-.8,1.7-1.4,1.3-.3,2.5-.4,4-.5,1.7,0,3.3.2,4.5-.2,2.3-.7,6,.8,6.9-1.2.7-1.4,0-3.2-.3-4.7-1.3-4.3-4.7-8-9.5-11.1-6.5-4.3-14-7.8-23.2-9.9l.2-.2h0Z"/>
  <path class="st8" d="M128.6,672.8h-14.7c11.5-14.9,24.3-40.4,30.3-56.4,6.5,13.7,14.8,27.9,21,41.3l6.9,13.6c-6.2.5-10.2.4-14,.4-9,0-17.9.2-26.9.4-1,0-1.8.5-2.8.7h.3-.1Z"/>
  <path class="st13" d="M83,673.7c1.2-3.8,1.8-7.8,4.5-11.3,3.3-4.3,8.2-8.3,12.9-12.2,4.7-4,10.4-7.6,17.2-10.3,2.8-1.1,6.2-2,9.2-3,2.3-.7,4.8-1.2,7.5-1.9-1.3,3.1-3,6.2-5.2,9.5-2.8.7-5.7.9-7.7,1.8-8.5,3.6-13.9,8.7-18.9,14.1-3.8,4.1-3.7,8.5-3.3,12.9-5.3,0-10.7.3-16.4.4h.2Z"/>
  <path class="st10" d="M99.6,673.3c-.7-4.4-.8-8.9,3-12.9,5-5.3,10.4-10.5,18.9-14.1,2-.9,4.8-1.2,7.5-1.7-3.2,5.6-6.5,11.2-10.2,16.7-2.2,3.3-4.8,6.4-7.2,9.7-1.3,1.8-3.2,2.6-6.4,2.3h-5.7,0Z"/>
  <path class="st10" d="M159.3,644.6c9.2,1.8,16.7,5.4,23.2,9.7,4.8,3.2,8.2,6.9,9.5,11.1.5,1.5,1,3.3.3,4.7-1,2.1-4.7.6-6.9,1.2-1.2.3-2.8,0-4.5,0-.3-.8-.3-1.6-.2-2.3,0-1.2.7-2.4.5-3.5-1-5.8-7.7-9.3-14.5-12.8-1-.5-2.7-.6-4-.9-1.2-2.4-2.2-4.8-3.3-7.4l-.2.2h0Z"/>
  <path class="st7" d="M162.6,652.1c1.3,0,3,.2,4,.7,6.9,3.4,13.5,7,14.5,12.8.2,1.1-.3,2.3-.5,3.5v2.2c-1.2.2-2.3.4-3.7.5h-3.5c-.3,0-.7-.2-1.2-.5-2.3-4.7-4.5-9.2-6.9-13.6-.3-.5-2.7-5.6-2.7-5.6h0Z"/>
  <path class="st13" d="M875.7,689.5h-2c-3.3,0-6.5,0-9.7,1.4-4.7,1.9-10.2,2.9-16.2,3.1-13,.3-25.9,1.4-39,1.4s-26.9-.7-40.5-1.6c-5.2-.3-10.2-1.9-15.4-3-2-.4-3.8-.9-5.9-1.5s-4.7-1.1-5.7-2.1c-2-1.9-4.7-2.1-8.2-2.1-.8-.8-1.2-1.5-1.5-2.4.5-.7,1-1.2,1.2-1.8,1.7-6.7,7.2-12.5,13.2-18,7.9-7.2,17.2-13.8,28.3-19.4,6-3.1,12.9-5.3,20.6-6.4-1.5,3.4-3.2,6.6-4.8,9.8-8,1.1-14,3.9-19.1,7.3-5.7,3.9-10.4,8.3-15.7,12.5-5.2,4.1-7,8.9-8,13.9-.3,1.5.8,2.7,3.8,2.8h9.5c3.3.3,5.7-.2,7.2-1.9.8,1.4,2.2.4,3.2.5-.3.7-.7,1.2-1.2,1.8,12.4.4,24.4.8,36.4,1.4,0,.4.3.6.5.8.3-.3.7-.6,1.3-1,3.2,0,6.2.2,8.9.5.2.4.5.7.8,1,.5-.4.8-.7,1.5-1.1h8.2c-.2-.3-.3-.5-.3-.8,2.3.4,4.5,1,6.7,1.1,4.8.3,9.5.3,14.7.4,2,0,3.5.3,5.2.3s2.2-.4,2.3-.9c1.8-3.2,2.2-6.5.8-9.8-2.8-6.6-8-12.5-15.7-17.7-8.2-5.4-17.2-9.6-29.8-10.8-.7-2.2-1.3-4.2-1.7-6.2,7.7,1,14.5,2.6,21.2,4.8,10.7,3.6,18.2,9,25.2,14.7,2.5,2.1,4.2,4.5,6.2,6.8,4.7,5.3,8,10.9,7.9,17,0,2.7,0,2.8,4.7,2.9.2.7.3,1.3.7,1.8M798.4,685.9h1.7v-.3h-2.5v.3h.7M824.8,686.6l-.5-.3s-.2,0-.3.2h.8Z"/>
  <path class="st7" d="M848.4,686.3c-4.8,0-9.7-.2-14.4-.4-2.2,0-4.2-.8-6.7-1.2-.2,0-.3,0-.3-.3-.3-.4-13.8-30.9-13.6-31.8,1.3,0,2.8-.3,3.7,0,3.8,1.2,7.9,2.4,11.4,3.9,5.9,2.4,10.4,5.6,13.9,9.4,3.7,3.9,7,7.8,6.7,12.4-.2,2.7-.8,5.5-1.3,8.2l.7-.2h-.1Z"/>
  <path class="st10" d="M760.5,683.5h-9.4c-3,0-4.2-1.3-3.8-2.8,1-5,2.8-9.8,8-13.9,5.2-4.2,10-8.6,15.7-12.5,5-3.5,11.2-6.2,19.1-7.2-1.3,2.8-2.8,5.5-4.5,8.2-3,1-6.2,1.7-8.4,3-7,4.2-14,8.5-16.4,14.6-1,2.5-2.8,4.9-1.2,7.5.7,1,.7,2.1,1,3.1h-.2.1Z"/>
  <path class="st10" d="M848.7,686.3c0-2.7.8-5.5,1-8.2.3-4.6-3.2-8.5-6.7-12.4-3.5-3.8-8-6.9-13.9-9.4-3.7-1.5-7.5-2.7-11.4-3.9-1-.3-2.3,0-3.8,0-.8-1.6-1.5-3.1-2-4.6,12.4,1,21.6,5.2,29.8,10.6,7.7,5.1,12.9,11.1,15.7,17.7,1.3,3.2,1,6.6-.8,9.8-.2.4-1.5.8-2.3.9-1.7,0-3.3-.2-5.2-.3l-.3-.2h0Z"/>
  <path class="st7" d="M760.8,683.5c-.7-1-.7-2.1-1.2-3.1-1.7-2.7.2-5.1,1.2-7.5,2.5-6.1,9.4-10.4,16.4-14.6,2.2-1.3,5.3-2,8.4-2.9-.2,1.1-.7,2-1.2,3.1-3.2,3.7-4.3,8-9.4,11s-.8.9-1,1.4c-1,3.7-3.3,7.2-6.2,10.6-1.3,1.8-3.7,2.3-7,2h0Z"/>
  <path class="st8" d="M825.8,685.1c-18.2-.6-37.9-.8-56-1.3,1.2-1.9,16.6-30.9,18.8-35.1,3-5.8,10.2-28.6,13.1-34.5,0-.2,23.4,69.8,24.1,71Z"/>
</svg>