<?xml version="1.0" encoding="UTF-8"?>
<svg id="Layer_1" xmlns="http://www.w3.org/2000/svg" version="1.1" viewBox="0 0 1024 768">
  <!-- Generator: Adobe Illustrator 29.5.1, SVG Export Plug-In . SVG Version: 2.1.0 Build 141)  -->
  <defs>
    <style>
      .st0 {
        fill: #976082;
      }

      .st1 {
        fill: #9a6386;
      }

      .st2 {
        fill: #412c42;
      }

      .st3 {
        fill: #e0a1d1;
      }

      .st4 {
        fill: #98668d;
      }

      .st5 {
        fill: #39263b;
      }

      .st6 {
        fill: #6a4866;
      }

      .st7 {
        fill: #ebc4e2;
      }

      .st8 {
        fill: #4a3148;
      }

      .st9 {
        fill: #4a3149;
      }

      .st10 {
        fill: #8e5978;
      }

      .st11 {
        fill: #eed7e1;
      }

      .st12 {
        fill: #9c6689;
      }

      .st13 {
        fill: #f9e9f0;
      }

      .st14 {
        fill: #97658c;
      }

      .st15 {
        fill: #f8f8f8;
      }

      .st16 {
        fill: #ae7096;
      }

      .st17 {
        fill: #50374e;
      }

      .st18 {
        fill: #472e46;
      }

      .st19 {
        fill: #1f071f;
      }

      .st20 {
        fill: #ffe19b;
      }

      .st21 {
        fill: #9a6487;
      }

      .st22 {
        fill: #faa94c;
      }

      .st23 {
        fill: #341b34;
      }

      .st24 {
        fill: #955f80;
      }
    </style>
  </defs>
  <path class="st3" d="M419.8,611.4c9.9,4.6,20.6,9.6,30.8,14.3-9.7,5.6-20.8,11.9-30.6,17.2-.7-.7-.6-2.4-.6-3,.7-8.8-1.5-18.6,0-27.9l.3-.6Z"/>
  <path class="st3" d="M733.5,655.6c-1.1-.3-2.1-.7-3.2-.8-11.9-.2-23.8-.3-35.7-.5-6.7-.1-13.5-.6-20.6-1.1-.6-14.9-.8-29.6-1-44.3.3-.2.4-.2.9-.2,1.6-.4,3-.8,4.5-1.3,1-.6,1.9-1.1,2.6-1.7,3.9-3.5,1.7-8.9-3.9-9.4-1.9-.2-3.1-.7-4.2-1.7-.2-.3-.3-.4-.5-.7v-10.3c.3-1.1.6-2.2.9-3.4,9.6-1.5,19.4-2.7,28.8-4.8,13-2.8,26.1-5.7,38.3-9.8,24.9-8.4,49.3-17.7,73.8-26.8,17.5-6.5,35.3-12.6,54.4-16.1,19.7-3.6,39.4-3.1,59.1,0,20.8,3.3,40.4,9.3,60.7,13.9,11.6,2.5,23.3,4.7,35.3,7,.3,37.6.3,75.3.3,113.2-11.6.8-23.2,1.5-34.8,2-3.5.2-7.1,0-10.6.1-.9,0-1.8.7-3,1.2-9-9.4-18.3-18.8-26.6-28.4-9.4-11.1-18.2-22.5-27.2-33.8-.3-.4-.5-.6-.7-.8h0c-.3-.5-.5-.7-.7-.9h0c-.3-.5-.5-.7-.7-.9h0c-.2-.5-.5-.7-.7-.9h0c-.2-.3-.4-.4-.6-.6,0-.1-.1-.3-.1-.5-1.5-2.1-3-4.2-4.5-6.1h0c-.3-.5-.5-.7-.7-.9h0c-.3-.5-.5-.7-.7-.9h0c0-.2,0-.3.1-.4,0-.2-.2-.3-.3-.4v-.2c-.4-.8-.9-1.5-1.4-2.4-1.1-.4-2.2-.8-3.3-.8-7,0-14.2.2-21.2,0-11.7-.5-23.5-.8-35.1-2-13-1.4-25.7-3.8-38.6-5.7-2.3-.3-4.5-.6-7-.8-1.5-.3-2.7-.5-4.2-.8-.4.2-.6.4-1.1.6-.6.5-.9,1.1-1.2,1.7h-.2c-1,1.5-1.8,2.8-2.5,4.2h-.1c-.3.4-.4.6-.5.9h-.1c-.3.4-.4.6-.5.9h-.1c-.3.4-.4.6-.5.9h-.1c-.3.4-.4.6-.5.8h-.2c-3.2,4.7-6.3,9.2-9.3,13.7h-.1c-.3.2-.3.4-.4.5h-.1c-.3.3-.4.6-.5.9h-.1c-.3.4-.4.6-.5.9h-.1c-.3.4-.4.6-.5.9h-.1c-.3.4-.4.6-.5.9h-.2c-.3.4-.5.7-.8,1.1-2.3,2.8-4.3,5.7-6.4,8.4-12.3,16-25.2,31.6-39.9,46.5h-.6Z"/>
  <path class="st3" d="M620.9,593.3c-.2,0-.4,0-.6-.5-.4-.5-.7-.6-1-.7-3.3-.3-6.2-1.5-8.5-3.9v-2c6.8-.8,13.8-1.5,20.6-2.4,9.1-1.1,18.2-2.5,27.5-3.3.2,4.9.2,9.3.2,14-13.1-.5-25.6-.8-38.2-1.3h0Z"/>
  <path class="st3" d="M593.3,646.2c-12.4-.3-25-.6-37.4-.9-2.7,0-5.5.1-8.5,0,14.1-7.5,28.4-15,43-22.3.4-.1.5-.2.6-.3h.2c.3-.2.4-.3.6-.5.3-.2.6-.4,1.2-.4.2,8.2.3,16.4.3,24.4h0Z"/>
  <path class="st3" d="M657.3,646.1c-6.5-6.8-12.9-13.7-19.7-20.9,6.6-3.9,13-7.7,20-11.5.8,2.7.9,5.3,1.1,7.8.2,2.3.4,4.6.7,6.9,0,1.6,0,3.4-.1,5.5-.3,3.5-.3,6.7-.5,9.8,0,.8-.9,1.5-1.4,2.3h0Z"/>
  <path class="st3" d="M652.5,606.7c-6.8,3.9-13.8,7.7-20.8,11.6-4.4-4.2-8.6-8.4-12.8-12.7-.1-.3-.4-.5-.6-.5v-.2c.1-.6.1-.9-.1-1.1h.5c6.1.5,11.9.9,17.7,1.1,4,.1,8,0,12,0s.7,0,1.5.2c1.1.6,1.8,1.1,2.5,1.6h.2Z"/>
  <path class="st7" d="M1024,654.6v113H0c0-32.7,0-65.3.3-98.3,12.3,1.1,24.4,2.4,36.4,4,6.1.8,12,2.3,18.1,3.6,3.2.2,6.2.2,9.3.2s.4-.2.8-.4c.8,0,1.3,0,2,0,1,.2,1.7.3,2.5.3,12.9-.3,25.7-.6,38.6-1,.7,0,1.4-.5,2-.8,0,0,0,0,.2,0,.3,0,.4,0,.7.2,3.4.2,6.6.2,10,.3h2c6-.2,11.8-.3,17.5-.5h7.4c.7,0,1.4-.3,2.3-.4.5,0,.8-.3,1.4-.4h19c.9,0,1.8-.5,2.9-.8.5,0,.9,0,1.4,0s.8,0,1.3.3c3.6,0,7,0,10.7,0h8.6c9.4-.2,18.8-.3,28.1-.5,2.7,0,5.5-.3,8.2-.5.5,0,1-.6,1.5-.9h.2c1.2-3.1,2.1-6.2,3-9.3,0,0-.4-.3-.7-.5-.3,0-.4-.2-.5-.5h-.8c-.5.3-.9.6-1.5.9-.8,1.6-1.3,3.1-1.8,4.7,0,.2,0,.3-.2.5-.7,0-1.5,0-1.8-.2-10.3-9.2-20.5-18.5-30.4-27.8.9,0,1.5-.2,2-.2,14.3.4,28.7.7,43,1.4,9.9.5,19.6,1.8,29.4,2.8,4.5.4,9.1.7,13.6,1.3-.4,2.7-.7,5.2-1.1,8.3-3-3.2-5.6-5.9-8.5-9-1.4,2-2.6,3.7-3.8,5.3-10.5,15.6-8,28.5,7.9,40.5,1.1.8,2.1,1.7,2.9,2.5-2.2-.2-4-.3-5.9-.5-5.3-.5-10.5-1.2-15.8-1.6-5.1-.3-9.9,2.9-10.5,6.7-.5,3.1,2.7,5.8,8.1,6.6,1.1.2,2.2.2,4.2.4-3.3.8-5.9,1.3-8.3,2-5.4,1.5-7.8,6.1-5.4,10,2.9,4.8,8.5,6.7,14.3,5,1.6-.5,3.3-.9,5-1.3,13.1-3.1,26.3-6.2,39.4-9.3.8-.2,1.9-.2,2.8,0,9.9,2.4,19.7,4.8,29.6,7.1,6.1,1.4,12.3,2.8,18.6,3.6,2.5.3,5.9-.4,7.9-1.5,6.9-3.8,4.5-12.9-3.7-15.1-2.4-.6-4.7-1.2-7.7-1.9,1.3-.3,2-.5,2.7-.6,9.3-1.8,8.1-7.3,3.3-10.6-2.9-2-6.3-2.8-10.4-2.1-5.2,1-10.5,1.8-15.8,2.5.3-.4.6-.6.9-.8,11.2-7.4,15.7-16.7,14.2-27.2-.7-5.1-3.4-10.1-4.9-15.1h3.3c14.5,1.9,29.1,2.6,43.8,2.3,2.7,0,5,0,6.1,2.2.3,1.5.7,2.8,1.1,4.3v22.9c0,.8.7,1.6,1.2,2.5.1.2.1.3.1.5.3,1.4.3,3,3.5,1.7h10.5v.3c.8.9,1.6,1.7,2.7.2.3-.3.5-.4.8-.7.3-7.8.3-15.4.5-23,0-1.1.4-2.1.7-3.3.4-.3.7-.5,1.3-.8.6-1.3,1-2.5,1.4-3.9.7-.5,1.3-.8,2.1-1.2.3-.2.4-.3.6-.5h.4c.4-.2.6-.4.8-.7.2-.2.3-.2.8-.2,7.6-.5,15-.9,22.3-1.4,5.2-.4,10.5-.7,15.7-1.2,8.4-.8,17.2-1.5,25.6-2.1,0,3.6.1,6.7,0,10.1,0,1.5-.2,3.5-.5,5.2-2,1.8-2.1,2.8-.5,4.4.2.2.8.9,1,.9,0,0,.2.2,0,.3,0,3.9-.2,7,0,10.7,0,.6.3,1,.8,1.8h11.6c.9,0,1.6,0,2.5-.2.3-4.4.5-8.7.8-13,.6-1,1-1.9,1.5-2.9,3.4-1.6,6.7-3,9.8-4.6,1.7-.8,2.8-1,4.6,0,6.5,3,13.3,5.6,19.7,8.7,15.6,7.4,33,12.9,47.4,22,0,3.9,0,7.6,0,11.2,0,.8.9,1.5,1.6,2.3,0,0,.3,0,.4,0v.3h2.2c3.4,0,6.6-.3,10-.4.5,0,.9,0,1.3,0,.3.2.5.2.7.3h0c1,.9,2,1.5,2.6-.2,0,0,0-.3,0-.3h0c0,0,.4,0,.7,0,.5-.7,1-1.4,1.1-2.1v-15.8c.7-.7,1.3-1.2,2.1-1.8,1.3-1,2.2-2-.3-2.8-.7-.7-1.3-1.2-1.9-2v-31.7c3.5.2,6.4.4,9.4.6,7.6.4,15.1.9,22.7,1.3h0c.3.2.5.3.9.4.3.2.4.3.4.6.3.3.6.5,1,.8.3.2.3.3.3.6.3.4.7.6,1.1.9,3.2,3.3,6.2,6.4,9.2,9.7.5.5.8,1.6.4,2-1.5,1.6-1.2,3.1,0,4.9.2,2.7.4,5.2.6,8,0,.9,0,1.5-.3,2.2-1.1,1.6-1.9,3.2.3,4.7,1,.3,1.8.5,3,.7,3.6,0,7-.2,10.5-.2.8.2,1.4.2,2.1.2h.7c.5-.8,1-1.6,1-2.4,0-4.3,0-8.5.3-12.9,3.9-2.7,3.2-5.2-1.6-6.4,0-4.1,0-8.1.3-12h1.3c7,.3,13.7.8,20.4.9,11.8.3,23.7.3,35.5.5,1.1,0,3.7,1.2,4.7,1.6-8.9,8.8-17.7,17.4-26.5,26.1l-2.5-1.1c-.2-.8-.4-1.5-.4-2.4-.2-.8-.7-1.5-1-2.2h0c-.3-.5-.6-.7-1-1-.4-.2-.7-.3-1-.4v-.2c-.3-.3-.5-.4-.7-.5-.2.2-.4.5-.7.8s-.4.3-.8.5c.8,2.8,1.8,5.6,2.9,8.3,0,0,.3,0,.4.2.6.4,1.1.6,1.7.9,1.2.2,2.2.2,3.5.3.7,0,1.2,0,1.9.2,16.7.8,33.3,1.5,50,2.2h3.4c.8,0,1.3,0,2,.2,2.5,0,4.8,0,7.2-.2h.7c.3,0,.4,0,.6.3.9.2,1.7.3,2.9.3,3.2,0,6.2,0,9.2.2.2.3.4.5.5.5,8.7.4,17.4.7,26.1,1.1.5,0,.9-.3,1.7-.5h10c3.4.2,6.6.3,9.7.5v.3c.7.2,1.4.2,2.3.2s2.1,0,3.2.2c2.7,0,5.2,0,8-.2h1.1v.3c.6.4,1.2.7,1.8.7,12.5.3,25.1.6,37.6,1,1.7,0,3.5.4,5.2.3,2.4,0,5.2,1.1,7.5-.8h1.8c1.2-.3,2.2-.6,3.4-1.1,6.7-1.3,13.3-2.4,20-3.5.9,0,1.7.2,2.4,0,10.5-1.2,21-2.4,31.7-3.6,6.7-.5,13.1-1.1,19.6-1.3,5.9-.2,11.9,0,17.9,0,1,0,1.9-.7,2.9-1.3.9-2.1,1.9-4,2.7-5.9.2-.6-.3-1.4-.5-2.1-.9.5-2.1.8-2.6,1.5-1,1.5-1.5,3.1-2.5,5.2-9.3-6.2-16.6-13-23.6-20,0,0-.2-.2-.4-.3v-.2c1-.6,1.9-1.2,2.8-1.2,3.5,0,7.1,0,10.6,0,11.6-.6,23.1-1.2,34.6-1.8M9.8,706.8c-.2.2-.3.5-.7,1-.8.7-1.6,1.4-2.8,2.1,0,.3-.2.6-.3,1.2-.2.2-.4.4-1,.8-1,2.9-2.4,5.7-2.7,8.6-.2,1.7,1.4,3.5,2.3,5.6,1.8,4,5.3,7.1,10.3,9.7.4,0,.8.2,1.1.3l.2.3c3.2.2,6.5.7,9.7.4,7.3-.6,14.5-1.6,21.8-2.5,14.6-1.8,29.3-3.5,43.9-5.3,1.1,0,2-.7,3.4-1.2.3,0,.6,0,1.3.2,2.1-.4,4.2-.7,6.8-1.2,24.1-3,48.2-6.1,72.4-8.9,5.3-.6,9.8-1.8,13.3-5.2.2-.3.3-.6.5-1.2.2-.2.4-.4,1-.7,1-2.3,2.5-4.7,2.8-7,.1-1.6-1.6-3.3-2.7-5,0,0-.2,0-.3-.4-.7-1-1.4-2.1-2.4-3.3-2.4-1.7-4.8-3.3-7.3-5.4-1-.2-2-.7-3-.7-2.4,0-4.8.2-7.3.4-9.4.8-18.8,1.6-28.2,2.5-1.8.2-3.6.8-5.7,1.2-.5,0-.9.2-2,.2-1.2,0-2.4.2-4,.3h-.9c-1.1,0-2.3.3-3.8.4h-.9c-2.7.3-5.4.6-8.5.9-.3,0-.6,0-1.1-.2-.8.2-1.6.3-2.9.6h-.9l-.4-.3c-1.3,0-2.6,0-3.9,0-5.9.5-11.7,1.1-17.6,1.7-8.1.8-16.3,1.6-24.4,2.4-.4,0-.7.5-1.4.9-.3,0-.6,0-1.2-.2-2.8.2-5.6.2-8.4.5-1.4,0-2.7.7-4.4,1.1-.3,0-.6,0-1.3-.3h-5.6c-7.3.7-14.7,1.3-21.9,2.1-2.1.2-4,1-6,1.4h-.4c-.3.2-.7.3-1,.5h-.4c-.3.2-.6.4-1.1.8-.2,0-.3,0-1,.2-.3.2-.6.4-.8.5h-.3M701.4,717.7c.2,0,.4.3.7.7.7.4,1.3.8,2.2,1.5.8,0,1.7.2,2.8.3,0,0,.3,0,.6.3.8,0,1.6-.2,2.8-.3.7.2,1.5.3,2.5.8.8,0,1.6,0,2.7.2,0,0,.3,0,.7.3,1.2,0,2.5,0,4,.2,0,0,.3,0,.6.3.8,0,1.6-.2,2.7-.3h.6s.3,0,.5.3c.2,0,.4,0,1,.5,2.8.2,5.6.4,8.7.7,0,0,.2,0,.6.3.8,0,1.5-.2,2.7-.3.3.2.6.3.8.8-.3.2-.6.5-1,.5-4.7.4-9.3.6-14,1-2.1.2-4.2.8-6.7,1.3-3.6.6-6.4,1.9-8.5,4.5-5.3,7.5-2,16.2,7.8,20.4,1.5.2,3.1.6,4.6.5,7.2-.6,14.4-1.4,21.6-2,6.6-.6,13.3-1,19.9-1.6,5.2-.5,10.4-1.1,15.6-1.7,1.6-.2,3.1-.8,5-1.3,0,0,.3,0,.8.3,3.5-.2,7-.4,10.5-.7,1.1,0,2-.6,3.5-1,.3,0,.6,0,1.3.3,4.9-.4,9.7-.7,14.6-1.1,1,0,2-.6,3.4-1,0,0,.3,0,.8.3,6.9-.5,13.8-1.1,20.7-1.7.8,0,1.4-.8,2.3-1.4.3,0,.6,0,1.3-.2.3-.2.5-.3.9-.7,4.1-2.5,6.2-5.7,5.6-9.5-.6-4.5-3.3-8.4-7.7-11.6-2.4-1.8-5.5-2.2-8.9-1.8-9.2,1.1-18.3,2.2-28,3.4-6.5.7-13,1.4-19.8,2.1.3-1,.5-1.6.9-2.5.3-2.1.9-4.1.7-6.2-.4-4.5-3.5-6.6-10.4-7.1h-4c-.8,0-1.5-.3-2.8-.5-1.8,0-3.6-.3-5.9-.5h-5.4c-1.2,0-2.3-.3-3.9-.5h-3.3c-.5,0-1.1-.3-2.1-.5-1.4,0-2.7-.2-4.6-.4-1.8-.2-3.7-.3-6-.6-4-.4-8.1-.8-12.6-1.3-4.4-.5-8.7-1.1-13.1-1.5-8.2-.9-10.1,0-12.4,5.8-.2.6-.4,1.2-.6,2.2.2,2.4.5,4.7.7,7.4.2.2.4.5.6,1,.2.2.4.5.6.7v.3c.2.2.5.5.7.6v.3M346.1,754.7c.4-2.5.9-5,1.1-7.5,0-.8-.5-1.6-1.2-2.4-.7.2-1.9.3-1.9.5-.6,3-1.3,6.1-1.4,9.1,0,1.3,1.4,1.7,3.3.2M160.1,748.7c.8,1.8,1.4,3.6,2.3,5.3.3.5,1.1.9,1.7,1.4.5-.6,1.5-1.3,1.3-1.8-1-2.5-2.2-5-3.6-7.4-.8-1.3-2.3-2.3-4-3.9-1.5,3,1.3,4.3,2.2,6.4M965.1,720.8c-2.2,2.9-4.4,5.8-6.5,8.7-.5.7-.6,1.7-.4,2.5,0,.5,1.1.8,1.6,1.2.5-.4,1.2-.7,1.4-1.1,1.6-3.1,3.2-6.2,4.6-9.4.3-.6-.2-1.3-.8-1.9M169.9,753.2c.6.7,1.1,1.5,1.7,2.2.5-.7,1.2-1.3,1.5-2,1-2.4,1.9-4.9,2.8-7.4.3-.7.2-1.5.4-2.3-.4,0-.8,0-1.2,0-3.4,2.6-4.6,5.8-5.1,9.6M954.1,732.1c-.7-3.8-2.1-7.3-6.8-10-.5.7-.8,1-.8,1.1,1.6,3.3,3.2,6.6,4.9,9.8.2.3,1.2.7,1.6.6.5-.2.8-.8,1.1-1.6M562.1,730.7c.6.8,1.1,1.6,1.7,2.4.5-.8,1.1-1.5,1.4-2.3.9-2,1.8-4,2.7-6,.3-.7.2-1.4.3-2.1l-1-.2c-3.2,2-4.3,4.8-5.1,8.1M480.1,747.8c-1.3-2.7-2.5-5.4-3.9-8-.2-.4-1.5-.5-2.3-.8,0,.5,0,1.1.2,1.6,1.1,2.3,2.2,4.5,3.4,6.8.4.8.9,1.6,1.3,2.4h1c.1-.5.3-1,.4-1.9M485.3,745.8c-.3.7-.8,1.3-.9,2,0,.6.3,1.2.5,1.8.7-.4,1.6-.7,2-1.2,1.6-1.9,3-3.8,4.4-5.7.3-.5.3-1.1.4-1.7-.9.2-2.1,0-2.5.5-1.4,1.2-2.4,2.6-3.8,4.2M332.2,749.9c1.1,1.7,2.2,3.4,3.4,5,.3.4,1.1.6,1.6.9.3-.3.9-.7.7-.9-1.7-2.6-3.4-5.1-5.2-7.6-.1-.2-1.1,0-1.7,0,0,.4-.2.9,0,1.3.2.4.7.8,1.3,1.5M425.6,727.6c.8-3.3-2.3-8.8-5.9-9.2,1.4,3.2,2.8,6.1,4.2,9.1,0,.2.8.2,1.7.2M551.3,726.4c1.5,2,2.9,4,4.4,6,.4.5,1.2.7,1.9,1,.3-.4,1-1,.8-1.3-1.4-2.1-2.8-4.2-4.5-6.1-.2-.3-1.8,0-2.7.5M899.3,724c.5,1.4.9,2.9,1.6,4.3.2.3.9.8,1.4.7.4,0,1.2-.6,1.1-.9-.7-2.2-1.5-4.5-2.4-6.6,0-.3-1.2-.4-1.9-.5-.2.5-.6.9-.6,1.4s.4.9.8,1.7M908.3,722.6c-.6,1.6-1.2,3.2-1.6,4.8,0,.4.7,1,1.1,1.5.5-.4,1.3-.7,1.5-1.1.7-1.5,1.4-3.1,1.8-4.7.2-.6-.3-1.4-.5-2.1-.7.5-1.5.9-2.4,1.7M155,755.5c.4,0,1-.2,1.1-.4.6-1.2-3-5.9-4.8-6.2-.5,0-1.2,0-1.5.3-.3.2-.3.8,0,1,1.5,1.8,3.2,3.5,5.2,5.3M351,750.3c-.5,1.3-1.2,2.5-1.5,3.8,0,.4.8.9,1.3,1.4.5-.3,1.3-.6,1.5-1,.9-1.6,1.6-3.2,2.3-4.9.2-.4-.3-1-.5-1.4-.7.2-1.4.3-1.9.6s-.6.8-1.1,1.6M616.1,754.2c1,1,2.6,1.5,2.4-.2,0-1.9-1.4-3.8-2.3-5.7-.2-.3-1.2-.4-1.9-.6,0,.5-.5,1-.3,1.4.6,1.6,1.3,3.1,2.1,5M577.2,726.3c-.9.2-2.1,0-2.5.5-1.3,1.3-2.4,2.7-3.4,4.2-.3.5.2,1.2.3,1.8.8-.3,1.9-.5,2.3-1,1.3-1.7,2.3-3.5,3.3-5.6M968.4,733.2c3-1,5.3-4.3,4.2-6.2-3.4.9-5.7,3.8-4.2,6.2M625.6,750.2c0-.8-.3-1.6-.4-2.4-.7.6-1.6,1.2-2.1,1.8-.7,1-1.4,2-1.6,3,0,.8.5,1.6,1,2.6.9-.5,1.1-.6,1.2-.7.6-1.3,1.2-2.7,1.9-4.4M432.5,720.8c-2.5,3.8-2.7,5.8-.2,6.6.8-2,1.6-4,2.3-6,.4-1.1-.3-1.5-2.2-.6h.1Z"/>
  <path class="st3" d="M0,525.1c10.9-2.1,21.8-2.2,32.9-.5,17.7,2.6,34.4,7.1,50.6,12.6,18.8,6.3,37.3,13.1,57.1,17.5,11.7,2.6,23.8,4.6,36.4,5.3,0,.8.2,1.6.2,2.4v52.4c0,.7-.3,1.6-.7,2.4-.2,0,0,0,0,0-.4-.2-.7-.3-1.1-.5-.8-.8-1.5-1.6-2.1-2.4-8.9-10.9-17.9-21.8-26.8-32.6-1.3-1.7-2.7-2.4-5.4-1.8-3.3.6-6.8,1.1-10.3,1.7-1.1,0-1.9.1-2.9,0-1.4,0-2.6-.1-3.7,0-8.6.7-17.1,1.5-26,2.2h-10.9c-2,0-4,.2-6.1.1-9.5,0-19-.2-28.5-.4-2.4,0-4.9-.5-6.8,1-.1.2-.3.2-.7.3-.4.3-.6.6-.9.9-.3.3-.4.6-.7.9-.3.2-.4.3-.7.5-.3.3-.4.6-.7.9-.3.4-.4.6-.5.9h-.1c-.3.2-.3.4-.4.5h-.2c-.6.6-.9,1.2-1.3,1.9h-.1c-.3.3-.4.6-.6.9h-.2c-.5.5-.8,1-1,1.5h-.1c-.3.3-.4.6-.6.9h-.1c-.3.3-.4.6-.6.9h-.2c-.5.5-.8,1-1,1.5h-.1c-.3.3-.4.6-.6.9h-.1c-.3.3-.4.6-.6.9h-.2c-.5.5-.8,1-1,1.5h-.4s.2.2.2.4c-6.6,8-12.9,15.8-19.6,23.6-3.9,5.1-8.4,9.5-12.6,14.1v-113.4Z"/>
  <path class="st4" d="M0,666.8c0-9.5,0-19.1.2-28.9,2.1-2,4.1-3.6,5.7-5.5,12.6-14.6,25.2-29.2,37.4-43.9,2.6-3.1,4.8-4.3,10.4-4,11.4.7,23,.3,34.5.3s26.3-1.4,39.2-3.1c3-.4,6-.8,9.1-1.2-.9,8.5-71.4,90.1-80.3,93.1-.4-.6-.9-1.2-1.3-1.8-1.1-1.6-2.1-3.3-3.3-4.8-.4-.5-1.5-.6-2.3-.9,0,.6-.5,1.3-.2,1.9,1,1.8,2.2,3.5,3.2,5.2-17.6-2.1-35-4.2-52.5-6.2l.2-.2Z"/>
  <path class="st3" d="M198,639.5c-6.3-5.9-12.2-11.8-18.2-17.9.1-1,.5-1.8.5-2.6v-59.7c2.2-.2,4.1-.6,6.1-.6,15.8-.2,30.9-3.2,46.3-4.9,11.2-1.2,22.5-2.1,33.8-2,20.2.3,39.5,4.1,58.4,9,14.9,3.8,29.4,8,44.2,11.9,9.6,2.6,19.4,5,29.2,7.3,2.3.6,4.5,1.1,4.3,2.8-.2,2,0,4.2-.1,6.4,0,.2-1.6.3-1.8.4-.4.2-.6.3-.8.5,0,0,.1,0,0,0-.6.1-.9.2-1.5.4-2.4,0-4.4-.3-6.5-.2-2.5.2-4.9.7-7.3,1.1h-.2c-.3.2-.5.3-.6.4h-.1c-.3.2-.5.3-.7.5-.3.1-.4.3-.5.5-3,4.2-1.8,8.5,2.9,11v.3c.5.2.9.3,1.3.3h0c1.6.5,3,.8,4.5.9,2.7.2,5.4.3,8.1.5h0c.3.5.5.7.7.9h0c.4.2.6.3,1,.3,0,0,1.4,0,1.4.3,0,14,.3,27.1.3,41.1-.4,1.5-2.1,3.6-2.3,4.9-1.2-2-3.6-2.1-6.2-2.1-14.8.3-29.4-.4-44-2.3-1-.1-2,0-3.4-.2-4.2-5.2-8-10.3-11.9-15.4-5.2,2.8-7,4.9-11.4,12.3-1.9-3.1-2.1-6.2-1.6-9.4,1.7-10.7-1-20.7-11.6-29.1-1.6-1.3-3.6-2.2-5.4-3.4,2.7,7.3-.3,13.3-5.8,18.9-6.5,6.6-10.8,13.7-12.7,21.7-4.6-.3-9.1-.6-13.8-1.1-9.8-.9-19.7-2.2-29.5-2.8-14.4-.8-28.7-1-43.2-1.4-.5,0-1.1,0-2,.2v.2Z"/>
  <path class="st17" d="M0,667c17.4,1.9,34.8,3.9,52.5,6-1.1-1.7-2.3-3.4-3.2-5.2-.3-.5,0-1.2.2-1.9.8.3,1.9.5,2.3.9,1.3,1.6,2.2,3.2,3.3,4.8.4.6.9,1.2,1.3,1.8,9-3,79.5-84.6,80.3-93.1-3.1.4-6.1.8-9.1,1.2-13,1.8-26,3.1-39.2,3.1s-23.1.4-34.5-.3c-5.6-.3-7.8.9-10.4,4-12.2,14.7-24.9,29.3-37.4,43.9-1.6,1.8-3.7,3.5-5.7,5.3-.2-.9-.2-1.9-.2-3.1,4.2-4.6,8.6-8.9,12.5-13.4,6.6-7.5,12.9-15.1,19.5-22.9,0-.2.2-.4.2-.4h0c.5-.6.8-1,1.1-1.5h0c.3-.3.5-.6.6-.8h0c.3-.3.5-.6.6-.9h0c.5-.5.8-.9,1.1-1.4h0c.3-.3.5-.6.6-.9h0c.3-.3.5-.6.6-.9h0c.5-.5.8-.9,1.1-1.4h0c.3-.3.5-.6.6-.9h0c.6-.6,1-1.1,1.3-1.7h0c.2-.3.3-.5.4-.6h.6c.7-.8,1.2-1.6,1.8-2.4h0c.3-.3.4-.6.6-.9h.3c3.5,0,6.7,0,10.1,0,3.9,0,7.4-.3,11.3-.5,4.8,0,9.3,0,13.9.2,4.4.2,8.6.3,12.8.2.6,0,1.1-.5,1.9-.9.8,0,1.3,0,2,.2,1.8.2,3.5.2,5.4.3,5.1-.5,9.9-.8,14.7-1.4,4.3-.5,8.4-1.4,12.7-2.1,3.3-.5,6.7-1,10-1.6,2.6-.5,4,.2,5.3,1.7,8.8,10.5,17.6,21,26.5,31.5.6.7,1.3,1.4,2.2,2.4.5.3.8.4,1.1.4h-.3c.5.7,1.1,1.3,2.2,1.9.6-.7.8-1.5.8-2.2v-191.8c0-.9-.7-1.8-1.1-2.6-2.6-1.1-1.9-2.5-.9-3.9,1.2-1.7,3.7-1.6,5-.8,1.2.7,1.7,2.4,1.5,3.6-.3,2.1-1.4,4.2-2.3,6.9,14.9-1.5,28.2-.2,40.3,5.4.3.3.7.4,1,.5h0c1.4.6,2.7,1,4,1.4h0c.5.3.9.4,1.3.4h0c.5.3.9.4,1.3.4v.2c1.4.5,2.7.8,4.1,1.1h0c3.1,1,6.2,1.7,9.2,2.4h0c5,.9,9.8,1.6,14.6,2.3,2.7.2,5.4.3,8.8.6-5,4.4-10.1,8.2-16.7,11.1-.4,0-.5.2-.6.3h-.2c-.3.1-.5.3-.6.4h-.2c-1.2.5-2.1,1-3.1,1.5h-.2c-2.3.8-4.4,1.6-6.5,2.4h-.2c-1.2.3-2.1.7-3.1,1,0,.2-.2.3-.7.2-.6,0-.9.2-1.3.3-.3.1-.7.2-1.2.2h-1.5c-6.2.3-12,.7-17.8.9-4.8.2-9.7.1-14.5.5-3,.3-6,1.2-8.9,1.9h-.2c-.6.2-.9.4-1.3.6-1.6.5-3.2,1-5.2,1.7-.5,1.1-.7,2.1-.7,3v152.6c0,.7.5,1.3.8,2,.1.2.3.4.6.9,6,6.2,11.9,12.2,17.8,18.1,10.3,9.3,20.5,18.5,30.8,27.8.3.3,1,.3,1.8.4.4,0,.5.2.7.2,0,0,.1,0,.2-.2.7-1.7,1.5-3.3,2.3-5.3.1,1.3.2,2.2.3,3.2,0,.3-.1.4-.5.5-.2.5-.2.9-.2,1.5-.2,1.5-.5,2.7-.7,4h-.2c-5.8.2-11.4.3-17.2.3s-4,.3-6.1.5c-.8,0-1.3,0-2,0-4.8-.2-9.5-.3-14.1-.2-.6,0-1.1.5-1.9.8h-2.5c-4.5-.2-8.9-.3-13.2-.3s-.9.5-1.3.8c-.3,0-.6,0-1.5,0-5.9,0-11.2.3-16.8.3-4.4-.2-8.6-.3-12.8-.2-.6,0-1.1.5-1.9.9-.5,0-.8,0-1.3-.2-4.4-.2-8.6-.3-12.8-.2-.6,0-1.1.5-1.9.9-1,0-1.7,0-2.6,0-3.9-.2-7.7-.3-11.5-.2-.6,0-1.1.5-1.7.8h-.3c-1.9,0-3.6,0-5.3,0-8.2.3-16.3.6-24.7.7-4-.2-7.7-.3-11.5-.2-.6,0-1.1.5-1.6.8h0c-.5,0-1.1,0-2,0s-.7,0-.8,0c-3.2,0-6.3,0-9.3,0-6-1.2-11.9-2.6-18-3.5-12-1.6-24.1-2.9-36.4-4.2-.3-.6-.3-1.2-.3-2.1M180.6,460.1c.6-.2,1.1-.3,2.2-.5,7.8-2.2,15.9-3.1,24.4-2.8,3.5.1,7.1,0,10.6-.2,15.3-1.2,27.8-6.4,38.7-13.8.5-.3.7-.8,1.2-1.3-.8-.1-1.3-.2-1.7-.2-13.5-1-26-4.3-37.7-9.1-11-4.5-22.6-7-36.1-5.1-.6,0-1.2,0-2.2.3-.2.5-.5,1-.5,1.5v29.2c0,.6.5,1.3,1.2,2M155.9,634.8c7.8,12.2,17.6,23.6,28.1,34.8.6.6,2.4,1.1,3.6,1.1,9.8,0,19.5-.3,29.3-.6,3.3,0,6.5-.4,10.8-.6-33.9-27.5-60.6-57.8-85.8-89.2-23.6,33.2-50.7,64.4-80.9,94.4,7.2-.3,14.2-.6,21.2-.8,8.4-.3,16.8-.6,25.2-.8,2.1,0,3.1-.6,4-1.9,12-17.6,23.2-35.4,30.4-54.4.3-.8,1.3-1.5,1.9-2.3.8.7,1.8,1.3,2.2,2,3.3,6,6.5,11.9,10,18.2M159.7,645.7c-4.5-6.8-9.1-13.6-13.8-20.6-.3.4-.5.6-.5.7v44.7c0,.5,1.4,1.3,2.2,1.4,2.3,0,4.6-.3,6.9-.4,8.2-.2,16.4-.3,24.6-.5.5,0,.9-.2,1.3-.3-6.9-8.3-13.7-16.5-20.7-25M142,647.4v-21.5c-9.1,15.7-18.2,31.2-27.3,46.8.7,0,1.1.2,1.5.2,7.7-.3,15.4-.7,23.2-.9,2.4,0,2.6-.8,2.6-2.2v-22.5M159,673.1h0Z"/>
  <path class="st8" d="M400.3,653.5c.3-1.5.6-2.8,1.1-4.3.6-.3.8-.5,1.3-.8.3-.5.5-.9.5-1.2v-38.2c0-.6-.4-1.1-.8-1.7h-1.1s-.1,0-.3-.2c-.5-.2-.7-.3-1-.4h0c-.2-.4-.5-.6-.7-.8h0c-1.2-.6-2.4-1.2-3.7-1.3-3-.2-6,0-9,0h0c-.5-.2-.9-.3-1.3-.4v-.3c-.7-.9-1.6-1.6-1.8-2.3-.3-.8.1-1.6.3-2.3.8,2.1,2.4,3.3,5.4,3.3s5.7.2,8.6.3c4.8,0,6.4-2.4,5-5.6-1.9-4.1-5.3-5.1-11-4.8-3.8.2-6.7.6-8.2,3.3-.5-1-.7-1.9-1-2.8,0-.2,0-.3.6-.5.5-.2.6-.4.7-.5h.1c.3-.2.4-.3.6-.4h.3c3.4-.2,6.6-.3,9.7-.4,2.2,0,4.5,0,6.7.2,3.4,4.2,6.6,8.3,10.1,12.4.5.6,2.2.6,3.3.9-.3-.7-.4-1.5-.9-2.1-3-3.4-6-6.8-9.1-10.2-.6-.7-1.8-1.1-2.7-1.7v-1.1s0-.2.5-.3c.5-3.1.8-6.2.8-9.2s-.3-3.8-.5-5.7c.6-3.1,4.1-4.6,8.5-3.6.7.2,1.5.2,2.5.5.2.7.2,1.2-.1,1.7-.9,0-1.6,0-2.2,0-4.6-.5-5.5,0-5.6,3.3,0,3.3.2,6.5-.2,9.8-.6,4.7-.4,5,6.1,4.9,3.5,0,4.9-1,4.9-3.6,0-4.1.1-8.3.4-12.3.5.8.9,1.6,1,2.4.5,4.5.9,9.1,1,13.5-4.5.4-6,3.1-8.4,5-.3.3.5,1.3,1,2.5,2.9-2.7,5.3-4.9,7.9-7.1,1.4.4,2.6.6,3.6.9-.7.2-1.3.3-2,.6-1.4,1.1-2.5,2.2-3.7,3.2-4.9,3.9-4.5,3.1.7,7.1.8.2,1.5.4,2.1.4h52.5c.8,0,1.7-.3,2.8-.4,3.5,0,6.6,0,9.8,0h.3s.2-.2.5-.2c3.5,0,6.6,0,10,0,.6.2,1.1.3,1.5.3h87.1c.8,0,1.7-.3,2.7-.4,2.7-1.7,5.1-3.5,7.6-5.2-1.7-1.5-3.2-2.7-4.3-4s-2.5-1.7-4.6-1.7h-18.7c-19.6,0-39.3.3-59.1.3s-3.4,0-5.3,0c-.8,0-1.3,0-2,0-3.2-.2-6.1-.2-9-.4,1.1-.5,2.2-.9,3.6-1.2h55.7c1.1,0,2.2-.5,3.4-.8,1.6,0,3.2,0,5.1,0,.8.4,1.3.7,1.8.7h27.7c.7,0,1.4-.5,2.3-.9.4-.5.6-.8.7-1.2h0c0-4,.2-7.9.3-11.9,0-4.6,3-6.6,9.7-6.6s6.7.9,8,3.8c-.3,2.7-.5,5.1-.4,7.5,0,2.2.4,4.4.7,6.7,2.2,1.9,5,2.9,8.3,3.3.4.3.6.4.9.6.2.2.3.2.7.4,3.6.4,7,.6,10.4.7,6.8.3,13.6.7,20.5.9,2.4,0,4.7-.3,7.3-.6,0-4.9,0-9.6,0-14.4,2.1-2.2,5.6-3,9.8-2.2,4.3.9,5.3,1.9,5.4,5.6v10.5c.2.5.4.6.6.7,1.1.9,2.2,1.5,4.1,1.6,5.6.5,7.8,5.9,3.9,9.3-.7.6-1.6,1.1-2.8,1.7-1.8.5-3.1.9-4.5,1.3-.2,0-.4,0-.9.4-.4,1.1-.4,1.9-.4,2.8,0,13.2,0,26.4-.3,39.7-.3,3.8-.4,7.4-.4,11.1s.4,1.6.7,2.4c4.8,1.1,5.4,3.5,1.3,6.2-.7.2-1,.3-1.6.5-.3,5-.4,9.9-.5,14.8-.6,0-1.2,0-2-.4-.3-4.9-.6-9.4-.8-13.9-3.5,0-6.5.3-10,.4v13.8c-.9-.2-1.7-.4-2.7-.9v-4.6c0-.7,0-1.3,0-2.4-.2-2.9-.4-5.4-.7-8-1.1-1.6-1.4-3,0-4.6.4-.4,0-1.5-.4-2-2.9-3.2-6-6.4-9.3-9.8-.5-.5-.8-.7-1-.9,0,0,0-.3-.4-.6-.5-.4-.7-.6-1-.8,0-.2,0-.3-.4-.6s-.6-.3-.9-.4h0c-5.4-5.8-10.7-11.4-16.1-16.9-6,3.3-11.6,6.4-17.5,9.7-.3.4-.4.7-.4,1.1v33.8c0,.5.3,1,.6,1.7.5.4.9.6,1.4.9.6.5,1.2,1.1,1.9,1.9,0,1.1,0,1.9,0,2.7-.6.5-1.2,1-2.1,1.8-.6.7-.9,1.1-1.4,1.7-.2,5.5-.3,11-.3,16.4h-.2c-.7,0-1.3.2-2,.3h-.5c0,0,0-.3,0-.5v-14.7c-4,.9-7.7,1.8-12.2,2.8.3,3.7.6,7.8.7,11.9-.3.2-.5.4-.6.6h-1.2c-.4,0-.7,0-.7,0v-.3c0-.3-.4-.4-.7-.7,0-3.5,0-6.8.2-10.3,0-1-.3-1.8-.8-2.7-.4,0-.6,0-.9-.2-14.3-8.8-31.7-14.3-47.4-21.7-6.4-3-13.2-5.7-19.7-8.7-1.8-.8-3-.7-4.6,0-3.1,1.6-6.4,3-10,4.6-1,1.1-1.6,2-2.3,3-.1.4-.2.6-.5.8-.4.9-.8,1.7-.8,2.5v8.6c-.7-1.9-.6-3.8-.7-5.8-.1-1.7-.4-3.3-1-4.9-3.2,0-6.1,0-9.2.2-.2,3.8-.2,7.4-.2,11h-.9v-10.2c0-.8-.6-1.5-1-2.3-.3-.2-.5-.2-.7-.2,0,0-.2,0-.1,0-.2-.2-.4-.3-.7-.4-1.6-1.5-2.2-3,0-4.8.7-.5,1.2-.9,1.2-1.3,0-4.8.1-9.5.1-14.3s-.5-.8-.9-1.3c-8.7-4.1-17.3-8.1-25.9-12.2-1.5-.7-2.5-.9-4.1,0-11.1,6.4-22.2,12.7-33.4,19-.2,0-.4,0-.7.3-.5.3-.7.5-.9.6h-.4c-.4.2-.5.3-.6.5-.6.3-1.2.7-2.1,1.3-.7,1.4-1,2.7-1.4,3.9-.3.2-.6.4-1.2.8-.6.3-1,.5-1.6.7-.5.4-.9.7-.9,1v22.8c0,.5.7,1,1.2,1.5,0,.2.1.3.1.4-.2,0-.3.3-.9.6-1.1,0-1.8-.2-2.5-.4v-25.9c-3.9-.2-7.3-.4-10.9-.7-.2.4-.4.7-.4,1v23.6c0,.5.3,1.1.5,1.6-2.8,1.4-2.9-.2-3-1.8.3-8.2.3-16.1.4-24,0-.3-.3-.5-.6-1-.5-.5-.9-.8-1.3-1.1-.4-1.3-.8-2.6-1.1-4.1M588.9,623.6s-.2,0-.6.3c-13.7,7.1-27.3,14.2-41.4,21.5-3.5,1.9-7.1,3.8-10.7,5.8,18.4,8.2,36.6,16.2,54.7,24.2.5.2,1.2.3,2.2,0,0-6.1,0-12.2.2-18.4,0-.2-.3-.4-.6-1v-34.4c-.8.5-1.1.6-1.8,1-.3.2-.6.4-1.2.7l-.4.4h-.3M619.2,606.2s.2,0,.3.4l10.9,10.9c6-3.4,11.8-6.8,18.1-10.3.6-.4,1.3-.9,2.3-1.5-1.9,0-3.3.2-5.1.2s-.6,0-1.2-.4c-7.6-.5-15.1-1-22.7-1.4-.8,0-1.7.4-2.6.5h-.5c.2.4.3.8.5,1.1v.2M578.7,615.7h.4c.4-.2.7-.4,1.3-.7,0,0,0,0,.5-.2,1.3-.7,2.7-1.4,4.1-2.2h.4c.3-.3.5-.4.7-.7h.5c1-.6,2-1.1,3-1.8,0,0,0,0,.5,0,1.3-.7,3.3-1.2,2.5-2.7-.3-.5-1.6-.8-2.5-1.4,0,0-.3-.2-.6-.5-.2-.3-.5-.7-1.1-1.3-.5,0-1.1-.2-1.6-.2h-51.5c-.8,0-1.7.2-3.1.5-1,0-1.9,0-3.3-.3-5.2,0-10.3.2-16,.3-1,.5-2,.9-3.3,1.5-.3.2-.7.5-1.3.8,0,0-.3,0-.6.2-.1,0-.2.3-.4.8,0,.8,0,1.6-.5,2.6,0,8.8-.1,17.7-.2,26.5,0,.3.4.5.6,1.1.4.3.8.5,1.3.7l.2.3c.4,0,.8.3,1.5.7,3.3,1.6,6.6,3.1,9.9,4.7,1.5.7,2.7.7,4.1,0,10.6-5.6,21.2-11.2,32.2-16.8.4-.2.7-.4,1.2-.7l.4-.2c.7-.4,1.4-.8,2.3-1.2l.4-.2c.5-.3.9-.6,1.4-.9h.4c2-1.2,4.1-2.3,6-3.4h.4c.4-.2.7-.4,1.3-.7,0,0,0,0,.4-.2.5-.3.9-.5,1.4-.8h.3c.2,0,.3,0,.6-.3,0,0,0,0,.5-.2.9-.5,1.7-1,2.5-1.5h.4c.4-.2.8-.4,1.2-.7h.4c.3-.3.5-.4.7-.6M610.2,616.5c0,1.9-.3,3.8-.2,5.8,0,2.4.4,4.7.8,7.2,1.1-.5,2.2-1,3.2-1.5h.3s.2,0,.7-.3c1.8-.9,3.5-1.8,5.4-2.7-2.7-2.6-5.2-5-7.9-7.6-.2-.2-.5-.4-.8-.9-.4,0-.8-.2-1.5,0M418.9,611.8c0,10-.1,20.1-.1,30.1s.4.7,1.2,1c.6-.3,1.2-.6,2.3-1,9.3-5.3,18.7-10.7,28.4-16.2-10.1-4.7-20-9.3-30-14-.1,0-.3-.2-.9-.3-.1,0-.3,0-.7.4M487.6,604.2c-.4,0-.9-.2-1.3-.2h-50.5c-.8,0-1.6.3-2.5.7,1.1.5,2.2,1,3.6,1.8,8.1,3.7,16.2,7.4,24.3,11,.9.4,2.7.5,3.4.2,7-3.7,13.8-7.6,20.9-11.4,0,0,0-.2.2-.2,0,0,.1,0,.4-.2.4-.2.8-.4,1.6-.6,0-.3.2-.6-.1-1.1M416.7,606.2c-.2,0-.4,0-1,0-.1,0-.2,0-.9.2-1-.2-2.1-.3-3.1-.6-1.3-.3-3.4-1.2-3.7-.9-1.2.9-2.2,2.2-2.5,3.4-.4,1.8-.2,3.7-.5,5.8.1,1.8.2,3.5.4,5.6,0,.2,0,.4-.4,1,0,9.2-.1,18.3-.2,27.5,0,.3.4.5.7,1.1,1.8.7,3.6,1.3,5.9,2,1.8-.2,3.6-.3,5.8-.7,0-.5.3-.9.3-1.4v-41.1c0-.6-.3-1.2-.6-2M596.7,604.9l-.5.2c0,.4-.2.8-.2,1.1v70.5c0,.7.4,1.3.6,2.3,4.1,4.7,3.8,4.7,9.5,1.1.2-.2.4-.4,1-.9,0-.8.2-1.5.2-2.3v-47.9c0-7.4,0-14.8-.3-22.5-1-.7-2.1-1.4-3.7-2.1-2.3.2-4.5.3-6.7.5M661.2,646.6c0,.8.2,1.6.3,2.7,2.5,2.4,5,4.9,7.7,7.6.3.4.5.8,1.2,1.3.5-.6,1.5-1.2,1.5-1.8v-46c0-.6-.4-1.2-.7-2l-1.4-1.4c0,0-.3-.2-.9-.5-1.4,0-2.9,0-4.7-.2-.8.3-1.5.5-2.7.9,0,0-.3,0-.9.2-.2.5-.7,1-.7,1.5v35.6c0,.6.7,1.2,1.2,2.1M493.6,631.1c0,0-.2-.2-.3-.8v-14.4c-5.6,3-10.9,5.7-16.3,8.6,5.2,2.4,10.2,4.8,15.2,7,.2,0,.8-.2,1.4-.5M505.1,636.5c0-.3.3-.6.3-.9v-24.5c0-.5-.4-1-.8-1.8-2.3,1.3-4.7,2.4-6.9,3.8-.8.5-1.6,1.5-1.6,2.3-.2,5.4-.1,10.7,0,16.1,0,.6.2,1.6.8,1.8,2.5,1.2,5.3,2.2,8.3,3M658,627.9v-13.5c-1,.6-1.4.9-2.2,1.3-5.9,3.3-11.8,6.5-17.8,9.9,6.2,6.1,12.1,11.9,18.1,18.1.6.5,1.1.9,1.8,1.5,0-4.2,0-8.2,0-12.5v-4.7M460.9,627.9c5.8,2.6,11.6,5.2,17.3,7.9,35.4,17.1,72.2,32.7,108.7,48.6,1.2.5,2.7.8,4.8,1.4-1.1-1.9-2.1-3.1-2.4-4.4-.4-1.4,0-2.8,0-4.5,0,0-.6-.3-1.1-.5-34.1-15-68.3-30-102.4-45.2-18.4-8.2-36.5-16.7-54.8-24.9-2.3-1-5.3-1.5-8-1.8-3.2-.3-4.8,1.8-3.1,3.8.5.6,1.4,1,2.2,1.4,12.8,6,25.7,12,39,18.2M636.2,627.1c-6.7-6.7-13.3-13.4-20.1-20.1-.5-.5-1.7-1-2.6-1s-2.2.7-2.2,1.1c0,2.3-1.2,4.7,1.3,6.9,5.2,4.7,10.1,9.5,14.9,14.4,10.9,11.1,21.7,22.2,32.4,33.4,3.1,3.2,6.3,4,11.9,1.7-11.2-12.4-23.8-24-35.8-36.4M590.9,612.6c-21.9,11.2-43.8,22.4-66,33.7,1.9.9,3.6,1.4,4.9,2.2,2.2,1.3,4,.9,6.1-.2,17.6-9.3,35.3-18.6,53-27.8,3.4-1.8,4.8-4.8,3.5-7.7,0-.2-.7-.2-1.5-.2M441.3,641.3c6.4-3.6,12.7-7.2,19.3-10.9-1.2-.5-2.2-.8-3-1.3-3-2-5.3-1.5-8.4.3-9,5.3-18.3,10.3-27.4,15.5-1.2.7-1.8,2.1-2.4,3.3-1.1,2.4,2.7,2.3,3.7,3.7,6.1-3.6,12-7,18.2-10.7M630.4,595c-2.5,0-5-.2-7.5-.4-.3,2.6-.6,4.9-.9,7.4,0,0,.5,0,.8.2,9.2.6,18.3,1,27.4,1.8,5,.5,7.8-1.2,10.4-3.8-1-1-1.8-2-3-2.9-.8-.6-2-1.3-3.1-1.4-7.8-.4-15.7-.7-24.2-1M485.9,616.9c6.8-3.9,13.5-7.8,20.3-11.6-.2-.2-.4-.5-.6-.7h-6.9c-3.1,0-5.6.4-8.2,1.9-5.9,3.4-12.1,6.5-18.2,9.8-2,1.1-3.9,2.2-6.3,3.4,2.9,1.3,5.4,2.5,7.9,3.6,4-2.1,7.8-4.2,12-6.4M595.9,576.6c0,3.9-.2,7.8,0,11.7,0,.6,1,1.3,1.8,1.6s2,0,3,0c3,.2,6.7-1.8,6.7-3.9,0-3.7.2-7.5,0-11.2,0-.8-1-2-2-2.4-4.7-2-9.4,0-9.4,4.1M649.2,609.8c-5.6,3.1-11.2,6.2-16.9,9.4,1.6,1.6,3,2.9,4.6,4.5,7-4,13.9-7.7,20.1-11.8,1.3-.9.4-3.4.4-5.2,0,0-2-.3-2.6,0-1.8.8-3.5,1.9-5.6,3.1M661.3,590.1c0,.3,0,.6,0,.9.4.9.8,2.4,1.4,2.5,2.7.2,5.4,0,8.1,0s.4-.7.4-1c0-3.8,0-7.6,0-11.4,0-1.8-2.9-2.9-6.3-2.7-2.7,0-3.8,1.1-3.7,3,.2,2.8,0,5.6,0,8.9M610.7,602.3c2.5,1.9,4.3,1.9,6.7,0s3.1-5.7,1.4-7.9c-1.9-2.5-6.2-2.9-8.6-.8-3.1,2.7-3.1,5.4-.2,8.1,0,0,.3.3.7.6M496.1,647.5v13.6c2.9.3,5.6.6,8.6,1,0-1.8-.4-3.5,0-5,1.4-5-2-7.9-8.6-9.5M615.8,636.4c3.4-1.8,6.8-3.7,10.4-5.6-1.3-1.4-2.6-2.6-3.8-3.9-2.6,1.2-4.9,2.3-7.1,3.4-4.8,2.3-5.6,4-3.9,8.3,1.4-.7,2.7-1.4,4.4-2.2M603.3,596.7c2-1.7,4.1-3.3,6-5,.7-.6.8-1.6,1.1-2.4-1.2.2-3,0-3.7.6-5.1,4.1-10.1,8.2-15,12.5-.6.5-.3,1.6-.4,2.4.4,0,.8.2,1.2.3,3.5-2.7,6.9-5.4,10.7-8.3M598.6,688.6c1.3-.3,2.6-.5,3.7-1,2.8-1.2,5.6-2.5,8.1-3.9.5-.3.4-1.6,0-2.2-.2-.3-2.2-.5-2.7,0-4.5,3-9.7,5.1-15.9,5.9,1.2,3.1,4,1.6,6.7,1.4M517.3,656.7c-1.2-.5-2.4-1.1-3.7-1.6-2.5-1-5.9.2-6.2,2.2-.2,1.7,0,3.4,0,5.7,4.1-2,7.5-3.7,10.9-5.4,0,0-.3-.5-.9-1M662.7,595.7c-1.1-.5-2.2-.9-3.3-1.4.3.9,0,2.1.9,2.8,2.8,2.5,5.8,4.9,8.7,7.3.5.4,1,.9,1.7,1.1.9.3,2,.3,2.9.4-.2-.8,0-1.6-.6-2.2-.7-.8-2-1.5-2.9-2.2-2.4-1.8-4.8-3.6-7.5-5.7M672.4,600.7c1.1.9,2.2,1.9,3.4,2.8.5.4,1.6.9,1.7.8,1.5-1.1,3.6-2.2,4.1-3.5.5-1.5-.4-3.2-3.4-3.7-3.9-.6-4.6,1.7-5.8,3.6M671.7,665.9c-3.4.2-6.8.3-10.2.5-1,0-1.9.6-2.8.9.9.6,1.8,1.8,2.7,1.8,3.8,0,7.6-.4,11.4-.9.9,0,1.7-1,2.5-1.5-1-.3-2-.5-3.6-.8M500.5,666.8c1.5,0,3.2,0,4.6,0,.8-.2,1.4-1,2.2-1.5-.7-.3-1.3-.7-2.1-.9-3.5-.5-6.9-.9-10.4-1.2-.8,0-1.8.5-2.7.8.6.6,1,1.5,1.8,1.7,1.9.5,4,.8,6.6,1.1M415.9,656c-3.6-.3-7.2-.6-10.7-.9h-2.8c.6.5,1,1.3,1.8,1.6,4.8,1.7,9.9,1.3,14.9.6.7,0,1.2-1.2,1.8-1.8-.3-.2-.6-.4-.9-.6-1.2.3-2.4.6-4.1,1M415.2,653.1c-4.4-.6-8.8-1.2-13.2-1.7,0,.2,0,.5.3.7,3,2.5,13.4,3.6,17.1,1.7.5-.3.7-.8,1.1-1.3-.7,0-1.5-.2-2.2,0-.9,0-1.7.4-3,.7M592.1,682.3c2.2,2.8,2.5,2.8,6.3,1.2-2-1.6-3.9-3.3-5.8-4.9-.4.2-.9.3-1.3.5.2.9.4,1.9.8,3.2M593.3,593.4c.8.9,1.7,1.8,2.7,2.9,2.4-2.6,0-5.2-4.4-6.1.6,1.1,1,2,1.8,3.2M606.1,601.3c-.8-.7-1.5-1.4-2.5-2.2-1.2,1.8,1.5,4.7,5.9,6.7.5-2.1-2.1-2.9-3.4-4.5M660,605.6c1.3-.7,2.8-1.4,3.9-2.3.2,0-.9-1.1-1.7-2.1-1.2,1.6-4.9,1.8-2.2,4.3M405.3,603.7c.5-.8.9-1.5,1.4-2.3-5.5,2.5-5.8,3-3.8,4.3.7-.6,1.4-1.2,2.5-2M673.4,595.2c-2.6.2-3.6,1.5-4.8,3.3,2.9-.4,4.2-1.5,4.8-3.3Z"/>
  <path class="st19" d="M176.2,419.5c.3.7,1,1.6,1,2.4v191.8c0,.7-.2,1.5-.5,2.2-.3-4.4-.5-8.8-.5-13.1v-181.9c0-.4,0-.8-.1-1.4h.1Z"/>
  <path class="st3" d="M419.4,588.8c.4-1.6-.1-3.1.3-4.9,24.3,3.4,50.3,4.6,75.2,5.4.2.3,0,.5-.2.7-1.1,0-2.1-.2-3.4-.4h-70.6c-.4-.2-.6-.3-.8-.5l-.5-.3Z"/>
  <path class="st19" d="M180.2,620.2c-.3-.5-.8-1.2-.8-1.8v-152.6c0-.9.2-1.9.5-2.9.3,18.2.3,36.6.3,54.9v102.3h0Z"/>
  <path class="st18" d="M774.5,398c-.5-.5-1.3-1-1.2-1.2,2.3-3.1-1.3-4-3.9-5.1-2-.8-4.4-1.2-6.7-1.8,4.6-1.9,11.6.1,14.6,4.3,5.4-.8,11-2.1,16.4,1.5-1.8,0-3.1-.2-4.2,0-3.4.6-6.7,1.4-10,2-1.6.3-3.2.2-5,.2h0Z"/>
  <path class="st18" d="M419.8,588.8c.4.3.6.5,1.1.8,2.3.3,4.4.5,6.4.8v.6c-1.4.4-2.6.6-3.9.8-1.2-.3-2.5-.5-3.9-1-.2-.2-.2-.3-.2-.3-.4-4.5-.8-9.1-1.3-13.6,0-.8-.5-1.6-1.1-2.6-1.2-.7-2.1-1.2-3-1.8,0-.5,0-1,.1-1.6,5.7,1.1,6,1.7,5.9,5.2,0,4.2-.3,8.4-.2,12.7h.1Z"/>
  <path class="st18" d="M404.1,427.1c-2,.6-4,1.4-6.1,1.7-1,.2-3.2-.6-3.2-.9,0-3.1-3-4-6.3-4.9-.4-.1-.8-.2-1.2-.4,0,0,0-.1-.1-.2,2.3-1.1,5.8-.4,8.7,1.7.7.5,1.6,1,2.7,1.5,2.6-.1,4.7-.4,6.9-.5,1.1,0,2.2.3,3.3.4,0,0,.1,0,0,.2-1.7.6-3.3.9-4.8,1.3h.1Z"/>
  <path class="st18" d="M873.8,428.6c1.2-.2,2.1-.3,3.1-.5,0,2.3-6.4,2.1-3.5,5.5-5.7.2-9.7-3.8-15.5-1.3,3.2-3.2,6.8-3.5,11.2-1.6,1.6-.8,3-1.4,4.7-2.1Z"/>
  <path class="st23" d="M554.3,589.5c-.8.3-1.9.8-3,.8h-55.7c-.3,0-.3-.3,0-.4,1.2,0,2.1,0,3.1,0h.8c4.5,0,8.5,0,12.5-.2,14,0,28-.2,42.3-.2h0Z"/>
  <path class="st23" d="M187,460.6c2.7-.6,5.6-1.6,8.6-1.9,4.8-.4,9.7-.3,14.5-.5,5.8-.3,11.6-.6,17.7-.9-4.8.6-10,1.5-15.1,1.8-6.1.4-12.3.3-18.4.6-2.4.1-4.7.6-7.3,1h0Z"/>
  <path class="st23" d="M591.3,589.6c-.7.3-1.4.8-2.1.8h-27.7c-.5,0-.9-.3-1.5-.6,2.8-.2,5.7-.2,9.1-.2h9.1c4.5,0,8.8,0,13,0h.1Z"/>
  <path class="st5" d="M401.3,590.9h-6.7c-3.1,0-6.3.3-9.7.4,2.2-.4,4.6-.9,7.1-1.1,2-.2,4.1,0,6.7.2.8,0,1.2-.3,1.5-.4h.1c.4-.2.6-.3.8-.5h.2c.2,0,.3,0,.6-.2.2.3.2.6.1,1.1-.3.3-.4.4-.6.5h-.1Z"/>
  <path class="st3" d="M570.7,589.4h-1.1c.3-.3.9-.9,1.4-.9,6.9-.2,13.8-.3,21.1-.4q.3,0,0,.2c-2.5.3-4.8.5-7,.6-2.3.2-4.7.3-7,.4h-7.4Z"/>
  <path class="st23" d="M255.3,439.3c-4.7-.5-9.6-1.2-14.5-2.1,4.7.5,9.5,1.2,14.5,2.1Z"/>
  <path class="st19" d="M402.7,574.2c.2,1.7.6,3.6.6,5.5,0,3-.2,6-.6,9.1-.2-4.7,0-9.6,0-14.6Z"/>
  <path class="st19" d="M658.8,593.1c-.3-3.9-.4-8-.5-12.3,0-.7.2-1.2.4-1.9.2,4.6.2,9.3,0,14.2h0Z"/>
  <path class="st19" d="M610.8,585.5c0,.7,0,1.2,0,1.9-.2-2-.5-4.2-.6-6.4,0-2.4,0-4.8.4-7.3.2,3.8.3,7.7.4,11.8h-.1Z"/>
  <path class="st23" d="M408.8,425.4c-.9,0-2.1-.4-3.2-.3-2.2,0-4.4.4-6.7.5,3.1-1.7,6.4-1.5,9.9-.1h0Z"/>
  <path class="st23" d="M240.6,436.9c-2.9-.6-6-1.3-9.1-2.2,3,.6,6,1.3,9.1,2.2Z"/>
  <path class="st3" d="M511.8,589.6c-3.8.2-7.8.2-12.1.2,3.8,0,7.8-.2,12.1-.2Z"/>
  <path class="st23" d="M236.3,455.4c1.8-.8,3.9-1.6,6.2-2.4-1.8.8-3.9,1.6-6.2,2.4Z"/>
  <path class="st23" d="M404.4,427.1c1.3-.3,2.8-.7,4.6-1.3.8.2,1.3.5,2,1-2.3,0-4.3.2-6.6.3Z"/>
  <path class="st23" d="M224.6,432.2c-1.2-.3-2.5-.6-3.8-1.2,1.2.2,2.5.6,3.8,1.2Z"/>
  <path class="st23" d="M231.4,434.5c-1.2-.2-2.5-.5-3.9-1,1.2.2,2.5.5,3.9,1Z"/>
  <path class="st13" d="M498.6,589.6c-.9.2-1.8.2-3.1.3h-.6c0,0,.1-.3.3-.6,1.2,0,2.2,0,3.4.4h0Z"/>
  <path class="st23" d="M242.9,453.1c.7-.5,1.7-.9,2.9-1.4-.7.5-1.7.9-2.9,1.4Z"/>
  <path class="st23" d="M232.9,456.4c.7-.3,1.7-.6,2.9-1-.7.3-1.7.6-2.9,1Z"/>
  <path class="st23" d="M185.4,461.1c.1-.2.5-.4,1.1-.5-.1.2-.5.3-1.1.5Z"/>
  <path class="st23" d="M230.9,456.9c.1-.1.4-.3.9-.3-.1.2-.4.2-.9.3Z"/>
  <path class="st23" d="M227.3,433.2c-.3,0-.7,0-1.2-.2.3,0,.7,0,1.2.2Z"/>
  <path class="st23" d="M226,432.7c-.3,0-.7,0-1.2-.3.3,0,.7,0,1.2.3Z"/>
  <path class="st23" d="M220.7,430.8c-.2,0-.6,0-.8-.3.3,0,.5,0,.8.3Z"/>
  <path class="st23" d="M246.2,451.7c0-.1.1-.2.5-.4,0,.1-.1.2-.5.4Z"/>
  <path class="st23" d="M247,451.3s0-.2.2-.2c0,0-.1.2-.2.2Z"/>
  <path class="st23" d="M228.8,457.3s.2-.2.4-.1c0,.1-.2.1-.4.1Z"/>
  <path class="st22" d="M286.9,644.6c1.8-8.1,6.1-15.3,12.6-21.9,5.5-5.6,8.5-11.6,5.8-18.9,1.8,1.1,3.8,2.1,5.4,3.4,10.5,8.3,13.2,18.3,11.5,29-.5,3.2-.3,6.3,1.6,9.4,4.2-7.4,6.1-9.5,11.3-12.3,3.8,5.1,7.6,10.2,11.5,15.4,1.9,5.2,4.5,10.1,5.3,15.2,1.5,10.5-3,19.8-14.2,27.2-.3.2-.6.4-1,.8q0,0-.2,0c-.4,0-.6.3-1,.5-2.5,1.1-4.9,2.1-7.4,3.2-1.1.3-1.9.6-3,1-1.6.3-3,.6-4.7,1-2.1.5-3.9.9-6.1,1.3h-7.7c-1.7-.4-3.2-.6-4.9-.9-1.7-.4-3.3-.7-5-1.2-2.8-1-5.4-2-8.2-3-1.4-.6-2.6-1.1-3.8-1.6-1.1-.9-2.1-1.7-3.2-2.6-15.9-12-18.5-24.9-7.9-40.5,1.1-1.7,2.3-3.3,3.8-5.3,2.9,3.1,5.5,5.8,8.5,9,.4-3.1.7-5.6,1.1-8.3M335.3,671.9c-1-3.4-1.7-6.8-5.6-9.5-2.4,1.9-2.2,4.8-5.9,6.1-2-10-13.7-15.9-18.7-24.5-1,4.8-1.2,9.5-1.8,14.2-.4,2.9-1.1,5.9-2.2,8.7-.4.9-2.4,2-3.8,2.1-1,0-2.6-1.3-3.2-2.2-1-1.5-1.5-3.2-2.2-4.8-.3,0-.4.2-.5.2-.7,1.1-1.4,2.3-2.2,3.4-5.4,8.3-5,16.4,2.6,23.9,3.7,3.7,8.2,6.8,15.1,7.3,14.5,1.1,24.5-5.8,27-14,1-3.4,1-6.9,1.4-10.9h0Z"/>
  <path class="st9" d="M734.8,653.7c14.7-14.8,27.6-30.2,39.8-45.9,2.1-2.7,4.2-5.5,6.6-8.4.5-.5.6-.8.8-1.1h.2c.3-.3.4-.6.5-.9h.2c.3-.3.4-.6.5-.9h.2c.3-.3.4-.6.5-.9h.2c.3-.3.4-.6.5-.9h.2c.2-.2.3-.4.4-.5h.2c2.9-3.6,5.7-7.2,8.3-10.9.6-.8.6-1.8.9-2.6h.2c.3-.3.4-.6.5-.9h.2c.3-.3.4-.6.5-.9h.2c.3-.4.4-.6.5-.9h.2c.3-.4.4-.6.5-.9h.2c1-1.4,1.7-2.8,2.5-4.2h.2c.5-.6.9-1.1,1.2-1.6.2-.2.4-.4,1-.4,1.9.5,3.5.8,5.1,1h0c.7.2,1.4.3,1.9.4h0c.4,0,.8,0,1.4,0,7.5,1.3,14.8,2.7,21.9,4.1.8.2,1.7.3,2.6.3,0,0,0,0,0,0,3.8.6,7.5,1.1,11.3,1.5.2,0,.5,0,.6.2.9,0,1.7,0,2.7-.2.8.2,1.3.3,2,.6,5.1.6,10.1,1.3,15.1,1.6,2,0,4-.2,6.3-.4,1.4.2,2.6.4,4,.7,2.5,0,4.8,0,7.4-.2.8,0,1.3,0,1.8.3.4.3.8.6,1.1.6h15.2c.6,0,1.1-.5,1.9-.9.8,0,1.3,0,1.9,0,1.7.5,3.2.8,4.7,1.2h0c.2.5.4.7.6,1h0c.2.4.4.6.7.9h0c.3.5.5.7.7.9h0c.3.5.5.7.7.9v.2c1.5,2.1,3,4,4.5,6,0,0,0,.2.2.4.2.3.4.4.6.5h0c.2.5.5.7.7.9h0c.3.5.5.7.7.9h0c.3.5.5.7.7.9h0c.3.5.5.7.8.9,9,11.1,17.6,22.3,27.1,33.2,8.3,9.6,17.5,18.8,26.4,28.2q.2,0,.2.2l.2.3c7.1,6.9,14.3,13.7,23.7,19.9,1-2.2,1.6-3.8,2.5-5.2.4-.6,1.7-1,2.6-1.5.2.7.7,1.4.5,2.1-.7,2-1.7,3.9-2.8,6-.3.2-.4.2-.7,0-1.6,0-3,0-4.7.2-1.9,0-3.5,0-5.3-.2-4.2-.2-8.1-.3-12.1-.2-.6,0-1.1.5-1.9.8-.5,0-.8,0-1.3,0-2.1-.2-3.9-.2-6-.3-5.3.5-10.2.8-15.2,1.4-2.2.2-4.4.9-6.7,1.3-.5,0-.8,0-1.2,0-2.1.2-4,.5-6.2.9-4.5.7-8.8,1.3-13.1,2-6.6,1.2-13.1,2.3-20,3.6-.4,0-.7,0-.8,0-2.1.3-3.9.7-6.1,1.1-1.4,0-2.6,0-3.8-.2-5.6-.2-11.1-.2-16.8-.2s-.8,0-1.2-.2c-1.8-.2-3.6-.2-5.6-.2-7.9-.2-15.4-.3-23-.4l-.2-.2c-4.3-.2-8.4-.2-12.8-.2h-1.7v-.3c-3.3-.2-6.6-.3-9.9-.3s-1,0-1.8,0c-1.1,0-2,0-2.8,0-1.6,0-3.1,0-5.2,0-9.3-.5-18.1-.9-27-1.4-4.1,0-8-.2-12.1-.2h-1c0,0-.2,0-.6-.3-4-.2-7.7-.3-11.6-.3s-.8,0-1.2-.2c-3.6-.2-7.1-.2-10.9-.2-8.8-.3-17.3-.7-25.8-1.2-4.5-.5-8.9-.9-13.3-1.1-.9,0-1.8.3-2.9.5-.5,0-.8,0-1.1-.3-1.2-.3-2.4-.5-3.6-.6,0,0-.2,0-.3-.2,0-.4,0-.6,0-.9,0-.3-.3-.6-.6-.9,0-.4,0-.6,0-.9,0-.2,0-.3-.4-.5-.3-.6-.5-1.2-.5-1.7s-.3-.6-.6-1.1c0-.3-.2-.5,0-.8.6-.7.9-1.2,1.3-1.8.3,0,.6.2,1.1.5.5.4.7.6.9.9h0c.3.9.6,1.6.8,2.2.2.8.4,1.5.6,2.3l.9.4c8.8-8.6,17.6-17.3,26.5-26.1M933.7,682.3c19.8-2.9,39.8-4.3,60.5-4.7-.8-.7-1.3-1.1-1.7-1.5-8.8-7.9-18.1-15.6-26.2-23.9-21.2-21.4-39-44.3-55.9-67.5-1-1.4-2.1-2-4.5-2-11.9,0-23.7-.3-35.6-.8-17.3-.7-34.3-3-51.1-5.9-4.1-.7-8.2-1.6-12.9-2.5,26.2,40.8,59.4,78.1,96.6,114.4,2.1-3.3,3.8-6.1,5.8-8.8.4-.6,1.7-.9,2.5-1.4,0,.8.6,1.6.3,2.3-1.2,2.3-2.7,4.5-4.1,6.9,8.8-1.6,17.3-3,26.3-4.6M817,651.8c5.3,10.8,10.7,21.6,16,32.5.6,1.3,1.5,1.8,3.5,1.9,10.4.3,20.8.6,31.2,1,5.4.2,10.8.6,16.2.7,5,0,10.1,0,15,0-36.9-35.7-69.8-73.4-96.2-114.5-25.6,38.7-55.2,74.8-92.9,108.2h7.3c16.3.6,32.5,1.2,48.8,1.8,1,0,2.6-.7,2.9-1.3,6.9-14.1,14.3-28.2,20.4-42.5,4.5-10.5,7.2-21.4,10.9-32,.3-.7,1.4-1.3,2.1-2,.6.7,1.5,1.3,1.7,2.1.9,3.4,1.4,6.8,2.5,10.1,3.4,11.3,6.9,22.5,10.6,34.1M775.9,675.3c-1.4,2.7-2.9,5.4-4.4,8.3,19.9.8,39.4,1.5,59.2,2.3-13.4-23.3-23.4-47-29-71.7-.5.5-.9,1-1,1.5-1.1,3.3-2,6.7-3.1,10-5.7,16.8-13,33.2-21.7,49.6h0Z"/>
  <path class="st8" d="M762,704.4c.3,0,.6,0,1.2.2,2.2.3,4.2.3,6.1.3.8,0,1.5.3,2.7.5,1.6,0,2.8,0,4,0,6.4.5,9.6,2.6,9.9,7.1.2,2.1-.4,4.1-1.1,6.4-.6.9-.9,1.6-1.2,2.3,1,.2,2,.6,3,.5,4.5-.4,8.9-.8,13.3-1.3,1.6-.2,3.1-.8,4.6-1.2,9.2-1.1,18.3-2.2,27.5-3.3,3.4-.4,6.4,0,8.9,1.8,4.4,3.2,7.1,7.1,7.7,11.6.5,3.8-1.6,7-6,9.7-.6.3-.8.5-1.1.7-.3,0-.6,0-1.2.3-1.2.3-2,.6-2.8.7-6.7.7-13.5,1.3-20.2,2h-.8c-6.3.6-12.1,1.2-17.9,1.8h-1.4c-5,.5-9.4.9-13.9,1.4h-.8c-4.1.4-7.7.8-11.3,1.1-14,1.3-27.9,2.6-42.1,3.8-3.2.3-6.1.7-9.4,1.1-.8,0-1.3,0-1.8-.2-1-.5-1.9-.9-3-1.3,1.2,0,2.1-.2,3.3-.4h1.1c.3,0,.5-.2.9-.4,1.1-.7,2.2-1.3,2.9-2,4.1-4.8,2.7-13-2.8-16.9-2.3-1.7-4.3-1.7-7-.3-1.2.7-2.4,1.3-3.7,1.8-.3-.4-.6-.6-.8-.9,1.8-2.3,4.6-3.6,8.7-4.3,10.3-.9,20.1-1.7,29.9-2.5v-.4l-8.7-.3c-.3-.2-.6-.3-1.4-.5-1.2,0-1.9,0-2.6,0,0,0-.2,0-.6-.2-2.2-.4-4.2-.7-6.1-1.1-1.2-.2-2.3-.2-3.4-.2,0,0-.3,0-.5-.2-.4-.4-.7-.6-.9-.6-4.5-.5-9-1-13.5-1.4-1,0-2,.3-3.2.4-.9,0-1.6,0-2.3-.2-.7-.4-1.3-.8-2.1-1.5-.3-.4-.5-.6-.7-.7h0c-.3-.5-.5-.7-.8-.9h0c-.2-.5-.4-.7-.7-.9-.2-.2-.4-.5-.4-1,0-2.7-.5-5.1-.8-7.5.2-.6.3-1.2.5-1.8,2.3-5.7,4.2-6.6,12.4-5.8,4.4.5,8.7,1,13.4,1.7,2.7.5,5.1.9,7.5,1.1,1.7,0,3.5,0,5.3,0,1.8.2,3.7.3,5.8.7,1.8.2,3.3.3,4.8.3.5,0,1.1.3,2,.5,1.4,0,2.4,0,3.4,0,1.2,0,2.3.3,3.9.6h4M767.3,713.3c0-.2,0-.4.4-.8,1.9-1.7,3.8-3.5,5.6-5.1-7.2-.5-14.4-1-21.6-1.6-14-1.3-28-2.7-41.9-4.1-4.6-.5-6.4.6-6.6,4.2-.2.2-.3.5-.9,1-1.8,2.9-1,5.9.7,8.6.6.9,2.4,1.9,3.8,2.1,14.8,1.7,29.7,3.2,44.6,4.7,5.4.5,10.8.5,17.1.8-2.7-3.5-2.6-6.4-1.1-9.6M728,736.3v1.3c-.3,3.7-.7,7.4-1,11.2,3.4-.3,7.6-.6,11.8-1,17.1-1.6,34.2-3.3,51.3-5,15.7-1.6,31.3-3.1,47-4.8,1.4-.2,2.9-.8,4-1.5,5-3.3,5.7-8.2,1.8-12.2-3.1.5-6.1,1.1-9.2,1.6,0-.3-.2-.6-.3-.8,3-.6,6-1.3,8.9-1.9-2.9-4.4-5.4-5.8-10-5.3-16.3,1.8-32.6,3.7-48.9,5.4-13.3,1.3-26.6,2.3-39.9,3.5-7.1.6-14.2,1.3-20.9,1.9,1.8,2.5,3.5,4.9,5.2,7.6M775.7,721.7c1.9-.5,4.7-.7,5.5-1.7,2.3-2.8,2.7-6,1.2-9.2-1.3-2.7-4.6-3.5-7.8-1.6-4.1,2.4-5.8,5.6-5.4,9.3.3,3,1.7,3.7,6.4,3.2h0Z"/>
  <path class="st8" d="M190.3,698.6s.2,0,.3.2c.1.4.1.6,0,.9.1,2.2.5,4.3.8,6.6-.5,1.6-.9,3.1-1.4,4.5-.2.2-.4.4-.7.9-.3.6-.5.9-.7,1.2-3.1,3.2-7.6,4.4-12.9,5-24.2,2.9-48.3,5.9-72.9,9-2.6.3-4.6.6-6.6.9h-1.4c-9,1.1-17.5,2.1-26.2,3-2.5.3-4.8.7-7.3,1.1-.5,0-.8,0-1.2,0-.9,0-1.8.2-2.8.5h-1.2c-.7,0-1.3.2-2.1.5-.3,0-.4,0-.7,0-1.1,0-2.1.3-3.3.6-.3,0-.4,0-.7,0-2.3.3-4.4.7-6.7,1.1-.5,0-.8,0-1.3,0-2.5.3-4.8.7-7.3,1.1h-1.2c-.7,0-1.3.2-2.1.5-.3,0-.4,0-.7,0-1.1,0-2.1.3-3.4.6h-10.3c-.5-.2-.9-.3-1.2-.4-4.9-2.4-8.3-5.5-10.3-9.8-1.9-5-1.2-9.5,1-14,.2-.2.4-.4.7-.9.3-.5.4-.7.6-1,.8-.7,1.6-1.4,2.6-2.4.4-.4.6-.7.8-.9h.1c.5-.2.8-.4,1.1-.5.2,0,.4,0,.8-.3.6-.3.9-.5,1.3-.6h.1c.5,0,.9-.3,1.2-.4h.2c8.1-.8,15.9-1.6,23.8-2.3.9,0,1.7,0,2.7,0,.8-.2,1.3-.3,2-.3,4.5-.3,8.8-.7,13.2-1.1h.6c.4,0,.5-.2.8-.4.3,0,.4,0,.7,0,.9,0,1.7,0,2.7-.2.5,0,.9-.3,1.2-.4h1.1c.2,0,0,0,.3.2,3.3,0,6.4-.2,9.5-.5,1.2,0,2.4-.6,3.8-1h1.3c3.1,0,6-.2,8.8-.5,1.3,0,2.4-.6,3.9-1,2.1-.2,3.9-.4,5.9-.4s2.6-.3,4-.6h1.3c1.2,0,2.2-.3,3.4-.6h1.3c.7,0,1.3,0,2,0h.6c.3,0,.5-.2.8-.4.3,0,.4,0,.5,0l.2.2c1.2,0,2.1,0,3.3,0,.3-.2.5-.3.6-.4h1.3c3.1-.2,5.9-.6,8.6-1h.7c1.6,0,2.7-.3,3.9-.5h.7c1.7,0,3-.2,4.3-.3.5,0,.9-.2,1.8-.4,9.9-.9,19.3-1.9,28.7-2.6,5-.4,10.1-.3,15.1-.4,2.4,1.7,4.8,3.3,7.3,5.3.9,1.3,1.6,2.4,2.4,3.4M34.1,711.1c.2.2.4.5.6,1,2.9,4,3.6,8.2,3.3,12.8,0,.2,0,.4-.4.8-1.3,2.4-2.6,4.7-3.9,7.2h1.4c10.8-1.3,21.6-2.7,32.4-4,18.5-2.3,37.1-4.5,55.6-6.8,18-2.2,36-4.5,54-6.6,5.4-.6,8.1-2.9,9.9-6.1,1.9-3.5,1.8-7,0-10.5-2.9-5.8-6.9-7.5-15.3-6.8-8.3.7-16.7,1.6-25,2.3-15.7,1.5-31.4,2.9-47.1,4.4-13.8,1.3-27.6,2.7-41.4,4-10.8,1-21.6,2-32.3,3,2.7,1.7,5.4,3.3,8.1,5.2M14.4,732.9c4.7,2.7,13.3,1.3,16.1-1.3,7.7-7,6-19.6-6.4-24-5.2-1.8-9.9-1.1-13.5,2.2-5.9,5.4-6.4,17.4,3.8,23.1Z"/>
  <path class="st18" d="M296.9,697.1c1.5.3,3.1.6,4.7,1.2-5.2,1.2-10.5,2.2-15.6,3.3-8.1,1.7-16.2,3.5-23.5,5.1,2.5,2.3,4.9,4.5,7.7,7.2,5.3-1,11.4-2.1,17.4-3.2-.8.8-1.9,1.2-3,1.4-4.3.9-8.5,1.8-12.8,2.5-2.7.4-3.6,1.3-2.8,3.2,1.1-.2,2.2-.3,3.2-.5,9.4-2,18.8-4.1,28.3-6.2,6-1.3,9-4.2,9-8.5v-.5c.4-1.5-.4-2.5-2.6-2.9h7.4c-1.5.6-2.4,1.4-2.2,2.8.2,1.4.1,2.8,0,4.2-.1,1.5.7,2.4,2.9,2.9,8,1.8,16,3.7,23.9,5.6,5.8,1.4,11.6,2.7,17.9,4.2-1.6-5.1-1-9.3,5.2-12.8-3.8-.9-6.9-1.7-10-2.3-10.4-2.1-20.8-4-31.2-6.1,1.4-.3,2.8-.6,4.6-.9,6.5,1.2,12.6,2.1,18.4,3.5,5.7,1.4,11,.9,16.5-.4,3.1-.7,4.5-2.3,3.6-4.3-1.3-3.2-6.6-5.2-11.1-4.3-6.7,1.3-13.4,2.7-20.1,4-1.4.3-2.8.3-4.2.4,2.3-1,4.7-2.1,7.4-3.2.6-.2.8-.3,1-.5h0c5.3-.9,10.6-1.7,15.8-2.7,4.1-.7,7.5,0,10.4,2.1,4.8,3.2,6,8.7-3.3,10.6-.7,0-1.4.3-2.7.6,3,.7,5.3,1.3,7.7,1.9,8.2,2.2,10.5,11.2,3.7,15.1-2,1.1-5.5,1.8-7.9,1.5-6.3-.8-12.5-2.2-18.6-3.6-9.9-2.3-19.7-4.8-29.6-7.1-.8-.2-1.9-.2-2.8,0-13.2,3.1-26.3,6.2-39.4,9.3-1.7.4-3.3.8-5,1.3-5.8,1.7-11.4-.3-14.3-5-2.4-4,0-8.5,5.4-10,2.4-.7,5-1.2,8.3-2-2-.2-3.1-.3-4.2-.4-5.3-.8-8.6-3.5-8.1-6.6.6-3.8,5.4-7,10.5-6.7,5.3.3,10.5,1,15.8,1.6,1.9.2,3.7.3,5.9.5,1.5.6,2.7,1,3.9,1.8-1.4.2-2.8.2-4.2,0-6.8-.7-13.5-1.6-20.3-2.1-4.3-.3-7.3,1.3-8.8,4.2-1,1.9-.4,4,2.2,4.6,4.6,1,9.9,2.3,14.3,1.7,8.6-1.2,16.9-3.6,25.3-5.5M258.8,720c2.9.6,5-.3,6.4-2,2.6-3,0-8.1-4.7-9.3-5.2-1.4-9.3.9-8.5,4.7.6,2.8,2.4,5.2,6.8,6.5M368.9,716.3c.1-2.1.9-4.3.3-6.3-1-3.2-5.5-3.7-8.6-1.1-2.8,2.4-3.3,5.2-2.3,8.1.9,2.6,4.3,3.4,7.4,1.8,1.1-.6,2-1.4,3.2-2.5Z"/>
  <path class="st3" d="M428.8,651.8c10.8-6.3,22-12.6,33.1-19,1.5-.9,2.6-.7,4.1,0,8.5,4.1,17.2,8,25.9,12.4.1.7.1,1.1.1,1.5-8.4.8-16.7,1.7-25.1,2.5-5.2.5-10.5.9-15.7,1.2-7.3.5-14.7.9-22.3,1.4h-.1Z"/>
  <path class="st3" d="M612,679.3c-.4,0-.9-.3-1.3-.8v-36.4c5.6-3.1,11.3-6.2,17.3-9.6,5.4,5.6,10.7,11.1,16.1,16.8-7.5-.3-15.1-.7-22.7-1.1-2.9-.2-5.9-.4-9.4-.6v31.7h0Z"/>
  <path class="st21" d="M406.2,685.5c-.5-.5-.8-1.1-.8-1.6v-23.6c0-.3.2-.6.4-1,3.5.2,7,.4,10.9.7v25.4c-3.4.2-6.8.2-10.5.2M412.7,666.8c-.2,0-.3-.3-.5-.4,0,0-.2,0-.2.2-.4,3.1-.9,6.1-1.3,9.2,0,.6.3,1.2.5,1.8h1.4c0-3.5.1-6.9.1-10.7h0Z"/>
  <path class="st21" d="M596,703.6c-.3-4.1-.6-8.1-.9-11.8,4.4-1,8.1-1.9,12.2-2.8,0,4.8,0,9.7-.2,14.7-.2.2-.4.2-.4.2h-1.4c-3.4,0-6.3,0-9.2-.2M602,693.4c-.2,1.9-.4,3.9-.5,5.8h1.4v-7.7h-.5c0,.5-.2,1-.3,1.9h-.1Z"/>
  <path class="st1" d="M660.9,685c-.3-4.6-.3-9.1-.3-13.8,3.5,0,6.6-.3,10-.4.2,4.5.4,9,.6,13.7-3.4.3-6.7.4-10.4.5h.1Z"/>
  <path class="st1" d="M495.3,668.7c2.9,0,5.8,0,9,.2.3,4,.4,7.7.4,11.4-2.9,0-5.8,0-9,0-.4-4-.4-7.7-.5-11.5h.1Z"/>
  <path class="st3" d="M16.2,736.2c3.2,0,6.6,0,10.5,0,1.5-.2,2.4-.3,3.3-.5h.8c.9,0,1.5-.2,2-.4h1.3c2.7-.3,5-.7,7.2-1h1.4c2.5-.3,4.6-.7,6.6-1h.8c1.4-.2,2.3-.3,3.2-.5h.8c.9,0,1.5-.2,2-.4.3,0,.6,0,1.3,0,1.2,0,1.9-.3,2.7-.4.3,0,.6,0,1.4,0,2.7-.4,5-.7,7.2-1,8.5-1,17-2,25.7-3-.7.4-1.7.9-2.7,1.1-14.6,1.8-29.3,3.6-43.9,5.3-7.3.9-14.5,1.9-21.8,2.5-3.1.3-6.4-.3-9.8-.6h0Z"/>
  <path class="st2" d="M708.6,731.2c.4,0,.7.4.9.7q0,0-.2,0c0,0,.2.2.4.4-.4,1.8-1.3,3.5-1.4,5.1-.5,4.5,1.9,10.9,9.6,12.2-.9,0-1.9.2-3.1.3,1.1.4,2.1.8,2.8,1.3h-1.7c-9.6-3.9-13-12.6-7.5-20.2h.2Z"/>
  <path class="st3" d="M716.1,751.6h3.9c3.4-.3,6.4-.7,9.3-1,14-1.3,27.9-2.6,41.9-3.9,3.6-.3,7.3-.7,11.1-1.1-1.3.4-2.8,1-4.4,1.2-5.2.7-10.4,1.3-15.6,1.7-6.6.6-13.3,1-19.9,1.6-7.2.6-14.4,1.4-21.6,2-1.5,0-3.1-.3-4.7-.7v.2Z"/>
  <path class="st2" d="M160,748.5c-.8-1.9-3.7-3.3-2.2-6.3,1.7,1.6,3.2,2.7,4,3.9,1.5,2.4,2.6,4.9,3.6,7.4.2.5-.9,1.2-1.3,1.8-.6-.5-1.5-.9-1.7-1.4-.9-1.7-1.6-3.5-2.4-5.5h0Z"/>
  <path class="st2" d="M965.3,720.7c.4.6.8,1.4.5,2-1.4,3.1-3,6.3-4.6,9.4-.2.4-.9.7-1.4,1.1-.6-.4-1.5-.8-1.6-1.2-.2-.8,0-1.8.4-2.5,2.1-2.9,4.3-5.8,6.7-8.7h0Z"/>
  <path class="st3" d="M897.3,690.2h5.4c-2.1,1.9-4.8.6-7.3.8-1.7,0-3.5-.3-5.2-.3-12.5-.3-25.1-.6-37.6-1-.6,0-1.1-.3-1.8-.7,7.5,0,15.1,0,23.1.4,2.1.2,3.8.2,5.5.3h1.4c5.9,0,11.2.3,16.6.4h-.1Z"/>
  <path class="st2" d="M170,753c.5-3.6,1.7-6.8,5.1-9.4.4,0,.8,0,1.2,0-.1.8-.1,1.5-.4,2.3-.9,2.5-1.8,4.9-2.8,7.4-.3.7-1,1.3-1.5,2-.6-.7-1.1-1.5-1.6-2.4h0Z"/>
  <path class="st2" d="M954.1,732.3c-.3.6-.6,1.2-1.1,1.4-.3,0-1.4-.3-1.6-.6-1.7-3.3-3.3-6.5-4.9-9.8,0,0,.3-.4.8-1.1,4.7,2.7,6.1,6.2,6.8,10.2h0Z"/>
  <path class="st18" d="M562.1,730.5c.8-3.1,1.8-5.9,5.1-7.9l1,.2c0,.7,0,1.4-.3,2.1-.8,2-1.7,4-2.7,6-.4.8-1,1.5-1.4,2.3-.6-.8-1.1-1.6-1.7-2.6h0Z"/>
  <path class="st3" d="M726,684.1c8.5.3,17,.7,26,1,3.7.2,6.9.3,10,.6v.3c-16.5-.7-33.1-1.4-49.5-2.2,4.6,0,9,0,13.5.3h0Z"/>
  <path class="st2" d="M345.6,754.9c-1.4,1.3-2.8.8-2.8-.4.1-3,.8-6.1,1.4-9.1,0-.2,1.3-.3,2.1-.3,0,3.4-.4,6.6-.7,9.8Z"/>
  <path class="st3" d="M111.1,695.2c0,0,0,.2-.5.2-.5.2-.6.3-.7.4h-4c-1.4.2-2.3.3-3.3.4h-1.4c-1.6.2-2.8.3-3.9.5-1.8,0-3.7.3-6.1.5-4.6.5-8.6.9-12.6,1.3h-1.4c-4.8.5-9,1-13.3,1.4,0,0,0,0,0,0,.3-.3.6-.8,1-.8,8.1-.8,16.3-1.6,24.4-2.4,5.9-.6,11.7-1.2,17.6-1.7,1.3,0,2.6,0,4.1,0v.2Z"/>
  <path class="st11" d="M401.4,657.9c.4,0,.9.4,1.3,1,0,8.3,0,16.3-.1,24.3-.4-.8-1.1-1.6-1.1-2.4v-22.9h0Z"/>
  <path class="st3" d="M189.4,673h2.7c5.7-.2,10.8-.3,15.9-.5h2.1c2.4-.2,4.2-.3,6-.4,5.6,0,11.2-.3,17-.5-.2.3-.7.8-1.2.9-2.7.2-5.5.4-8.2.5-9.4.2-18.8.3-28.1.5-1.9,0-3.9,0-6,0-.1-.2,0-.4,0-.4h-.2Z"/>
  <path class="st3" d="M976.6,680.4h1.4c5-.2,9.4-.3,13.9-.5h5.4c1.9,0,3.3,0,4.6,0h.5c-.8.3-1.8,1-2.7,1.1-6,0-11.9,0-17.9,0-6.4.2-12.9.8-19.6,1.2-.3-.3-.3-.5,0-.7,3-.2,5.7-.4,8.7-.6,2.1,0,3.9-.3,5.7-.4h0Z"/>
  <path class="st2" d="M480.1,747.9c-.1.7-.3,1.2-.4,1.7h-1c-.4-.8-.9-1.6-1.3-2.4-1.1-2.2-2.3-4.5-3.4-6.8-.2-.5-.1-1.1-.2-1.6.8.3,2.1.4,2.3.8,1.4,2.6,2.6,5.4,3.9,8.2h.1Z"/>
  <path class="st3" d="M180.5,689.8c-5,.3-10,.2-15,.6-9.5.7-18.9,1.7-28.6,2.6,1.5-.4,3.2-1,5-1.2,9.4-.9,18.8-1.7,28.2-2.5,2.4-.2,4.8-.4,7.3-.4s2,.5,3,.9h.1Z"/>
  <path class="st2" d="M485.4,745.6c1.3-1.5,2.3-2.8,3.7-4,.4-.4,1.7-.3,2.5-.5-.1.6,0,1.2-.4,1.7-1.4,1.9-2.8,3.9-4.4,5.7-.4.5-1.3.8-2,1.2-.2-.6-.5-1.2-.5-1.8s.6-1.3.9-2.2h.2Z"/>
  <path class="st2" d="M332.1,749.7c-.5-.5-1-.9-1.2-1.3-.2-.4,0-.8,0-1.3.6,0,1.6,0,1.7,0,1.8,2.5,3.6,5,5.2,7.6.1.2-.5.6-.7.9-.6-.3-1.4-.5-1.6-.9-1.2-1.6-2.3-3.4-3.5-5.2h.1Z"/>
  <path class="st2" d="M425.3,727.7c-.7,0-1.3,0-1.4-.2-1.4-2.9-2.8-5.9-4.2-9.1,3.5.5,6.7,6,5.6,9.3Z"/>
  <path class="st2" d="M551.3,726.2c.9-.2,2.5-.5,2.7-.3,1.7,2,3.1,4,4.5,6.1.2.3-.5.9-.8,1.3-.6-.3-1.5-.6-1.9-1-1.6-2-3-4-4.5-6.1Z"/>
  <path class="st11" d="M80,676.1c8.2-.3,16.3-.6,24.5-.9h5.3c-.4.3-1.1.8-1.8.8-12.8.4-25.7.7-38.6,1-.8,0-1.5,0-2.5-.3-.2,0-.2-.2,0-.2,4.5-.2,8.7-.3,13-.5h0Z"/>
  <path class="st2" d="M899.2,723.8c-.3-.6-.7-1-.7-1.5s.4-.9.6-1.4c.7.2,1.8.3,1.9.5.9,2.2,1.7,4.4,2.4,6.6,0,.2-.7.9-1.1.9s-1.2-.4-1.4-.7c-.6-1.4-1.1-2.8-1.6-4.4h-.1Z"/>
  <path class="st2" d="M908.4,722.5c.8-.6,1.6-1.1,2.3-1.6.2.7.7,1.4.5,2.1-.4,1.6-1.1,3.2-1.8,4.7-.2.5-1,.8-1.5,1.1-.4-.5-1.2-1-1.1-1.5.4-1.6,1-3.2,1.7-4.9h-.1Z"/>
  <path class="st23" d="M504.9,680.4c-.2-3.8-.2-7.6-.3-11.5.2,1.4.6,3.1.7,4.7.1,1.9,0,3.8.7,5.8v-8.6c0-.8.4-1.6.8-2.3.3,4.1.3,8,.3,11.9-.7,0-1.4,0-2.3,0h0Z"/>
  <path class="st3" d="M43.4,702c-.5,0-1.1.2-2.1.4h-2.6c-7.8.8-15.6,1.6-23.7,2.4,1.7-.5,3.7-1.2,5.7-1.5,7.3-.8,14.6-1.5,21.9-2.1,1.8-.2,3.7,0,5.5,0-1.7.3-3.2.5-4.8.7h0Z"/>
  <path class="st2" d="M154.7,755.4c-1.8-1.8-3.5-3.5-5-5.3-.2-.3-.2-.8,0-1,.3-.2,1-.3,1.5-.3,1.8.3,5.5,5,4.8,6.2-.1.2-.7.3-1.3.4h0Z"/>
  <path class="st2" d="M351.1,750.1c.4-.6.6-1.1,1-1.4.5-.3,1.3-.4,1.9-.6.2.5.6,1,.5,1.4-.6,1.7-1.4,3.3-2.3,4.9-.2.4-1,.7-1.5,1-.5-.5-1.4-1-1.3-1.4.3-1.3,1-2.5,1.7-4h0Z"/>
  <path class="st3" d="M610.6,687.4c.3-.4.7-.9,1.2-1.4.2,5.2.2,10.4.2,15.6s-.5,1.4-1,1.9c-.3-5.5-.3-10.8-.3-16.1h-.1Z"/>
  <path class="st2" d="M616,754c-.7-1.7-1.5-3.3-2-4.9-.2-.4.2-1,.3-1.4.7.2,1.7.3,1.9.6.9,1.9,2.2,3.8,2.3,5.7,0,1.7-1.4,1.1-2.5,0h0Z"/>
  <path class="st2" d="M577.2,726.5c-1.1,1.9-2.1,3.7-3.4,5.4-.4.5-1.5.6-2.3,1,0-.6-.6-1.3-.3-1.8.9-1.5,2.1-2.9,3.4-4.2.4-.4,1.6-.3,2.6-.3h0Z"/>
  <path class="st3" d="M123.3,674.7h2.7c5.2-.2,9.9-.3,14.6-.5h1.5c3,0,5.4,0,7.9.2v.3c-.7.2-1.4.4-2.1.4h-7.4c-5.7,0-11.5.3-17.5.3-.3-.3-.3-.5,0-.7h.5,0Z"/>
  <path class="st2" d="M968.2,733.1c-1.2-2.4,1.1-5.3,4.5-6.1,1,2-1.2,5.3-4.5,6.1Z"/>
  <path class="st3" d="M738.6,723.7h8.8v.4c-9.8.8-19.6,1.6-29.7,2.4,1.8-.4,3.9-1,6-1.2,4.6-.4,9.3-.7,14-1,.3,0,.7-.3,1-.7h0Z"/>
  <path class="st3" d="M962,681.4v.7c-10.5,1.3-21,2.5-31.4,3.7-.7,0-1.5,0-2.4,0,4.1-.8,8.4-1.4,13.2-2.1,2.4-.3,4.2-.5,6-.8.3,0,.6,0,1.3,0,4.7-.5,9-.9,13.2-1.3h.1Z"/>
  <path class="st3" d="M789.3,686.4c8.8.4,17.6.7,26.6,1.2-.3.3-.8.7-1.2.7-8.7-.3-17.4-.7-26.1-1.1-.2,0-.3-.2-.3-.5.4-.2.7-.3,1-.3h0Z"/>
  <path class="st2" d="M625.5,750.4c-.7,1.5-1.2,2.8-1.9,4.2,0,0-.3.2-1.2.7-.4-1-1.1-1.8-1-2.6.2-1,.9-2.1,1.6-3,.5-.7,1.4-1.2,2.1-1.8,0,.8.3,1.6.3,2.6h.1Z"/>
  <path class="st2" d="M432.7,720.6c1.7-.7,2.4-.3,2,.8-.7,2-1.5,4-2.3,6-2.5-.9-2.4-2.8.3-6.8Z"/>
  <path class="st11" d="M674,670.1c.3,0,.6,0,1.2-.2.2,4.3.2,8.5,0,12.8,0,.8-.5,1.5-1,2.2-.2-5-.3-9.9-.3-14.7h0Z"/>
  <path class="st5" d="M804.4,719c-1.3.4-2.8,1-4.4,1.2-4.4.5-8.9,1-13.3,1.3-1,0-2-.3-3-.5.3-.7.5-1.4,1-2.1,0,.5,0,1.1-.4,2.1,6.8-.7,13.3-1.4,20.1-2.1h0Z"/>
  <path class="st23" d="M495.1,668.8c.2,3.6.3,7.4.4,11.4-.7.3-1.4.4-2.1,0-.1-4.6-.2-8.8-.2-13,.3.8.9,1.5.9,2.3v10.2h.9c0-3.6,0-7.2.2-11h0Z"/>
  <path class="st3" d="M591.3,690.3c.2-.2.5,0,.9.2.3,1,.4,1.8.5,2.6v10.2c0,.3,0,.5,0,.5-.5-.8-1.4-1.5-1.5-2.3-.2-3.7,0-7.3,0-11.2h0Z"/>
  <path class="st11" d="M419.9,659.8c.3-.2.7-.4,1.2-.6,0,1-.4,2.1-.4,3.2-.1,7.6-.2,15.3-.5,23q-.2,0-.3-.4v-25.2h0Z"/>
  <path class="st11" d="M492.9,667.3c.2,4.2.3,8.4.3,12.9-.4-.4-1.1-1-1.2-1.7v-11.2c.3-.2.5-.2.8,0h.1Z"/>
  <path class="st3" d="M817.6,742.5c6.5-.8,13.3-1.4,20-2.1.9,0,1.7-.3,2.8-.6-.5.3-1.1,1.1-1.9,1.1-6.9.6-13.8,1.1-20.9,1.6h0Z"/>
  <path class="st19" d="M402.6,683.3v-24.2c.2,0,.6.3.6.6,0,7.9,0,15.8-.3,23.8q-.2,0-.3-.2h0Z"/>
  <path class="st3" d="M190.1,710.8c.3-1.4.7-2.8,1.3-4.7-.2-2.4-.5-4.5-.7-6.5v-.7c.9,1.5,2.6,3.2,2.5,4.8-.2,2.4-1.8,4.7-3,7.1h-.1Z"/>
  <path class="st23" d="M706.6,719.9c1-.2,2-.6,3-.5,4.5.4,9,.9,13.5,1.4.3,0,.5.3.8.6,0,.2-.2.2-.7.2h-2.5s-.3,0-.6-.2c-1.6-.2-2.8-.2-4.1-.2,0,0-.3,0-.6-.2-1.1-.2-1.9-.2-2.8-.3-.7-.2-1.5-.3-2.7-.5h-2.6s-.3,0-.5-.2c-.2,0-.3-.3-.3-.3v.2Z"/>
  <path class="st23" d="M189.2,672.8c.2.2.1.3,0,.4-.7,0-1.5,0-2.7.2h-10.6c-.3,0-.6,0-1.1,0,.2-.3.7-.8,1.1-.8,4.3,0,8.7,0,13.2.3h.1Z"/>
  <path class="st3" d="M798.9,744.3c5.6-.7,11.4-1.3,17.5-1.9-.7.3-1.7.8-2.7.9-4.8.4-9.7.8-14.8,1Z"/>
  <path class="st3" d="M5.2,711.9c-2,4.4-2.7,8.9-.9,13.8-.7-1.6-2.2-3.4-2-5.1.3-2.9,1.7-5.7,2.9-8.7Z"/>
  <path class="st23" d="M725.9,683.9c-4.4,0-8.8,0-13.6-.2-.8,0-1.3,0-2.1,0-.3,0-.3-.3-.3-.3.9-.2,1.8-.6,2.7-.5,4.4.2,8.8.6,13.3,1.1h0Z"/>
  <path class="st23" d="M150,674.4c-2.5,0-4.9,0-7.7,0,.2-.3.8-.8,1.3-.8,4.2,0,8.4,0,12.8.3.2.2.3.2,0,.2-1.2,0-2.2.2-3.2.4h-3.3,0Z"/>
  <path class="st11" d="M492,646.9v-1.6c.3.2.8.6.8,1,0,4.8,0,9.5-.1,14.3,0,.4-.5.7-1.1,1.1,0-1.5.4-3,.4-4.5.1-3.3,0-6.7,0-10.3h0Z"/>
  <path class="st11" d="M156.6,673.8c5.4-.2,10.7-.3,16.4-.4-.6.3-1.5.8-2.4.8h-13.6c-.3,0-.3-.3-.3-.3h0Z"/>
  <path class="st23" d="M837.9,688.5c4.1,0,8.2,0,12.5.2,0,0-.4.2-1.2.2h-7.9c-.9,0-1.8,0-3.1-.2-.3,0-.3-.3-.3-.3h0Z"/>
  <path class="st23" d="M610.4,687.6c.2,5.2.2,10.5.3,16,0,.2-.3.3-.4.3,0-5.4,0-10.8.2-16.3h0Z"/>
  <path class="st3" d="M57.2,701h-.7c-2.4,0-4.5.2-6.5.3,1.3-.3,2.6-.9,4-1,2.8-.3,5.6-.3,8.6-.3-.2.3-.5.4-1.3.5-1.2,0-1.9,0-2.6,0h-.7c-.5,0-.6.3-.7.4h0Z"/>
  <path class="st5" d="M234.6,665.4c0-.9-.2-1.8-.3-3.1-.9,2-1.6,3.7-2.3,5.3,0,0-.1,0-.2.2-.1,0-.3-.2-.5-.4v-.6c.7-1.7,1.3-3.2,1.9-4.6.3-.3.7-.6,1.4-.9h.7c0,0,.2.2.5.6-.3,1.3-.7,2.5-1.2,3.6h0Z"/>
  <path class="st23" d="M789.1,686.3c0,.2-.4.2-.9.2h-9.5c-.8,0-1.2-.3-1.5-.4,3.9,0,7.8,0,11.9.2Z"/>
  <path class="st23" d="M123.1,674.6q0,.2-.5.2h-2.2c-3.4,0-6.5.3-9.7.5,0,0-.2,0-.5,0,.4-.3.9-.8,1.5-.8,3.8,0,7.5,0,11.5.2h-.1Z"/>
  <path class="st3" d="M234.6,665.5c.4-1.2.9-2.4,1.3-3.7.2,0,.7.2.6.3-.9,3.1-1.8,6.2-3,9.3,0-1.3.2-2.6.5-4.2.2-.7.2-1,.3-1.4.2,0,.3-.2.3-.4h0Z"/>
  <path class="st19" d="M673.8,670.2c.2,4.7.3,9.6.2,14.6,0,.2-.4.2-.5.2,0-4.9,0-9.8.3-14.8Z"/>
  <path class="st23" d="M764,685.5c3.7,0,7.4,0,11.2.2,0,.2-.2.2-.7.2-2.7,0-4.9,0-7.1,0-.5,0-1,0-1.8-.2-.7-.2-1.1-.3-1.5-.4h-.1Z"/>
  <path class="st3" d="M783.6,745.8c4.3-.6,8.7-1,13.5-1.5-.7.3-1.7.8-2.8.9-3.5.3-7,.5-10.7.6Z"/>
  <path class="st5" d="M737.7,702.4c-1.5,0-3.3,0-5,0-2.4-.2-4.8-.6-7.3-1.1,4,.2,8,.6,12.3,1.1Z"/>
  <path class="st23" d="M673.8,650.1c.2.2.3.5.3,1.1v12.2c-.2-.6-.7-1.4-.7-2.2,0-3.6,0-7.3.4-11.1Z"/>
  <path class="st11" d="M507.4,680.3c-.2-3.8-.3-7.7-.3-11.8s.1-.6.4-1c.2-.2.5,0,.5,0-.1,4.3-.2,8.6-.6,12.9h0Z"/>
  <path class="st23" d="M54.8,676.9c2.9-.3,5.9-.4,9.1-.2,0,.3,0,.4,0,.4-3,0-6,0-9.2-.2h0Z"/>
  <path class="st3" d="M595.9,703.7c3.1,0,6,0,9.1,0-2.9.2-6,.3-9.4.4-.2-.2,0-.3.3-.6h0Z"/>
  <path class="st3" d="M703.2,677.2c.2.5.4,1,.7,1.8.2.3.2.4.3.5,0,.3,0,.5.2,1,.3.4.3.6.4.8v.8c-1-2.6-2-5.3-2.8-8,.3.4.5.8.7,1.2,0,.2,0,.4.2.9.2.5.3.8.5,1h-.2Z"/>
  <path class="st23" d="M826.3,687.9c3,0,6.3,0,9.7.2-3.1,0-6.2,0-9.7-.2Z"/>
  <path class="st11" d="M345.9,754.8c0-3.1.3-6.3.7-9.7.3.6.8,1.4.7,2.2-.3,2.5-.7,5-1.4,7.6h0Z"/>
  <path class="st23" d="M49.8,701.4c2.2-.2,4.3-.3,6.6-.4-4,.4-8.3.8-12.8,1.1,1.4-.3,3-.5,4.8-.7h1.4Z"/>
  <path class="st23" d="M698.7,707.3c.4,2.2.7,4.6.8,7.1-.4-2.2-.7-4.6-.8-7.1Z"/>
  <path class="st11" d="M657.6,679.5c.2,1.4.2,2.8.2,4.4-2-1.2-1.3-2.8-.2-4.4Z"/>
  <path class="st23" d="M125,694.1c-2.5.4-5.2.8-8.2,1,2.5-.4,5.2-.8,8.2-1Z"/>
  <path class="st11" d="M110.9,675.4c2.9-.3,6.1-.5,9.5-.5.3.4.3.5.3.7-3.2,0-6.4,0-9.8-.3h0Z"/>
  <path class="st11" d="M657.3,669.3c.2,2.3.4,4.8.6,7.5-.2-2.3-.4-4.8-.6-7.5Z"/>
  <path class="st11" d="M176.2,673.5c3.1,0,6.5,0,10.1,0-3.1,0-6.5.2-10.1,0Z"/>
  <path class="st3" d="M233,662.2c-.4,1.4-1,2.9-1.7,4.5.4-1.4,1-2.9,1.7-4.5Z"/>
  <path class="st5" d="M902.9,690.3h-1.3c1.7-.4,3.5-.8,5.4-1-.8.4-1.6.7-2.3,1h-1.8Z"/>
  <path class="st3" d="M96.2,727.9c1.9-.4,3.9-.7,6.2-1-1.8.4-3.9.7-6.2,1Z"/>
  <path class="st3" d="M728,722c1.9.2,3.8.5,5.9.9-2.6,0-5.4-.3-8.2-.7.8-.2,1.5-.2,2.2-.2h0Z"/>
  <path class="st23" d="M769,704.8c-1.7,0-3.6,0-5.6-.3,1.7,0,3.5,0,5.6.3Z"/>
  <path class="st11" d="M422.7,658.3c.1-1.2.5-2.4,1.1-3.7-.1,1.2-.5,2.4-1.1,3.7Z"/>
  <path class="st3" d="M841.6,689c2.3-.2,4.7-.2,7.5-.2-2.2,0-4.7.2-7.5.2Z"/>
  <path class="st3" d="M614.2,684.1c-.2-.7,0-1.5,0-2.5,2.3.5,1.4,1.5,0,2.5Z"/>
  <path class="st11" d="M767.6,686.2c2-.2,4.2-.2,6.8-.2-2,0-4.3.2-6.8.2Z"/>
  <path class="st23" d="M190.2,698.5c-.7-.8-1.4-1.9-2.2-3.1.7.8,1.4,1.9,2.2,3.1Z"/>
  <path class="st3" d="M156.4,673.9c.3,0,.2.2.2.3-1,.2-2.1.2-3.2.2.8-.3,1.8-.4,3-.5Z"/>
  <path class="st3" d="M904.7,690.3c.6-.4,1.4-.7,2.4-1h.7c-.9.4-1.9.8-3.1,1h0Z"/>
  <path class="st23" d="M705.1,682.5c1.1,0,2.2.2,3.2.5-.7.2-1.2.3-1.7.3-.5-.2-1-.5-1.5-.8Z"/>
  <path class="st23" d="M748.4,703.4c-1.2,0-2.7,0-4.3-.2,1.3,0,2.7,0,4.3.2Z"/>
  <path class="st23" d="M775.8,705.3c-1,0-2.2.2-3.5.2,1,0,2.2-.2,3.5-.2Z"/>
  <path class="st23" d="M129.7,693.6c-.9.2-2.1.4-3.5.6,1-.3,2.1-.4,3.5-.6Z"/>
  <path class="st23" d="M727.9,721.9c-.7,0-1.4,0-2.3.2-.4,0-.7,0-.9-.2,1,0,2.1,0,3.3,0h0Z"/>
  <path class="st23" d="M508.3,667.3h-.7c.5-.9,1.1-1.8,1.9-2.7-.2.9-.5,1.8-1.2,2.7h0Z"/>
  <path class="st23" d="M753.8,703.8c-.8,0-1.8.2-2.9,0,.8,0,1.8-.2,2.9,0Z"/>
  <path class="st3" d="M115.3,694.9c0,.3-.2.4-.7.5-.9,0-1.4,0-1.9,0,.8-.2,1.6-.3,2.6-.4Z"/>
  <path class="st23" d="M761.7,704.3c-1,0-2.2.2-3.6,0,1,0,2.2,0,3.6,0Z"/>
  <path class="st23" d="M821.6,687.8c.6,0,1.4-.2,2.3-.2-.7.2-1.4.2-2.3.2Z"/>
  <path class="st23" d="M702.7,675.2c-.4-.3-.5-.7-.7-1.2.2-.2.4-.3.8-.6.6,0,.9,0,1.2,0h0c-.4.7-.7,1.3-1.3,1.9Z"/>
  <path class="st11" d="M763.8,685.5c.6,0,1,0,1.5.3-.9.2-1.8.2-3,.2s-.2-.2,0-.4c.3-.2.4-.2.5-.2h1.1,0Z"/>
  <path class="st3" d="M706.8,683.4c.4,0,.8-.2,1.6-.2s.8,0,1.3,0c.2,0,.3.2.3.3-1,0-2,0-3.2-.2h0Z"/>
  <path class="st11" d="M416.8,685.9c.6,0,1.3.2,2.3.3-.7,1.4-1.4.6-2.3-.3Z"/>
  <path class="st3" d="M706.9,677c-.4-.5-.7-1.2-1-2,.4.5.8,1.2,1,2Z"/>
  <path class="st3" d="M607.5,704.4c0-.2.3,0,.7,0h1.9c-.6,1.5-1.5,1-2.5,0h-.1Z"/>
  <path class="st11" d="M777.1,686.1c.5.2.8.3,1.4.4-.6,0-1.5,0-2.4-.3.2-.2.5-.2,1,0h0Z"/>
  <path class="st3" d="M716.2,721.4c1.1,0,2.3,0,3.7,0-1.1,0-2.3,0-3.7,0Z"/>
  <path class="st23" d="M134.7,693.3c-1,.2-2.3.4-3.8.4,1-.2,2.2-.4,3.8-.4Z"/>
  <path class="st3" d="M837.7,688.4c.2,0,.3.2.3.3h-2c.4-.2.9-.2,1.7-.2h0Z"/>
  <path class="st3" d="M120.9,675.7c-.2-.2-.2-.4-.3-.7.5-.2,1-.2,1.8-.2.2.2.2.4.2.7-.5,0-1,0-1.8,0h.1Z"/>
  <path class="st23" d="M112.5,695.3c.7,0,1.2,0,1.9,0-.7,0-1.7.2-2.9.2,0,0,.4-.2,1-.3Z"/>
  <path class="st3" d="M704,673.2c-.3,0-.6,0-1.1.2,0-.2.2-.4.4-.7.2,0,.4.3.7.5h0Z"/>
  <path class="st3" d="M720.8,721.8c.6,0,1.3-.2,2.2-.2-.5,0-1.3.2-2.2.2Z"/>
  <path class="st3" d="M6.5,710c0,.2,0,.5-.4.8,0-.2,0-.5.4-.8Z"/>
  <path class="st3" d="M706.4,719.8c.3,0,.3.2.4.3-.8,0-1.6,0-2.6-.3.6,0,1.3,0,2.2,0h0Z"/>
  <path class="st3" d="M734.8,723.3c.6-.2,1.3-.2,2.2-.2-.5,0-1.3.2-2.2.2Z"/>
  <path class="st3" d="M712.8,720.9c.7,0,1.5,0,2.5,0-.7,0-1.5,0-2.5,0Z"/>
  <path class="st3" d="M707.5,720.4c.6,0,1.3-.2,2.2-.2-.5,0-1.3.2-2.2.2Z"/>
  <path class="st23" d="M610,704.2c-.5,0-1,0-1.8,0,.3-.2.9-.3,1.7-.4.2,0,.2.2,0,.3h0Z"/>
  <path class="st3" d="M705.9,674.7c-.2,0-.4-.3-.8-.7.2,0,.5.3.8.7Z"/>
  <path class="st11" d="M150,674.5c.3,0,.6,0,1.1,0,0,0-.4.3-.9.4-.2,0-.2-.2-.2-.3h0Z"/>
  <path class="st23" d="M593,703.8c0,0-.2-.2-.2-.3.2,0,.5,0,.6.3h-.5.1Z"/>
  <path class="st3" d="M646.7,651.9c.2,0,.5.3.9.6-.2,0-.5-.3-.9-.6Z"/>
  <path class="st3" d="M645.4,650.6c.2,0,.5.3.8.6-.2,0-.5-.3-.8-.6Z"/>
  <path class="st3" d="M14.8,735.7c.3,0,.7,0,1.2.3-.3,0-.7,0-1.2-.3Z"/>
  <path class="st3" d="M14.6,704.8c-.1.2-.5.3-1,.5.1,0,.4-.3,1-.5Z"/>
  <path class="st3" d="M13.2,705.3c-.1.2-.4.3-1,.5.1,0,.4-.3,1-.5Z"/>
  <path class="st23" d="M700.6,716.7c.2,0,.5.3.7.7-.2,0-.4-.3-.7-.7Z"/>
  <path class="st3" d="M11.1,706.2c0,.2-.4.4-.9.6,0-.2.4-.4.9-.6Z"/>
  <path class="st3" d="M10,706.8c0,.2-.2.4-.5.7,0-.2.2-.4.5-.7Z"/>
  <path class="st23" d="M700,715.7c.2,0,.4.3.6.7-.2,0-.4-.3-.6-.7Z"/>
  <path class="st3" d="M188.7,712.8c0-.2.2-.5.5-.9,0,.2-.1.5-.5.9Z"/>
  <path class="st3" d="M593.4,704.3h.4-.4Z"/>
  <path class="st3" d="M841.9,739.4c0,0,.3-.3.8-.5,0,0-.3.3-.8.5Z"/>
  <path class="st3" d="M644.1,649.5c0,0,.4,0,.7.3,0,0-.4,0-.7-.3Z"/>
  <path class="st3" d="M976.2,658.3s-.3,0-.3-.2c0,0,.3,0,.3.2Z"/>
  <path class="st3" d="M606.8,704s.2,0,.4,0,.3.2.3.3c-.2,0-.4,0-.7-.2Z"/>
  <path class="st11" d="M491.4,666.8c.2,0,.4,0,.6.3-.2,0-.4,0-.6-.3Z"/>
  <path class="st23" d="M701.3,717.6c0,0,.3,0,.6.4,0,0-.3,0-.6-.4Z"/>
  <path class="st11" d="M64.1,677.1c0,0,0,0,0-.2,0,0,.3,0,.4,0,0,0,0,.2-.4.3Z"/>
  <path class="st3" d="M235.3,661.1h-.4.4Z"/>
  <path class="st11" d="M426.1,653.2c0,0,0-.2.4-.4,0,0,0,.2-.4.4Z"/>
  <path class="st3" d="M427.2,652.7c0,0,.2-.3.6-.5,0,0-.2.3-.6.5Z"/>
  <path class="st23" d="M794.5,580.7c0,.8-.2,1.7-.8,2.5-2.6,3.6-5.4,7.2-8.4,10.9,2.8-4.4,5.9-8.8,9.2-13.4Z"/>
  <path class="st5" d="M918.6,591.6c-1.5-1.8-3-3.7-4.5-5.8,1.5,1.8,3,3.7,4.5,5.8Z"/>
  <path class="st23" d="M799.8,572.6c-.6,1.3-1.4,2.6-2.3,4.1.6-1.3,1.4-2.6,2.3-4.1Z"/>
  <path class="st23" d="M806.5,571.1c.4,0,.6,0,1,.3-1.5-.2-3.1-.5-4.8-.9,1.1,0,2.4.3,3.9.6h-.1Z"/>
  <path class="st11" d="M675.6,607.3c1.1-.4,2.5-.7,4.1-1.2-1.1.3-2.5.8-4.1,1.2Z"/>
  <path class="st13" d="M911.2,580.6c.5.7.9,1.3,1.2,2.1,0,0-.4,0-.4,0h0c-.2-.4-.4-.6-.6-.9h0c0-.6-.2-.9-.3-1.2h0Z"/>
  <path class="st23" d="M801.1,570.9c0,.5-.4,1-1,1.6,0-.5.4-1.1,1-1.6Z"/>
  <path class="st23" d="M795.2,579.7c0,.2,0,.4-.4.8,0-.2,0-.4.4-.8Z"/>
  <path class="st23" d="M797.1,576.8c0,.2,0,.5-.3.8,0-.2,0-.5.3-.8Z"/>
  <path class="st23" d="M796.5,577.8c0,.2,0,.5-.3.8,0-.2,0-.5.3-.8Z"/>
  <path class="st23" d="M781.8,598.4c0,.2,0,.5-.4.9,0-.2,0-.5.4-.9Z"/>
  <path class="st23" d="M782.5,597.5c0,.2,0,.5-.4.8,0-.2,0-.5.4-.8Z"/>
  <path class="st23" d="M783.2,596.5c0,.2,0,.5-.4.8,0-.2,0-.4.4-.8Z"/>
  <path class="st5" d="M922.1,596.3c-.2,0-.5-.3-.7-.7.2,0,.4.3.7.7Z"/>
  <path class="st23" d="M795.8,578.7c0,.2,0,.4-.4.8,0-.2,0-.4.4-.8Z"/>
  <path class="st23" d="M783.8,595.6c0,.2,0,.5-.4.8,0-.2,0-.4.4-.8Z"/>
  <path class="st5" d="M921.4,595.4c-.2,0-.4-.3-.7-.7.2,0,.4.3.7.7Z"/>
  <path class="st23" d="M784.5,594.7c0,.2,0,.4-.4.8,0-.2,0-.4.4-.8Z"/>
  <path class="st5" d="M913.4,584.6c-.2,0-.4-.3-.7-.7.2,0,.4.3.7.7Z"/>
  <path class="st5" d="M914.1,585.5c-.2,0-.5-.3-.7-.7.2,0,.4.3.7.7Z"/>
  <path class="st5" d="M912.1,583c0-.2.2,0,.3,0s.2,0,.2,0,.2.3.2.3v.4c-.2,0-.4-.4-.7-.7h0Z"/>
  <path class="st5" d="M920,593.5c-.2,0-.4-.3-.7-.7.2,0,.4.3.7.7Z"/>
  <path class="st5" d="M920.7,594.5c-.2,0-.4-.3-.7-.7.2,0,.4.3.7.7Z"/>
  <path class="st23" d="M785.1,594.1c0,0,0,.3-.2.5,0,0,0-.3.2-.5Z"/>
  <path class="st15" d="M674.6,593.3c0,0-.3,0-.5-.4,0,0,.3,0,.5.4Z"/>
  <path class="st5" d="M919.3,592.6c0,0-.3,0-.6-.3,0,0,.3,0,.6.3Z"/>
  <path class="st13" d="M912.9,583.3c0,0-.3,0-.3-.2,0,0,.3,0,.3.2Z"/>
  <path class="st5" d="M129.4,579.3c-4,.7-8.2,1.6-12.4,2.1-4.8.6-9.6.9-14.7,1.3-.3-.3-.3-.5,0-.7,8.3-.8,16.3-1.7,24.3-2.5.8,0,1.7-.2,2.7-.2h.1Z"/>
  <path class="st5" d="M45.4,582.2c3,0,6,.2,9.1.6q0,.4,0,.5c-3.2,0-6.4,0-9.8-.2,0-.3,0-.5,0-.6.2,0,.3,0,.4-.2h.2Z"/>
  <path class="st11" d="M40.7,587.3c0,.6-.5,1.1-1.1,1.7.2-.5.5-1.1,1.1-1.7Z"/>
  <path class="st11" d="M35.8,593.3c0,.4-.4.9-.8,1.4,0-.4.3-.9.8-1.4Z"/>
  <path class="st11" d="M38.5,590c0,.4-.4.9-.8,1.4,0-.4.3-.9.8-1.4Z"/>
  <path class="st11" d="M33.2,596.5c0,.4-.4.9-.9,1.4,0-.4.3-.9.9-1.4Z"/>
  <path class="st11" d="M33.9,595.6c0,.2,0,.5-.4.8,0-.2,0-.5.4-.8Z"/>
  <path class="st11" d="M34.7,594.7c0,.2,0,.5-.4.8,0-.2,0-.5.4-.8Z"/>
  <path class="st11" d="M37.3,591.4c0,.2,0,.5-.4.8,0-.2,0-.5.4-.8Z"/>
  <path class="st11" d="M41.9,586.6h-.4c0-.2,0-.5.4-.9.2,0,.3,0,.2,0,0,.3-.2.5-.3.7h0Z"/>
  <path class="st11" d="M42.1,585.7c0-.3.2-.6.5-.9.2,0,.4,0,.3.2-.3.3-.5.5-.7.7h0Z"/>
  <path class="st11" d="M43.3,584.3c0-.3.2-.5.6-.8q.2,0,.2,0c0,.3-.2.5-.3.7,0,0,0,0,0,0h-.5Z"/>
  <path class="st11" d="M36.6,592.4c0,.2,0,.5-.4.8,0-.2,0-.5.4-.8Z"/>
  <path class="st11" d="M44.7,582.5c0,0,0,.3,0,.6,0,0,0,.2,0,.2s-.4,0-.4,0h0c.2-.3.3-.6.7-.9h-.1Z"/>
  <path class="st11" d="M39.3,589.1c0,.2,0,.5-.4.8,0-.2,0-.5.4-.8Z"/>
  <path class="st15" d="M174.5,613.8c-.2,0-.4,0-.8-.2.2,0,.4,0,.8.2Z"/>
  <path class="st11" d="M32.1,598c0,0,0,.2,0,.3-.2,0-.2,0-.3-.2h.4-.1Z"/>
  <path class="st11" d="M42.8,584.8c0-.2,0-.3.4-.5h.2c0,.3-.3.4-.4.5,0,0,0,0-.2,0h0Z"/>
  <path class="st11" d="M41.3,586.7c0,0,0,.3-.3.5,0,0,0-.3.3-.5Z"/>
  <path class="st4" d="M155.7,634.6c-3.4-6.1-6.5-12.1-9.9-18.1-.4-.8-1.5-1.4-2.2-2-.7.8-1.6,1.5-1.9,2.3-7.2,18.9-18.4,36.8-30.4,54.4-.9,1.3-2,1.8-4,1.9-8.4.2-16.8.5-25.2.8-7,.3-13.9.5-21.2.8,30.3-30,57.3-61.2,80.9-94.4,25.2,31.4,51.9,61.7,85.8,89.2-4.2.2-7.5.5-10.8.6-9.8.2-19.5.5-29.3.6-1.2,0-3-.4-3.6-1.1-10.5-11.1-20.4-22.5-28.2-34.9h0Z"/>
  <path class="st14" d="M182.6,427c12.9-1.8,24.5.7,35.5,5.2,11.7,4.8,24.2,8,37.7,9.1.4,0,.9.1,1.7.2-.5.5-.7,1-1.2,1.3-10.9,7.4-23.4,12.6-38.7,13.8-3.5.3-7.1.3-10.6.2-8.4-.3-16.6.6-24.9,2.7-.6-.5-.9-.8-.9-1.2v-29c0-.8.8-1.5,1.2-2.3h.2Z"/>
  <path class="st6" d="M159.8,645.9c6.9,8.3,13.7,16.5,20.6,24.8-.4,0-.8.3-1.3.3-8.2.2-16.4.3-24.6.5-2.3,0-4.6.4-6.9.4s-2.2-.9-2.2-1.4v-44.7c0,0,.2-.3.5-.7,4.7,7,9.2,13.8,13.9,20.7h0Z"/>
  <path class="st6" d="M142,647.6v22.2c0,1.3-.2,2.1-2.6,2.2-7.7.2-15.4.6-23.2.9-.4,0-.8,0-1.5-.2,9.1-15.6,18.1-31.1,27.3-46.8v21.7h0Z"/>
  <path class="st16" d="M182.4,427.1c-.1.7-1,1.5-1,2.2v29c0,.4.3.7.7,1.2-.3.3-.9.4-1.7.3-.2-7.2-.2-14.2-.2-21.2s.1-7.6.2-11.4c.6,0,1.2,0,2-.2h0Z"/>
  <path class="st5" d="M180.1,427.3c.2,3.7,0,7.5,0,11.3v21.2c-.3-.4-.8-1.1-.8-1.7v-29.2c0-.5.3-1,.8-1.6h0Z"/>
  <path class="st23" d="M79.8,676c-4,.3-8.3.5-12.8.6.2-.3.8-.8,1.4-.8,3.8,0,7.5,0,11.5.2h0Z"/>
  <path class="st23" d="M207.8,672.3c-4.9.3-10,.5-15.5.6.3-.3.8-.8,1.4-.8,4.6,0,9.3,0,14.1.2Z"/>
  <path class="st23" d="M140.4,674.1c-4.5.3-9.1.5-14.1.6.3-.3.8-.8,1.4-.8,4.2,0,8.4,0,12.8.2h-.1Z"/>
  <path class="st23" d="M80.2,583.1c4.5-.3,9.2-.4,14.1-.6-.3.3-.8.8-1.4.8-4.2,0-8.4,0-12.8-.2h.1Z"/>
  <path class="st23" d="M215.9,671.9c-1.6.3-3.4.4-5.5.5,1.6-.2,3.5-.4,5.5-.5Z"/>
  <path class="st23" d="M55,583.3c-.3,0-.3-.2-.3-.4,3.6,0,7.1,0,11,0-3.3.2-6.8.3-10.7.4Z"/>
  <path class="st23" d="M97.2,582.4c1.5-.2,2.9-.3,4.5-.4.3.2.3.4.3.7-1.6,0-3.3,0-5.1,0q0-.2.3-.2Z"/>
  <path class="st5" d="M42.9,585.1c.2-.3.3-.4.5-.6,0,0,.3-.2.4-.2-.4.8-.9,1.6-1.6,2.4-.2-.2,0-.3,0-.7.3-.3.5-.5.8-.9h-.1Z"/>
  <path class="st5" d="M234.1,666c.1.3,0,.6-.1,1.1,0-.3,0-.7.1-1.1Z"/>
  <path class="st5" d="M44.1,583.6c0,0,.3-.2.4-.3,0,.2,0,.5-.4.9,0,0,0-.3,0-.6h0Z"/>
  <path class="st23" d="M159,673.2h0Z"/>
  <path class="st5" d="M383.7,598.8c0,.8-.5,1.7-.2,2.5s1.1,1.4,1.8,2.3c-4.6-2.3-5.8-6.6-2.8-10.8.4.8.6,1.7,1.1,2.9.2,1.2.1,2.2,0,3.1h.1Z"/>
  <path class="st13" d="M386.8,604.5c2.9,0,5.9-.2,8.8,0,1.3,0,2.4.6,3.7,1.2-2.7,0-5.4,0-8.1-.3-1.5,0-2.9-.4-4.5-.8h.1Z"/>
  <path class="st13" d="M385.5,604.1c.3,0,.7,0,1.2.2-.3,0-.7,0-1.2-.2Z"/>
  <path class="st13" d="M399.4,606c.2,0,.4.3.7.7-.2,0-.4-.3-.7-.7Z"/>
  <path class="st15" d="M399.9,590c-.1,0-.5.3-1,.4.1,0,.5-.3,1-.4Z"/>
  <path class="st13" d="M400.1,606.9c.1,0,.4,0,.8.3-.1,0-.4,0-.8-.3Z"/>
  <path class="st15" d="M400.8,589.5c0,0-.2.3-.6.5,0,0,.2-.3.6-.5Z"/>
  <path class="st5" d="M383.8,591.8s0,.2-.4.4c0,0,0-.2.4-.4Z"/>
  <path class="st5" d="M384.5,591.3s-.1.2-.4.4c0,0,.1-.2.4-.4Z"/>
  <path class="st3" d="M506.7,606.7c.3-.2.7-.5,1.4-.8,4-.2,7.6-.5,11.1-.5,9,0,18,.4,27,.4h43.2c.2,0,.4,0,.6.4-.1,1.5-.3,2.7-.5,4,0,0,0,0-.3,0-1.2.6-2.3,1.3-3.3,1.9h-.3c-.4.2-.6.4-.9.6h-.3c-2.1.4-4.8,0-4.3,2.4h-.4c-.6.2-1,.5-1.3.8h-.3c-.4.2-.6.4-.8.6h-.3c-.6.2-.9.5-1.3.8h-.3c-1,.5-3.5,0-2.7,1.6h-.4c-.4,0-.5.2-.5.4h-.3c-.7.3-1.1.7-1.5,1h-.4c-.6.2-1,.5-1.3.8h-.3c-2.5.9-6.1.7-6.3,3.4h-.3c-.7.3-1.1.7-1.5,1h-.4c-1.9-.2-3,0-2.4,1.4h-2c.1.2.3.5.4.7-10.8,5.6-21.8,11.1-32.5,16.7-1.5.8-2.7.8-4.2,0-3.3-1.6-6.8-3.1-10.3-4.9-.6-.4-1.1-.5-1.5-.6v-32h.1Z"/>
  <path class="st1" d="M501.3,592.2h7.3c19.6,0,39.3-.3,58.9-.4h18.7c2.1,0,3.5.3,4.6,1.7,1.1,1.3,2.6,2.5,4.3,4-2.4,1.7-4.9,3.5-7.7,5.1-.5,0-.6,0-.8-.3-.8-.3-1.5-.6-2.2-.6h-75.3c-.8,0-1.6.5-2.7.8-3.7,0-7,0-10.4,0h-78.2c-5-3.8-5.5-3.1-.5-7,1.3-1,2.4-2,4.1-3.2,26.9,0,53.4-.2,79.8-.2M479.9,596h-3.3v1c9.6-.3,19.2,1.1,28.9.3v-.9c-8.3,0-16.7-.2-25.7-.4M558.6,596.4c.6.3,1.2.9,1.8,1,2.3,0,4.6,0,6.9,0,4.1-.2,8.1-.4,12.2-.6v-.6c-6.8,0-13.6,0-20.9.2M549.3,600.2c.6,0,1.2-.2,1.7-.3-5.2-1.6-10.3-1-15.5-1v1.3h13.8M445.5,596.4c-4.6-.7-9.2-.6-13.7.5,4.7.3,9.5.3,14.2.3,0,0,0-.5-.5-.8M456.3,598.8c-.2.2-.4.5-.5.7h13.1v-.7h-12.6M523,596.9h-5.3v.6h11v-.6h-5.8,0Z"/>
  <path class="st1" d="M460.7,627.8c-13.1-6.1-25.9-12.1-38.8-18.1-.8-.4-1.7-.9-2.2-1.4-1.7-2-.1-4,3.1-3.8,2.7.2,5.7.7,8,1.8,18.3,8.2,36.4,16.7,54.8,24.9,34,15.1,68.2,30.1,102.4,45.2.6.2,1.1.5,1.1.5,0,1.7-.3,3.2,0,4.5s1.3,2.5,2.4,4.4c-2.1-.6-3.5-.9-4.8-1.4-36.6-15.9-73.3-31.5-108.7-48.6-5.7-2.7-11.5-5.3-17.5-8M503.5,642.5c-3.3-1.5-6.6-3.1-9.9-4.6l-.9,1c4.3,2.1,8.7,4.1,13,6.2.4-.3.8-.7,1.2-1-1-.5-2-.9-3.4-1.5M469.4,629.1c2.7,1,5.3,2,8,3.1.2-.3.4-.6.7-.9-4.2-1.8-8.4-3.6-12.6-5.4l-.8.8c1.4.7,2.9,1.5,4.7,2.4M563.4,670.8c2,.8,4,1.7,6.1,2.5.2-.2.4-.4.5-.6-3.5-2.8-8.5-4.2-12.7-6.3l-.6.5c2.1,1.2,4.2,2.4,6.7,3.8M441,616c.2-.2.6-.7.6-.7-3.8-2.1-7.6-4.2-11.5-6.3-.3.3-.7.6-1,.9,3.8,2,7.7,3.9,11.9,6M443,616.5h0Z"/>
  <path class="st7" d="M592.7,675.7c-.6,0-1.3-.2-1.8-.4-18.1-8-36.2-16-54.7-24.2,3.7-2,7.2-3.9,11.1-5.7,3,0,5.6-.2,8.2-.2,11.9.3,23.9.6,36,.9h1v29.5h.2Z"/>
  <path class="st1" d="M604,604.5c1,.7,2.1,1.4,3,2.4-.2.7-.3,1-.3,1.4v71.3c-.2.2-.4.4-.6.5-5.7,3.6-5.4,3.6-9.5-1.5v-73.8h.3c2.5,0,4.8-.3,7-.4M601.4,641.9v19h1.3v-22.3h-.5c-.3,1-.5,2-.8,3.4M602.7,629.3c0,.4.3.8.4,1.2h.4v-11.9h-.8v10.9M604,670.8c0-.9-.2-1.8-.2-2.8h-.8v5.4h.8c0-.8,0-1.6.2-2.8v.2Z"/>
  <path class="st21" d="M636.3,627.2c11.8,12.2,24.4,23.9,35.6,36.2-5.6,2.3-8.8,1.6-11.9-1.7-10.7-11.2-21.5-22.3-32.4-33.4-4.8-4.9-9.7-9.7-14.9-14.4-2.5-2.3-1.2-4.6-1.3-6.9,0-.4,1.4-1.1,2.2-1.1s2,.5,2.6,1l20.2,20.2h0Z"/>
  <path class="st21" d="M591.2,612.5c.6,0,1.2,0,1.3.3,1.3,2.9,0,5.9-3.5,7.7-17.7,9.3-35.4,18.5-53,27.8-2.1,1.1-3.9,1.5-6.1.2-1.3-.8-3-1.3-4.9-2.2,22.2-11.3,44.1-22.5,66.3-33.8M537.6,643.7c3.1-1.6,6.1-3.1,9.2-4.7-.3-.3-.6-.5-.9-.8-2.6,1.3-5.3,2.6-7.9,4-.5.3-.6,1-.4,1.5h0Z"/>
  <path class="st21" d="M405.3,620.4v-6.6c0-1.9-.2-3.8.2-5.6.3-1.2,1.3-2.5,2.5-3.4.3-.3,2.4.6,3.7.9,1,.2,2.1.4,3.4.8.3,14.8.3,29.5.3,44-1.9.3-3.2.5-4.6.7-1.8-.7-3.6-1.3-5.4-2.3,0-9.8,0-19.1-.1-28.5M410.7,615.8c-.4,5.8-1.1,11.6-.9,17.4h1.3c.3-6.3.7-12.6,1-18.9h-.6c-.3.4-.5.8-.9,1.6h.1Z"/>
  <path class="st1" d="M669.1,656.6c-2.5-2.4-5-4.9-7.4-7.6.2-14.1.2-28,.3-41.8.8-.3,1.5-.5,2.7-.6,1.8.2,3.3.3,4.7.3s.4,0,.6.5v46.4c0,.9-.6,1.9-.9,2.8M667.3,622.5v-7.8h-.9v12h.9v-4.1h0Z"/>
  <path class="st3" d="M485.3,606.3c-6.9,3.8-13.7,7.7-20.7,11.4-.7.4-2.5.2-3.4-.2-8.2-3.6-16.2-7.3-24.4-11.3.8-.5,1.7-.8,2.6-.8h43c1.1,0,2.3.4,3.4.6h-.8c0,0,.1.2.2.3h0Z"/>
  <path class="st21" d="M441.2,641.4c-6,3.5-11.9,7-18,10.6-1-1.5-4.8-1.3-3.7-3.7.5-1.2,1.1-2.6,2.4-3.3,9.1-5.2,18.4-10.2,27.4-15.5,3-1.8,5.4-2.4,8.4-.3.8.5,1.8.8,3,1.3-6.6,3.7-12.9,7.3-19.5,11h0Z"/>
  <path class="st21" d="M630.7,595c8.2.3,16,.6,23.9,1,1.1,0,2.2.8,3.1,1.4,1.1.8,1.9,1.9,3,2.9-2.6,2.5-5.4,4.2-10.4,3.8-9.1-.8-18.3-1.2-27.4-1.8-.3,0-.6,0-.8-.2.3-2.4.6-4.8.9-7.4,2.5,0,5,.2,7.8.4M642,600.5c2.3,0,4.6.2,6.9.2v-.9c-5.6-.2-11.2-.4-16.8-.6v.9c3.1,0,6.2.2,9.9.4h0Z"/>
  <path class="st21" d="M485.7,616.9c-4,2.1-7.8,4.1-11.8,6.3-2.5-1.1-5-2.3-7.9-3.6,2.3-1.3,4.3-2.4,6.3-3.4,6.1-3.3,12.3-6.4,18.2-9.8,2.5-1.5,5-2.1,8.2-1.9,2.3,0,4.6,0,6.9,0,.2.2.4.5.6.7-6.8,3.9-13.5,7.8-20.5,11.7h0Z"/>
  <path class="st21" d="M504.7,636.8c-2.7-1.1-5.4-2.1-7.9-3.3-.6-.3-.8-1.2-.8-1.8v-16.1c0-.8.8-1.8,1.6-2.3,2.2-1.4,4.6-2.6,6.9-3.5v27.1h.2Z"/>
  <path class="st21" d="M595.9,576.4c0-3.9,4.7-5.9,9.4-3.9,1,.4,2,1.6,2,2.4.2,3.7,0,7.5,0,11.2s-3.7,4.1-6.7,3.9c-1,0-2.1.2-3,0-.8-.3-1.8-1-1.8-1.6,0-3.9,0-7.8,0-11.9h0Z"/>
  <path class="st21" d="M413.7,572.6c1.1.5,2,1.1,3,1.7v12.5c0,2.6-1.4,3.5-4.9,3.6-6.4,0-6.7-.2-6.1-4.9.4-3.2.2-6.5.2-9.8s.9-3.7,5.6-3.3c.7,0,1.3,0,2.2,0M411.9,578c0-.5-.2-.9-.3-1.4h-.9c-.3,2.2-.6,4.4-.9,6.6h.9c.4-1.6.7-3.3,1.2-5.3h0Z"/>
  <path class="st21" d="M383.8,599v-3.2c1.3-3,4.1-3.4,8-3.6,5.6-.3,9.1.7,11,4.8,1.4,3.2-.2,5.6-5,5.6s-5.7-.2-8.6-.3c-3,0-4.7-1.2-5.4-3.3M401.6,598c-2.9-1.1-5.7-.6-8.5-.2v1c2.7-.2,5.4-.4,8.4-.8h.1Z"/>
  <path class="st1" d="M649.4,609.7c1.9-1.1,3.5-2.2,5.4-3,.6-.3,2.6,0,2.6,0,0,1.8.9,4.3-.4,5.2-6.3,4.1-13.2,7.8-20.1,11.8-1.6-1.6-2.9-2.9-4.6-4.5,5.7-3.2,11.3-6.3,17.1-9.5Z"/>
  <path class="st21" d="M661.3,589.9c0-3,0-5.8,0-8.6,0-2,1-2.9,3.7-3,3.4,0,6.3,1,6.3,2.7,0,3.8,0,7.6,0,11.4s-.2,1-.4,1c-2.7,0-5.5.3-8.1,0-.6,0-1-1.6-1.4-2.5,0-.3,0-.6,0-1.2v.2Z"/>
  <path class="st3" d="M493.4,631.2c-.4,0-1,.5-1.2.4-5-2.3-10-4.6-15.2-7,5.5-2.9,10.7-5.7,16.3-8.6v15.2h.1Z"/>
  <path class="st21" d="M610.5,602.2l-.5-.5c-2.9-2.7-2.9-5.4.2-8.1,2.5-2.1,6.7-1.7,8.6.8,1.7,2.2,1,6-1.4,7.9s-4.3,1.9-6.9,0h0Z"/>
  <path class="st12" d="M496.3,647.4c6.4,1.7,9.8,4.6,8.4,9.6-.4,1.6,0,3.2,0,5-3-.3-5.7-.7-8.6-1,0-4.6,0-9.1.2-13.6Z"/>
  <path class="st3" d="M589.4,605.7c-14,.2-28.1.2-42.2.2s-17.6-.3-26.4-.4c-3.5,0-6.9.3-10.7.4.7-.5,1.7-.9,3.3-1.4h75.1c.2.3.5.7.7,1.2h.2Z"/>
  <path class="st21" d="M615.6,636.5c-1.5.8-2.9,1.4-4.2,2.1-1.7-4.3-.9-6,3.9-8.3,2.3-1.1,4.6-2.2,7.1-3.4,1.3,1.3,2.5,2.6,3.8,3.9-3.6,1.9-7,3.8-10.6,5.7Z"/>
  <path class="st12" d="M603.1,596.8c-3.6,2.8-7.1,5.5-10.6,8.2-.4,0-.8-.2-1.2-.3,0-.8-.2-1.9.4-2.4,4.9-4.2,9.9-8.4,15-12.5.7-.5,2.4-.4,3.7-.6-.4.8-.5,1.7-1.1,2.4-1.9,1.7-4,3.3-6.1,5.1h-.1Z"/>
  <path class="st16" d="M669.2,656.7c.2-1.1.8-2,.8-3v-46.3c.4.2.9.6,1.3,1.3,0,14.9,0,29.4-.2,43.9,0,1.8-.7,3.6-1.1,5.4-.3-.4-.5-.8-.9-1.4h.1Z"/>
  <path class="st2" d="M496.2,602.8c3.1-.2,6.5-.2,10.5-.2,17.6,0,34.7-.2,51.7-.3,9.4,0,18.8,0,28.2.2,0,0,.2,0,.5,0-.7.2-1.5.4-2.3.4h-87.1c-.4,0-.9,0-1.5-.3h0Z"/>
  <path class="st16" d="M411,651.3c1.1-.3,2.4-.5,4.3-.8v-44c.1-.3.2-.3.5-.3.3.4.5.7.7,1.2,0,14.6.1,29,.2,43.4-1.8.2-3.6.3-5.6.4h-.1Z"/>
  <path class="st5" d="M501.1,592.1c-26.2.2-52.7.2-79.5.2.2-.2.7-.3,1.5-.5,1.5-.2,2.7-.4,4.4-.8,4.2.2,8,.5,12,.8h2.7c4.3-.3,8.3-.6,12.5-.8,2.8,1,5.4,1.2,8.1,0,1.2,0,2.1,0,3.2,0,2.7.4,5.3.6,8.2.8h17.6c3,0,5.9,0,9.1.3h.2Z"/>
  <path class="st12" d="M598.4,688.7c-2.5.2-5.3,1.6-6.5-1.4,6.2-.8,11.4-2.8,15.9-5.9.5-.3,2.5,0,2.7,0,.4.6.5,1.9,0,2.2-2.6,1.5-5.3,2.7-8.1,3.9-1.1.5-2.5.6-4,1h0Z"/>
  <path class="st12" d="M517.5,656.8c.4.4.8.9.7.9-3.4,1.7-6.8,3.4-10.9,5.4,0-2.4-.2-4.1,0-5.7.3-2,3.7-3.1,6.2-2.2,1.3.5,2.5,1,3.9,1.6h0Z"/>
  <path class="st5" d="M661.1,646.2c-.4-.6-1-1.2-1-1.7v-35.6c0-.5.4-1,.9-1.3.2,1.6.2,3,.2,4.4v34.3h-.1Z"/>
  <path class="st13" d="M486,606c-1.3-.2-2.4-.6-3.6-.6h-43c-.9,0-1.8.3-2.7.7-1.2-.3-2.3-.8-3.1-1.5,1.4,0,2.5,0,3.6,0,16.7,0,33.3,0,50,.3v.6c-.4.2-.8.4-1.3.6h.1Z"/>
  <path class="st3" d="M611.2,616.2c3.1,3,6.3,6,9.6,9.2-2.3,1.2-4.5,2.2-7,3.4-.5.1-.6.2-.9.4h-.2c-.9-.1-2.2-.2-2.2-.4.1-4.1.5-8.3.7-12.4h0Z"/>
  <path class="st12" d="M662.8,595.9c2.5,2,4.9,3.8,7.3,5.6,1,.7,2.2,1.4,2.9,2.2.5.6.4,1.5.6,2.2-1,0-2,0-2.9-.4-.7-.2-1.2-.7-1.7-1.1-3-2.4-6-4.8-8.7-7.3-.7-.7-.6-1.8-.9-2.8,1.1.5,2.2.9,3.5,1.5h0Z"/>
  <path class="st16" d="M596.4,605c.2,24.3.2,48.8.2,73.5-.2-.4-.6-1.1-.6-1.7v-70.5c0-.4.2-.8.5-1.3h-.1Z"/>
  <path class="st12" d="M672.3,600.5c1.3-1.8,2.1-4,6-3.4,2.9.4,3.9,2.2,3.4,3.7-.5,1.3-2.6,2.4-4.1,3.5,0,0-1.2-.4-1.7-.8-1.2-.9-2.3-1.9-3.5-3h-.1Z"/>
  <path class="st16" d="M606.9,679.5c-.2-23.6-.2-47.4-.2-71.2s0-.8.4-1.3c.2,7.3.3,14.7.3,22.1v47.9c0,.8-.2,1.5-.4,2.5h0Z"/>
  <path class="st12" d="M401.4,591c.2-.2.3-.3.6-.5,1,.4,2.2.8,2.8,1.5,3.1,3.4,6.1,6.8,9.1,10.2.5.6.6,1.4.9,2.1-1.1-.3-2.8-.4-3.3-.9-3.5-4-6.8-8.1-10.1-12.4h0Z"/>
  <path class="st12" d="M672,665.9c1.3.3,2.3.5,3.3.8-.8.5-1.6,1.4-2.5,1.5-3.8.5-7.6.8-11.4.9-.9,0-1.8-1.1-2.7-1.8.9-.3,1.8-.8,2.8-.9,3.4-.3,6.8-.4,10.5-.5h0Z"/>
  <path class="st12" d="M500.2,666.8c-2.3-.4-4.4-.6-6.3-1.1-.8-.2-1.2-1.1-1.8-1.7.9-.3,1.9-.9,2.7-.8,3.5.3,7,.7,10.4,1.2.7,0,1.4.6,2.1.9-.7.5-1.3,1.4-2.2,1.5-1.5.3-3.1,0-4.9,0h0Z"/>
  <path class="st2" d="M418.1,602.7c18.7,0,37.6,0,56.8,0-.5.2-1.3.4-2.2.4h-52.5c-.6,0-1.3,0-2.1-.4h0Z"/>
  <path class="st5" d="M670.3,658.1c.2-1.9.8-3.7.9-5.4,0-14.5,0-29,.2-43.8.2.4.6.9.6,1.5v46c0,.6-1,1.2-1.7,1.7Z"/>
  <path class="st12" d="M416.2,655.9c1.5-.4,2.7-.7,3.9-1,.3.2.6.4.9.6-.6.6-1,1.7-1.8,1.8-5,.8-10.1,1.1-14.9-.6-.8-.3-1.2-1.1-1.8-1.6.9,0,1.9,0,2.8,0,3.6.3,7.2.6,11,.8h-.1Z"/>
  <path class="st23" d="M419.6,659.8c.3,8.2.3,16.5.3,25-.4-.3-1.1-.7-1.1-1.2v-22.8c0-.3.4-.7.9-1h0Z"/>
  <path class="st12" d="M415.5,653.1c1.1-.3,1.9-.6,2.8-.7.7,0,1.5,0,2.2,0-.3.4-.5,1-1.1,1.3-3.7,1.8-14.1.8-17.1-1.7-.2-.2-.2-.6-.3-.7,4.4.6,8.8,1.2,13.4,1.7h.1Z"/>
  <path class="st5" d="M416.9,650.7c-.2-14.2-.3-28.6-.3-43.4.1-.6.2-.8.2-1,.2.6.5,1.2.5,1.8v41.1c0,.5-.2.9-.5,1.5h0Z"/>
  <path class="st16" d="M661.1,646.4v-38.9c0-.2.3-.3.6-.3,0,13.8,0,27.6,0,41.6-.3-.6-.3-1.4-.5-2.4h0Z"/>
  <path class="st19" d="M402.8,648.4c-.2-13.3-.2-26.8-.2-40.5v-.6c.2.6.6,1.1.6,1.7v38.2c0,.4-.2.8-.5,1.2h.1Z"/>
  <path class="st19" d="M588.5,604.4c-6.9.2-13.9.2-21,.2-11.4,0-22.8,0-34.4,0,.5-.2,1.4-.4,2.2-.4h51.5c.5,0,1.1,0,1.8.3h0Z"/>
  <path class="st18" d="M492,591.6c-3.8.2-7.6.2-11.7,0,0-.6.1-1.1.7-1.6,3.8-.2,7.3-.3,10.7-.5,1,0,1.9.3,3.1.4h.5v.4c-1.1.5-2.2.8-3.3,1.3h0Z"/>
  <path class="st19" d="M487.3,604.6c-16.7,0-33.3,0-50,0h-3.6c.5-.2,1.3-.4,2.2-.4h50.5c.4,0,.9,0,1.3.3-.1.2-.2.2-.3.3h-.1Z"/>
  <path class="st19" d="M610.4,642.1c.2,11.9.2,23.9.2,36.2-.2-.3-.6-.8-.6-1.3v-33.8c0-.3,0-.6.4-1.1h0Z"/>
  <path class="st12" d="M419,590.5c.2,0,.2.2.3.3-2.4,2.3-4.8,4.5-7.7,7.2-.5-1.3-1.3-2.3-1-2.5,2.4-1.9,3.9-4.6,8.4-5h0Z"/>
  <path class="st21" d="M592,682.2c-.3-1.1-.5-2-.7-3,.4-.2.9-.3,1.3-.5,1.9,1.6,3.8,3.2,5.8,4.9-3.7,1.6-4,1.5-6.4-1.4h0Z"/>
  <path class="st19" d="M419.5,612v30.7c-.3,0-.7-.4-.7-.8,0-10,0-20.1.3-30.1.3,0,.3,0,.4.2h0Z"/>
  <path class="st5" d="M405.1,620.6c.2,9.2.2,18.6.2,28.2-.2,0-.6-.3-.6-.6,0-9.2.1-18.3.3-27.6h.1Z"/>
  <path class="st23" d="M507.1,610.2c.2,8.9.2,18,.2,27.3-.2,0-.6-.3-.6-.6,0-8.8.1-17.7.4-26.7Z"/>
  <path class="st5" d="M504.9,636.7c-.2-8.8-.2-17.7-.2-26.8.2.3.6.8.6,1.3v24.5c0,.3-.2.6-.5,1h.1Z"/>
  <path class="st24" d="M593.1,593.2c-.6-1-1-1.9-1.6-3,4.5.9,6.8,3.5,4.4,6.1-1-1.1-1.8-2-2.8-3h0Z"/>
  <path class="st12" d="M606.3,601.5c1.1,1.5,3.7,2.2,3.3,4.4-4.3-1.9-7-4.9-5.9-6.7.9.8,1.7,1.5,2.6,2.3h0Z"/>
  <path class="st12" d="M659.8,605.5c-2.5-2.4,1.2-2.6,2.4-4.2.8.9,1.9,1.9,1.7,2.1-1.2.9-2.6,1.5-4.1,2.2h0Z"/>
  <path class="st23" d="M592.9,675.6c-.2-6.1-.2-12.4-.2-18.8.2,0,.5.2.5.4,0,6.1,0,12.2-.4,18.5h.1Z"/>
  <path class="st12" d="M405.2,603.8c-.9.7-1.6,1.3-2.3,1.9-2-1.3-1.7-1.8,3.8-4.3-.5.8-.9,1.5-1.5,2.4h0Z"/>
  <path class="st19" d="M610.9,617.1c0,3.9,0,7.9-.2,12-.2-2.2-.5-4.5-.6-6.9,0-1.9,0-3.8.4-5.7.3.2.4.4.4.7h0Z"/>
  <path class="st3" d="M589.8,610.2c0-1.2,0-2.4.3-3.8.8.2,2.1.5,2.4,1.1.8,1.5-1.2,2-2.7,2.8h0Z"/>
  <path class="st12" d="M673.4,595.3c-.7,1.7-1.9,2.7-4.8,3.1,1.2-1.8,2.2-3.1,4.8-3.1Z"/>
  <path class="st19" d="M529.1,604.3c-4.9,0-10,.2-15.4,0,4.9,0,10-.2,15.4,0Z"/>
  <path class="st15" d="M578.3,589.5c2-.2,4.4-.3,6.7-.5,2.2,0,4.5-.3,7-.6,0,.2,0,.6-.5,1.1h-13.3,0Z"/>
  <path class="st3" d="M562.5,624.3c0-2.6,3.6-2.4,6.1-3.3-1.8,1.1-3.8,2.2-6.1,3.3Z"/>
  <path class="st3" d="M580.7,614.9c-.7-2.2,1.9-1.9,4-2.3-1.1.8-2.4,1.5-4,2.3Z"/>
  <path class="st5" d="M405.1,614c.2,1.6.2,3.3.2,5.2-.1-1.5-.3-3.3-.2-5.2Z"/>
  <path class="st16" d="M603.7,604.5c-1.9.2-4.2.3-6.7.5,1.9-.2,4.2-.3,6.7-.5Z"/>
  <path class="st3" d="M586.3,612c.8-.6,1.7-1.2,3-1.8-.7.6-1.7,1.2-3,1.8Z"/>
  <path class="st3" d="M557.9,626.6c-.7-1.2.2-1.6,2.1-1.3-.5.5-1.2.9-2.1,1.3Z"/>
  <path class="st3" d="M573.4,618.7c-1-1.6,1.4-1,2.5-1.5-.6.5-1.4,1-2.5,1.5Z"/>
  <path class="st5" d="M508.4,592.1c-1.4,0-2.9,0-4.8,0,1.3,0,2.9-.2,4.8,0Z"/>
  <path class="st16" d="M669.2,606.7c-1.3,0-2.7,0-4.3-.2,1.2,0,2.7,0,4.3.2Z"/>
  <path class="st3" d="M556.3,627.4c-.3-.2-.5-.4-.6-.7.5,0,.9,0,1.6,0,0,.3-.5.5-1,.7Z"/>
  <path class="st23" d="M592.9,692.9c-.3-.7-.4-1.5-.5-2.5.2.6.4,1.5.5,2.5Z"/>
  <path class="st3" d="M570.7,620.1c.2-.3.6-.6,1.3-.9-.2.3-.7.6-1.3.9Z"/>
  <path class="st3" d="M560.6,625.2c.2-.3.6-.6,1.3-.9-.2.3-.7.6-1.3.9Z"/>
  <path class="st3" d="M569,620.9c.2-.3.5-.5,1.1-.7-.2.3-.5.5-1.1.7Z"/>
  <path class="st3" d="M576.3,617.2c.2-.3.5-.5,1.1-.8-.2.3-.5.5-1.1.8Z"/>
  <path class="st3" d="M579,615.8c.2-.3.5-.5,1.1-.7-.2.3-.5.5-1.1.7Z"/>
  <path class="st13" d="M618.8,604.8c.3.2.3.5.4,1-.2-.2-.4-.6-.4-1Z"/>
  <path class="st10" d="M416.8,606.3c0,.3,0,.5-.2.9-.2-.2-.4-.5-.5-.9.2,0,.4,0,.7,0Z"/>
  <path class="st7" d="M487.3,604.8c.1-.2.2-.2.5-.3.1.3,0,.6-.3.9-.2,0-.2-.3-.2-.6h0Z"/>
  <path class="st11" d="M508.7,638.9c.3,0,.7,0,1.2.4-.3,0-.7,0-1.2-.4Z"/>
  <path class="st3" d="M585.2,612.6c0-.2.3-.4.7-.6,0,.2-.3.3-.7.6Z"/>
  <path class="st3" d="M577.9,616.4c0-.2.3-.4.7-.6,0,.2-.3.3-.7.6Z"/>
  <path class="st23" d="M507.9,606.9s-.1.2-.4.4c0,0,.1-.2.4-.4Z"/>
  <path class="st3" d="M572.4,619.2c0,0,0-.3.3-.4,0,.2,0,.3-.3.4Z"/>
  <path class="st11" d="M589.8,623.2s0,.2-.4.4c0,0,0-.2.4-.4Z"/>
  <path class="st7" d="M402.5,607.3c.2,0,.2.2,0,.4-.3,0-.4,0-.5-.2,0,0,.3,0,.5,0h0Z"/>
  <path class="st16" d="M419.6,611.9q-.2,0-.3-.3c.1-.2.2-.2.6-.2,0,.2,0,.3-.2.5h-.1Z"/>
  <path class="st11" d="M589.1,623.6s0,.2-.3.2c0,0,0-.2.3-.2Z"/>
  <path class="st23" d="M493.5,631.1c-.1,0-.2-.2-.2-.3.1,0,.2,0,.2.3Z"/>
  <path class="st13" d="M614.2,628s0-.2.3-.2c0,0-.2.2-.3.2Z"/>
  <path class="st2" d="M485.4,602.7h.4c.2,0,0,.2,0,.2h-.3v-.2Z"/>
  <path class="st13" d="M485.4,606.3c-.2,0-.3-.2-.3-.3h.4c.1,0,0,.2,0,.2h-.1Z"/>
  <path class="st13" d="M619.1,606.1c0,0,.3,0,.4.2,0,0-.3,0-.4-.2Z"/>
  <path class="st13" d="M619.1,591c.2,0,.4,0,.8.3-.2,0-.4,0-.8-.3Z"/>
  <path class="st13" d="M491.4,589.5c-3.1.2-6.6.3-10.7.5-18.2,0-35.8.2-53.3.3-2,0-4.1-.3-6.2-.6,23.2-.2,46.6-.2,70.3-.2h-.1Z"/>
  <path class="st23" d="M427.3,590.4c17.6-.2,35.1-.3,53-.4,0,.5-.1,1-.4,1.6-1.8.2-3.6.2-5.7,0-3-.4-5.7-.6-8.3-.8h-11.3c-4,.3-8.1.6-12.4.8-1.5-1.1-2.4-1.1-3,.2-3.8-.3-7.6-.6-11.6-.9-.3,0-.3-.2-.3-.4h0Z"/>
  <path class="st15" d="M571,589.5c1.4,0,3-.2,4.8-.2-1.4.2-3,.2-4.8.2Z"/>
  <path class="st20" d="M335.3,672.2c-.4,3.7-.4,7.2-1.4,10.6-2.5,8.2-12.5,15.1-27,14-6.9-.5-11.4-3.6-15.1-7.3-7.6-7.5-8-15.6-2.6-23.9.7-1.1,1.4-2.3,2.2-3.4,0,0,.2,0,.5-.2.7,1.6,1.2,3.3,2.2,4.8.6.9,2.2,2.3,3.2,2.2,1.4,0,3.4-1.1,3.8-2.1,1.1-2.8,1.9-5.8,2.2-8.7.6-4.7.8-9.4,1.8-14.2,5,8.6,16.6,14.5,18.7,24.5,3.7-1.3,3.6-4.2,5.9-6.1,3.9,2.7,4.6,6.2,5.7,9.8h-.1Z"/>
  <path class="st10" d="M320.4,697.8c10.7,2,21.1,4,31.5,6,3.2.6,6.2,1.4,10,2.3-6.2,3.5-6.8,7.7-5.2,12.8-6.3-1.5-12.1-2.8-17.9-4.2-8-1.9-15.9-3.8-23.9-5.6-2.2-.5-3-1.4-2.9-2.9.1-1.4.2-2.8,0-4.2s.7-2.2,2.5-2.8c2-.6,3.8-1,5.9-1.5M319.8,706.2c6.2,1.5,12.3,3,18.5,4.6.1-.2.2-.5.3-.7-6.7-1.6-13.4-3.3-20.1-4.9,0,0-.2.3-.3.4.3.2.7.4,1.5.6M348.7,707.8c1.6.2,3.2.4,4.8.6,0-.2.1-.3.2-.5-5.2-1-10.5-2-15.7-3-.1.3-.2.6-.3.8,3.5.7,7.1,1.3,11.1,2.1h-.1Z"/>
  <path class="st10" d="M306.6,699.1c2.3.5,3.2,1.5,2.8,3v.5c0,4.3-3,7.2-9,8.5-9.4,2.1-18.8,4.1-28.3,6.2-1,.2-2.1.4-3.2.5-.8-1.9.1-2.8,2.8-3.2,4.3-.7,8.6-1.6,12.8-2.5,1.1-.2,2.1-.6,3-1.4-6.1,1.1-12.2,2.2-17.4,3.2-2.9-2.6-5.3-4.9-7.7-7.2,7.4-1.6,15.4-3.4,23.5-5.1,5.2-1.1,10.4-2,15.8-3.2,1.7,0,3.2.4,4.9.7M300.3,703.4c.8-.3,1.6-.5,2.3-.8,0-.2-.2-.3-.3-.5-6.6,1.3-13.3,2.6-19.9,3.9l.3.8c5.7-1.1,11.4-2.3,17.5-3.5h.1Z"/>
  <path class="st10" d="M296.7,697c-8.2,2-16.5,4.4-25.1,5.6-4.5.6-9.7-.7-14.3-1.7-2.6-.6-3.1-2.7-2.2-4.6,1.4-2.9,4.4-4.5,8.8-4.2,6.8.5,13.5,1.4,20.3,2.1,1.4,0,2.8,0,4.4,0,2.8.8,5.4,1.8,8.2,2.8M276.4,697.7c1.2.2,2.4.4,3.6.4h3.3c-6.4-1.2-12.6-2.8-19.2-2.3,0,.2,0,.4-.1.6,4,.4,8,.8,12.5,1.3h0Z"/>
  <path class="st10" d="M328.1,695.8c1.6,0,3.1,0,4.4-.4,6.7-1.3,13.4-2.7,20.1-4,4.6-.9,9.8,1.1,11.1,4.3.8,2-.5,3.6-3.6,4.3-5.4,1.3-10.8,1.8-16.5.4-5.8-1.4-11.9-2.3-18.2-3.5.6-.4,1.5-.7,2.5-1M355.4,694.7c-3.2.7-6.4,1.5-9.6,2.2,0,.2.2.4.2.6,4.5-.8,8.9-1.6,13.4-2.3v-.4h-4.1.1Z"/>
  <path class="st7" d="M336.5,692.2c0,0-.1.3-.6.4,0,0,.2-.3.6-.4Z"/>
  <path class="st4" d="M933.4,682.3c-8.7,1.5-17.2,3-26,4.6,1.5-2.4,2.9-4.6,4.1-6.9.3-.6-.2-1.5-.3-2.3-.9.5-2.1.8-2.5,1.4-1.9,2.7-3.6,5.5-5.8,8.8-37.2-36.2-70.3-73.6-96.6-114.4,4.7.9,8.8,1.8,12.9,2.5,16.8,3,33.8,5.2,51.1,5.9,11.8.5,23.7.7,35.6.8,2.4,0,3.5.6,4.5,2,16.8,23.2,34.7,46.1,55.9,67.5,8.1,8.2,17.4,15.9,26.2,23.9.4.4.9.8,1.7,1.5-20.7.4-40.7,1.7-60.7,4.7h-.1Z"/>
  <path class="st4" d="M816.9,651.6c-3.6-11.4-7.1-22.7-10.5-34-1-3.3-1.5-6.8-2.5-10.1-.2-.7-1.1-1.4-1.7-2.1-.7.7-1.9,1.3-2.1,2-3.6,10.7-6.4,21.5-10.9,32-6.1,14.3-13.4,28.4-20.4,42.5-.3.6-1.9,1.3-2.9,1.3-16.3-.5-32.6-1.2-48.8-1.8h-7.3c37.6-33.4,67.3-69.5,92.9-108.2,26.4,41.2,59.4,78.8,96.2,114.5-4.9,0-9.9,0-15,0-5.4,0-10.8-.5-16.2-.7-10.4-.4-20.8-.7-31.2-1-2,0-2.9-.5-3.5-1.9-5.3-10.8-10.6-21.7-16.1-32.7v.2Z"/>
  <path class="st6" d="M775.9,675.2c8.6-16.3,16-32.7,21.6-49.5,1.1-3.3,2.1-6.7,3.1-10,.2-.5.5-1,1-1.5,5.6,24.6,15.5,48.3,29,71.7-19.8-.8-39.3-1.5-59.2-2.3,1.5-2.9,3-5.6,4.5-8.4h0Z"/>
  <path class="st5" d="M962.3,681.4c-4.5.4-8.8.9-13.3,1.3,1.9-.5,4-1.1,6.2-1.3,5-.6,9.9-.9,15.2-1.3.3.3.3.5.3.7-2.7.2-5.4.4-8.4.6Z"/>
  <path class="st5" d="M886.7,580.8c5.7-.2,11.5-.2,17.6-.2-.2.3-.8.9-1.3.9h-15.2c-.3,0-.7-.3-1.1-.6h0Z"/>
  <path class="st5" d="M852.2,578.9c5.7.2,11.7.6,17.6.9,1,0,2,0,3.2.3-1.7.2-3.8.6-5.8.4-5-.4-9.9-1-15.1-1.6h0Z"/>
  <path class="st5" d="M897.3,690c-5.3,0-10.6,0-16.3-.2,5.2,0,10.7,0,16.3.2Z"/>
  <path class="st23" d="M991.8,679.8c-4.3.3-8.7.4-13.5.6.3-.3.8-.8,1.4-.8,4,0,7.9,0,12.1.2Z"/>
  <path class="st23" d="M762.6,685.3c0,.2,0,.2-.4.3-3.3,0-6.4-.3-9.9-.5,3.2,0,6.7,0,10.3.2h0Z"/>
  <path class="st23" d="M835.6,576.7c3.6.3,7.2.7,11,1.3-3.6-.3-7.3-.7-11-1.3Z"/>
  <path class="st5" d="M947.2,682.7c-1.7.4-3.5.7-5.6.9,1.6-.4,3.6-.7,5.6-.9Z"/>
  <path class="st5" d="M879.3,689.6c-1.6.2-3.3,0-5.2,0,1.6-.2,3.3,0,5.2,0Z"/>
  <path class="st23" d="M970.9,680.8c-.3-.2-.3-.4-.3-.7,1.9,0,3.7,0,5.8,0-1.6.3-3.4.4-5.5.6h0Z"/>
  <path class="st5" d="M877.6,580.7c2-.2,4.3-.2,6.8-.2-2,0-4.3.2-6.8.2Z"/>
  <path class="st5" d="M910.9,580.6c.4.4.5.7.6,1.1-1.5-.2-3-.5-4.7-1,1.2,0,2.5-.2,4.1,0h0Z"/>
  <path class="st23" d="M1001.8,679.7c-1.2.2-2.5.2-4.1.2,1.1,0,2.5-.2,4.1-.2Z"/>
  <path class="st23" d="M832.8,576.3c.9,0,1.6,0,2.5.3-.8,0-1.7,0-2.5-.3Z"/>
  <path class="st23" d="M847.5,578.4c.6,0,1.3-.2,2.2-.2-.5,0-1.3.2-2.2.2Z"/>
  <path class="st23" d="M703.3,677.1c-.3-.2-.5-.4-.6-.8.3,0,.5.4.6.8Z"/>
  <path class="st23" d="M807.5,571.6c.5,0,1.1,0,1.8.3-.5,0-1.1,0-1.8-.3Z"/>
  <path class="st23" d="M704.9,681.2c-.2,0-.3-.3-.5-.7.2,0,.4.3.5.7Z"/>
  <path class="st23" d="M809.5,572.1h1-1Z"/>
  <path class="st5" d="M911.5,582c.2,0,.4.3.6.7-.2,0-.4-.3-.6-.7Z"/>
  <path class="st23" d="M704.2,679.4c0,0-.2,0-.2-.3,0,0,.2,0,.2.3Z"/>
  <path class="st0" d="M728,736c-1.7-2.4-3.4-4.8-5.2-7.3,6.7-.6,13.8-1.2,20.9-1.9,13.3-1.2,26.6-2.1,39.9-3.5,16.3-1.6,32.6-3.6,48.9-5.4,4.6-.5,7.1.8,10,5.3-3,.6-6,1.3-8.9,1.9,0,.3.2.6.3.8,3-.5,6.1-1.1,9.2-1.6,3.8,4,3.2,8.9-1.8,12.2-1.1.7-2.6,1.3-4,1.5-15.7,1.7-31.3,3.2-47,4.8-17.1,1.7-34.2,3.4-51.3,5-4.1.4-8.3.7-11.8,1,.3-3.8.7-7.5,1.2-11.4,10.6-1.3,21-2.4,31.4-3.5,0-.3,0-.6-.2-.9-10.5,1-21,2.1-31.5,3.1M780.6,727.9c-3,.3-5.9.6-8.9,1,0,.2,0,.5.2.7,16.9-1.1,33.7-2.5,50.3-4.9,0-.2,0-.4,0-.6-13.6,1.3-27.2,2.6-41.4,3.9M792,736.4c-13.7,1-27.4,2.4-41,4.1,0,.2,0,.5,0,.7,15.8-1.5,31.7-3,47.5-4.5v-.4c-2,0-4,0-6.5,0M822.4,733c-3,.3-6,.7-9,1,0,.3.2.6.2.9,7.4-.7,14.9-1.5,22.3-2.2,0-.3,0-.6-.2-.9-4.3.4-8.5.7-13.4,1.1h.1Z"/>
  <path class="st24" d="M703.5,705.6c0-3.5,1.7-4.5,6.3-4,14,1.4,27.9,2.8,41.9,4.1,7.2.7,14.4,1.1,21.6,1.6-1.8,1.6-3.7,3.4-6.1,5.2-7.2-.5-14-1-20.7-1.5,6.7,1.9,13.7,2.8,20.9,2.6-1.4,2.9-1.6,5.8,1.1,9.3-6.3-.3-11.7-.3-17.1-.8-14.9-1.4-29.8-3-44.6-4.7-1.4-.2-3.2-1.1-3.8-2.1-1.8-2.7-2.5-5.7-.2-8.7,2.6.2,4.6.4,6.7.6,7.1.7,14.1,1.5,21.2,2.2,0-.3,0-.6.2-.9-2.6-.3-5.1-.5-7.7-.8-6.5-.7-13.1-1.5-19.6-2.2M723.8,715c6.5.9,13,1.7,19.4,2.6,0-.2,0-.5.2-.7-9.5-1.5-18.9-3.1-28.6-4,0,.2,0,.5-.2.7,2.9.4,5.7.9,9.2,1.4h0Z"/>
  <path class="st12" d="M718.2,749.8c-8-1.3-10.3-7.7-9.8-12.2.2-1.7,1-3.3,1.4-5.2,0-.2-.2-.4-.2-.4h0c1.2-.6,2.5-1.3,3.7-1.9,2.7-1.5,4.6-1.4,7,.3,5.6,3.9,7,12.1,2.8,16.9-.7.8-1.8,1.3-3.1,2.1-.6.2-.7.3-.9.4h-1M721,743.2c0-.6.2-1.2.4-1.7-1.1.8-2.1,1.5-3.1,2.3-1.2-.8-2.5-1.6-3.5-2.6s-.9-1.6-.7-2.2c.5-1.2,1.4-2.3,2.2-3.5,1.3.5,2.6,1,4,1.5,0,0,.4,0,1.7-.2-2-1-3.4-2.1-4.9-2.2-1.1,0-2.7,1.2-3.4,2.1-1.7,2.1-.4,5.6,2.2,7.2,1.8,1,3.4,1.1,5-.7h0Z"/>
  <path class="st12" d="M775.5,721.7c-4.4.5-5.8-.2-6.1-3.2-.4-3.7,1.3-6.9,5.4-9.3,3.2-1.8,6.5-1.1,7.8,1.6,1.5,3.2,1,6.4-1.2,9.2-.8,1-3.6,1.2-5.8,1.7M776.7,712.9c-.7,1.1-1.4,2.2-2.1,3.3.8,0,1.5.2,2.3.3.2-1.2.4-2.4.6-3.6h-.8Z"/>
  <path class="st2" d="M728,736.1c10.5-1.2,21-2.2,31.5-3.3,0,.3,0,.6.2.9-10.4,1.1-20.8,2.2-31.4,3.3-.3-.3-.3-.6-.3-1h0Z"/>
  <path class="st2" d="M703.3,705.7c6.7.7,13.2,1.4,19.8,2.1,2.6.3,5.1.6,7.7.8,0,.3,0,.6-.2.9-7.1-.7-14.1-1.5-21.2-2.2-2.1-.2-4.1-.5-6.5-.8,0-.3,0-.5.3-.9h.1Z"/>
  <path class="st2" d="M767.3,713.5c-7.2.4-14.1-.6-20.9-2.4,6.8.5,13.5,1.1,20.6,1.6.3.2.3.4.3.8h0Z"/>
  <path class="st2" d="M729.1,750.6c-2.7.4-5.7.8-8.9,1.1,2.7-.4,5.7-.8,8.9-1.1Z"/>
  <path class="st2" d="M719.3,749.7s0-.2.5-.3c0,0,0,.2-.5.3Z"/>
  <path class="st0" d="M38,724.7c.3-4.4-.4-8.6-3-12.8,14.3-1.6,28.4-3.1,42.4-4.6v-.7h-2.8c-7.1.7-14.2,1.4-21.3,2.1-6.4.7-12.9,1.4-19.3,2-2.6-1.6-5.3-3.3-8-5,10.8-1,21.6-2,32.3-3,13.8-1.3,27.6-2.7,41.4-4,15.7-1.5,31.4-2.9,47.1-4.4,8.3-.8,16.7-1.6,25-2.3,8.4-.8,12.4,1,15.3,6.8,1.8,3.5,1.9,7,0,10.5-1.8,3.2-4.6,5.5-9.9,6.1-18,2.1-36,4.4-54,6.6-18.5,2.3-37.1,4.5-55.6,6.8-10.8,1.3-21.6,2.7-32.4,4h-1.4c1.4-2.5,2.7-4.8,4.4-7.3,8.1-.8,15.8-1.5,23.5-2.2,0-.3,0-.7-.2-1-7.8.8-15.6,1.6-23.4,2.3M116,717.5c-.4.2-.7.3-1.1.5,0,.2.2.4.3.7,22.5-2.1,44.5-5.7,66.7-8.8-.9-.3-1.8-.3-2.7-.2-11.3,1.4-22.6,2.9-33.9,4.3-9.6,1.2-19.2,2.3-29.3,3.5M151.1,697.3c-16.6,2.3-33.3,4.5-49.1,6.7,18.7.2,37.3-4.2,56.3-6.6,0-.2,0-.4-.1-.6-2.2.2-4.3.3-7,.5M90.1,712.6c-9.5,1.4-19,2.8-28.4,4.2,0,.2,0,.4.2.6,19-2.3,38.1-4.7,57.1-7,0-.2,0-.4,0-.7-9.4.9-18.8,1.9-28.7,2.9M158.7,707.9c1.8-.3,3.6-.6,5.3-.9-8.6.2-17,.9-25.2,2.7,0,.2.1.4.2.7,6.4-.8,12.7-1.6,19.7-2.5M167.4,698.4c-1.3.3-2.6.7-3.8,1,.1.2.2.4.3.5,5.5-.8,11-1.6,16.5-2.5,0-.3-.1-.6-.2-.9-4.1.6-8.1,1.1-12.7,1.8h-.1Z"/>
  <path class="st12" d="M14.2,732.8c-10-5.6-9.4-17.5-3.6-23,3.5-3.3,8.2-4.1,13.5-2.2,12.4,4.4,14.1,16.9,6.4,24-2.8,2.6-11.4,4-16.3,1.2M21.4,719.4c-.2,0-.3-.2-.9-.5-.7,0-1.3.2-2.4.5.3,1,.6,1.9,1,3.2.9.2,1.8.4,2.7.7,0-1.1.2-2.1.1-3.4-.1,0-.3-.3-.6-.5M16.8,726.9c-.2,0-.3-.2-.5-.3,0,.3.1.5.3,1.1,3,2.1,6.7,2.7,9.5,1.4,3.8-1.7,6.2-9.1.9-12.3.6,1.8,1.4,3.6,1.7,5.5.3,2.3-.6,4.6-3.5,6-3,1.4-5.7,0-8.4-1.3M17.2,712.9c3.1.9,6.2,1.8,8.9,2.5-1.6-2.4-7.1-4.4-10.8-3.4-3,.8-5.2,4.3-4.2,7,1.4-2.2,1.5-5.1,6.1-6.1Z"/>
  <path class="st2" d="M34.1,711c6.4-.8,12.8-1.5,19.2-2.2,7.1-.7,14.2-1.4,21.3-2.1h2.6v.7c-13.9,1.5-28,2.9-42.3,4.4-.5-.2-.6-.5-.9-.8h.1Z"/>
  <path class="st2" d="M38,724.8c7.8-.9,15.6-1.7,23.4-2.5,0,.3,0,.7.2,1-7.7.7-15.3,1.4-23.3,2.1-.3-.2-.3-.4-.3-.7h0Z"/>
  <path class="st23" d="M78.8,698.8c3.9-.6,7.9-1,12.2-1.4-.9.3-2.1.8-3.4.9-2.9.3-5.8.4-8.8.5Z"/>
  <path class="st23" d="M64.2,700.3c4.1-.6,8.3-1,12.9-1.5-.9.3-2.1.8-3.3.9-3.1.3-6.2.5-9.5.5h0Z"/>
  <path class="st23" d="M41.1,734.1c-2.1.4-4.3.8-6.8,1.1,2-.4,4.3-.8,6.8-1.1Z"/>
  <path class="st23" d="M68.4,730.8c-2.1.4-4.3.7-6.8,1,2-.4,4.3-.8,6.8-1Z"/>
  <path class="st23" d="M190.5,699.7c.4,1.9.7,4,.9,6.2-.4-1.9-.7-4-.9-6.2Z"/>
  <path class="st23" d="M49.1,733.2c-1.9.4-3.9.8-6.2,1.1,1.8-.4,3.9-.8,6.2-1.1Z"/>
  <path class="st23" d="M97.5,697c1-.3,2.1-.4,3.5-.5-1,.2-2.2.4-3.5.5Z"/>
  <path class="st23" d="M102.8,696.5c.8-.3,1.7-.4,2.9-.5-.8.2-1.8.4-2.9.5Z"/>
  <path class="st23" d="M59.9,731.9c-.6.2-1.4.3-2.3.4.6-.2,1.4-.4,2.3-.4Z"/>
  <path class="st23" d="M53.1,732.7c-.8.3-1.7.5-2.9.6.7-.3,1.7-.5,2.9-.6Z"/>
  <path class="st23" d="M29.8,735.5c-.8.3-1.7.5-2.9.6.7-.3,1.7-.5,2.9-.6Z"/>
  <path class="st23" d="M32.6,735.2c-.4.3-1,.4-1.7.5.4-.2,1-.4,1.7-.5Z"/>
  <path class="st23" d="M56,732.4c-.4.2-1,.4-1.7.5.4-.2,1-.4,1.7-.5Z"/>
  <path class="st23" d="M38.8,702.6c.6,0,1.3-.2,2.2,0-.5,0-1.3.2-2.2,0Z"/>
  <path class="st23" d="M58.8,700.7c.6-.2,1.3-.2,2.2-.2-.5.2-1.3.3-2.2.2Z"/>
  <path class="st23" d="M107.5,696c.4,0,.9,0,1.6,0-.3,0-.9.2-1.6,0Z"/>
  <path class="st23" d="M110.1,695.8s0-.2.4-.3c0,0,0,.2-.4.3Z"/>
  <path class="st23" d="M57.4,701s0-.2.4-.3c0,.2,0,.3-.4.3Z"/>
  <path class="st12" d="M258.6,720c-4.2-1.3-6-3.6-6.5-6.5-.8-3.8,3.4-6.1,8.5-4.7,4.6,1.2,7.2,6.3,4.7,9.3-1.4,1.6-3.5,2.6-6.7,1.9Z"/>
  <path class="st12" d="M368.8,716.4c-1.1.9-1.9,1.8-3,2.3-3.1,1.6-6.5.7-7.4-1.8-1-2.9-.5-5.8,2.3-8.1,3-2.5,7.5-2,8.6,1.1.6,2-.1,4.2-.4,6.5h-.1Z"/>
  <path class="st6" d="M412.7,667c0,3.6,0,7.1-.1,10.5h-1.4c-.2-.6-.5-1.2-.5-1.8.4-3.1.9-6.1,1.3-9.2,0,0,.1,0,.2-.2.2,0,.3.3.5.6h0Z"/>
  <path class="st10" d="M602,693.2c0-.7.2-1.2.3-1.7h.5v7.7h-1.4c.2-1.9.4-3.9.5-6h.1Z"/>
  <path class="st8" d="M709.3,732.1c0,0,.3,0,.3.2,0,0-.3,0-.3-.2Z"/>
  <path class="st16" d="M586.5,602.3h-28.1c-17,0-34.1.2-51.4.2.5-.3,1.3-.8,2.1-.8h75.3c.7,0,1.4.3,2.2.6h-.1Z"/>
  <path class="st6" d="M480.2,596c8.7,0,17,.2,25.4.4v.9c-9.7.9-19.3-.6-28.9-.3v-1h3.6-.1Z"/>
  <path class="st6" d="M558.9,596.3c7,0,13.9,0,20.7,0v.6c-4.1.2-8.1.5-12.2.6h-6.9c-.6,0-1.2-.6-1.6-1.1Z"/>
  <path class="st6" d="M549,600.2h-13.5v-1.3c5.1,0,10.3-.6,15.5,1-.6,0-1.2.2-2,.3Z"/>
  <path class="st6" d="M445.7,596.5c.2.3.2.8.2.8-4.7,0-9.5,0-14.2-.3,4.5-1.2,9.1-1.2,14-.5Z"/>
  <path class="st6" d="M456.5,598.8h12.3v.7h-13.1c.2-.2.4-.5.8-.7h0Z"/>
  <path class="st6" d="M523.3,596.9h5.5v.6h-11v-.6h5.6,0Z"/>
  <path class="st6" d="M503.7,642.6c1.2.5,2.2,1,3.2,1.5-.4.3-.8.7-1.2,1-4.3-2.1-8.7-4.1-13-6.2l.9-1c3.3,1.5,6.6,3.1,10.1,4.7Z"/>
  <path class="st10" d="M469.2,628.9c-1.6-.8-3.1-1.6-4.5-2.3l.8-.8c4.2,1.8,8.4,3.6,12.6,5.4-.2.3-.4.6-.7.9-2.7-1-5.3-2-8.2-3.2h0Z"/>
  <path class="st6" d="M563.2,670.7c-2.3-1.3-4.4-2.5-6.5-3.7l.6-.5c4.3,2.1,9.2,3.5,12.7,6.3-.2.2-.4.4-.5.6-2-.8-4-1.7-6.3-2.6h0Z"/>
  <path class="st6" d="M440.8,615.9c-4-2-7.9-4-11.7-6,.3-.3.7-.6,1-.9,3.8,2.1,7.7,4.2,11.5,6.3,0,0-.4.5-.7.6h0Z"/>
  <path class="st6" d="M442.9,616.4h0Z"/>
  <path class="st6" d="M601.4,641.7c.3-1.2.5-2.2.8-3.1h.5v22.3h-1.3v-19.2Z"/>
  <path class="st6" d="M602.7,629.1v-10.6h.8v11.9h-.4c0-.4-.3-.8-.4-1.4h0Z"/>
  <path class="st6" d="M604,671c0,1,0,1.8-.2,2.6h-.8v-5.4h.8c0,.9.2,1.8.2,3v-.2Z"/>
  <path class="st10" d="M537.4,643.7c0-.5,0-1.2.6-1.5,2.6-1.4,5.2-2.7,7.9-4,.3.3.6.5.9.8-3.1,1.6-6.1,3.1-9.4,4.7Z"/>
  <path class="st6" d="M410.7,615.6c.3-.6.6-1,.8-1.4h.6c-.3,6.3-.7,12.6-1,18.9h-1.3c-.3-5.8.4-11.6.9-17.6h0Z"/>
  <path class="st6" d="M667.3,622.7v3.9h-.9v-11.9h.9v8Z"/>
  <path class="st6" d="M641.7,600.4c-3.4-.2-6.5-.3-9.6-.4v-.9c5.6.2,11.2.4,16.8.6v.9c-2.3,0-4.6-.2-7.2-.3h0Z"/>
  <path class="st6" d="M411.9,578.2c-.4,1.8-.8,3.5-1.2,5.1h-.9l.9-6.6h.9c0,.5.2.9.2,1.6h.1Z"/>
  <path class="st6" d="M401.5,598.2c-2.9.3-5.6.5-8.3.7v-1c2.8-.5,5.6-1,8.3.3Z"/>
  <path class="st18" d="M466.1,591c2.5,0,5.1.2,7.9.6-2.5,0-5.1-.3-7.9-.6Z"/>
  <path class="st18" d="M454.8,591c2.3,0,4.8,0,7.6,0-2.2,1.3-4.8,1.1-7.6,0Z"/>
  <path class="st18" d="M439.6,591.8c.3-1.3,1.2-1.2,2.4-.2-.7.2-1.4.2-2.4.2Z"/>
  <path class="st2" d="M319.6,706.2c-.6-.2-.9-.4-1.2-.6,0,0,.2-.3.3-.4,6.7,1.6,13.4,3.3,20.1,4.9-.1.2-.2.5-.3.7-6.2-1.5-12.3-3-18.7-4.6h-.2Z"/>
  <path class="st2" d="M348.4,707.7c-3.8-.7-7.3-1.4-10.9-2,.1-.3.2-.6.3-.8,5.2,1,10.5,2,15.7,3,0,.2-.1.3-.2.5-1.6-.2-3.2-.4-5-.7h.1Z"/>
  <path class="st2" d="M300.1,703.5c-5.9,1.2-11.6,2.3-17.3,3.5l-.3-.8c6.6-1.3,13.3-2.6,19.9-3.9,0,.2.2.3.3.5-.8.3-1.6.5-2.6.8h0Z"/>
  <path class="st18" d="M276.1,697.7c-4.3-.4-8.2-.8-12.2-1.3,0-.2,0-.4.1-.6,6.6-.4,12.8,1.1,19.2,2.3h-3.3c-1.2,0-2.4-.3-3.9-.5h0Z"/>
  <path class="st2" d="M355.7,694.6h3.9v.4c-4.5.8-8.9,1.6-13.4,2.3,0-.2-.2-.4-.2-.6,3.2-.7,6.4-1.5,9.8-2.2h0Z"/>
  <path class="st2" d="M780.9,727.9c13.9-1.3,27.5-2.6,41.1-3.9,0,.2,0,.4,0,.6-16.6,2.5-33.4,3.8-50.3,4.9,0-.2,0-.5-.2-.7,3-.3,5.9-.6,9.2-1h.1Z"/>
  <path class="st2" d="M792.3,736.4h6.3v.4c-15.8,1.5-31.7,3-47.5,4.5,0-.2,0-.5,0-.7,13.6-1.7,27.3-3.1,41.3-4.1h0Z"/>
  <path class="st18" d="M822.7,733c4.6-.4,8.8-.7,13.1-1.1,0,.3,0,.6.2.9-7.4.7-14.9,1.5-22.3,2.2,0-.3-.2-.6-.2-.9,3-.3,6-.7,9.3-1h0Z"/>
  <path class="st2" d="M723.5,715c-3.1-.5-6-.9-8.9-1.4,0-.2,0-.5.2-.7,9.7.8,19.1,2.4,28.6,4,0,.2,0,.5-.2.7-6.5-.9-13-1.7-19.7-2.6h0Z"/>
  <path class="st5" d="M720.9,743.3c-1.5,1.6-3.1,1.5-4.9.5-2.7-1.6-3.9-5.1-2.2-7.2.7-.9,2.3-2.1,3.4-2.1s2.8,1.2,4.9,2.2c-1.3.2-1.6.3-1.7.2-1.3-.5-2.7-1-4-1.5-.8,1.2-1.7,2.3-2.2,3.5-.2.7,0,1.6.7,2.2.9,1,2.3,1.7,3.5,2.6,1-.7,2-1.4,3.1-2.3,0,.5-.2,1.1-.5,1.9h0Z"/>
  <path class="st8" d="M776.9,712.9h.5c-.2,1.2-.4,2.4-.6,3.6-.8,0-1.5-.2-2.3-.3.7-1.1,1.4-2.2,2.4-3.3h0Z"/>
  <path class="st2" d="M116.3,717.5c9.9-1.2,19.5-2.3,29-3.5,11.3-1.4,22.6-2.9,33.9-4.3.9,0,1.7,0,2.7.2-22.2,3.1-44.3,6.7-66.7,8.8,0-.2-.2-.4-.3-.7.4-.2.7-.3,1.4-.5Z"/>
  <path class="st2" d="M151.4,697.3c2.4-.2,4.6-.3,6.7-.5,0,.2,0,.4.1.6-19,2.4-37.5,6.8-56.3,6.6,15.8-2.1,32.5-4.4,49.4-6.7h.1Z"/>
  <path class="st2" d="M90.4,712.6c9.7-1,19.1-1.9,28.4-2.9,0,.2,0,.4,0,.7-19,2.3-38.1,4.7-57.1,7,0-.2,0-.4-.2-.6,9.5-1.4,19-2.8,28.7-4.2h0Z"/>
  <path class="st2" d="M158.4,707.9c-6.7.8-13,1.6-19.4,2.4,0-.2-.1-.4-.2-.7,8.2-1.7,16.6-2.5,25.2-2.7-1.8.3-3.6.6-5.6.9h0Z"/>
  <path class="st18" d="M167.7,698.4c4.3-.6,8.4-1.2,12.5-1.7,0,.3.1.6.2.9-5.5.8-11,1.6-16.5,2.5-.1-.2-.2-.4-.3-.5,1.3-.3,2.6-.7,4.1-1.1h0Z"/>
  <path class="st2" d="M17,727.1c2.6,1.1,5.2,2.5,8.3,1.1,3-1.3,3.8-3.6,3.5-6-.3-1.9-1.1-3.7-1.7-5.5,5.3,3.2,2.9,10.5-.9,12.3-2.8,1.3-6.5.8-9.5-1.6,0-.2.3-.4.3-.4h0Z"/>
  <path class="st2" d="M17,712.9c-4.4,1-4.4,3.8-5.8,6-1-2.6,1.2-6.2,4.2-7,3.7-.9,9.2,1,10.8,3.4-2.7-.8-5.8-1.6-9.2-2.5h0Z"/>
  <path class="st5" d="M22.1,720.2c0,1.1-.2,2.1-.2,3.2-.9-.2-1.8-.4-2.7-.9,0-.2.2-.4.4-.3,3.2.7,2.1-.8,2.2-1.8.1,0,.3-.2.3-.2Z"/>
  <path class="st5" d="M19.1,722.3c-.4-.9-.7-1.8-.7-2.9.2,0,.4,0,.3.2.2.9.5,1.7.7,2.5,0,0-.2,0-.3.2Z"/>
  <path class="st5" d="M18.6,719.3c.6,0,1.3-.2,2-.2.1.2,0,.3-.3.2h-1.6s-.1,0-.2,0h.1Z"/>
  <path class="st2" d="M16.6,727.3c-.2-.2-.2-.5-.3-.7.2,0,.3.2.6.4,0,0-.1.2-.3.3Z"/>
  <path class="st5" d="M20.8,719.2c.3,0,.4,0,.6.4,0,.2-.2.3-.3.2-.3,0-.4-.3-.5-.4,0,0,.1,0,.2,0h0Z"/>
  <path class="st5" d="M21.5,719.7c.3,0,.4,0,.6.4,0,0-.1.2-.4.2-.3,0-.4-.3-.5-.4,0,0,.2,0,.2-.2h0Z"/>
  <path class="st12" d="M21.1,719.8c.2.2.3.3.5.5.1,1,1.2,2.5-2,1.8-.4-.9-.7-1.6-.9-2.6.5-.2.9-.2,1.6-.2.3.2.4.3.7.4h0Z"/>
</svg>