<svg viewBox="0 0 189 42" xmlns="http://www.w3.org/2000/svg" aria-hidden="true" focusable="false"><path d="M175.583 15.94v-.003c-2.17-.871-4.22-1.699-4.22-3.7 0-1.621 1.464-2.781 3.905-2.855 1.473-.041 3.194.716 4.585 1.607.045-.095 1.6-2.834 1.653-2.942-1.19-.828-3.511-2-6.93-2-4.743 0-7.798 2.35-7.798 6.259 0 1.94.65 3.495 1.933 4.624 1.22 1.107 2.546 1.624 4.06 2.283 2.274.99 4.5 2.028 4.5 4.234 0 1.92-1.736 3.356-4.396 3.356-1.688 0-3.544-.705-5.52-1.77-.048.101-1.755 3.218-1.803 3.319 2.467 1.29 4.911 1.983 7.825 1.983 5.119 0 8.691-2.877 8.691-6.994 0-4.686-3.444-6.174-6.485-7.402zm-118.24 0l-.002-.003c-2.169-.871-4.221-1.699-4.221-3.7 0-1.621 1.466-2.781 3.905-2.855 1.475-.041 3.196.716 4.586 1.607.046-.095 1.6-2.834 1.654-2.942-1.192-.828-3.513-2-6.93-2-4.745 0-7.798 2.35-7.798 6.259 0 1.94.65 3.495 1.932 4.624 1.223 1.107 2.547 1.624 4.061 2.283 2.271.99 4.497 2.028 4.497 4.234 0 1.92-1.734 3.356-4.394 3.356-1.687 0-3.545-.705-5.52-1.77-.047.101-1.755 3.218-1.802 3.319 2.465 1.29 4.91 1.983 7.824 1.983 5.116 0 8.692-2.877 8.692-6.994 0-4.686-3.445-6.174-6.484-7.402zm28.166 9.24c-1.368.89-2.814 1.394-4.434 1.487-.295.017-.59.017-.882.002-4.369-.229-7.34-3.438-7.534-8.107a10.55 10.55 0 01.003-1.048c.105-2.113.85-3.972 2.094-5.35 1.388-1.532 3.346-2.423 5.638-2.501.247-.008.496-.008.74-.005 1.422.042 2.639.366 3.749.985.132.096.415.242.415.242s1.455-2.575 1.646-2.89c0-.018-.232-.184-.472-.316-1.607-.861-3.609-1.546-5.419-1.62a14.375 14.375 0 00-1.177.001c-3.482.135-6.402 1.35-8.485 3.38-2.223 2.163-3.496 5.246-3.496 8.934 0 3.59 1.208 6.58 3.324 8.671 2.115 2.095 5.135 3.29 8.761 3.29 2.753 0 5.62-.829 7.34-1.891-.086-.14-1.65-3.106-1.772-3.305-.017.02-.024.02-.039.04zm65.483 4.632h4.427V10.156l6.747-.001 2.011-3.52h-20.403v3.52h7.213l.005 19.657zm-16.294-8.905c0 .107 0 .752-.014.862-.055 1.446-.48 2.624-1.315 3.434-.953.92-2.37 1.436-4.259 1.436-1.667 0-2.99-.479-3.919-1.31-.934-.835-1.415-2.088-1.482-3.6-.018-.127-.024-.837-.024-.959V6.634h-4.46v14.922c0 2.622.85 4.81 2.403 6.323 1.606 1.576 4.182 2.455 7.424 2.455 3.402 0 6.013-.95 7.775-2.755 1.53-1.57 2.316-3.701 2.316-6.382V6.634h-4.445v14.273zm-32.57 5.722c-4.497 0-7.445-3.395-7.445-8.603 0-5.11 2.98-8.5 7.445-8.5 4.454 0 7.426 3.39 7.426 8.5 0 5.208-2.94 8.603-7.426 8.603zm8.66-17.31c-2.178-2.089-5.16-3.189-8.646-3.162-3.33 0-6.206 1.035-8.341 2.942-2.415 2.142-3.773 5.374-3.773 9.183 0 3.92 1.44 7.164 4.035 9.342 2.084 1.751 4.86 2.748 8.047 2.71 3.31-.036 6.165-1.04 8.282-2.889 2.504-2.185 3.878-5.376 3.878-9.216 0-3.622-1.23-6.745-3.482-8.91zm75.336.363c-.917 0-1.651-.722-1.651-1.653 0-.958.734-1.675 1.65-1.675.915 0 1.648.717 1.648 1.655 0 .951-.733 1.673-1.647 1.673zm0-3.61a1.948 1.948 0 00-1.966 1.957c0 1.097.897 1.935 1.966 1.935a1.945 1.945 0 001.962-1.955c0-1.1-.894-1.938-1.962-1.938zm-.027 1.836h-.388v-.723h.487c.24 0 .509.036.509.352 0 .354-.294.37-.608.37zm.92-.358c0-.449-.256-.646-.794-.646h-.828v2.254h.314V8.19h.402l.618.967h.34l-.648-.994c.336-.038.596-.209.596-.614zM18.587 24.07c-.077 1.042-.075 3.248-.376 4.442-.303-1.194-.3-3.4-.373-4.441a25.06 25.06 0 01-1.747-.065c-.148 1.158-.634 2.592-1.587 3.912.66 1.437 2.206 2.835 3.707 3.496 1.503-.661 3.047-2.06 3.709-3.496-.953-1.32-1.438-2.754-1.589-3.912-.555.039-1.138.065-1.744.065zm1.707-3.14c.34-3.858 3.032-6.665 3.005-9.86-.011-1.727-.914-3.703-2.835-5.145-.257-.191-1.502-1.14-2.253-1.947-.749.806-1.994 1.756-2.252 1.947-1.92 1.442-2.823 3.418-2.84 5.145-.02 3.195 2.675 6.002 3.01 9.86.548-.063 1.132-.09 1.737-.094-.072-3.914.08-9.218.345-13.047.266 3.829.415 9.133.345 13.047.607.005 1.19.03 1.738.094zm-6.661 2.75l-.003-.016c-.295 1.824-1.842 2.58-3.356 1.86.1 1.23 1.101 2.355 2.386 2.355 1.766 0 2.791-2.697 2.916-3.923a20.163 20.163 0 01-1.943-.276zm9.153-.006c-.568.118-1.226.213-1.95.281.14 1.241 1.162 3.891 2.912 3.891 1.284 0 2.286-1.127 2.388-2.353-1.504.714-3.035-.03-3.35-1.819zm-4.56-.802c-2.693 0-4.891-.251-4.891-.42 0-.168 2.183-.434 4.876-.434 2.692 0 4.874.266 4.874.435 0 .168-2.166.42-4.859.42zm5.62-.42c0-.566-2.522-1.026-5.635-1.026-3.112 0-5.637.46-5.637 1.027 0 .57 2.525 1.03 5.637 1.03 3.113 0 5.636-.46 5.636-1.03zm3.314-5.447l.84-.825-.528-1.052 1.047.538.838-.822-.192 1.157 1.044.544-1.165.174-.194 1.16-.524-1.051-1.166.177zm4.654 1.187c.614-2.81-1.435-5.643-4.405-5.636-4.17.002-6.414 5.492-6.554 8.433l.034.006c.6.057 1.38.124 2.098.266.34-1.323 1.31-3.041 2.978-2.8 1.429.206 2.028 1.675 1.684 2.976 2.039.285 3.754-1.366 4.165-3.245zm-23.707-1.37l-.529 1.05-.192-1.157-1.164-.177 1.044-.542-.191-1.16.839.825 1.048-.538-.53 1.047.836.833-1.16-.181zM4.62 18.185c.412 1.881 2.125 3.532 4.161 3.248-.342-1.301.259-2.768 1.688-2.977 1.668-.238 2.638 1.478 2.982 2.814.714-.158 1.49-.223 2.097-.28l.03-.005c-.14-2.942-2.386-8.429-6.552-8.436-2.97-.003-5.02 2.827-4.406 5.636zm16.493 20.09c0 .009.884-.822 1.45-.567l-.128-.113a3.074 3.074 0 00-1.727-.615c-.547-.019-1.5.141-1.72.498 0 0 .823.162 1.338.684.047.048.263-.013.787.113zm2.562-.327c.668-.76.38-1.66.261-2.094l-1.312.603c.02.058.217.431-.152.854 0 0 1.276.553 1.203.637zm-4.517-1.519c-.095.038.584.28 1.662.125l.009-.01s.145-.146.185-.246c.04-.092.112-.298.12-.415.01-.103.042-.168.046-.312 0 0 0-.144.049-.268-.123.061-.764.275-.764.275a9.89 9.89 0 01-.297.067c-.099.072-.175.166-.255.233-.054.041-.177.152-.316.261-.068.06-.396.26-.439.29zm5.271 3.026l.007.005c-.263-.35-.493-.655-.621-.794-.111-.12-.3-.286-.544-.462-1.103-.591-1.688.253-1.688.253.684.332 1.21 1.077 1.21 1.077l.162.266c.024-.025.862-.92 1.474-.345zm-1.126.715l.604.629.932-.795c-.809-.72-1.536.166-1.536.166zm1.667.154l-.86.76.121.126.86-.761-.121-.125zm-.505 1.084l.367.592.965-1.046s-.176-.17-.455-.37l-.877.824zm-14.921-.765l.925 1.08.386-.576-.842-.854c-.288.186-.47.35-.47.35zm.686-.51l.827.796.115-.128-.825-.797-.117.129zm.306-.4l.902.825.625-.605s-.687-.911-1.527-.22zm1.833-1.8a1.462 1.462 0 00-.266.103l.07-.048a2.19 2.19 0 00-.56.429c-.137.134-.378.445-.652.785l.006-.005c.64-.551 1.456.396 1.463.405l.247-.236s.16-.15.413-.333c-.552-.299-.721-1.1-.721-1.1zm4.982-2.858s.382-.046.653-.279l.319-.24c-.203-.457-1.2-.927-1.907-.85-.138.017-.329-.033-.423.113v.004s-.644.795-.382 1.071c.221-.084.502-.023.753-.018.258.007.586.04.807.135l.18.064zm-.553.353c-.59-.05-.893-.1-1.46-.208-.184.054-.443.224-.488.318-.05.103-.15.137-.216.206-.047.05-.21.257-.21.257h-.002c.594.262 1.686.581 2.283.56 0 0-.085-.005.01-.464.03-.139.08-.225.121-.333.037-.096.088-.23.183-.346l-.221.01zm-1.46-.208c-.153-.006 0 0 0 0zm3.195 1.174s.494-.18.977-.645c.082-.08.32-.264.403-.346 0 0-.78-.658-.632-1.124-.87.763-1.223 1.148-1.942 1.148-.181.031-.023.006-.023.006-.09.121-.15.26-.182.362-.034.11-.072.235-.072.33-.01.306.013.39.013.39.787.046.737.074 1.458-.121zm2.686-2.881c-.328.011-1.258.346-1.572.596l-.006-.01c-.007.007-.005.017-.01.025-.027.023-.056.046-.07.066l.028.038c-.028.353.699.92.699.92.513-.42.962-.583 1.307-.477 1.19-.516 1.382-.556 1.382-.556-.466-.522-.948-.63-1.758-.602zm.15 5.052c-.18.123-.87.012-1.096-.05.046.338-.944 1-.944 1 .585.361 1.064.402 1.574.388 0 0 .72-.027 1.158-.466-.45-.278-.692-.872-.692-.872zm-1.613-.26c-.773-.62-1.523-.721-2.086-.91l-1.127.787 1.342.444c.408.108.51.301 1.023.632 0 0 1.188-.682.848-.954zm-3.394.24c.337.81-.425 1.363-.425 1.363 1.018.262 2.177-.826 2.177-.826s-.19-.155-1.207-.416l-.545-.122zm-.416.083c-.11.019-.23.027-.346.024a1.807 1.807 0 01-.65-.128h-.006c-.177.561-1.45.44-1.45.44.451.434 1.06.76 1.717.853l-.008-.012s.715-.15.743-1.177zm-2.864-.168s.635.137 1.095.007a.781.781 0 00.306-.204h.005a1.87 1.87 0 01-.723-1.517c-.806-.095-.999-.986-1.005-1.018a3.15 3.15 0 00-.188.996c-.01.64.175 1.239.499 1.736h.011zm1.802-4.662a3.205 3.205 0 00-1.885 1.425l.012-.003s.192.981.838 1.01c.124-.4.675-.878 1.01-1.114l.124-.144c-.106-.816.263-1.259.263-1.259l-.362.085zm3.683-32.604l-.015-.004c.14-.095.248-.236.248-.236.084-.123.082-.256.111-.355.029-.11.087-.284.138-.361.06-.094.233-.206.233-.206h.003a17.46 17.46 0 00-1.845-.014l-.008.011s-.158.13-.21.227a1.587 1.587 0 00-.107.374c-.017.103-.002.232-.075.362 0 0-.096.154-.226.257.588-.05 1.172-.067 1.753-.055zm-2.24.093c.126-.104.216-.264.216-.264.066-.132.047-.26.061-.366.017-.114.05-.29.091-.374.05-.103.2-.235.202-.237-.609.048-1.217.12-1.824.226l-.008.016s-.138.148-.18.252c-.036.087-.048.27-.055.382-.004.106.027.236-.03.37 0 0-.072.166-.188.285a17.063 17.063 0 011.729-.281l-.015-.01zm-3.855.902a18.274 18.274 0 011.677-.509h-.016c.11-.123.179-.292.179-.292.051-.14.014-.265.014-.368.003-.113.013-.297.043-.385.034-.104.165-.257.168-.26-.597.122-1.19.276-1.779.462l-.005.015s-.123.167-.147.274c-.021.09-.013.273-.001.388.005.103.055.224.02.368 0 0-.056.174-.153.307zm-1.933.563s-.028.18-.11.326a16.031 16.031 0 011.598-.723h-.018c.094-.137.141-.31.141-.31.033-.148-.022-.266-.034-.373a1.797 1.797 0 01-.011-.387c.021-.109.132-.274.135-.277-.574.2-1.145.429-1.703.69l-.003.012s-.1.182-.112.294c-.008.091.025.273.048.384.024.102.088.213.07.364zM8.586 3.885s-.007.18-.068.334c.485-.334.981-.64 1.489-.923l-.015.004c.074-.149.1-.329.1-.329.009-.147-.06-.26-.085-.36a1.813 1.813 0 01-.061-.382c.008-.112.1-.297.1-.297l.003-.002c-.547.277-1.082.576-1.604.91l-.004.015s-.073.192-.07.302c.007.095.058.27.097.378.035.096.116.202.118.35zM6.638 4.931c.047.092.138.187.158.333 0 0 .021.179-.023.342a17.55 17.55 0 011.358-1.111l-.016.004c.056-.155.055-.338.055-.338-.007-.147-.092-.25-.129-.346a1.575 1.575 0 01-.11-.371c-.008-.109.06-.308.06-.308a19.07 19.07 0 00-1.47 1.11v.012s-.049.201-.03.311c.017.094.095.26.147.362zM4.812 6.214c.025.092.125.244.189.34.06.085.165.165.204.309 0 0 .043.176.022.343.38-.45.784-.878 1.2-1.278l-.017.006c.037-.164.013-.342.013-.342-.028-.147-.124-.236-.174-.327a1.622 1.622 0 01-.158-.354c-.022-.108.018-.311.018-.311l.001-.005c-.456.409-.894.84-1.31 1.294v.016s-.024.203.012.309zM3.36 8.066c.04.086.157.224.235.312.069.074.181.143.243.281 0 0 .06.169.065.334.315-.496.657-.97 1.021-1.424l-.014.01c.012-.169-.035-.341-.035-.341-.048-.141-.15-.22-.213-.302a1.626 1.626 0 01-.205-.331c-.036-.104-.02-.31-.02-.31l.002-.003c-.4.461-.78.946-1.135 1.453l.004.015s.006.208.052.306zm-1.194 2.025c.05.077.184.201.27.274.08.07.199.121.276.248 0 0 .085.16.11.322.25-.531.527-1.045.827-1.544l-.013.012a1.123 1.123 0 00-.08-.336c-.064-.13-.177-.194-.25-.27-.08-.081-.203-.213-.243-.297-.05-.1-.065-.306-.065-.306L3 8.191a18.13 18.13 0 00-.931 1.586l.002.017s.035.203.095.297zm-.923 2.163c.06.073.21.174.305.237.087.058.213.091.307.208 0 0 .105.148.15.306.18-.56.387-1.109.62-1.638l-.01.013c-.033-.163-.125-.32-.125-.32-.078-.125-.205-.175-.283-.237a1.613 1.613 0 01-.286-.266c-.06-.091-.1-.294-.1-.294a17.74 17.74 0 00-.714 1.694l.006.011s.058.199.13.286zm-.634 2.261c.071.066.23.152.336.2.092.04.222.063.33.166 0 0 .123.132.19.285.106-.58.237-1.15.399-1.707l-.01.011a1.153 1.153 0 00-.161-.298c-.098-.115-.224-.147-.314-.197a1.863 1.863 0 01-.315-.228 1.04 1.04 0 01-.138-.278v-.002c-.193.58-.353 1.17-.49 1.776l.01.009s.082.188.163.263zm-.527 2.087s.106.178.199.243c.076.052.245.114.356.15.098.03.23.035.348.122 0 0 .142.116.225.257.03-.59.09-1.167.176-1.742l-.008.016c-.072-.15-.2-.277-.2-.277-.114-.101-.241-.116-.34-.158a1.563 1.563 0 01-.342-.184c-.08-.069-.167-.246-.172-.254-.116.6-.199 1.202-.252 1.818l.01.01zm.172 2.591c.084.045.263.086.376.105.102.018.231.004.364.078 0 0 .152.093.255.223-.05-.588-.066-1.17-.053-1.752l-.006.019c-.095-.14-.236-.25-.236-.25-.123-.083-.254-.08-.356-.111a1.459 1.459 0 01-.36-.14c-.094-.06-.209-.232-.209-.232-.035.609-.038 1.22-.01 1.84l.008.012s.131.157.227.208zm.668 2.388c.105.005.231-.027.373.029 0 0 .165.072.284.191a17.073 17.073 0 01-.284-1.728l-.007.016c-.106-.124-.263-.215-.263-.215-.132-.068-.263-.048-.367-.064a1.485 1.485 0 01-.376-.092 1 1 0 01-.235-.203c.043.606.12 1.219.226 1.824l.013.007s.148.144.253.183c.092.03.271.045.383.052zm.59 2.229c.103-.01.226-.056.373-.021 0 0 .173.05.306.15-.2-.554-.37-1.115-.51-1.675v.014c-.12-.108-.287-.177-.287-.177-.146-.05-.268-.012-.375-.017-.114 0-.294-.01-.387-.04-.103-.032-.255-.17-.257-.171.12.597.275 1.192.464 1.781l.01.005s.167.121.278.146c.09.023.271.014.386.005zm.875 2.128c.107-.023.218-.086.369-.068 0 0 .177.03.322.11a16.911 16.911 0 01-.72-1.597v.017a1.173 1.173 0 00-.315-.139c-.144-.031-.265.021-.37.034a1.823 1.823 0 01-.385.01c-.11-.023-.277-.135-.28-.137.198.575.43 1.146.691 1.706l.012.003s.182.098.293.11c.095.009.274-.024.383-.049zm1.151 1.997c.096-.036.202-.113.35-.115 0 0 .181.005.336.066-.335-.482-.643-.98-.924-1.489v.019a1.1 1.1 0 00-.327-.098c-.145-.011-.259.057-.358.08-.115.03-.293.069-.384.062a1.087 1.087 0 01-.297-.099c.274.547.576 1.08.905 1.6l.018.003s.19.072.302.069a1.81 1.81 0 00.38-.098zm1.73 1.672s.18-.022.341.02a17.16 17.16 0 01-1.11-1.355l.004.019c-.157-.058-.34-.058-.34-.058-.147.01-.249.092-.347.131a1.673 1.673 0 01-.368.11c-.114.009-.308-.06-.308-.06l-.003-.002a19.5 19.5 0 001.11 1.471h.015s.201.046.313.027c.092-.01.255-.092.359-.144.094-.046.186-.14.334-.16zM6.865 31.2s.179-.043.343-.021a17.04 17.04 0 01-1.28-1.2l.009.016c-.164-.033-.345-.009-.345-.009-.145.026-.234.124-.325.172-.1.055-.262.135-.356.155-.108.021-.31-.02-.31-.02H4.6c.406.46.838.897 1.293 1.314l.013-.002s.207.023.314-.012c.088-.03.243-.122.337-.189.086-.06.167-.162.31-.204zm1.795 1.37s.172-.063.336-.067a19.01 19.01 0 01-1.42-1.018l.005.01a1.23 1.23 0 00-.339.036c-.141.046-.218.152-.303.213-.093.068-.24.171-.33.202-.106.036-.31.022-.31.022l-.004-.003c.464.404.947.779 1.456 1.136l.013-.007s.206-.002.305-.05a1.58 1.58 0 00.313-.233c.076-.072.143-.182.278-.241zm1.139 1.762s.204-.032.3-.089c.078-.053.202-.185.274-.275.068-.076.12-.201.247-.275 0 0 .163-.087.324-.113a15.9 15.9 0 01-1.546-.827l.012.016c-.165.007-.334.078-.334.078-.133.064-.197.179-.274.254-.078.08-.214.201-.298.242-.099.053-.307.062-.307.062.51.335 1.043.643 1.588.932l.014-.005zm.765.147a.933.933 0 01-.29.102c.548.267 1.114.506 1.694.715l.01-.007s.198-.058.282-.129c.076-.06.18-.206.244-.302.055-.087.088-.215.206-.307 0 0 .148-.107.308-.153-.562-.18-1.11-.386-1.64-.616l.013.012c-.164.027-.323.12-.323.12-.123.08-.171.203-.234.282-.07.093-.191.23-.27.283zm13.268-.276c-.56.187-1.368.504-1.885.783-.122.057-.239.117-.239.117a.993.993 0 00-.077.355c-.006.111-.023.279-.023.396.003.247-.228.59-.228.59.602-.106 1.362-.453 1.87-.75l.295-.153s.047-.117.076-.227c.021-.094.052-.216.045-.328-.007-.107-.085-.19-.045-.332 0 0 .107-.32.211-.45zm2.063-.554s.029-.18.112-.322c-.528.27-1.058.51-1.6.721h.017c-.093.135-.156.307-.156.307a.908.908 0 00-.018.372c.013.12-.029.298-.045.391-.018.111-.12.315-.12.315.577-.201 1.25-.463 1.812-.726l.005-.016s.098-.182.11-.293a1.709 1.709 0 00-.05-.386c-.02-.1-.083-.214-.067-.363zm1.953-1.133s.004-.182.065-.338c-.482.338-.983.646-1.491.925l.02-.002c-.079.148-.101.329-.101.329-.01.146.057.26.084.364.028.11.065.288.06.38a1.01 1.01 0 01-.097.293c.544-.273 1.08-.574 1.601-.906l.003-.014s.074-.192.067-.302a1.56 1.56 0 00-.095-.38c-.036-.095-.114-.2-.116-.349zm1.95-1.042c-.048-.092-.142-.187-.162-.337 0 0-.019-.178.022-.34-.436.394-.887.764-1.358 1.11l.02-.005c-.057.155-.057.336-.057.336.008.15.091.254.127.35.045.105.104.275.112.371.007.108-.06.306-.06.306.502-.342.995-.711 1.47-1.111v-.014s.05-.2.03-.312a1.707 1.707 0 00-.144-.354zm1.633-1.623c-.061-.09-.163-.171-.205-.313 0 0-.039-.176-.02-.343-.382.45-.783.88-1.201 1.276l.015-.005c-.033.161-.008.342-.008.342.026.146.121.236.17.33.057.1.14.26.16.354.025.108-.018.311-.018.311l-.002.002c.457-.408.895-.84 1.314-1.296v-.014s.02-.204-.014-.308a1.552 1.552 0 00-.191-.336zm1.641-1.517a1.587 1.587 0 00-.233-.31c-.072-.077-.183-.145-.24-.28 0 0-.064-.17-.07-.335-.317.495-.659.966-1.02 1.424l.013-.01c-.01.165.037.337.037.337.043.146.15.222.211.305.069.09.174.242.204.328.036.108.022.312.022.312v.004c.402-.464.777-.951 1.132-1.454l-.006-.015s-.002-.203-.05-.306zm1.199-2.023a1.597 1.597 0 00-.273-.277c-.078-.069-.2-.119-.277-.247 0 0-.083-.162-.11-.324-.25.533-.528 1.049-.828 1.544l.013-.01c.009.163.08.335.08.335.065.13.18.196.253.27.078.082.2.216.243.3.05.098.063.304.063.304l-.001.002c.335-.508.647-1.04.933-1.588l-.005-.01s-.033-.204-.091-.3zm.987-2.15a1.67 1.67 0 00-.286-.263c-.083-.058-.207-.106-.29-.23 0 0-.095-.153-.13-.315a16.545 16.545 0 01-.736 1.59l.013-.01c.02.166.1.325.1.325.07.131.188.19.265.257.087.078.215.203.262.285.056.097.082.303.082.303.303-.529.584-1.074.836-1.638l-.006-.014s-.045-.199-.11-.29zm.731-2.014s-.081-.188-.165-.264a1.637 1.637 0 00-.334-.197c-.093-.045-.226-.063-.33-.168 0 0-.126-.13-.19-.284a16.98 16.98 0 01-.399 1.708l.01-.014c.05.157.162.299.162.299.096.115.225.144.314.196.098.062.248.159.31.231.076.078.14.266.143.274.191-.577.357-1.167.49-1.77l-.01-.011zm.166-2.591a1.505 1.505 0 00-.355-.15c-.101-.032-.233-.037-.352-.124 0 0-.144-.116-.224-.259-.032.59-.087 1.17-.177 1.742l.01-.013c.073.148.198.277.198.277.113.098.244.113.338.155.107.046.27.123.342.185.082.073.176.256.176.256v.004c.113-.6.2-1.208.254-1.824l-.013-.009s-.105-.175-.197-.24zm.252-2.14s-.13-.16-.23-.213a1.692 1.692 0 00-.37-.102c-.106-.018-.234-.002-.364-.076 0 0-.155-.095-.258-.226.05.588.066 1.17.055 1.75l.006-.013c.09.137.234.245.234.245.124.084.254.082.355.11.113.032.282.089.363.142.092.062.206.23.206.23v.003c.037-.61.042-1.224.016-1.84l-.013-.01zm-.894-2.597c-.105-.01-.233.024-.372-.03 0 0-.167-.075-.286-.19.128.576.22 1.152.286 1.727l.002-.016c.108.126.267.217.267.217.13.066.26.048.364.06.114.02.294.05.378.093.098.046.223.186.233.198a18.31 18.31 0 00-.223-1.821l-.014-.005s-.147-.142-.254-.18a1.52 1.52 0 00-.38-.053zm-.592-2.227c-.105.007-.226.055-.372.019 0 0-.173-.052-.308-.154.198.554.37 1.113.51 1.678v-.017c.125.11.294.18.294.18.139.05.264.014.368.014.114.002.295.011.388.04.104.034.257.171.26.173-.124-.596-.28-1.19-.465-1.78l-.013-.005s-.167-.121-.276-.145a1.51 1.51 0 00-.386-.003zm-.876-2.133c-.104.023-.217.087-.367.071 0 0-.18-.03-.322-.112.27.523.51 1.055.724 1.595v-.015c.134.094.31.14.31.14.147.03.265-.022.369-.032.116-.017.297-.028.388-.012.108.02.275.133.279.136a17.16 17.16 0 00-.691-1.704l-.013-.003s-.184-.1-.293-.11a1.666 1.666 0 00-.384.046zm-1.15-1.998c-.098.036-.202.115-.35.117 0 0-.183-.006-.337-.068.337.483.643.98.923 1.49v-.017c.148.077.33.096.33.096.147.015.26-.053.363-.08.106-.027.286-.066.378-.062.113.008.297.099.297.099l.002.002a18.161 18.161 0 00-.91-1.601l-.012-.002s-.195-.073-.303-.068a1.662 1.662 0 00-.38.094zm-1.731-1.667s-.18.016-.34-.025c.396.438.765.89 1.113 1.356l-.007-.017c.156.056.336.053.336.053.152-.007.25-.087.348-.125.105-.043.28-.103.376-.11.109-.01.296.055.302.057-.34-.505-.711-.993-1.108-1.466h-.015s-.2-.051-.311-.029c-.09.015-.258.09-.36.142-.093.048-.186.14-.334.164zM29.562 5.2s-.175.042-.34.024c.452.378.877.78 1.278 1.2l-.006-.02c.163.036.34.012.34.012.148-.027.242-.122.33-.172.1-.055.263-.139.353-.157.107-.023.303.016.31.018a17.217 17.217 0 00-1.29-1.311l-.013.002s-.205-.02-.315.012c-.09.027-.242.125-.337.19-.083.06-.162.162-.31.202zM27.77 3.834s-.17.064-.337.064c.496.32.971.66 1.425 1.024l-.011-.015c.166.012.343-.036.343-.036.141-.047.217-.15.301-.214.091-.07.242-.172.33-.201.105-.036.302-.024.31-.024a18.374 18.374 0 00-1.448-1.13l-.013.007s-.208.005-.311.051a1.658 1.658 0 00-.308.233c-.079.067-.145.18-.281.24zm-1.96-1.123s-.162.085-.324.108a16.8 16.8 0 011.544.828l-.009-.016c.168-.005.333-.075.333-.075.136-.063.197-.178.271-.253.083-.081.217-.201.302-.243.1-.049.3-.064.305-.064-.51-.335-1.04-.647-1.588-.931l-.013.007s-.204.031-.297.091c-.08.051-.201.183-.274.269-.071.08-.12.2-.25.279zm-2.088-.86s-.146.107-.308.153c.561.178 1.11.385 1.64.62l-.011-.016c.162-.027.32-.118.32-.118.126-.08.17-.204.236-.286a1.65 1.65 0 01.267-.28c.091-.064.287-.102.292-.104a18.034 18.034 0 00-1.693-.715l-.012.006s-.197.058-.284.13c-.071.06-.175.209-.24.306-.055.087-.09.214-.207.304zm-2.468-.387c.577.104 1.15.238 1.71.402l-.018-.012c.159-.052.3-.163.3-.163.119-.096.148-.224.202-.312.058-.1.157-.252.226-.314.08-.07.257-.134.274-.14a16.933 16.933 0 00-1.77-.488l-.01.008s-.19.082-.265.165c-.063.07-.147.232-.196.336-.048.091-.065.221-.17.327 0 0-.132.127-.283.191zm-2.214-.251c.589.026 1.173.087 1.747.17l-.017-.006c.15-.073.278-.2.278-.2.103-.11.113-.24.157-.335.045-.11.124-.272.183-.34.074-.086.26-.176.26-.176h.002c-.6-.117-1.21-.198-1.827-.254l-.01.01s-.176.107-.24.2a1.721 1.721 0 00-.15.353c-.032.1-.034.231-.122.35 0 0-.118.141-.261.228zm-3.664 36.706c.015 0 .4.013.685.155 0 0 .843-.875.931-.84-.881-.339-2.077-.435-2.742-.176l.168.298.445.615.513-.052z" fill="black" fill-rule="evenodd"></path></svg>